<?xml version="1.0" encoding="UTF-8"?><svg xmlns="http://www.w3.org/2000/svg" viewBox="0 0 340.66 369.44"><defs><style>.uuid-32974c63-d9bd-450f-a7a5-a781d42d7dbb{fill:#c3c3c3;}.uuid-2d924c4f-9582-41cd-954c-391aa4ed220f,.uuid-16bbfa09-6a54-48c1-ace4-a6bb48f8fc36,.uuid-323e446d-3a9c-4dcd-bf19-88e8f48760b6{fill:#fff;}.uuid-5fbc7219-72c8-4984-a2c9-83281d308384{fill:#9d9d9d;}.uuid-d2b88969-38b1-47c5-ae1e-e095180aecd5{fill:#e0e0e0;}.uuid-e6e9f327-511d-4878-be3b-57bd0bf110e4{fill:silver;}.uuid-1cd297f9-8655-4e0f-bca7-45a45ec6ff17{fill:#d3d3d3;}.uuid-16bbfa09-6a54-48c1-ace4-a6bb48f8fc36,.uuid-67f2eaa5-9742-489c-951f-e828a3898c09{stroke:#000;}.uuid-16bbfa09-6a54-48c1-ace4-a6bb48f8fc36,.uuid-67f2eaa5-9742-489c-951f-e828a3898c09,.uuid-1a90ac76-dfa6-49dc-a67e-213f6703671e{stroke-width:2px;}.uuid-16bbfa09-6a54-48c1-ace4-a6bb48f8fc36,.uuid-67f2eaa5-9742-489c-951f-e828a3898c09,.uuid-1a90ac76-dfa6-49dc-a67e-213f6703671e,.uuid-323e446d-3a9c-4dcd-bf19-88e8f48760b6{stroke-miterlimit:10;}.uuid-67f2eaa5-9742-489c-951f-e828a3898c09{fill:none;}.uuid-fbad1b1a-a4d5-40b8-99b4-2654ba505efe{fill:#9e9e9e;}.uuid-713d6eab-e065-4a5d-aaa0-fe6ddaf2899f{fill:#c2c2c2;}.uuid-50ed63e3-db8f-4e35-af06-5cc972cb537b,.uuid-1a90ac76-dfa6-49dc-a67e-213f6703671e{fill:#666;}.uuid-a660fe10-3ff7-4d23-b9ee-38d28dee10ef{fill:#bebebe;}.uuid-e238134f-1818-408b-a9e4-d98ed0ae6b59{fill:#d2d2d2;}.uuid-340eaebf-3d6a-4004-b937-c7c4b0d91867{fill:#ccc;}.uuid-f75947f7-f4f7-4580-94ca-06f0a9b739e0{fill:#bfbfbf;}.uuid-1a90ac76-dfa6-49dc-a67e-213f6703671e{stroke:#4d4d4d;}.uuid-323e446d-3a9c-4dcd-bf19-88e8f48760b6{stroke:gray;stroke-width:.25px;}</style></defs><g id="uuid-ebc82ed7-6716-4449-b758-0b3194a299bb"><path class="uuid-67f2eaa5-9742-489c-951f-e828a3898c09" d="M339.66,111.63V32.16v.78c0-17.21-75.49-31.94-169.33-31.94S1,14.17,1,31.38v79.47"/><path class="uuid-340eaebf-3d6a-4004-b937-c7c4b0d91867" d="M339.66,111.63V32.16v.78c0-17.21-75.49-31.94-169.33-31.94S1,14.17,1,31.38v79.47"/><path class="uuid-2d924c4f-9582-41cd-954c-391aa4ed220f" d="M170.33,141.79c-45.33,0-87.93-3.24-119.97-9.11C19.25,126.98,1.41,119.3,1.41,111.63s17.84-15.35,48.95-21.05c32.04-5.88,74.64-9.11,119.97-9.11s87.93,3.24,119.97,9.11c31.11,5.71,48.95,13.38,48.95,21.05s-17.84,15.35-48.95,21.05c-32.04,5.88-74.64,9.11-119.97,9.11Z"/><path class="uuid-50ed63e3-db8f-4e35-af06-5cc972cb537b" d="M170.33,82.47c45.27,0,87.81,3.23,119.79,9.09,35.48,6.51,48.13,14.63,48.13,20.07s-12.64,13.56-48.13,20.07c-31.98,5.86-74.52,9.09-119.79,9.09s-87.81-3.23-119.79-9.09C15.06,125.19,2.41,117.06,2.41,111.63s12.64-13.56,48.13-20.07c31.98-5.86,74.52-9.09,119.79-9.09M170.33,80.47C76.49,80.47.41,94.42.41,111.63s76.07,31.16,169.92,31.16,169.92-13.95,169.92-31.16-76.07-31.16-169.92-31.16h0Z"/><path class="uuid-323e446d-3a9c-4dcd-bf19-88e8f48760b6" d="M340.25,111.63c0-17.21-76.07-31.16-169.92-31.16S.41,94.42.41,111.63"/><ellipse class="uuid-1a90ac76-dfa6-49dc-a67e-213f6703671e" cx="170.33" cy="109.29" rx="97.85" ry="16.36"/><path class="uuid-16bbfa09-6a54-48c1-ace4-a6bb48f8fc36" d="M232.83,96.57c-16.93-2.34-38.81-3.57-62.5-3.57s-45.86,1.17-62.89,3.57h0v271.87h125.39V96.57Z"/></g><g id="uuid-2f3f6811-1067-4d55-ba6f-ca6cf7290ef2"><g id="uuid-e5efae1f-79ea-474e-b0bd-71562f6a8093"><path class="uuid-5fbc7219-72c8-4984-a2c9-83281d308384" d="M146.37,287.05c-.73-3.56-2.33-9.03-2.37-12.53-.06-5.54,1.13-11.06.48-16.96-.61-5.55-4.9-18.3-3.64-23.02.22-.82,1.26-1.66,1.64-2.6,1.06-2.61,2.6-14.27,1.8-16.66-.38-1.14-1.59-1.28-1.69-1.72-.25-1.08.36-3.01-.42-4.08-.1-.14-2.92-1.71-3.1-1.73-.41-.04-3.2.52-3.52.72-1.08.68-4.62,11.11-5.66,12.97-1.1-.43-.96-2.82-2.19-3.24-1.54-.52-3.04.39-3.03,2.09.51,1.45,1.36,2.29,1.71,3.97.5,2.37.25,4.63,1.53,6.96.78,1.42,3.04,2.37,3.16,3.67.15,1.56.18,4.34.25,6.13.3,7.45-1.36,13.89-1.43,20.79-.1,10.04,3.82,22.64,4.7,33.05.37,4.36-.25,7.97.7,12.52,3.22,15.48,14.46,11.42,24.4,18.47,1.57,1.12,1.97,2.02,2.2,3.93.3,2.61-.37,6.43-1.69,8.71-.39.68-1.58,1.26-2.3,2.86-1.07,2.35-2.69,8.2.73,8.78-.27,3.54.05,7.47,2.32,10.33,4.44,5.61,15.38,5.69,19.96.2,2.38-2.86,2.85-6.92,2.59-10.53l1.86-1.05c.59-1.64-.4-6.44-1.26-8.07-1-1.9-4.04-5.28-4.7-7.55-.71-2.44-.14-6.12,2.09-7.62,8.83-5.91,20.13-3.9,23.93-16.11,1.83-5.87,1-12.83,1.69-19.07,1.08-9.73,4.64-20.99,4.17-30.74-.16-3.42-1.25-7.36-1.43-10.84s-.09-11.07.5-14.17c.28-1.45,2.41-2.46,3.17-3.9,1.28-2.41,1.04-5.38,1.62-7.81.27-1.16,2.22-2.96,1.24-4.52-.21-.33-1.87-.62-2.41-.47-1.49.39-1.63,2.52-2.69,3.23-.96-2.22-4.3-12.39-5.99-13.11-.51-.22-2.51-.53-3.11-.48-.17.02-2.79,1.65-2.92,1.76-1.3,1.11-.38,2.71-.68,3.95-.12.48-1.13.44-1.35,1.09-.85,2.44.24,14.67,1.55,17.2.53,1.03,1.85,1.98,2.05,2.66.9,2.95-3.76,19.7-4.13,24.46-.44,5.48.26,11.04.45,16.51l-2.34,12.04c1.37-6.63-4.17-14.55-4.28-20.54-.19-10.94,5.04-25.88,5.21-37.29l-.93-12.98v2.36c-.77.55-.93,1.8-.47,3.78l-.96,1.47.02,13.63-1.02.61c-1.81,9.17-3.46,19.5-3.56,28.73l.81.87c-.56.46-.93.99-.65,1.66,2.5,5.82,3.97,11.74,4.38,17.76.75.89.75,1.98.02,3.27l.49,4.22c-1,3.38,5.02,4.51,2.33-.05.85-6.82,1.91-13.63,3.2-20.42-1.95-11.48.05-21.45,2.54-32.53l.79-5.89c.35-2.31-.46-3.5-2.15-4.9-.89-1.7-2.32-14.5-1.4-15.38,1.72.02,2.12-1.43,1.21-4.34,1.08,1.19,2.45.44,2.26-1.09.55.95,1.14,1.5,2.25.94l5.27,11.58c1.65,2.21,3.04.6,3.49-1.59.06,3.91-1.26,9.13-4.56,11.51-1.79,8.95-1.33,18.47.19,27.52-.46,9.33-1.75,18.64-3.89,27.94l-1.11,16.82c-.64,5.93-3.7,11.12-9.56,13.07l-9.85,3.43c-3.9,1.75-7.73,3.69-7.53,8.51-4.19-4.09-9.71-3.32-13.56.79.63-5.48-3.58-7.57-7.87-9.46l-10.64-3.81c-5.94-2.38-8.26-8.27-8.6-14.35.33-10.02-1.49-19.98-3.51-29.86-1-9.64-.98-19.32.06-29.04.3-3.91.02-7.62-.84-11.14-3.17-2.82-4.71-6.66-4.62-11.51.78,2.21,2.59,3.71,3.81.91,1.24-4.01,2.88-7.83,4.92-11.46,1.07.46,1.94.16,2.29-.91,1.43.98,2.13,2.54,2.11,4.67.82.5.97.63,1.35,1.28.57.99-.75,13.29-1.54,14.88-2.42,2.56-2.93,5.89-1.54,10.01l3.39,17.85c-.14,5.84-.26,11.68-.35,17.52,1.39,6.46,2.32,12.93,2.8,19.39.63,1.96,3.43,1.48,2.25-.43,1.02-.84.06-7.97-.32-8.24-.17-.13-.39-.2-.62-.25Z"/><path class="uuid-fbad1b1a-a4d5-40b8-99b4-2654ba505efe" d="M146.37,282.8c.14,1.27.86,1.16,1.69.22.42-.48,3.32-10.76,3.61-12.29.64-3.41,1.24-7.45-.59-10.58.2-.38.38-.77.5-1.17.46-1.59-2.11-16.97-3.04-18.59-.21-.36-.47-.69-.76-1.01l.62-3.09c-1.54-14.87.25-29.71,2.48-44.41l-.28-1.59c1.33-.61,1.46-1.28.47-2.36,3.47-6.61,4.85-14.88,4.05-22.44-2.2-10.46-2.24-20.65-.12-30.57,2.79-7.28,4.75-14.74,5.89-22.36.27-5.7-.28-6.85-4.92-9.67l.82-.98c-.68-2.56,4.03-2.13,5.74-1.05,4.85-2.6,6.13,1.14,3.83,11.21l.7,1.27c-1.42-.18-2.95,3.92-1.41,4.48-.37.08-.86.24-.9.54-.18,1.57-.09,6.18.9,7.01-1.46.43-.84,3.17.47,3.54-.51,1.58-.63,3.24-.61,4.88,1.41,8.58,1.09,16.62.08,25.04l.53,1.23c-.5.51-.83,1.11-.98,1.8.78,19.25,2.16,38.45,4.14,57.6,2.63,1.26,2.87-1.14,2.07-3.13.95-1.42,1.19-3.15.71-5.19l.18-1.99.85-1.32c.67-14.91,1.81-29.76,3.42-44.54-1.17-6.97-1.7-13.96-1.57-20.98,1.44-8.71,1.85-17.35,1.25-25.94-1.52-3.36-3.31-13.12-1.45-16.12.05-.08,1.96-.21,1.98-.11-2.39,4.16,1.9,2.68,3.21-.15.6-.18,10.49.13,6.67,1.91l-5.5,4.17c-.77,1.01-1.4,2.53.07,3.01-.8,3.11-.4,7.19.37,10.38,1.26,5.21,3.22,11.51,4.98,16.59l1.24,1.36c-.48,2.16-.16,3.5.94,4.01-.23.05-.44.11-.63.22-.49.3-.5,10.2-.31,11.37l.94.68c-1.55.34-1.6,2.56-.47,3.54l-1.02,1.2c-1.92,12.01-.12,22.84,3.52,34.55l1.44,10.43.77,1.02,1.08,13.27.8,1.36c0-.79,0-1.57,0-2.36,0-12.69-2.44-22.32-5.04-34.36-3.44-15.97,1.79-29.54-.66-44.65-.99-6.13-4.47-12.9-5.93-19.07-.53-2.23-1.74-9.15-.85-10.96.69-1.41,6.26-3.94,6.73-5.52.84-2.81.03-2.44-1.25-3.25-.47-.3-1.15-1.14-1.24-1.14h-12.94c-.09,0-.96,1.53-.97,1.63-.33,2.55-.23,9.17.01,11.84.23,2.48,1.58,4.45,1.86,6.63,1.34,10.16-2.5,22.56-1.86,32.55.24,3.8,1.97,8.58,1.92,12.23-.02,1.52-.82,3.59-.95,5.22-.75,9.46-.83,18.88-1.4,28.34-.37,6.2-1.47,12.39-1.44,18.62l-1.4-12.98c.79-12.86-2.41-26.69-2.63-39.17-.06-3.68,1.39-7.71,1.67-11.33.76-9.87-2.36-21.81-1.9-32.1.14-3.12,1.98-5.46,2.33-8.05.29-2.12.35-8.74.01-10.79-.26-1.58-.97-2.44-2.54-2.65-1.85-.25-9.59-.28-11.29.04-.44.08-3.05,1.52-3.1,1.71-1.12,4.49,5.67,5.6,6.84,8.19.45,1,.37,5.08.26,6.38-.54,6.37-4.49,13.66-6,19.94-3.94,16.41,2.11,31.78-1.68,48.82-3.57,16.06-6.62,33.5-5.5,50.17.7,10.42,4.75,23.48,4.73,33.52,0,5.21-3.53,11.25-4.26,16.29Z"/><path class="uuid-f75947f7-f4f7-4580-94ca-06f0a9b739e0" d="M147.31,295.55l1,.5c5.9-5.92,12.13-4.88,19.69-2.63,1.26-.1,1.28-1.23.67-2.28-4.07-6.14-11.88-4.85-18.12-3.77l-.09-2.69c1.74-6.5,3.36-12.99,4.87-19.46,2.24-2.07.97-4.7-1.36-2.23-.52-2.43-1.48-3.38-2.89-2.84.98,9.64-.98,12.47-3.64,21.16-.24.8.33,1.79-1.07,1.5-.18,1.24.04,2.91,0,4.25-.08,2.88.06,2.11.45,4.51.21,1.28-.47,2.99.49,3.99Z"/><path class="uuid-1cd297f9-8655-4e0f-bca7-45a45ec6ff17" d="M147.31,295.55c-.16.09-.93,1.81-1.35.17-.46-1.8-.28-5.35-.59-7.43-.59-3.98-1.94-8.49-2.23-12.39-.39-5.28.88-11.34.4-16.93-.35-4.09-4.98-22.66-3.99-24.78.36-.78,1.64-1.51,2.22-2.98.98-2.48,1.84-13.56,1.34-16.13l-1.48-.52-.19-4.01h-1.64c0-.64-.24-2.08-1.2-1.86l-1.19,2.35-.47-1.88c-3.22,3.67-4.74,9.55-6.59,14.16-1.33,1.02-1.96-5.17-4.24-3.53,1.58,3.19.92,7.85,2.47,10.74.77,1.43,3.39,2.96,3.53,4.41.11,1.19.09,3.62.15,5.12.44,10.75-1.77,19.76-.42,30.63.94,7.58,3.12,15.08,3.69,22.73.49,6.66-.72,11.55,2.13,18.16,4.06,9.44,15.75,7.91,23.05,13.7,2.91,2.31,2.04,4.69,2.12,8.02l4.08-3.69c4.51-2.54,8.72-.74,11.44,3.22.04-2.45-.45-4.91,1.39-6.87,3.28-3.48,11.36-5.25,15.67-6.93,12.35-4.82,9.65-18.11,10.76-28.86.92-8.89,4.06-18.63,4.17-27.45.06-4.29-1.22-8.93-1.43-13.19-.25-5.07.59-10.05.5-15.11.29-1.5,2.74-2.69,3.52-4.49,1.24-2.89,1.24-7.26,2.11-10.38-1.96-.37-2.51,1.99-2.83,3.5l-.94.05-6.35-13.93-.7,1.88-1.65-2.36-.99.97.29,1.86c-.78-.12-1.1-2.55-2.13-.96-.8,1.25.42,3.32.25,4.74-2.67-1.63-1.96,4.02-1.87,5.89.09,2.07.82,9.1,1.68,10.59.45.77,1.55,1.3,1.83,1.93,1.24,2.7-3.61,21.54-3.98,26.2-.4,5.05.88,9.8.83,14.16-.06,6.03-3.36,14.35-3.22,20.79.03,1.26,1,1.47.96,2.57-1.05-.28-1.71-1.85-2.35-2.36.76-1.25-3.3-3.55-4.55-4.04-4.9-1.94-8.28-1.41-13.36,0,1.14-1.06,2.39-2.02,3.8-2.67,9.79-2.32,13.1-4.98,9.07-15.04l-3.62-7.31c1.64,2.03,3.12,2.76,4.43,2.17-.78-5.86,2.99-22.95,3.76-30.21-.2-10.96-.49-22.08-1.13-33.12-.25-4.25-1.58-16.71-4.33-20.09s-8.36-3.26-8.26,2.02c-.66.28-1.11.68-1.38,1.21l-.48-7.31c-1.62-5.28-1.29-9.78.99-13.5,4.72-3.49,6.22-4.84,5.53-11.15-1.93-9.06-2.51-18.35-1.74-27.89-1.25-6.5-1.73-12.84-1.44-19.03.18-.48-.16-1.15.44-2.14.83-1.38,8.42-5.33,7.08-6.82-2.96-1.22-5.93-.75-9.08-.96l-3.15,3.31,1.87-3.3-3.93.06-.7.71c-.27,3.11-.84,6.18-.49,9.32s2.05,5.87,2.32,9c.87,9.98-1.85,20.25-1.8,29.75.02,4.66,1.83,10.01,1.83,14.63,0,5.72-1.88,12.95-1.92,18.89.68,8.49-2.15,19.47-1.42,27.61-.16,4.56.76,9.09,2.77,13.61l.86,3.5c-4.22.48-8.32,1.99-12.32,4.54,1.04-5.9,2.18-11.79,3.41-17.68.93-5.73,1.14-28.27-2.57-32.07-4.75-4.87-5.87,8.59-2.5,10.16,1.64,2.96-2.04,1.82-3.9,1.07-.41-.06-.82-.03-1.19.17-.53.28-4.97,8.99-3.2,9.97-1.93-.89.2-6.93,1.93-8.47l.86-6.24c-.33-3.2-.08-6.33.18-9.5-1.39-1.04-2.39-.25-2.99,2.39-.19,2.73-1.03,5.17-2.51,7.32-.17.79-.31,1.57-.47,2.36l.33,1.11c-3.18,16.67-1.27,33.56,2.44,49.92-2.41,1.4-3.02-.59-3.23-2.73-1.37-1.34-2.22-1.01-2.37.79.81,6.94,2.59,13.82,3.29,20.77,1.73.86,1.82,3.11,2.36,4.72.58.46,2.2-3.58,2.34-1.66-2.66,2.56-1.88,4.55-2.47,7.44-1.19,5.83-4.72,11.36-3.64,17.82,6.56-1.04,15.19-3.05,18.82,4.24-4.22-1.3-8.91-2.55-13.38-1.85-2.62.41-5.44,3.34-7.79,4.69Z"/><path class="uuid-1cd297f9-8655-4e0f-bca7-45a45ec6ff17" d="M166.94,363.41c7.32,1.33,14.86-1.38,15.59-9.62.25-2.82-1.49-15.67-2.67-17.97-.33-.64-3.74-4.55-4.36-5.07-2.34-1.95-5.83-2.13-8.42-.48-.63.4-4.42,4.81-4.82,5.55-1.42,2.62-3.04,15.31-2.72,18.5.4,3.98,3.25,8.35,7.4,9.1Z"/><path class="uuid-e6e9f327-511d-4878-be3b-57bd0bf110e4" d="M194.36,222.86c-.44-6.1-.91-12.23-1.41-18.41-1.16-8.9-2.53-16.21-4.56-24.92s-.65-13.87-.14-22.28l-2-4.49c1.22-5.03,1.73-10.14,1.53-15.34-1.4-7.6-5-14.5-6.07-22-.29-2.05,0-4.27-.52-6.32-.02.05-.68.22-.83.8-1.18,4.5,1.03,12.29,1.3,17.38.32,6.17-.44,12.76.01,18.87.34,4.53,2.43,9.69,1.88,14.18-.43,3.6-4.59,4.63-6.34,7.33-2.43,3.74-.62,9.26-.26,13.43.29,3.35.44,6.78.48,10.14l2.35-3.77c.34,1.13-1.29,3.54,0,4.24l1.4-7.69c7.54-3.34,9.32,8.9,9.89,14.07,1.15,10.31.84,21.23,1.42,31.62.14,2.59.54,5.68.94,8.27.57-5.35.89-9.53.94-15.1Z"/><path class="uuid-713d6eab-e065-4a5d-aaa0-fe6ddaf2899f" d="M193.89,295.08c1.76-.83.18-2.78.48-4.45.15-.83,1.07-1.43.96-2.36-.03-.26-.88-.21-.96-.57-.4-1.77-.18-4.56-.69-6.78-.91-3.97-3.47-8.59-4.02-12.73-1.9-.49-2.71-2.46-4.46-3.32-.55-.27-1.07-.6-1.19.27-.2,1.51,5.84,10.08,5.62,14.56-.36,7.22-5.95,5.75-10.47,7.94-2.14,1.04-4.55,3.19-5.96,5.1,4.38-1.03,8.77-2.58,13.38-1.85,1.42.22,6.05,3.21,7.32,4.22Z"/><path class="uuid-a660fe10-3ff7-4d23-b9ee-38d28dee10ef" d="M194.83,219.08c-.59-4.77-1.25-9.79-1.88-14.63l.46,16.29.95,2.11c0-.1.64-.72.49-1.16l-.02-2.62Z"/><path class="uuid-32974c63-d9bd-450f-a7a5-a781d42d7dbb" d="M172.25,209.17c-1.08,1.54-.56,4.24-.95,5.81-.09.38-.88.3-.95.64-.21,1.11,1.56,3.79-.45,3.46.02-6.24-.99-12.44-1.41-18.65-.82-12.3-2.76-28.48-2.36-40.35-2.17-10.22-2.17-20.6,0-31.15-.05-1.21-.47-2.93-.47-3.54v-7.55c0-.94,1.16-3.3,1.41-4.48-1.58-4.66-4.99,1.13-4.24,4.04.73,4.07.46,8.18-.48,12.34-4.24,17.24-5.31,35.24-6.14,53.04l.52,3.83c-.84,2.08-2.38,7.6.66,4.65,1.21,2.12,6.91,3.22,4.5-.02-1.07-3.43-1.45-7,.03-10.36,1.24-.81,2.29,1.74,2.69,2.67,2.58,6.09,2.22,21.81,1.51,28.68s-3.12,12.95-3.76,19.59c1.25,1.25,11.05-6.39,13.62-4.44l.96-.53c-.87-5.55-4.21-12.25-4.7-17.68Z"/><path class="uuid-1cd297f9-8655-4e0f-bca7-45a45ec6ff17" d="M151.07,187.93c2.85-.91,2.92-4.6,3.1-7.13l1.6-2.78c.23,1.7-.5,3.28-.51,4.95-.01,3.07.58,6.43-.24,9.72-.36,1.43-1.61,2.23-2.11,3.46-.86,2.11-2.27,9.69,1.92,6.63-2.23-3.63,1.69-6.03,2.37-9.66l5.63.94c.74-1.53-.9-2.68-.94-2.83-.16.58,1.15,1.51-.21,1.4-2.61-.2-3.17-1.13-4.25-3.28-.69,0-1.41,3.76-1.63,1.67.2-1.48,1.73-2.9,1.86-4.32.11-1.22-.56-2.69-.5-4.21.44-11.51,1.48-24.76,2.92-36.28.92-7.38,3.87-16.68,4.17-23.67.15-3.41-1.83-7.47,1.19-10.13l1.64.94c.8-3.76,1.47-8.19.96-12.06-.35-2.67-4.29-3.04-5.43-1.16-1.52-1.74-4.27-.68-6.35-.94l.24,1.41-1.65-1.41,1.17,3.31-3.05-2.36c-1.54,1.84,6.09,5.37,6.81,7.09,1.7,13.14-6.49,23.39-7.3,36.55-.61,9.87,2.27,19.04,1.92,28.36-.2,5.36-2.18,10.55-3.31,15.79Z"/><path class="uuid-d2b88969-38b1-47c5-ae1e-e095180aecd5" d="M147.78,239.38l1.41-.94c.36,3.57,1.52,5.45,5.21,3.49-.44-3.05-1.39-5.94-1.85-8.99-1.01-6.79-2.32-16.33-2.41-23.06-.08-5.66.99-11.89,1.3-17.61.05-.91.32-1.6-.83-1.97-3.38,16.24-4.76,32.54-2.82,49.09Z"/><path class="uuid-1cd297f9-8655-4e0f-bca7-45a45ec6ff17" d="M166.13,128.93c-1.35,1.7-1.58,4.74-1.82,6.9-.77,6.88-1.61,15.48.43,22.1.27.87.41,1.76,1.39,2.15.14-4.16,1.44-8.13,1.44-12.04,0-5.84-1.19-12.88-1.44-19.12Z"/><path class="uuid-e238134f-1818-408b-a9e4-d98ed0ae6b59" d="M188.24,157.25c.07-1.12.47-2.97.47-3.54v-12.27c0-.6-.76-3.05-.94-4.01-1.13,2.31-.63,5.36-1,7.73-.63,4.15-3.69,9.36,1.47,12.09Z"/><path class="uuid-5fbc7219-72c8-4984-a2c9-83281d308384" d="M158.25,351.27s2-1,8,2l8,4s1-4,3-5,6.64-2.71,6.64-2.71c0,0,.36,6.71-.64,8.71s-4.95,6.31-11.98,6.31-13.02-2.31-13.02-13.31Z"/></g></g></svg>