<?xml version="1.0" encoding="UTF-8"?><svg xmlns="http://www.w3.org/2000/svg" viewBox="0 0 340.66 369.44"><defs><style>.uuid-926f0cf8-256a-48d6-b9d6-9e6d588bc371{fill:#c3c3c3;}.uuid-bbb4ff58-2c28-4ecb-8c6e-26e25d7e283a,.uuid-d575f243-a4ba-4d47-a8d3-5a34986aba6a,.uuid-38f94c93-ace0-4ff9-813b-89449525d00e{fill:#fff;}.uuid-af1d3d11-0ab8-4630-b49e-cc44006e479e{fill:#9d9d9d;}.uuid-4b24e60e-fbe3-4171-a176-7f208bdc52a1{fill:#e0e0e0;}.uuid-2fb6fc13-6eeb-4428-9c89-1c38e4add1e6{fill:#d3d3d3;}.uuid-d575f243-a4ba-4d47-a8d3-5a34986aba6a,.uuid-aa29da33-1146-4418-ab8a-39f227de5df8{stroke:#000;}.uuid-d575f243-a4ba-4d47-a8d3-5a34986aba6a,.uuid-aa29da33-1146-4418-ab8a-39f227de5df8,.uuid-22db2345-060c-46e3-bb05-0cf0d23980ba{stroke-width:2px;}.uuid-d575f243-a4ba-4d47-a8d3-5a34986aba6a,.uuid-aa29da33-1146-4418-ab8a-39f227de5df8,.uuid-22db2345-060c-46e3-bb05-0cf0d23980ba,.uuid-38f94c93-ace0-4ff9-813b-89449525d00e{stroke-miterlimit:10;}.uuid-aa29da33-1146-4418-ab8a-39f227de5df8{fill:none;}.uuid-da0013a4-6cf2-43e5-aa11-48f6b06b7354{fill:#9e9e9e;}.uuid-debcace3-9f95-4384-a0d2-7ad4a284f1c8,.uuid-22db2345-060c-46e3-bb05-0cf0d23980ba{fill:#666;}.uuid-d67e0454-91ce-4b08-bd2b-7f8b1dfe3624{fill:#bebebe;}.uuid-9f246f04-ba95-4aba-9a64-d055631a5a80{fill:#d2d2d2;}.uuid-308d2f5b-4759-4868-b36f-fe263bae9ae4{fill:#ccc;}.uuid-22db2345-060c-46e3-bb05-0cf0d23980ba{stroke:#4d4d4d;}.uuid-38f94c93-ace0-4ff9-813b-89449525d00e{stroke:gray;stroke-width:.25px;}</style></defs><g id="uuid-ad72bba3-4993-40cd-89e1-f6950cd1ca58"><path class="uuid-aa29da33-1146-4418-ab8a-39f227de5df8" d="M339.66,111.63V32.16v.78c0-17.21-75.49-31.94-169.33-31.94S1,14.17,1,31.38v79.47"/><path class="uuid-308d2f5b-4759-4868-b36f-fe263bae9ae4" d="M339.66,111.63V32.16v.78c0-17.21-75.49-31.94-169.33-31.94S1,14.17,1,31.38v79.47"/><path class="uuid-bbb4ff58-2c28-4ecb-8c6e-26e25d7e283a" d="M170.33,141.79c-45.33,0-87.93-3.24-119.97-9.11C19.25,126.98,1.41,119.3,1.41,111.63s17.84-15.35,48.95-21.05c32.04-5.88,74.64-9.11,119.97-9.11s87.93,3.24,119.97,9.11c31.11,5.71,48.95,13.38,48.95,21.05s-17.84,15.35-48.95,21.05c-32.04,5.88-74.64,9.11-119.97,9.11Z"/><path class="uuid-debcace3-9f95-4384-a0d2-7ad4a284f1c8" d="M170.33,82.47c45.27,0,87.81,3.23,119.79,9.09,35.48,6.51,48.13,14.63,48.13,20.07s-12.64,13.56-48.13,20.07c-31.98,5.86-74.52,9.09-119.79,9.09s-87.81-3.23-119.79-9.09C15.06,125.19,2.41,117.06,2.41,111.63s12.64-13.56,48.13-20.07c31.98-5.86,74.52-9.09,119.79-9.09M170.33,80.47C76.49,80.47.41,94.42.41,111.63s76.07,31.16,169.92,31.16,169.92-13.95,169.92-31.16-76.07-31.16-169.92-31.16h0Z"/><path class="uuid-38f94c93-ace0-4ff9-813b-89449525d00e" d="M340.25,111.63c0-17.21-76.07-31.16-169.92-31.16S.41,94.42.41,111.63"/><ellipse class="uuid-22db2345-060c-46e3-bb05-0cf0d23980ba" cx="170.33" cy="109.29" rx="97.85" ry="16.36"/><path class="uuid-d575f243-a4ba-4d47-a8d3-5a34986aba6a" d="M232.83,96.57c-16.93-2.34-38.81-3.57-62.5-3.57s-45.86,1.17-62.89,3.57h0v271.87h125.39V96.57Z"/></g><g id="uuid-2563f307-de53-46ee-b0b8-c93202061c02"><g id="uuid-881511c7-3f39-4e5a-b47c-78d78c516c55"><path class="uuid-af1d3d11-0ab8-4630-b49e-cc44006e479e" d="M131.25,223c1.24-4.01,3.25-8.1,5.29-11.73,1.07.46,1.94.16,2.29-.91,1.43.98,2.13,2.54,2.11,4.67.82.5.97.63,1.35,1.28.57.99-.75,13.29-1.54,14.88-2.42,2.56-2.93,5.89-1.54,10.01l3.39,17.85c-.14,5.84-.26,11.68-.35,17.52,1.39,6.46,2.32,12.93,2.8,19.39.63,1.96,3.43,1.48,2.25-.43,1.02-.84.06-7.97-.32-8.24-.17-.13-.39-.2-.62-.25-.73-3.56-2.33-9.03-2.37-12.53-.06-5.54,1.13-11.06.48-16.96-.61-5.55-4.9-18.3-3.64-23.02.22-.82,1.26-1.66,1.64-2.6,1.06-2.61,2.6-14.27,1.8-16.66-.38-1.14-1.59-1.28-1.69-1.72-.25-1.08.36-3.01-.42-4.08-.1-.14-2.92-1.71-3.1-1.73-.41-.04-3.2.52-3.52.72-1.08.68-4.62,11.11-5.66,12.97l-.65,1.56c0,2,1,3,1,4,0,1.62.71,6.58.84,7.88.15,1.56.18,4.34.25,6.13.3,7.45-1.36,13.89-1.43,20.79-.1,10.04,3.82,22.64,4.7,33.05.37,4.36-.25,7.97.7,12.52,3.22,15.48,14.46,11.42,24.4,18.47,1.57,1.12,1.97,2.02,2.2,3.93.3,2.61-.37,6.43-1.69,8.71-.39.68-1.58,1.26-2.3,2.86-1.07,2.35-2.69,8.2.73,8.78-.27,3.54.05,7.47,2.32,10.33,4.44,5.61,15.38,5.69,19.96.2,2.38-2.86,2.85-6.92,2.59-10.53l1.86-1.05c.59-1.64-.4-6.44-1.26-8.07-1-1.9-4.04-5.28-4.7-7.55-.71-2.44-.14-6.12,2.09-7.62,8.83-5.91,20.13-3.9,23.93-16.11,1.83-5.87,1-12.83,1.69-19.07,1.08-9.73,4.64-20.99,4.17-30.74-.16-3.42-1.25-7.36-1.43-10.84s-.09-11.07.5-14.17c.28-1.45,1.28-3.4,1.88-4.91,2-5-4-15-6.93-21.67-.22-.51-2.51-.53-3.11-.48-.17.02-2.79,1.65-2.92,1.76-1.3,1.11-.38,2.71-.68,3.95-.12.48-1.13.44-1.35,1.09-.85,2.44.24,14.67,1.55,17.2.53,1.03,1.85,1.98,2.05,2.66.9,2.95-3.76,19.7-4.13,24.46-.44,5.48.26,11.04.45,16.51l-2.34,12.04c1.37-6.63-4.17-14.55-4.28-20.54-.19-10.94,5.04-25.88,5.21-37.29l-.93-12.98v2.36c-.77.55-.93,1.8-.47,3.78l-.96,1.47.02,13.63-1.02.61c-1.81,9.17-3.46,19.5-3.56,28.73l.81.87c-.56.46-.93.99-.65,1.66,2.5,5.82,3.97,11.74,4.38,17.76.75.89.75,1.98.02,3.27l.49,4.22c-1,3.38,5.02,4.51,2.33-.05.85-6.82,1.91-13.63,3.2-20.42-1.95-11.48.05-21.45,2.54-32.53l.79-5.89c.35-2.31-.46-3.5-2.15-4.9-.89-1.7-2.32-14.5-1.4-15.38,1.72.02,2.12-1.43,1.21-4.34,1.08,1.19,2.45.44,2.26-1.09.55.95,1.14,1.5,2.25.94l5.27,11.58c1.65,2.21,2.24,7.54-1.06,9.92-1.79,8.95-1.33,18.47.19,27.52-.46,9.33-1.75,18.64-3.89,27.94l-1.11,16.82c-.64,5.93-3.7,11.12-9.56,13.07l-9.85,3.43c-3.9,1.75-7.73,3.69-7.53,8.51-4.19-4.09-9.71-3.32-13.56.79.63-5.48-3.58-7.57-7.87-9.46l-10.64-3.81c-5.94-2.38-8.26-8.27-8.6-14.35.33-10.02-1.49-19.98-3.51-29.86-1-9.64-.98-19.32.06-29.04.3-3.91.02-7.62-.84-11.14"/><path class="uuid-da0013a4-6cf2-43e5-aa11-48f6b06b7354" d="M145.25,286.27c1,2,49.58-67.19,49.58-67.19,0-.79,0-1.57,0-2.36,0-12.69-2.44-22.32-5.04-34.36-3.44-15.97,1.79-29.54-.66-44.65-.99-6.13-4.47-12.9-5.93-19.07-.53-2.23-1.74-5.15-.85-6.96.69-1.41,1.42-7.1,1.89-8.68.84-2.81,2-7-1-8s-9-1-10,1c-.63,1.26-1.25,15.33-1,18,.23,2.48,2.02,1.7,2.31,3.87,1.34,10.16-2.5,22.56-1.86,32.55.24,3.8,1.97,8.58,1.92,12.23-.02,1.52-.82,3.59-.95,5.22-.75,9.46-.83,18.88-1.4,28.34-.37,6.2-1.47,12.39-1.44,18.62l-1.4-12.98c.79-12.86-2.41-26.69-2.63-39.17-.06-3.68,1.39-7.71,1.67-11.33.76-9.87-2.36-21.81-1.9-32.1.14-3.12,2.31-3.65,2.67-6.24.29-2.12-1-12-.32-15.6.3-1.57-.97-2.44-2.54-2.65-1.85-.25-5.59-.28-7.29.04-.44.08-3.05,1.52-3.1,1.71-1.12,4.49,3.26,11.5,3.26,15.5,0,1.09.11,3.7,0,5-.54,6.37-4.65,10.73-6.15,17.02-3.94,16.41,2.11,31.78-1.68,48.82-3.57,16.06-6.62,33.5-5.5,50.17.7,10.42,4.75,23.48,4.73,33.52,0,5.21-4.66,14.71-5.39,19.75Z"/><path class="uuid-2fb6fc13-6eeb-4428-9c89-1c38e4add1e6" d="M166.94,363.41c7.32,1.33,14.86-1.38,15.59-9.62.25-2.82-1.49-15.67-2.67-17.97-.33-.64-3.74-4.55-4.36-5.07-2.34-1.95-5.83-2.13-8.42-.48-.63.4-4.42,4.81-4.82,5.55-1.42,2.62-3.04,15.31-2.72,18.5.4,3.98,3.25,8.35,7.4,9.1Z"/><path class="uuid-d67e0454-91ce-4b08-bd2b-7f8b1dfe3624" d="M194.83,219.08c-.59-4.77-1.25-9.79-1.88-14.63l.46,16.29.95,2.11c0-.1.64-.72.49-1.16l-.02-2.62Z"/><path class="uuid-9f246f04-ba95-4aba-9a64-d055631a5a80" d="M211.25,230c1.24-2.89.04-6.89.04-6.89l-6.35-13.93-.7,1.88-1.65-2.36-.99.97.29,1.86c-.78-.12-1.1-2.55-2.13-.96-.8,1.25.42,3.32.25,4.74-2.67-1.63-1.96,4.02-1.87,5.89.09,2.07.82,9.1,1.68,10.59.45.77,1.55,1.3,1.83,1.93,1.24,2.7-3.61,21.54-3.98,26.2-.4,5.05.88,9.8.83,14.16-.07,6.03-3.36,14.35-3.22,20.79.03,1.26,1,1.47.96,2.57-1.05-.28-1.71-1.85-2.35-2.36.09-.15.11-.31.08-.48.28-2.16.28-6.98.28-7.33,0-2-.07-4.15-.58-6.37-.91-3.97-3.47-8.59-4.02-12.73-.78-5.86,2.99-22.95,3.76-30.21.57-5.35.89-9.53.94-15.1-.44-6.1-.91-12.23-1.41-18.41-1.16-8.9-2.53-16.21-4.56-24.92-1.98-8.5-.65-13.87-.14-22.28.07-1.12.47-2.97.47-3.54v-12.27c0-.6-.76-3.05-.94-4.01-1.4-7.6-5-14.5-6.07-22-.29-2.05,0-.27-.52-2.32.18-.48-.16-1.15.44-2.14.83-1.38,3.96-13.47,2.62-14.96-3-2-8.82-.74-10,0s-1,3-1,3c-.27,3.11-.36,11.14-.01,14.29.34,3.04,2.05,1.87,2.32,5,.87,9.98-1.85,20.25-1.8,29.75.02,4.66,1.83,10.01,1.83,14.63,0,5.72-1.88,12.95-1.92,18.89.68,8.49-1.98,31.85-2.37,33.42-.09.38-.88.3-.95.64-.21,1.11,1.56,3.79-.45,3.46.02-6.24-.99-12.44-1.41-18.65-.82-12.3-2.76-28.48-2.36-40.35.14-4.16,1.44-8.13,1.44-12.04,0-5.84-1.19-12.88-1.44-19.12-.05-1.21-.47-2.93-.47-3.54v-7.55c0-.43.24-1.15.52-1.92.36-.43.72-.75,1.06-.92,2-1,1.21-5.29,1-18-.05-2.7-7-2.19-9-2l-2,1c-3,1,1.8,12.5,2.52,14.22,1.7,13.14-6.49,19.39-7.3,32.55-.61,9.87,2.27,19.04,1.92,28.36-.2,5.36-2.18,10.55-3.31,15.79.32-.1.6-.24.85-.41-.26.48-.53.95-.85,1.41-.17.79-.31,1.57-.47,2.36-3.38,16.24-4.76,32.54-2.82,49.09.81,6.94,2.59,13.82,3.29,20.77.98,9.64-.98,12.47-3.64,21.16-.24.8-1.19,2.97-1.19,4.97,0,1,2,6,1.06,9.28-.16.09-.93,1.81-1.35.17-.46-1.8-.28-5.35-.59-7.43-.59-3.98-1.94-8.49-2.23-12.39-.39-5.28.88-11.34.4-16.93-.35-4.09-4.98-22.66-3.99-24.78.36-.78,1.64-1.51,2.22-2.98.98-2.48,1.84-13.56,1.34-16.13l-1.48-.52-.19-4.01h-1.64c0-.64-.24-2.08-1.2-1.86l-1.19,2.35-.47-1.88c-3.22,3.67-4.74,9.55-6.59,14.16l-.12.67c.77,1.43,1.74,9.49,1.88,10.95.11,1.19.09,3.62.15,5.12.44,10.75-1.77,19.76-.42,30.63.94,7.58,3.12,15.08,3.69,22.73.49,6.66-.72,11.55,2.13,18.16,4.06,9.44,15.75,7.91,23.05,13.7,2.91,2.31,2.04,4.69,2.12,8.02l4.08-3.69c4.51-2.54,8.72-.74,11.44,3.22.04-2.45-.45-4.91,1.39-6.87,3.28-3.48,11.36-5.25,15.67-6.93,12.35-4.82,9.65-18.11,10.76-28.86.92-8.89,4.06-18.63,4.17-27.45.06-4.29-1.22-8.93-1.43-13.19-.25-5.07.59-10.05.5-15.11.29-1.5,1.05-2.63,1.82-4.43ZM158,192.3c-.28-.04-.57-.04-.84.04.02-.07.04-.14.05-.21l1.29.22c.25.16.52.3.8.43-.47-.15-.92-.31-1.3-.47Z"/><path class="uuid-af1d3d11-0ab8-4630-b49e-cc44006e479e" d="M156.25,347.27c1-8,5-16.27,8-18.27.81-.54,1.54.07,2.23-.22,1.85-.78,2.31-.78,3.77-.78.87,0,2,1,4,0,.79-.4,2.17.65,3,1,1.04.44,2.37.06,3,1,1.24,1.86,6,12.27,6,18.27s-2,7-3,10c-.71,2.12-4.95,6.31-11.98,6.31s-16.02-3.31-15.02-17.31Z"/><path class="uuid-926f0cf8-256a-48d6-b9d6-9e6d588bc371" d="M149.25,223s5.32-4.66,8-6c4-2,9.78-1.91,12.89,2.05,0,0,5.11-3.05,11.11-3.05,4.12,0,10,8,10,8,0,0-4.72-4.94-10-6-5-1-11,3-11,3,0,0-.25-1.81-5-3-4-1-8,0-10,1s-6,4-6,4Z"/><path class="uuid-926f0cf8-256a-48d6-b9d6-9e6d588bc371" d="M157.25,246c2,0,13,3,13-6,0,8,11,6,14,6-5,2-14,1-14,1-10,2-13-1-13-1Z"/><path class="uuid-926f0cf8-256a-48d6-b9d6-9e6d588bc371" d="M168.25,317s3-3,3-31c0-12,1-37-4-39,0,0,2-1,4-1s2,0,4,1c-3-1-4,15-3,38,.43,9.99-2,26,4,32,0,0-3-1-4-1s-4,1-4,1Z"/><path class="uuid-da0013a4-6cf2-43e5-aa11-48f6b06b7354" d="M162.25,115.97s1,.52,2,.52,1.98-.55,1.98-.55c0,0-.98,1.07-1.98,1.07s-2-1.03-2-1.03Z"/><path class="uuid-da0013a4-6cf2-43e5-aa11-48f6b06b7354" d="M174.3,115.88s1,.52,2,.52,1.98-.55,1.98-.55c0,0-.98,1.07-1.98,1.07s-2-1.03-2-1.03Z"/><path class="uuid-4b24e60e-fbe3-4171-a176-7f208bdc52a1" d="M166.25,364s-7.11-4.38-7.52-12.19,4.43-17.93,4.43-17.93c-1.37,5.12-3.99,13.18-3.9,16.12s2,11,7,14Z"/><path class="uuid-926f0cf8-256a-48d6-b9d6-9e6d588bc371" d="M167.54,364.25s-5.88-3.44-6.29-11.25,4.2-16.87,4.2-16.87c-2.2,6.87-3.28,11.93-3.2,14.87s-.78,7.25,5.29,13.25Z"/><path class="uuid-4b24e60e-fbe3-4171-a176-7f208bdc52a1" d="M175.11,364.25s7.26-5.43,7.14-13.25c-.15-10-8-21-8-21,6,10,6.42,15.12,7,18,1,5-.07,10.25-6.14,16.25Z"/><path class="uuid-4b24e60e-fbe3-4171-a176-7f208bdc52a1" d="M170.25,364s-2.07-9.23-2.04-17.05,4.2-16.87,4.2-16.87c-2.2,6.87-2.16,8.92-3.16,12.92-.71,2.85,0,15,1,21Z"/><path class="uuid-926f0cf8-256a-48d6-b9d6-9e6d588bc371" d="M173.25,339s4,8,4,11-4.41,14.35-4,13c3-10,3-11,3-13s-1-7-3-11Z"/></g></g></svg>