<?xml version="1.0" encoding="UTF-8"?><svg xmlns="http://www.w3.org/2000/svg" viewBox="0 0 340.66 369.44"><defs><style>.uuid-a9a10d33-e3d0-4a34-99c3-8e0a5daabfa7{fill:#c3c3c3;}.uuid-c0731525-f936-4410-a546-0852415d25bf,.uuid-62bce547-06bf-469a-87d2-96731bb4ee17,.uuid-221b59ad-f9dd-4cb9-876e-f3f917f1be42{fill:#fff;}.uuid-6f4b11d8-60ad-4891-a493-1df0e4192766{fill:#9d9d9d;}.uuid-306c116b-bbce-4d84-a144-249d5ca8dd7b{fill:#e0e0e0;}.uuid-3932a8f7-0055-4b9e-96f1-eff577eef5fd{fill:#d3d3d3;}.uuid-62bce547-06bf-469a-87d2-96731bb4ee17,.uuid-a3878323-b42b-4b05-abb2-1f6987378ddb{stroke:#000;}.uuid-62bce547-06bf-469a-87d2-96731bb4ee17,.uuid-a3878323-b42b-4b05-abb2-1f6987378ddb,.uuid-d4edddcd-68b7-45f0-8d7a-8b1ab795c5aa{stroke-width:2px;}.uuid-62bce547-06bf-469a-87d2-96731bb4ee17,.uuid-a3878323-b42b-4b05-abb2-1f6987378ddb,.uuid-d4edddcd-68b7-45f0-8d7a-8b1ab795c5aa,.uuid-221b59ad-f9dd-4cb9-876e-f3f917f1be42{stroke-miterlimit:10;}.uuid-a3878323-b42b-4b05-abb2-1f6987378ddb{fill:none;}.uuid-e71b0bca-9d9f-49f1-8eaa-e12320deb63b{fill:#9e9e9e;}.uuid-d615e908-7be6-48c1-89bf-20878adb424d,.uuid-d4edddcd-68b7-45f0-8d7a-8b1ab795c5aa{fill:#666;}.uuid-84b89ee3-fbea-427a-82b3-efe8c666a5ba{fill:#bebebe;}.uuid-e03adb8e-bb16-4e86-8c32-477f2b5b8dae{fill:#d2d2d2;}.uuid-86821b5d-3c32-4ccc-9d5d-58971893e27e{fill:#ccc;}.uuid-d4edddcd-68b7-45f0-8d7a-8b1ab795c5aa{stroke:#4d4d4d;}.uuid-221b59ad-f9dd-4cb9-876e-f3f917f1be42{stroke:gray;stroke-width:.25px;}</style></defs><g id="uuid-c4e84b1e-3b11-4e6e-846a-c920a289cb95"><path class="uuid-a3878323-b42b-4b05-abb2-1f6987378ddb" d="M339.66,111.63V32.16v.78c0-17.21-75.49-31.94-169.33-31.94S1,14.17,1,31.38v79.47"/><path class="uuid-86821b5d-3c32-4ccc-9d5d-58971893e27e" d="M339.66,111.63V32.16v.78c0-17.21-75.49-31.94-169.33-31.94S1,14.17,1,31.38v79.47"/><path class="uuid-c0731525-f936-4410-a546-0852415d25bf" d="M170.33,141.79c-45.33,0-87.93-3.24-119.97-9.11C19.25,126.98,1.41,119.3,1.41,111.63s17.84-15.35,48.95-21.05c32.04-5.88,74.64-9.11,119.97-9.11s87.93,3.24,119.97,9.11c31.11,5.71,48.95,13.38,48.95,21.05s-17.84,15.35-48.95,21.05c-32.04,5.88-74.64,9.11-119.97,9.11Z"/><path class="uuid-d615e908-7be6-48c1-89bf-20878adb424d" d="M170.33,82.47c45.27,0,87.81,3.23,119.79,9.09,35.48,6.51,48.13,14.63,48.13,20.07s-12.64,13.56-48.13,20.07c-31.98,5.86-74.52,9.09-119.79,9.09s-87.81-3.23-119.79-9.09C15.06,125.19,2.41,117.06,2.41,111.63s12.64-13.56,48.13-20.07c31.98-5.86,74.52-9.09,119.79-9.09M170.33,80.47C76.49,80.47.41,94.42.41,111.63s76.07,31.16,169.92,31.16,169.92-13.95,169.92-31.16-76.07-31.16-169.92-31.16h0Z"/><path class="uuid-221b59ad-f9dd-4cb9-876e-f3f917f1be42" d="M340.25,111.63c0-17.21-76.07-31.16-169.92-31.16S.41,94.42.41,111.63"/><ellipse class="uuid-d4edddcd-68b7-45f0-8d7a-8b1ab795c5aa" cx="170.33" cy="109.29" rx="97.85" ry="16.36"/><path class="uuid-62bce547-06bf-469a-87d2-96731bb4ee17" d="M232.83,96.57c-16.93-2.34-38.81-3.57-62.5-3.57s-45.86,1.17-62.89,3.57h0v271.87h125.39V96.57Z"/></g><g id="uuid-62b24058-ba74-4a3f-991d-49398ff997c1"><g id="uuid-6d4c39fb-283b-431d-8f1a-0add4a7777c9"><path class="uuid-6f4b11d8-60ad-4891-a493-1df0e4192766" d="M131.25,236.06c1.24,4.01,3.25,8.1,5.29,11.73,1.07-.46,1.94-.16,2.29.91,1.43-.98,2.13-2.54,2.11-4.67.82-.5.97-.63,1.35-1.28.57-.99-.75-13.29-1.54-14.88-2.42-2.56-2.93-5.89-1.54-10.01l3.39-17.85c-.14-5.84-.26-11.68-.35-17.52,1.39-6.46,2.32-12.93,2.8-19.39.63-1.96,3.43-1.48,2.25.43,1.02.84.06,7.97-.32,8.24-.17.13-.39.2-.62.25-.73,3.56-2.33,9.03-2.37,12.53-.06,5.54,1.13,11.06.48,16.96-.61,5.55-4.9,18.3-3.64,23.02.22.82,1.26,1.66,1.64,2.6,1.06,2.61,2.6,14.27,1.8,16.66-.38,1.14-1.59,1.28-1.69,1.72-.25,1.08.36,3.01-.42,4.08-.1.14-2.92,1.71-3.1,1.73-.41.04-3.2-.52-3.52-.72-1.08-.68-4.62-11.11-5.66-12.97l-.65-1.56c0-2,1-3,1-4,0-1.62.71-6.58.84-7.88.15-1.56.18-4.34.25-6.13.3-7.45-1.36-13.89-1.43-20.79-.1-10.04,3.82-22.64,4.7-33.05.37-4.36-.25-7.97.7-12.52,3.22-15.48,14.46-11.42,24.4-18.47,1.57-1.12,1.97-2.02,2.2-3.93.3-2.61-.37-6.43-1.69-8.71-.39-.68-1.58-1.26-2.3-2.86-1.07-2.35-2.69-8.2.73-8.78-.27-3.54.05-7.47,2.32-10.33,4.44-5.61,15.38-5.69,19.96-.2,2.38,2.86,2.85,6.92,2.59,10.53l1.86,1.05c.59,1.64-.4,6.44-1.26,8.07-1,1.9-4.04,5.28-4.7,7.55-.71,2.44-.14,6.12,2.09,7.62,8.83,5.91,20.13,3.9,23.93,16.11,1.83,5.87,1,12.83,1.69,19.07,1.08,9.73,4.64,20.99,4.17,30.74-.16,3.42-1.25,7.36-1.43,10.84s-.09,11.07.5,14.17c.28,1.45,1.28,3.4,1.88,4.91,2,5-4,15-6.93,21.67-.22.51-2.51.53-3.11.48-.17-.02-2.79-1.65-2.92-1.76-1.3-1.11-.38-2.71-.68-3.95-.12-.48-1.13-.44-1.35-1.09-.85-2.44.24-14.67,1.55-17.2.53-1.03,1.85-1.98,2.05-2.66.9-2.95-3.76-19.7-4.13-24.46-.44-5.48.26-11.04.45-16.51l-2.34-12.04c1.37,6.63-4.17,14.55-4.28,20.54-.19,10.94,5.04,25.88,5.21,37.29l-.93,12.98v-2.36c-.77-.55-.93-1.8-.47-3.78l-.96-1.47.02-13.63-1.02-.61c-1.81-9.17-3.46-19.5-3.56-28.73l.81-.87c-.56-.46-.93-.99-.65-1.66,2.5-5.82,3.97-11.74,4.38-17.76.75-.89.75-1.98.02-3.27l.49-4.22c-1-3.38,5.02-4.51,2.33.05.85,6.82,1.91,13.63,3.2,20.42-1.95,11.48.05,21.45,2.54,32.53l.79,5.89c.35,2.31-.46,3.5-2.15,4.9-.89,1.7-2.32,14.5-1.4,15.38,1.72-.02,2.12,1.43,1.21,4.34,1.08-1.19,2.45-.44,2.26,1.09.55-.95,1.14-1.5,2.25-.94l5.27-11.58c1.65-2.21,2.24-7.54-1.06-9.92-1.79-8.95-1.33-18.47.19-27.52-.46-9.33-1.75-18.64-3.89-27.94l-1.11-16.82c-.64-5.93-3.7-11.12-9.56-13.07l-9.85-3.43c-3.9-1.75-7.73-3.69-7.53-8.51-4.19,4.09-9.71,3.32-13.56-.79.63,5.48-3.58,7.57-7.87,9.46l-10.64,3.81c-5.94,2.38-8.26,8.27-8.6,14.35.33,10.02-1.49,19.98-3.51,29.86-1,9.64-.98,19.32.06,29.04.3,3.91.02,7.62-.84,11.14"/><path class="uuid-e71b0bca-9d9f-49f1-8eaa-e12320deb63b" d="M145.25,172.79c1-2,49.58,67.19,49.58,67.19,0,.79,0,1.57,0,2.36,0,12.69-2.44,22.32-5.04,34.36-3.44,15.97,1.79,29.54-.66,44.65-.99,6.13-4.47,12.9-5.93,19.07-.53,2.23-1.74,5.15-.85,6.96.69,1.41,1.42,7.1,1.89,8.68.84,2.81,2,7-1,8s-9,1-10-1c-.63-1.26-1.25-15.33-1-18,.23-2.48,2.02-1.7,2.31-3.87,1.34-10.16-2.5-22.56-1.86-32.55.24-3.8,1.97-8.58,1.92-12.23-.02-1.52-.82-3.59-.95-5.22-.75-9.46-.83-18.88-1.4-28.34-.37-6.2-1.47-12.39-1.44-18.62l-1.4,12.98c.79,12.86-2.41,26.69-2.63,39.17-.06,3.68,1.39,7.71,1.67,11.33.76,9.87-2.36,21.81-1.9,32.1.14,3.12,2.31,3.65,2.67,6.24.29,2.12-1,12-.32,15.6.3,1.57-.97,2.44-2.54,2.65-1.85.25-5.59.28-7.29-.04-.44-.08-3.05-1.52-3.1-1.71-1.12-4.49,3.26-11.5,3.26-15.5,0-1.09.11-3.7,0-5-.54-6.37-4.65-10.73-6.15-17.02-3.94-16.41,2.11-31.78-1.68-48.82-3.57-16.06-6.62-33.5-5.5-50.17.7-10.42,4.75-23.48,4.73-33.52,0-5.21-4.66-14.71-5.39-19.75Z"/><path class="uuid-3932a8f7-0055-4b9e-96f1-eff577eef5fd" d="M166.94,95.65c7.32-1.33,14.86,1.38,15.59,9.62.25,2.82-1.49,15.67-2.67,17.97-.33.64-3.74,4.55-4.36,5.07-2.34,1.95-5.83,2.13-8.42.48-.63-.4-4.42-4.81-4.82-5.55-1.42-2.62-3.04-15.31-2.72-18.5.4-3.98,3.25-8.35,7.4-9.1Z"/><path class="uuid-84b89ee3-fbea-427a-82b3-efe8c666a5ba" d="M194.83,239.98c-.59,4.77-1.25,9.79-1.88,14.63l.46-16.29.95-2.11c0,.1.64.72.49,1.16l-.02,2.62Z"/><path class="uuid-e03adb8e-bb16-4e86-8c32-477f2b5b8dae" d="M209.42,224.62c.09-5.06-.75-10.04-.5-15.11.21-4.26,1.49-8.9,1.43-13.19-.12-8.81-3.26-18.56-4.17-27.45-1.11-10.75,1.59-24.04-10.76-28.86-4.31-1.68-12.39-3.45-15.67-6.93-1.84-1.95-1.36-4.41-1.39-6.87-2.72,3.97-6.93,5.76-11.44,3.22l-4.08-3.69c-.08,3.33.79,5.71-2.12,8.02-7.29,5.79-18.98,4.25-23.05,13.7-2.85,6.61-1.63,11.5-2.13,18.16-.57,7.65-2.75,15.15-3.69,22.73-1.34,10.87.86,19.88.42,30.63-.06,1.5-.04,3.93-.15,5.12-.14,1.45-1.11,9.52-1.88,10.95l.12.67c1.85,4.61,3.37,10.49,6.59,14.16l.47-1.88,1.19,2.35c.96.22,1.2-1.22,1.2-1.88h1.64s.19-4,.19-4l1.48-.52c.5-2.57-.36-13.64-1.34-16.13-.58-1.46-1.86-2.2-2.22-2.98-.98-2.12,3.64-20.68,3.99-24.78.48-5.58-.79-11.64-.4-16.93.29-3.9,1.64-8.41,2.23-12.39.31-2.08.13-5.63.59-7.43.42-1.64,1.19.08,1.35.17.94,3.28-1.06,8.28-1.06,9.28,0,2,.94,4.17,1.19,4.97,2.66,8.68,4.62,11.51,3.64,21.16-.7,6.95-2.48,13.83-3.29,20.77-1.94,16.55-.55,32.85,2.82,49.09.16.79.3,1.57.47,2.36.31.46.59.93.85,1.41-.25-.17-.53-.31-.85-.41,1.13,5.24,3.11,10.43,3.31,15.79.35,9.32-2.53,18.49-1.92,28.36.81,13.16,9,19.41,7.3,32.55-.72,1.72-5.52,13.22-2.52,14.22l2,1c2,.19,8.95.7,9-2,.21-12.71,1-17-1-18-.34-.17-.71-.49-1.06-.92-.28-.77-.52-1.49-.52-1.92v-7.55c0-.61.42-2.33.47-3.54.25-6.24,1.44-13.28,1.44-19.12,0-3.91-1.3-7.88-1.44-12.04-.4-11.87,1.54-28.05,2.36-40.35.41-6.21,1.43-12.41,1.41-18.65,2.01-.33.24,2.35.45,3.46.06.33.85.26.95.64.39,1.58,3.05,24.93,2.37,33.42.04,5.93,1.92,13.17,1.92,18.89,0,4.63-1.81,9.98-1.83,14.63-.04,9.5,2.67,19.78,1.8,29.75-.27,3.14-1.98,1.97-2.32,5-.35,3.14-.25,11.18.01,14.29,0,0-.18,2.26,1,3s7,2,10,0c1.34-1.49-1.79-13.59-2.62-14.96-.6-.99-.26-1.66-.44-2.14.53-2.05.23-.27.52-2.32,1.07-7.49,4.67-14.4,6.07-22,.18-.96.94-3.41.94-4.01v-12.27c0-.57-.4-2.42-.47-3.54-.5-8.41-1.84-13.78.14-22.28,2.03-8.71,3.4-16.02,4.56-24.92.5-6.18.97-12.31,1.41-18.41-.05-5.57-.37-9.75-.94-15.1-.77-7.26-4.54-24.35-3.76-30.21.55-4.14,3.11-8.76,4.02-12.73.51-2.23.58-4.37.58-6.37,0-.35,0-5.17-.28-7.33.03-.17.01-.33-.08-.48.64-.51,1.29-2.08,2.35-2.36.03,1.1-.94,1.31-.96,2.57-.13,6.44,3.16,14.76,3.22,20.79.05,4.35-1.24,9.1-.83,14.16.37,4.66,5.22,23.5,3.98,26.2-.29.63-1.39,1.16-1.83,1.93-.86,1.48-1.59,8.52-1.68,10.59-.09,1.88-.8,7.52,1.87,5.89.17,1.42-1.05,3.49-.25,4.74,1.02,1.59,1.35-.84,2.13-.96l-.29,1.86.99.97,1.65-2.36.7,1.88,6.35-13.93s1.21-4.01-.04-6.89c-.78-1.8-1.54-2.93-1.82-4.43ZM159.3,266.29c-.28.12-.55.27-.8.43l-1.29.22c-.01-.07-.04-.14-.05-.21.27.07.56.08.84.04.38-.15.83-.32,1.3-.47Z"/><path class="uuid-6f4b11d8-60ad-4891-a493-1df0e4192766" d="M156.25,111.79c1,8,5,16.27,8,18.27.81.54,1.54-.07,2.23.22,1.85.78,2.31.78,3.77.78.87,0,2-1,4,0,.79.4,2.17-.65,3-1,1.04-.44,2.37-.06,3-1,1.24-1.86,6-12.27,6-18.27s-2-7-3-10c-.71-2.12-4.95-6.31-11.98-6.31s-16.02,3.31-15.02,17.31Z"/><path class="uuid-a9a10d33-e3d0-4a34-99c3-8e0a5daabfa7" d="M149.25,236.06s5.32,4.66,8,6c4,2,9.78,1.91,12.89-2.05,0,0,5.11,3.05,11.11,3.05,4.12,0,10-8,10-8,0,0-4.72,4.94-10,6-5,1-11-3-11-3,0,0-.25,1.81-5,3-4,1-8,0-10-1s-6-4-6-4Z"/><path class="uuid-a9a10d33-e3d0-4a34-99c3-8e0a5daabfa7" d="M157.25,213.06c2,0,13-3,13,6,0-8,11-6,14-6-5-2-14-1-14-1-10-2-13,1-13,1Z"/><path class="uuid-a9a10d33-e3d0-4a34-99c3-8e0a5daabfa7" d="M168.25,142.06s3,3,3,31c0,12,1,37-4,39,0,0,2,1,4,1s2,0,4-1c-3,1-4-15-3-38,.43-9.99-2-26,4-32,0,0-3,1-4,1s-4-1-4-1Z"/><path class="uuid-e71b0bca-9d9f-49f1-8eaa-e12320deb63b" d="M162.25,343.09s1-.52,2-.52,1.98.55,1.98.55c0,0-.98-1.07-1.98-1.07s-2,1.03-2,1.03Z"/><path class="uuid-e71b0bca-9d9f-49f1-8eaa-e12320deb63b" d="M174.3,343.18s1-.52,2-.52,1.98.55,1.98.55c0,0-.98-1.07-1.98-1.07s-2,1.03-2,1.03Z"/><path class="uuid-306c116b-bbce-4d84-a144-249d5ca8dd7b" d="M166.25,95.06s-7.11,4.38-7.52,12.19,4.43,17.93,4.43,17.93c-1.37-5.12-3.99-13.18-3.9-16.12s2-11,7-14Z"/><path class="uuid-a9a10d33-e3d0-4a34-99c3-8e0a5daabfa7" d="M167.54,94.81s-5.88,3.44-6.29,11.25,4.2,16.87,4.2,16.87c-2.2-6.87-3.28-11.93-3.2-14.87s-.78-7.25,5.29-13.25Z"/><path class="uuid-306c116b-bbce-4d84-a144-249d5ca8dd7b" d="M175.11,94.81s7.26,5.43,7.14,13.25c-.15,10-8,21-8,21,6-10,6.42-15.12,7-18,1-5-.07-10.25-6.14-16.25Z"/><path class="uuid-306c116b-bbce-4d84-a144-249d5ca8dd7b" d="M170.25,95.06s-2.07,9.23-2.04,17.05,4.2,16.87,4.2,16.87c-2.2-6.87-2.16-8.92-3.16-12.92-.71-2.85,0-15,1-21Z"/><path class="uuid-a9a10d33-e3d0-4a34-99c3-8e0a5daabfa7" d="M173.25,120.06s4-8,4-11-4.41-14.35-4-13c3,10,3,11,3,13s-1,7-3,11Z"/></g></g></svg>