<?xml version="1.0" encoding="UTF-8"?><svg xmlns="http://www.w3.org/2000/svg" viewBox="0 0 340.66 369.44"><defs><style>.uuid-1df21da8-a44f-4ed5-ab4f-981d47d08319{fill:#b4b4b4;}.uuid-6b27c777-b36c-46bb-a220-ce47aec11325{fill:#a7a7a7;}.uuid-1583f8ac-20e4-477d-b5fd-7db9d4f16c54{fill:#c5c5c5;}.uuid-1c9be9c1-5901-4ede-9177-3bc48a43b533,.uuid-2fbc9922-da04-48c3-bf2b-cc4b57c0231d,.uuid-8a056752-2cf5-4bbd-9250-3a3dc5cc974f{fill:#fff;}.uuid-e84bd7e7-d356-436e-a2c2-205a0ca937ab{fill:#b9b9b9;}.uuid-f7b7da6b-a138-4cee-a966-353ec129cd29{fill:#9d9d9d;}.uuid-418743da-f890-4a44-9698-d7a345ab56f4{fill:#dfdfdf;}.uuid-45712b97-6459-48d8-a077-b43b64ca0830{fill:#c4c4c4;}.uuid-4bf3c9b8-96f9-4db9-9cff-4efc22737212{fill:silver;}.uuid-714b8f8c-4afb-4345-af8b-155165706deb{fill:#ababab;}.uuid-50d60af4-818e-478e-a999-1b9f9a74983f{fill:#d3d3d3;}.uuid-2fbc9922-da04-48c3-bf2b-cc4b57c0231d,.uuid-dae1cbf1-498e-4026-a658-2ad911f42dea{stroke:#000;}.uuid-2fbc9922-da04-48c3-bf2b-cc4b57c0231d,.uuid-dae1cbf1-498e-4026-a658-2ad911f42dea,.uuid-a599e8c9-15f6-4c43-91ba-27ffbe507807{stroke-width:2px;}.uuid-2fbc9922-da04-48c3-bf2b-cc4b57c0231d,.uuid-dae1cbf1-498e-4026-a658-2ad911f42dea,.uuid-a599e8c9-15f6-4c43-91ba-27ffbe507807,.uuid-8a056752-2cf5-4bbd-9250-3a3dc5cc974f{stroke-miterlimit:10;}.uuid-dae1cbf1-498e-4026-a658-2ad911f42dea{fill:none;}.uuid-b672a5cd-d84e-411b-a2f0-46a72c25b686{fill:#b8b8b8;}.uuid-072b434d-6230-4514-9b8e-457ad71b77b3{fill:#c2c2c2;}.uuid-f0daa475-ed65-4870-b53c-c9fb14c7db96,.uuid-a599e8c9-15f6-4c43-91ba-27ffbe507807{fill:#666;}.uuid-fd9ffecf-8e23-4846-8e5d-90f5ab93201b{fill:#a5a5a5;}.uuid-fe74f8b8-efca-423d-bd9e-1af80449195a{fill:#9b9b9b;}.uuid-1a253e65-3795-4f47-bc8f-a276be9379e0{fill:#a8a8a8;}.uuid-f1ed42a6-d637-4d1e-b666-b2bbe00d04b0{fill:#ccc;}.uuid-ecfe4ec2-ab47-4c4b-ab1c-7f68a2c424c0{fill:#d1d1d1;}.uuid-f483cb24-d326-4536-a155-06236e7f8e48{fill:#bbb;}.uuid-7270ba5d-b22c-4eff-9cb0-90f9dd7e6500{fill:#c6c6c6;}.uuid-520f65a4-9cee-40ba-8a3e-365481447920{fill:#c1c1c1;}.uuid-18e54038-2233-4d1b-a88a-81829b59f352{fill:#bfbfbf;}.uuid-a599e8c9-15f6-4c43-91ba-27ffbe507807{stroke:#4d4d4d;}.uuid-8a056752-2cf5-4bbd-9250-3a3dc5cc974f{stroke:gray;stroke-width:.25px;}</style></defs><g id="uuid-df83e624-612e-40a5-9fe7-c06c77d56da3"><path class="uuid-dae1cbf1-498e-4026-a658-2ad911f42dea" d="M339.66,111.63V32.16v.78c0-17.21-75.49-31.94-169.33-31.94S1,14.17,1,31.38v79.47"/><path class="uuid-f1ed42a6-d637-4d1e-b666-b2bbe00d04b0" d="M339.66,111.63V32.16v.78c0-17.21-75.49-31.94-169.33-31.94S1,14.17,1,31.38v79.47"/><path class="uuid-1c9be9c1-5901-4ede-9177-3bc48a43b533" d="M170.33,141.79c-45.33,0-87.93-3.24-119.97-9.11C19.25,126.98,1.41,119.3,1.41,111.63s17.84-15.35,48.95-21.05c32.04-5.88,74.64-9.11,119.97-9.11s87.93,3.24,119.97,9.11c31.11,5.71,48.95,13.38,48.95,21.05s-17.84,15.35-48.95,21.05c-32.04,5.88-74.64,9.11-119.97,9.11Z"/><path class="uuid-f0daa475-ed65-4870-b53c-c9fb14c7db96" d="M170.33,82.47c45.27,0,87.81,3.23,119.79,9.09,35.48,6.51,48.13,14.63,48.13,20.07s-12.64,13.56-48.13,20.07c-31.98,5.86-74.52,9.09-119.79,9.09s-87.81-3.23-119.79-9.09C15.06,125.19,2.41,117.06,2.41,111.63s12.64-13.56,48.13-20.07c31.98-5.86,74.52-9.09,119.79-9.09M170.33,80.47C76.49,80.47.41,94.42.41,111.63s76.07,31.16,169.92,31.16,169.92-13.95,169.92-31.16-76.07-31.16-169.92-31.16h0Z"/><path class="uuid-8a056752-2cf5-4bbd-9250-3a3dc5cc974f" d="M340.25,111.63c0-17.21-76.07-31.16-169.92-31.16S.41,94.42.41,111.63"/><ellipse class="uuid-a599e8c9-15f6-4c43-91ba-27ffbe507807" cx="170.33" cy="109.29" rx="97.85" ry="16.36"/><path class="uuid-2fbc9922-da04-48c3-bf2b-cc4b57c0231d" d="M232.83,96.57c-16.93-2.34-38.81-3.57-62.5-3.57s-45.86,1.17-62.89,3.57h0v271.87h125.39V96.57Z"/></g><g id="uuid-643a636a-aacf-449b-908d-824450778652"><g id="uuid-94439b02-2672-4808-b653-02ee2a44e6a1"><path class="uuid-fe74f8b8-efca-423d-bd9e-1af80449195a" d="M158.37,365.11c-4.05-2.91-.31-7.72.02-11.66,1.15-13.85-3.93-24.85-5.59-37.33-1.29-9.72,6.11-20.81,8.07-30.26,2.56-12.34-1.98-20.04-1.53-31.59.16-4,1.15-8.35,1.43-12.37-1.31-2.68-4.08-4.39-5.25-7.16-7.44-17.54,11.47-28.02,6.09-44.73-2.53-7.84-12.49-19.94-12.74-27.78-.09-2.73,2.27-13.99,3.32-16.68,3.38-8.62,10.52-10.52,8.46-22.75-.95-5.63-5.7-6.49-4.52-13.82.55-3.38,4.62-9.27,7.71-10.86,4.97-2.56,18.01-.55,21.36,4.34,2.47,3.6,1.08,6.73,2.42,10.44.8,2.2,4.43,4.78,1.9,6.72-.56.43-1.61.4-1.67.46-.25.27.5,1.85.42,2.56-.53,5.31-1.72,9.3-7.97,8.93l-4.14,11.64c4.03,4.57,8.6,9.51,11.59,14.85,3.37,6.03,5.42,20.79,5.79,28.04.32,6.28-.73,25.08-2.91,30.43-1,2.46-4.94,7.26-5.18,9.11-.58,4.48,2.61,5.29,3.74,9l-1.36,1.53-1.89-.75c.04-.68.71-.36.95-.48.18-.09.66.08.95,0,.02-.52.08-1.06-.09-1.57-.11-.32-3.28-5.02-3.71-5.58v-.48c.76-5.21,5.25-8.57,6.52-13.72,1.47-5.96,2.37-21.22,2.03-27.51-.23-4.17-2.17-19.36-3.29-22.92-.73-2.32-4.87-8.48-6.48-10.66-2-2.72-7.41-7.21-7.37-10.29.02-1.26,3.44-10.65,4.06-11.22,1.43-1.3,8.94-.23,6.4-5.89,2.12-.62-.64-1.92,1.48-2.45l-.98-3.57,2.4-.21.47-1.44c-3.67-3.53-2.75-6.17-3.47-10.38-1.01-5.95-5.48-7.28-10.81-8.47-7.93-1.76-14.1.05-17.13,8.32s2.44,9.28,3.61,15.5c2.42,12.92-6.54,17.08-9.53,28.62-1.99,7.68-3.11,11.2.24,18.6s10.99,17.6,11.39,25.51c.76,14.92-15.45,25.78-5.88,41.19.88,1.41,3.75,3.94,3.98,5.06.53,2.57-.85,7.18-.95,9.98-.47,12.1,3.95,23.97.97,35.54-.17.65-.86,1.36-.48,2.38-2.82,6.35-8.28,19.69-7.48,26.34.42,3.48,2.29,7.97,3.06,11.71,1.43,7.03,3.32,20.11,2.52,27.03-.54,4.68-2.46,4.17-.95,9.77.07.26-.05.65,0,.95Z"/><path class="uuid-520f65a4-9cee-40ba-8a3e-365481447920" d="M184.98,262.13c-.48,4.41-2.34,9.38-3.33,13.83l-2.48,3.96c.09.88-.22,1.53-.37,2.24l-3.8,3.58-1.43.48c1.52-1.48,1.29-3.64,2.18-5.44,1.31-2.66,3.73-4.55,4.81-7.57,1.34-3.72,3.38-17.51,2.94-21.28s-4.17-7.83-5.9-11.24c-2.77-5.45-4.57-11.58-5.46-17.65,1.91,4.65,3.7,10.11,5.77,14.47,1.21,2.55,7.07,10.35,7.44,11.61.68,2.33-.48,9.5-.78,12.31-.04.34.41.64.4.7Z"/><path class="uuid-fd9ffecf-8e23-4846-8e5d-90f5ab93201b" d="M159.32,165.83c1.14,5.41.99,11.78,2.52,17.26.61,2.21,2.38,4.57,2.68,6.37.62,3.72.12,8.5.63,12.24,1.01,7.36,5.39,14.62,8.18,21.36,3.41,8.25,5.45,17.12,11.65,23.82.49-2.82-2.11-5.05-2.74-7.5-1.41-5.47-.25-11.85,4.64-4.42-.24.12-.91-.2-.95.48-.55,8.92,1.94,18.02-.95,26.7,0-.06-.44-.36-.4-.7.3-2.81,1.46-9.98.78-12.31-.37-1.26-6.23-9.06-7.44-11.61-2.07-4.37-3.86-9.82-5.77-14.47-3.39-8.25-7.28-15.4-8.1-24.53-.23-2.54.38-5.65-.01-8.09-.31-1.95-2.43-5.46-3.15-8.29-1.51-5.98-2.17-13.02-2.53-19.16.27.93.71,1.72.95,2.86ZM184.51,232.57h-1.9c-.21,3.67-.21,7.12,2.37,10.01l-.47-10.01Z"/><path class="uuid-f7b7da6b-a138-4cee-a966-353ec129cd29" d="M181.66,275.95c-1.01,4.57-1.69,9.21-2.68,13.75-1.08,4.95-4.31,9.11-4.86,14.2-.43,3.96.24,8.33-.07,12.33-.53,6.87-5.06,28.81-1.92,33.89.76,1.22,12.44,7.58,14.43,8.4,2.26.93,8.35,1.94,9.8,3.04,2.1,1.58.14,4.33-2.35,3.55.33-.26.62-.75.95-.95.57-.36,2.37-.48.94-1.65-8.67-1.85-16.21-6.29-23.74-10.74-2.51-3.72-2.14-9.23-1.92-13.61.36-7.3,2.38-14.64,2.86-21.92.28-4.15-.41-8.8.01-12.86s3.16-7.86,4.27-12.16c.83-3.24.81-6.02,1.43-9.06.14-.71.46-1.36.37-2.24l2.48-3.96Z"/><path class="uuid-1a253e65-3795-4f47-bc8f-a276be9379e0" d="M158.37,364.15h30.41s-.23-1.44-.23-1.44c1.62,1.56,2.08,1.71,4.51,1.43l-1.42-.96c1.12-1.83,1.73,1.67,3.32.96-.33.21-.62.69-.95.95h-35.64c-.05-.3.07-.69,0-.95Z"/><path class="uuid-50d60af4-818e-478e-a999-1b9f9a74983f" d="M175.01,98.6c5.33,1.18,9.79,2.51,10.81,8.47.72,4.22-.2,6.86,3.47,10.38l-.47,1.44-2.4.21.98,3.57c-2.12.53.64,1.82-1.48,2.45,2.54,5.66-4.97,4.59-6.4,5.89-.63.57-4.04,9.96-4.06,11.22-.04,3.08,5.36,7.57,7.37,10.29,1.61,2.18,5.75,8.34,6.48,10.66,1.12,3.56,3.07,18.75,3.29,22.92.34,6.28-.55,21.55-2.03,27.51-1.27,5.15-5.76,8.51-6.52,13.72-.75-2.27-3.28-3.46-4.48-5.28-2.61-3.95-1.55-15.71-2.18-21.17-.54-4.67-2.79-10.47-2.88-14.79-.05-2.69.89-5.88,1.01-8.57.16-3.92-.62-7.78-.49-11.45.14-4.02,2.29-7.41,1.89-11.45-.35-3.6-2.9-7.42-5-10.24-1.52-.12-.28,1.01-.23,1.43.62,5.88,3.86,10.34.49,16.46s-6.27.31-7.14,1.18l2.82,4.5-1.87,6.93c1.32.28.81-.38,1.15-.96,1.25-2.12,1.94-4.57,3.39-6.63,1.03-1.45,3.21-2.82,4.01-4.32-.11,5.48.14,10.99.02,16.47-.05,2.05-1.03,4.66-.98,6.63.09,3.73,2.34,9.55,2.86,13.61-1.24.27-.97-.63-1.18-1.41-.51-1.89-.85-3.6-1.78-5.39-.31-.59-.8-1.55-.85-.11.67,2.69,1,6.91,2.85,9.04.61.7.62-.57.96-.7.57,5.34-.25,17.37,2.37,21.22,1.15,1.68,4.03,3.9,5.23,5.48.43.56,3.6,5.26,3.71,5.58.17.51.11,1.05.09,1.57-.29.08-.77-.09-.95,0-4.89-7.43-6.06-1.05-4.64,4.42.63,2.44,3.23,4.68,2.74,7.5-6.2-6.7-8.25-15.57-11.65-23.82-2.78-6.74-7.17-13.99-8.18-21.36-.51-3.74-.01-8.52-.63-12.24-.3-1.8-2.07-4.16-2.68-6.37-1.52-5.48-1.38-11.85-2.52-17.26l2.85,4.29c-.67-3.09-.07-6.82-.5-9.74-.5-3.36-3.44-6.57-1.16-10.77h.97c.55,2.03.83,4.27,2.01,6.07.31.47.31,1.35,1.08.37l-1.91-10.25-3.32.48c.91-5.26,4.77-9.84,5.24-15.48.83-10-7.13-16.77-1.53-25.85,2.96-4.8,7.31-4.46,11.97-6.34ZM174.53,111.47c3.28.25,7.65-3.92,5.46-7.14-.96.75-.64,2.09-1.24,3.04-.87,1.39-4.15,1.94-4.22,4.1ZM171.67,114.34c1.29-1.45-5.1-2.81-5.7.74-.45,2.7,5.29,8.79,6.65,4.98-1.34-.56-.64,1.38-1.65.95-.25-.11-3.69-3.57-3.8-3.82-1.44-3.34,2.02-5,4.5-2.85ZM185.93,209.21c-.27-.58-5.02-6.38-5.7-5.72.57,2.17,3.06,3.26,4.2,5.08,2.8,4.46,1.1,8.82.08,13.51,1.29.22.82-.24,1.08-1.04,1.07-3.34,1.85-8.58.35-11.83,1.12.18.91-.11,1.18-.94,1.61-4.99,1.01-7.93-.1-12.78-.22-.95-1.56-3.24-1.56-3.68v-8.1c0-.14,1.15-3.69-.47-2.14-.25.24-.99,6.01-.97,6.88.12,4.52,3.39,8.39,3.38,12.9,0,2.6-1.32,5.25-1.47,7.87Z"/><path class="uuid-50d60af4-818e-478e-a999-1b9f9a74983f" d="M152.2,169.64c.93-3.23-.37-6.62.05-10.2.12-1.03,1.83-6.48,2.33-6.96.83-.82.8.17.93.72.89,3.75,1.83,6.26,2.87,9.77.35,6.14,1.02,13.17,2.53,19.16.71,2.82,2.83,6.34,3.15,8.29.39,2.44-.21,5.55.01,8.09.81,9.13,4.71,16.28,8.1,24.53.89,6.06,2.69,12.2,5.46,17.65,1.73,3.41,5.46,7.46,5.9,11.24s-1.6,17.56-2.94,21.28c-1.09,3.02-3.5,4.91-4.81,7.57-.89,1.8-.67,3.96-2.18,5.44l1.43-.48,3.8-3.58c-.62,3.04-.59,5.82-1.43,9.06-.91.62-1.96,1.51-2.58,2.42-2.21,3.23-6.39,26.99-6.91,32.16s-1.5,19.62,1.02,23.75c1.31,2.14,2.06,1.52,3.25,2.23,7.54,4.45,15.07,8.89,23.74,10.74,1.44,1.17-.37,1.3-.94,1.65-1.59.71-2.2-2.79-3.32-.96l1.42.96c-2.43.28-2.89.13-4.51-1.43l.23,1.43h-30.41c-1.51-5.6.42-5.09.95-9.77.79-6.92-1.09-20-2.52-27.03-.76-3.74-2.64-8.24-3.06-11.71-.8-6.64,4.66-19.98,7.48-26.34,6.91-15.56,5.98-19.45,6.65-36.23,1.44-.27.91.73.95,1.65.3,7.6-.13,15.25-.41,22.84l.64.77,1.18-.94.48,1.9c-.7-2.21,1.93-3.44,2.28-4.63.43-1.46.63-12.37.59-14.7-.09-5.89-.31-16.09-4.28-20.49-.61-.68-2.2-2.84-3.11-1.67-.66.99,1.02,4.89,1.19,6.45.23,2.14-.05,4.68,0,6.91.29,10.95-.36,21.51-3.46,32.05l-2.24,3.71c2.98-11.57-1.44-23.44-.97-35.54.11-2.81,1.49-7.41.95-9.98-.23-1.12-3.1-3.65-3.98-5.06-9.57-15.4,6.65-26.26,5.88-41.19-.4-7.91-8.04-18.12-11.39-25.51ZM171.68,287.87l-1.86.05c.19.7-.52,1.74-.52,2.1v11.44c0,.17-1.17.78-.96,1.42l.95.24c.23-.22,2.38-5.54,2.38-5.96v-9.3ZM162.65,335.07c.37-4.84-1.51-9.93-1.89-14.55-.79-9.9,3.34-19.3,5.21-28.83-.82.13-.83.95-1.08,1.54-4.64,11-5.75,18.09-4.57,30.11l2.32,11.73ZM162.65,356.53c7.41,10.15,9.79-7.06,3.63-5.21l-.77,1.15c1.04,1.06,2.51,1.92,1.7,3.62l-4.55.45Z"/><path class="uuid-418743da-f890-4a44-9698-d7a345ab56f4" d="M175.01,98.6c-4.66,1.88-9.01,1.54-11.97,6.34-5.6,9.08,2.37,15.85,1.53,25.85-.47,5.63-4.33,10.21-5.24,15.48l3.32-.48,1.91,10.25c-.76.98-.77.1-1.08-.37-1.18-1.79-1.46-4.04-2.01-6.07h-.97c-2.27,4.2.66,7.4,1.16,10.77.43,2.92-.17,6.65.5,9.74l-2.85-4.29c-.24-1.14-.68-1.93-.95-2.86-1.03-3.51-1.98-6.02-2.87-9.77-.13-.55-.1-1.54-.93-.72-.5.49-2.21,5.94-2.33,6.96-.42,3.58.88,6.97-.05,10.2-3.35-7.4-2.23-10.92-.24-18.6,2.99-11.54,11.95-15.7,9.53-28.62-1.16-6.22-6.72-7.02-3.61-15.5s9.2-10.08,17.13-8.32Z"/><path class="uuid-6b27c777-b36c-46bb-a220-ce47aec11325" d="M184.03,227.33v.48c-1.2-1.58-4.08-3.79-5.23-5.48-2.62-3.85-1.8-15.88-2.37-21.22-.05-.47.06-.97,0-1.43-.53-4.06-2.78-9.89-2.86-13.61-.05-1.97.93-4.58.98-6.63.12-5.48-.13-10.99-.02-16.47,2.86-5.4,1.49-12.92-2.85-17.16-.04-.42-1.29-1.55.23-1.43,2.09,2.82,4.64,6.64,5,10.24.4,4.05-1.75,7.44-1.89,11.45-.13,3.67.65,7.53.49,11.45-.11,2.69-1.06,5.87-1.01,8.57.08,4.31,2.33,10.12,2.88,14.79.63,5.46-.42,17.22,2.18,21.17,1.2,1.81,3.73,3,4.48,5.28Z"/><path class="uuid-b672a5cd-d84e-411b-a2f0-46a72c25b686" d="M167.88,253.07c-.67,16.79.25,20.67-6.65,36.23-.39-1.02.31-1.73.48-2.38l2.24-3.71c3.09-10.54,3.74-21.1,3.46-32.05l.94-1.9c.21,1.31-.42,2.54-.47,3.81Z"/><path class="uuid-ecfe4ec2-ab47-4c4b-ab1c-7f68a2c424c0" d="M184.51,232.57l.47,10.01c-2.58-2.89-2.58-6.34-2.37-10.01h1.9Z"/><path class="uuid-45712b97-6459-48d8-a077-b43b64ca0830" d="M172.15,351.76c-1.19-.7-1.94-.08-3.25-2.23-2.52-4.13-1.56-18.5-1.02-23.75s4.7-28.93,6.91-32.16c.62-.91,1.67-1.8,2.58-2.42-1.11,4.31-3.83,7.92-4.27,12.16s.26,8.71-.01,12.86c-.48,7.28-2.5,14.61-2.86,21.92-.22,4.38-.59,9.89,1.92,13.61Z"/><path class="uuid-45712b97-6459-48d8-a077-b43b64ca0830" d="M174.53,162.96c-.8,1.51-2.98,2.88-4.01,4.32-1.46,2.06-2.14,4.51-3.39,6.63-.34.58.17,1.24-1.15.96l1.87-6.93-2.82-4.5c.87-.86,3.64,5.19,7.14-1.18s.13-10.58-.49-16.46c4.35,4.24,5.72,11.77,2.85,17.16Z"/><path class="uuid-1df21da8-a44f-4ed5-ab4f-981d47d08319" d="M185.93,209.21c.14-2.61,1.46-5.27,1.47-7.87,0-4.51-3.26-8.38-3.38-12.9-.02-.87.72-6.64.97-6.88,1.62-1.55.47,2.01.47,2.14v8.1c0,.44,1.34,2.73,1.56,3.68,1.11,4.85,1.7,7.79.1,12.78-.27.83-.06,1.12-1.18.94Z"/><path class="uuid-f483cb24-d326-4536-a155-06236e7f8e48" d="M185.93,209.21c1.5,3.26.73,8.49-.35,11.83-.26.8.21,1.26-1.08,1.04,1.02-4.69,2.72-9.04-.08-13.51-1.14-1.82-3.63-2.91-4.2-5.08.68-.66,5.43,5.13,5.7,5.72Z"/><path class="uuid-1583f8ac-20e4-477d-b5fd-7db9d4f16c54" d="M174.53,111.47c.07-2.16,3.35-2.71,4.22-4.1.6-.95.28-2.29,1.24-3.04,2.19,3.22-2.18,7.39-5.46,7.14Z"/><path class="uuid-714b8f8c-4afb-4345-af8b-155165706deb" d="M171.67,114.34c-2.47-2.15-5.94-.49-4.5,2.85.11.25,3.55,3.71,3.8,3.82,1.02.43.31-1.5,1.65-.95-1.36,3.81-7.1-2.28-6.65-4.98.6-3.56,6.99-2.2,5.7-.74Z"/><path class="uuid-7270ba5d-b22c-4eff-9cb0-90f9dd7e6500" d="M176.43,201.1c-.34.13-.35,1.4-.96.7-1.86-2.13-2.19-6.35-2.85-9.04.05-1.43.54-.48.85.11.93,1.78,1.28,3.49,1.78,5.39.21.79-.06,1.68,1.18,1.41.06.46-.05.96,0,1.43Z"/><path class="uuid-072b434d-6230-4514-9b8e-457ad71b77b3" d="M167.4,251.16c-.06-2.22.23-4.76,0-6.91-.17-1.56-1.85-5.46-1.19-6.45.91-1.17,2.5.99,3.11,1.67,3.97,4.4,4.19,14.6,4.28,20.49.04,2.33-.16,13.24-.59,14.7-.35,1.19-2.98,2.42-2.28,4.63l-.48-1.9-1.18.94-.64-.77c.28-7.59.7-15.24.41-22.84-.04-.92.49-1.91-.95-1.65.05-1.27.68-2.5.47-3.81l-.94,1.9Z"/><path class="uuid-e84bd7e7-d356-436e-a2c2-205a0ca937ab" d="M162.65,335.07l-2.32-11.73c-1.18-12.02-.07-19.11,4.57-30.11.25-.59.26-1.41,1.08-1.54-1.87,9.53-6.01,18.93-5.21,28.83.37,4.62,2.25,9.71,1.89,14.55Z"/><path class="uuid-4bf3c9b8-96f9-4db9-9cff-4efc22737212" d="M162.65,356.53l4.55-.45c.82-1.7-.66-2.56-1.7-3.62l.77-1.15c6.17-1.85,3.78,15.37-3.63,5.21Z"/><path class="uuid-18e54038-2233-4d1b-a88a-81829b59f352" d="M171.68,287.87v9.3c0,.42-2.15,5.74-2.38,5.96l-.95-.24c-.22-.65.96-1.25.96-1.42v-11.44c0-.36.71-1.39.52-2.1l1.86-.05Z"/><path class="uuid-f7b7da6b-a138-4cee-a966-353ec129cd29" d="M185.19,102.45s.06,3.55-2.94,6.55-7,4-8,5-.94-.73-3.97-.87-5.03.87-4.03,4.87-6,4-6,4c0,0-1-3-3-5s-3-11,1-16,11-5,13-5,8.89-.1,13.94,6.45Z"/></g></g></svg>