<?xml version="1.0" encoding="UTF-8"?><svg xmlns="http://www.w3.org/2000/svg" viewBox="0 0 340.66 369.44"><defs><style>.uuid-c5d850a5-afe7-4a81-b5b2-afd784d43a0f{fill:#b4b4b4;}.uuid-218e0910-20c6-426f-a24a-8879d30aa440{fill:#a7a7a7;}.uuid-22b8f31f-3c77-46a1-96e8-a1a6ed0b4ead{fill:#c5c5c5;}.uuid-3f806436-1e62-438b-8583-f30d5e05dc26,.uuid-6575293e-f377-48b2-872e-0bccd2c7b595,.uuid-56f5a65a-2e50-4321-8aa3-8a2001183804{fill:#fff;}.uuid-7f8d3e47-2321-4cf4-a369-93c80a5b0528{fill:#b9b9b9;}.uuid-ae09e36a-c9a6-4a6f-9cf6-ac6e15a9c280{fill:#9d9d9d;}.uuid-2d3fb645-2dae-4939-ae7b-d3e18b43c254{fill:#dfdfdf;}.uuid-8906b087-7fac-48f2-92fa-44e8f18f67b5{fill:#c4c4c4;}.uuid-57927ab6-64f4-44f6-907f-9c16e3e98ac5{fill:silver;}.uuid-ef93511b-61c8-4e19-ba09-e4ccbfa97dbd{fill:#ababab;}.uuid-d6a7fb87-b62b-440a-9cb3-5d6a3565f6f0{fill:#d3d3d3;}.uuid-6575293e-f377-48b2-872e-0bccd2c7b595,.uuid-f6132e56-db2e-4477-8fab-46b2bc9cfecc{stroke:#000;}.uuid-6575293e-f377-48b2-872e-0bccd2c7b595,.uuid-f6132e56-db2e-4477-8fab-46b2bc9cfecc,.uuid-25d0d8d7-84eb-4dbf-beb4-5e4d3c901b97{stroke-width:2px;}.uuid-6575293e-f377-48b2-872e-0bccd2c7b595,.uuid-f6132e56-db2e-4477-8fab-46b2bc9cfecc,.uuid-25d0d8d7-84eb-4dbf-beb4-5e4d3c901b97,.uuid-56f5a65a-2e50-4321-8aa3-8a2001183804{stroke-miterlimit:10;}.uuid-f6132e56-db2e-4477-8fab-46b2bc9cfecc{fill:none;}.uuid-9c874b22-0217-46e8-b0f3-6118a5db2ca0{fill:#b8b8b8;}.uuid-8fe4477a-c335-4225-aa21-d136e2ff0ba0{fill:#c2c2c2;}.uuid-08cdc26d-a90d-4744-a3f8-0c026dedf3e9,.uuid-25d0d8d7-84eb-4dbf-beb4-5e4d3c901b97{fill:#666;}.uuid-a622cf25-ea54-4b15-bf8f-9096d2d9fa26{fill:#a5a5a5;}.uuid-734a65b0-cf70-41a9-8d50-28c03eb2beeb{fill:#9b9b9b;}.uuid-899e4fc2-0903-4116-bbf3-ab18143ed0b8{fill:#a8a8a8;}.uuid-8b9a9945-bb14-4b8e-b5dd-2fb5dd6442d8{fill:#ccc;}.uuid-41ffcb8a-a70d-494b-b5be-668e770fabe6{fill:#d1d1d1;}.uuid-7ce9e588-c65c-4b23-a52b-36722d78bf88{fill:#bbb;}.uuid-e048d2b9-dd50-4ed5-a122-4b40156d34c7{fill:#c6c6c6;}.uuid-09d1982b-0882-44a9-8950-c72ec6b9d74d{fill:#c1c1c1;}.uuid-86a1f32f-fb1b-4d1c-85d9-36edae04e484{fill:#bfbfbf;}.uuid-25d0d8d7-84eb-4dbf-beb4-5e4d3c901b97{stroke:#4d4d4d;}.uuid-56f5a65a-2e50-4321-8aa3-8a2001183804{stroke:gray;stroke-width:.25px;}</style></defs><g id="uuid-f2ac4ca4-6be2-4ec7-96da-3928b4984d81"><path class="uuid-f6132e56-db2e-4477-8fab-46b2bc9cfecc" d="M339.66,111.63V32.16v.78c0-17.21-75.49-31.94-169.33-31.94S1,14.17,1,31.38v79.47"/><path class="uuid-8b9a9945-bb14-4b8e-b5dd-2fb5dd6442d8" d="M339.66,111.63V32.16v.78c0-17.21-75.49-31.94-169.33-31.94S1,14.17,1,31.38v79.47"/><path class="uuid-3f806436-1e62-438b-8583-f30d5e05dc26" d="M170.33,141.79c-45.33,0-87.93-3.24-119.97-9.11C19.25,126.98,1.41,119.3,1.41,111.63s17.84-15.35,48.95-21.05c32.04-5.88,74.64-9.11,119.97-9.11s87.93,3.24,119.97,9.11c31.11,5.71,48.95,13.38,48.95,21.05s-17.84,15.35-48.95,21.05c-32.04,5.88-74.64,9.11-119.97,9.11Z"/><path class="uuid-08cdc26d-a90d-4744-a3f8-0c026dedf3e9" d="M170.33,82.47c45.27,0,87.81,3.23,119.79,9.09,35.48,6.51,48.13,14.63,48.13,20.07s-12.64,13.56-48.13,20.07c-31.98,5.86-74.52,9.09-119.79,9.09s-87.81-3.23-119.79-9.09C15.06,125.19,2.41,117.06,2.41,111.63s12.64-13.56,48.13-20.07c31.98-5.86,74.52-9.09,119.79-9.09M170.33,80.47C76.49,80.47.41,94.42.41,111.63s76.07,31.16,169.92,31.16,169.92-13.95,169.92-31.16-76.07-31.16-169.92-31.16h0Z"/><path class="uuid-56f5a65a-2e50-4321-8aa3-8a2001183804" d="M340.25,111.63c0-17.21-76.07-31.16-169.92-31.16S.41,94.42.41,111.63"/><ellipse class="uuid-25d0d8d7-84eb-4dbf-beb4-5e4d3c901b97" cx="170.33" cy="109.29" rx="97.85" ry="16.36"/><path class="uuid-6575293e-f377-48b2-872e-0bccd2c7b595" d="M232.83,96.57c-16.93-2.34-38.81-3.57-62.5-3.57s-45.86,1.17-62.89,3.57h0v271.87h125.39V96.57Z"/></g><g id="uuid-3ca8d496-44c3-4690-9f9c-421e77da4de7"><g id="uuid-b342b07d-f4c1-4d1a-82d2-fc3910944adc"><path class="uuid-734a65b0-cf70-41a9-8d50-28c03eb2beeb" d="M187.73,365.11c4.05-2.91.31-7.72-.02-11.66-1.15-13.85,3.93-24.85,5.59-37.33,1.29-9.72-6.11-20.81-8.07-30.26-2.56-12.34,1.98-20.04,1.53-31.59-.16-4-1.15-8.35-1.43-12.37,1.31-2.68,4.08-4.39,5.25-7.16,7.44-17.54-11.47-28.02-6.09-44.73,2.53-7.84,12.49-19.94,12.74-27.78.09-2.73-2.27-13.99-3.32-16.68-3.38-8.62-10.52-10.52-8.46-22.75.95-5.63,5.7-6.49,4.52-13.82-.55-3.38-4.62-9.27-7.71-10.86-4.97-2.56-18.01-.55-21.36,4.34-2.47,3.6-1.08,6.73-2.42,10.44-.8,2.2-4.43,4.78-1.9,6.72.56.43,1.61.4,1.67.46.25.27-.5,1.85-.42,2.56.53,5.31,1.72,9.3,7.97,8.93l4.14,11.64c-4.03,4.57-8.6,9.51-11.59,14.85-3.37,6.03-5.42,20.79-5.79,28.04-.32,6.28.73,25.08,2.91,30.43,1,2.46,4.94,7.26,5.18,9.11.58,4.48-2.61,5.29-3.74,9l1.36,1.53,1.89-.75c-.04-.68-.71-.36-.95-.48-.18-.09-.66.08-.95,0-.02-.52-.08-1.06.09-1.57.11-.32,3.28-5.02,3.71-5.58v-.48c-.76-5.21-5.25-8.57-6.52-13.72-1.47-5.96-2.37-21.22-2.03-27.51.23-4.17,2.17-19.36,3.29-22.92.73-2.32,4.87-8.48,6.48-10.66,2-2.72,7.41-7.21,7.37-10.29-.02-1.26-3.44-10.65-4.06-11.22-1.43-1.3-8.94-.23-6.4-5.89-2.12-.62.64-1.92-1.48-2.45l.98-3.57-2.4-.21-.47-1.44c3.67-3.53,2.75-6.17,3.47-10.38,1.01-5.95,5.48-7.28,10.81-8.47,7.93-1.76,14.1.05,17.13,8.32,3.11,8.48-2.44,9.28-3.61,15.5-2.42,12.92,6.54,17.08,9.53,28.62,1.99,7.68,3.11,11.2-.24,18.6s-10.99,17.6-11.39,25.51c-.76,14.92,15.45,25.78,5.88,41.19-.88,1.41-3.75,3.94-3.98,5.06-.53,2.57.85,7.18.95,9.98.47,12.1-3.95,23.97-.97,35.54.17.65.86,1.36.48,2.38,2.82,6.35,8.28,19.69,7.48,26.34-.42,3.48-2.29,7.97-3.06,11.71-1.43,7.03-3.32,20.11-2.52,27.03.54,4.68,2.46,4.17.95,9.77-.07.26.05.65,0,.95Z"/><path class="uuid-09d1982b-0882-44a9-8950-c72ec6b9d74d" d="M161.12,262.13c.48,4.41,2.34,9.38,3.33,13.83l2.48,3.96c-.09.88.22,1.53.37,2.24l3.8,3.58,1.43.48c-1.52-1.48-1.29-3.64-2.18-5.44-1.31-2.66-3.73-4.55-4.81-7.57-1.34-3.72-3.38-17.51-2.94-21.28s4.17-7.83,5.9-11.24c2.77-5.45,4.57-11.58,5.46-17.65-1.91,4.65-3.7,10.11-5.77,14.47-1.21,2.55-7.07,10.35-7.44,11.61-.68,2.33.48,9.5.78,12.31.04.34-.41.64-.4.7Z"/><path class="uuid-a622cf25-ea54-4b15-bf8f-9096d2d9fa26" d="M187.73,162.96c-.35,6.14-1.02,13.17-2.53,19.16-.71,2.82-2.83,6.34-3.15,8.29-.39,2.44.21,5.55-.01,8.09-.81,9.13-4.71,16.28-8.1,24.53-1.91,4.65-3.7,10.11-5.77,14.47-1.21,2.55-7.07,10.35-7.44,11.61-.68,2.33.48,9.5.78,12.31.04.34-.41.64-.4.7-2.89-8.68-.4-17.78-.95-26.7-.04-.68-.71-.36-.95-.48,4.89-7.43,6.06-1.05,4.64,4.42-.63,2.44-3.23,4.68-2.74,7.5,6.2-6.7,8.25-15.57,11.65-23.82,2.78-6.74,7.17-13.99,8.18-21.36.51-3.74.01-8.52.63-12.24.3-1.8,2.07-4.16,2.68-6.37,1.52-5.48,1.38-11.85,2.52-17.26.24-1.14.68-1.93.95-2.86ZM161.12,242.58c2.58-2.89,2.58-6.34,2.37-10.01h-1.9s-.47,10.01-.47,10.01Z"/><path class="uuid-ae09e36a-c9a6-4a6f-9cf6-ac6e15a9c280" d="M164.44,275.95c1.01,4.57,1.69,9.21,2.68,13.75,1.08,4.95,4.31,9.11,4.86,14.2.43,3.96-.24,8.33.07,12.33.53,6.87,5.06,28.81,1.92,33.89-.76,1.22-12.44,7.58-14.43,8.4-2.26.93-8.35,1.94-9.8,3.04-2.1,1.58-.14,4.33,2.35,3.55-.33-.26-.62-.75-.95-.95-.57-.36-2.37-.48-.94-1.65,8.67-1.85,16.21-6.29,23.74-10.74,2.51-3.72,2.14-9.23,1.92-13.61-.36-7.3-2.38-14.64-2.86-21.92-.28-4.15.41-8.8-.01-12.86-.44-4.25-3.16-7.86-4.27-12.16-.83-3.24-.81-6.02-1.43-9.06-.14-.71-.46-1.36-.37-2.24l-2.48-3.96Z"/><path class="uuid-899e4fc2-0903-4116-bbf3-ab18143ed0b8" d="M187.73,364.15h-30.41s.23-1.44.23-1.44c-1.62,1.56-2.08,1.71-4.51,1.43l1.42-.96c-1.12-1.83-1.73,1.67-3.32.96.33.21.62.69.95.95h35.64c.05-.3-.07-.69,0-.95Z"/><path class="uuid-d6a7fb87-b62b-440a-9cb3-5d6a3565f6f0" d="M183.07,104.95c5.6,9.08-2.37,15.85-1.53,25.85.47,5.63,4.33,10.21,5.24,15.48l-3.32-.48-1.91,10.25c.76.98.77.1,1.08-.37,1.18-1.79,1.46-4.04,2.01-6.07h.97c2.27,4.2-.66,7.4-1.16,10.77-.43,2.92.17,6.65-.5,9.74l2.85-4.29c-1.14,5.41-.99,11.78-2.52,17.26-.61,2.21-2.38,4.57-2.68,6.37-.62,3.72-.12,8.5-.63,12.24-1.01,7.36-5.39,14.62-8.18,21.36-3.41,8.25-5.45,17.12-11.65,23.82-.49-2.82,2.11-5.05,2.74-7.5,1.41-5.47.25-11.85-4.64-4.42-.18-.09-.66.08-.95,0-.02-.52-.08-1.06.09-1.57.11-.32,3.28-5.02,3.71-5.58,1.2-1.58,4.08-3.79,5.23-5.48,2.62-3.85,1.8-15.88,2.37-21.22.34.13.35,1.4.96.7,1.86-2.13,2.19-6.35,2.85-9.04-.05-1.43-.54-.48-.85.11-.93,1.78-1.28,3.49-1.78,5.39-.21.79.06,1.68-1.18,1.41.53-4.06,2.78-9.89,2.86-13.61.05-1.97-.93-4.58-.98-6.63-.12-5.48.13-10.99.02-16.47.8,1.51,2.98,2.88,4.01,4.32,1.46,2.06,2.14,4.51,3.39,6.63.34.58-.17,1.24,1.15.96l-1.87-6.93,2.82-4.5c-.87-.86-3.64,5.19-7.14-1.18s-.13-10.58.49-16.46c.04-.42,1.29-1.55-.23-1.43-2.09,2.82-4.64,6.64-5,10.24-.4,4.05,1.75,7.44,1.89,11.45.13,3.67-.65,7.53-.49,11.45.11,2.69,1.06,5.87,1.01,8.57-.08,4.31-2.33,10.12-2.88,14.79-.63,5.46.42,17.22-2.18,21.17-1.2,1.81-3.73,3-4.48,5.28-.76-5.21-5.25-8.57-6.52-13.72-1.47-5.96-2.37-21.22-2.03-27.51.23-4.17,2.17-19.36,3.29-22.92.73-2.32,4.87-8.48,6.48-10.66,2-2.72,7.41-7.21,7.37-10.29-.02-1.26-3.44-10.65-4.06-11.22-1.43-1.3-8.94-.23-6.4-5.89-2.12-.62.64-1.92-1.48-2.45l.98-3.57-2.4-.21-.47-1.44c3.67-3.53,2.75-6.17,3.47-10.38,1.01-5.95,5.48-7.28,10.81-8.47,4.66,1.88,9.01,1.54,11.97,6.34ZM167.34,107.37c-.6-.95-.28-2.29-1.24-3.04-2.19,3.22,2.18,7.39,5.46,7.14-.07-2.16-3.35-2.71-4.22-4.1ZM178.92,117.19c-.11.25-3.55,3.71-3.8,3.82-1.02.43-.31-1.5-1.65-.95,1.36,3.81,7.1-2.28,6.65-4.98-.6-3.56-6.99-2.2-5.7-.74,2.47-2.15,5.94-.49,4.5,2.85ZM158.7,201.34c0-4.51,3.26-8.38,3.38-12.9.02-.87-.72-6.64-.97-6.88-1.62-1.55-.47,2.01-.47,2.14v8.1c0,.44-1.34,2.73-1.56,3.68-1.11,4.85-1.7,7.79-.1,12.78.27.83.06,1.12,1.18.94-1.5,3.26-.73,8.49.35,11.83.26.8-.21,1.26,1.08,1.04-1.02-4.69-2.72-9.04.08-13.51,1.14-1.82,3.63-2.91,4.2-5.08-.68-.66-5.43,5.13-5.7,5.72-.14-2.61-1.46-5.27-1.47-7.87Z"/><path class="uuid-d6a7fb87-b62b-440a-9cb3-5d6a3565f6f0" d="M182.51,195.15c-.76,14.92,15.45,25.78,5.88,41.19-.88,1.41-3.75,3.94-3.98,5.06-.53,2.57.85,7.18.95,9.98.47,12.1-3.95,23.97-.97,35.54l-2.24-3.71c-3.09-10.54-3.74-21.1-3.46-32.05.06-2.22-.23-4.76,0-6.91.17-1.56,1.85-5.46,1.19-6.45-.91-1.17-2.5.99-3.11,1.67-3.97,4.4-4.19,14.6-4.28,20.49-.04,2.33.16,13.24.59,14.7.35,1.19,2.98,2.42,2.28,4.63l.48-1.9,1.18.94.64-.77c-.28-7.59-.7-15.24-.41-22.84.04-.92-.49-1.91.95-1.65.67,16.79-.25,20.67,6.65,36.23,2.82,6.35,8.28,19.69,7.48,26.34-.42,3.48-2.29,7.97-3.06,11.71-1.43,7.03-3.32,20.11-2.52,27.03.54,4.68,2.46,4.17.95,9.77h-30.41s.23-1.44.23-1.44c-1.62,1.56-2.08,1.71-4.51,1.43l1.42-.96c-1.12-1.83-1.73,1.67-3.32.96-.57-.36-2.37-.48-.94-1.65,8.67-1.85,16.21-6.29,23.74-10.74,1.19-.7,1.94-.08,3.25-2.23,2.52-4.13,1.56-18.5,1.02-23.75s-4.7-28.93-6.91-32.16c-.62-.91-1.67-1.8-2.58-2.42-.83-3.24-.81-6.02-1.43-9.06l3.8,3.58,1.43.48c-1.52-1.48-1.29-3.64-2.18-5.44-1.31-2.66-3.73-4.55-4.81-7.57-1.34-3.72-3.38-17.51-2.94-21.28s4.17-7.83,5.9-11.24c2.77-5.45,4.57-11.58,5.46-17.65,3.39-8.25,7.28-15.4,8.1-24.53.23-2.54-.38-5.65.01-8.09.31-1.95,2.43-5.46,3.15-8.29,1.51-5.98,2.17-13.02,2.53-19.16,1.03-3.51,1.98-6.02,2.87-9.77.13-.55.1-1.54.93-.72.5.49,2.21,5.94,2.33,6.96.42,3.58-.88,6.97.05,10.2-3.35,7.39-10.99,17.6-11.39,25.51ZM174.42,297.17c0,.42,2.15,5.74,2.38,5.96l.95-.24c.22-.65-.96-1.25-.96-1.42v-11.44c0-.36-.71-1.39-.52-2.1l-1.86-.05v9.3ZM185.77,323.34c1.18-12.02.07-19.11-4.57-30.11-.25-.59-.26-1.41-1.08-1.54,1.87,9.53,6.01,18.93,5.21,28.83-.37,4.62-2.25,9.71-1.89,14.55l2.32-11.73ZM178.9,356.08c-.82-1.7.66-2.56,1.7-3.62l-.77-1.15c-6.17-1.85-3.78,15.37,3.63,5.21l-4.55-.45Z"/><path class="uuid-2d3fb645-2dae-4939-ae7b-d3e18b43c254" d="M171.1,98.6c4.66,1.88,9.01,1.54,11.97,6.34,5.6,9.08-2.37,15.85-1.53,25.85.47,5.63,4.33,10.21,5.24,15.48l-3.32-.48-1.91,10.25c.76.98.77.1,1.08-.37,1.18-1.79,1.46-4.04,2.01-6.07h.97c2.27,4.2-.66,7.4-1.16,10.77-.43,2.92.17,6.65-.5,9.74l2.85-4.29c.24-1.14.68-1.93.95-2.86,1.03-3.51,1.98-6.02,2.87-9.77.13-.55.1-1.54.93-.72.5.49,2.21,5.94,2.33,6.96.42,3.58-.88,6.97.05,10.2,3.35-7.4,2.23-10.92.24-18.6-2.99-11.54-11.95-15.7-9.53-28.62,1.16-6.22,6.72-7.02,3.61-15.5-3.03-8.27-9.2-10.08-17.13-8.32Z"/><path class="uuid-218e0910-20c6-426f-a24a-8879d30aa440" d="M162.07,227.33v.48c1.2-1.58,4.08-3.79,5.23-5.48,2.62-3.85,1.8-15.88,2.37-21.22.05-.47-.06-.97,0-1.43.53-4.06,2.78-9.89,2.86-13.61.05-1.97-.93-4.58-.98-6.63-.12-5.48.13-10.99.02-16.47-2.86-5.4-1.49-12.92,2.85-17.16.04-.42,1.29-1.55-.23-1.43-2.09,2.82-4.64,6.64-5,10.24-.4,4.05,1.75,7.44,1.89,11.45.13,3.67-.65,7.53-.49,11.45.11,2.69,1.06,5.87,1.01,8.57-.08,4.31-2.33,10.12-2.88,14.79-.63,5.46.42,17.22-2.18,21.17-1.2,1.81-3.73,3-4.48,5.28Z"/><path class="uuid-9c874b22-0217-46e8-b0f3-6118a5db2ca0" d="M178.22,253.07c.67,16.79-.25,20.67,6.65,36.23.39-1.02-.31-1.73-.48-2.38l-2.24-3.71c-3.09-10.54-3.74-21.1-3.46-32.05l-.94-1.9c-.21,1.31.42,2.54.47,3.81Z"/><path class="uuid-41ffcb8a-a70d-494b-b5be-668e770fabe6" d="M161.59,232.57l-.47,10.01c2.58-2.89,2.58-6.34,2.37-10.01h-1.9Z"/><path class="uuid-8906b087-7fac-48f2-92fa-44e8f18f67b5" d="M173.95,351.76c1.19-.7,1.94-.08,3.25-2.23,2.52-4.13,1.56-18.5,1.02-23.75s-4.7-28.93-6.91-32.16c-.62-.91-1.67-1.8-2.58-2.42,1.11,4.31,3.83,7.92,4.27,12.16.42,4.05-.26,8.71.01,12.86.48,7.28,2.5,14.61,2.86,21.92.22,4.38.59,9.89-1.92,13.61Z"/><path class="uuid-8906b087-7fac-48f2-92fa-44e8f18f67b5" d="M171.57,162.96c.8,1.51,2.98,2.88,4.01,4.32,1.46,2.06,2.14,4.51,3.39,6.63.34.58-.17,1.24,1.15.96l-1.87-6.93,2.82-4.5c-.87-.86-3.64,5.19-7.14-1.18s-.13-10.58.49-16.46c-4.35,4.24-5.72,11.77-2.85,17.16Z"/><path class="uuid-c5d850a5-afe7-4a81-b5b2-afd784d43a0f" d="M160.17,209.21c-.14-2.61-1.46-5.27-1.47-7.87,0-4.51,3.26-8.38,3.38-12.9.02-.87-.72-6.64-.97-6.88-1.62-1.55-.47,2.01-.47,2.14v8.1c0,.44-1.34,2.73-1.56,3.68-1.11,4.85-1.7,7.79-.1,12.78.27.83.06,1.12,1.18.94Z"/><path class="uuid-7ce9e588-c65c-4b23-a52b-36722d78bf88" d="M160.17,209.21c-1.5,3.26-.73,8.49.35,11.83.26.8-.21,1.26,1.08,1.04-1.02-4.69-2.72-9.04.08-13.51,1.14-1.82,3.63-2.91,4.2-5.08-.68-.66-5.43,5.13-5.7,5.72Z"/><path class="uuid-22b8f31f-3c77-46a1-96e8-a1a6ed0b4ead" d="M171.57,111.47c-.07-2.16-3.35-2.71-4.22-4.1-.6-.95-.28-2.29-1.24-3.04-2.19,3.22,2.18,7.39,5.46,7.14Z"/><path class="uuid-ef93511b-61c8-4e19-ba09-e4ccbfa97dbd" d="M174.43,114.34c2.47-2.15,5.94-.49,4.5,2.85-.11.25-3.55,3.71-3.8,3.82-1.02.43-.31-1.5-1.65-.95,1.36,3.81,7.1-2.28,6.65-4.98-.6-3.56-6.99-2.2-5.7-.74Z"/><path class="uuid-e048d2b9-dd50-4ed5-a122-4b40156d34c7" d="M169.67,201.1c.34.13.35,1.4.96.7,1.86-2.13,2.19-6.35,2.85-9.04-.05-1.43-.54-.48-.85.11-.93,1.78-1.28,3.49-1.78,5.39-.21.79.06,1.68-1.18,1.41-.06.46.05.96,0,1.43Z"/><path class="uuid-8fe4477a-c335-4225-aa21-d136e2ff0ba0" d="M178.7,251.16c.06-2.22-.23-4.76,0-6.91.17-1.56,1.85-5.46,1.19-6.45-.91-1.17-2.5.99-3.11,1.67-3.97,4.4-4.19,14.6-4.28,20.49-.04,2.33.16,13.24.59,14.7.35,1.19,2.98,2.42,2.28,4.63l.48-1.9,1.18.94.64-.77c-.28-7.59-.7-15.24-.41-22.84.04-.92-.49-1.91.95-1.65-.05-1.27-.68-2.5-.47-3.81l.94,1.9Z"/><path class="uuid-7f8d3e47-2321-4cf4-a369-93c80a5b0528" d="M183.46,335.07l2.32-11.73c1.18-12.02.07-19.11-4.57-30.11-.25-.59-.26-1.41-1.08-1.54,1.87,9.53,6.01,18.93,5.21,28.83-.37,4.62-2.25,9.71-1.89,14.55Z"/><path class="uuid-57927ab6-64f4-44f6-907f-9c16e3e98ac5" d="M183.45,356.53l-4.55-.45c-.82-1.7.66-2.56,1.7-3.62l-.77-1.15c-6.17-1.85-3.78,15.37,3.63,5.21Z"/><path class="uuid-86a1f32f-fb1b-4d1c-85d9-36edae04e484" d="M174.42,287.87v9.3c0,.42,2.15,5.74,2.38,5.96l.95-.24c.22-.65-.96-1.25-.96-1.42v-11.44c0-.36-.71-1.39-.52-2.1l-1.86-.05Z"/><path class="uuid-ae09e36a-c9a6-4a6f-9cf6-ac6e15a9c280" d="M160.91,102.45s-.06,3.55,2.94,6.55,7,4,8,5,.94-.73,3.97-.87,5.03.87,4.03,4.87,6,4,6,4c0,0,1-3,3-5s3-11-1-16-11-5-13-5-8.89-.1-13.94,6.45Z"/></g></g></svg>