<?xml version="1.0" encoding="UTF-8"?><svg xmlns="http://www.w3.org/2000/svg" viewBox="0 0 300 300"><defs><style>.uuid-d0011f39-636d-4800-ba0f-7429526c900d{fill:#b4b4b4;}.uuid-fcba2137-0c39-4706-b9f2-5a365665f66f{fill:#a7a7a7;}.uuid-60cce170-a67f-4917-b8a8-254c018be4ed{fill:#c5c5c5;}.uuid-32dcc88d-8f73-4c47-ab78-93fe11903f0a{fill:#fff;}.uuid-581abe7f-6ffa-4afc-9f64-aede4efc2d65{fill:#b9b9b9;}.uuid-646ce774-359a-4d09-a50b-0323fd8d363c{fill:#9d9d9d;}.uuid-49ae4e44-80ad-4005-bbac-ae2175e40e81{fill:#dfdfdf;}.uuid-7236f80b-ddbf-4a09-937a-1d521c628350{fill:#c4c4c4;}.uuid-82205ab9-303d-44a3-8796-eb5920fdf8a3{fill:silver;}.uuid-f2ff3cf8-ba99-49e8-8945-e9e10bbc39f5{fill:#ababab;}.uuid-f2f06b7f-53f1-463a-b546-2ba5e029bf55{fill:#d3d3d3;}.uuid-61a94aef-9569-41cb-874d-6646d8168b08{fill:#b8b8b8;}.uuid-f41f2d9c-a431-4380-bb44-06c33828dc64{fill:#c2c2c2;}.uuid-ed52aaa0-9efe-4643-b7ac-ea54ca503c29{fill:#a5a5a5;}.uuid-073063a6-87e0-44a0-b0ef-a2ffa21caf95{fill:#9b9b9b;}.uuid-92a8cb70-e239-4312-ad29-baf4fd88bde8{fill:#565656;stroke:#fff;stroke-miterlimit:10;}.uuid-655284fd-2898-4b01-b0c1-94fc1f1e65e2{fill:#a8a8a8;}.uuid-3535ec1b-156c-44e0-b093-e5593a020590{fill:#d1d1d1;}.uuid-b124afe4-3ca4-489f-928d-4c33830c3ee8{fill:#f4f4f4;}.uuid-91e0ada8-72d9-474a-8028-3d94f7ca6651{fill:#bbb;}.uuid-ff20f798-21e8-4bce-b6d7-e5a94986d961{fill:#ededed;}.uuid-87ac9de3-b012-4ed2-814e-792b783012e7{fill:#c6c6c6;}.uuid-4acf4982-7fe4-4d2c-83b7-a886b5f59806{fill:#c1c1c1;}.uuid-71c38c0a-13ca-4318-8c76-62f19f121b9e{fill:#bfbfbf;}</style></defs><g id="uuid-502b94cc-1af7-4395-a875-fef8ff224ea6"><path class="uuid-b124afe4-3ca4-489f-928d-4c33830c3ee8" d="M150.5,53.79C61.07,53.79,1,40.01,1,27.15S61.07.5,150.5.5s149.5,13.78,149.5,26.65-60.07,26.65-149.5,26.65Z"/><path class="uuid-32dcc88d-8f73-4c47-ab78-93fe11903f0a" d="M150.5,1.5c40.08,0,77.75,2.86,106.06,8.06,31.29,5.75,42.44,12.85,42.44,17.58s-11.15,11.83-42.44,17.58c-28.31,5.2-65.98,8.06-106.06,8.06s-77.75-2.86-106.06-8.06C13.15,38.98,2,31.88,2,27.15S13.15,15.31,44.44,9.56C72.75,4.36,110.42,1.5,150.5,1.5M150.5-.5C67.38-.5,0,11.88,0,27.15s67.38,27.65,150.5,27.65,150.5-12.38,150.5-27.65S233.62-.5,150.5-.5h0Z"/><path class="uuid-32dcc88d-8f73-4c47-ab78-93fe11903f0a" d="M150.5-39c39.82,0,77.39,2.99,105.78,8.41,31.11,5.94,42.2,13.16,42.2,17.93V19.45c-8.75-7.04-28.74-11.73-45.44-14.57C225.05.12,188.63-2.5,150.5-2.5S75.95.12,47.96,4.88C31.26,7.72,11.27,12.41,2.52,19.45V-14.04c0-4.7,11.08-11.69,42.17-17.23,27.94-4.98,65.52-7.72,105.81-7.72M150.5-41C67.38-41,.52-29.31.52-14.04V24.85C6.86,10.66,71.59-.5,150.5-.5s143.64,11.16,149.98,25.35V-12.66c0-15.27-66.86-28.34-149.98-28.34h0Z"/><path class="uuid-ff20f798-21e8-4bce-b6d7-e5a94986d961" d="M150.5-.5c78.91,0,143.64,11.16,149.98,25.35V-12.66c0-15.27-66.86-28.34-149.98-28.34S.52-29.31.52-14.04V24.85C6.86,10.66,71.59-.5,150.5-.5Z"/><ellipse class="uuid-92a8cb70-e239-4312-ad29-baf4fd88bde8" cx="150.5" cy="25.07" rx="86.67" ry="14.51"/><path class="uuid-32dcc88d-8f73-4c47-ab78-93fe11903f0a" d="M213.95,17.75c-17.76-2.46-40.72-3.75-65.57-3.75s-48.11,1.23-65.98,3.75h0v285.25h131.56V17.75Z"/></g><g id="uuid-bba7ede1-8a07-40fc-9097-46e28db70c23"><g id="uuid-6e2fb8ca-52b6-4938-a8d1-b4884145e059"><path class="uuid-073063a6-87e0-44a0-b0ef-a2ffa21caf95" d="M135.83,15.24c-4.25,3.06-.33,8.1.02,12.24,1.21,14.53-4.13,26.08-5.87,39.16-1.36,10.19,6.41,21.84,8.46,31.75,2.69,12.95-2.08,21.02-1.61,33.14.17,4.2,1.2,8.76,1.5,12.98-1.38,2.81-4.28,4.61-5.51,7.52-7.81,18.4,12.03,29.4,6.39,46.93-2.65,8.23-13.11,20.92-13.37,29.15-.09,2.86,2.38,14.68,3.49,17.5,3.55,9.05,11.04,11.04,8.87,23.87-1,5.91-5.99,6.81-4.74,14.5.57,3.55,4.85,9.73,8.09,11.39,5.22,2.68,18.89.57,22.42-4.55,2.6-3.77,1.13-7.06,2.54-10.96.84-2.31,4.65-5.01,1.99-7.05-.59-.45-1.69-.42-1.75-.48-.26-.28.52-1.95.45-2.69-.56-5.58-1.81-9.76-8.37-9.37l-4.35-12.21c4.23-4.79,9.03-9.98,12.16-15.58,3.53-6.32,5.68-21.81,6.07-29.42.34-6.58-.77-26.32-3.06-31.93-1.05-2.59-5.19-7.62-5.44-9.56-.61-4.7,2.74-5.55,3.92-9.45l-1.42-1.61-1.98.78c.04.71.74.37,1,.5.19.09.69-.08,1,0,.02.55.08,1.11-.1,1.65-.11.33-3.44,5.27-3.89,5.85v.5c.79,5.47,5.5,8.99,6.84,14.4,1.55,6.26,2.49,22.27,2.13,28.86-.24,4.37-2.28,20.31-3.45,24.05-.77,2.44-5.11,8.9-6.8,11.19-2.1,2.85-7.77,7.56-7.73,10.8.02,1.32,3.61,11.17,4.26,11.77,1.5,1.37,9.38.24,6.72,6.18,2.22.65-.67,2.01,1.56,2.57l-1.03,3.74,2.52.22.49,1.51c-3.85,3.7-2.88,6.47-3.64,10.9-1.06,6.24-5.75,7.64-11.34,8.88-8.32,1.84-14.79-.06-17.97-8.73s2.56-9.74,3.78-16.26c2.54-13.55-6.86-17.92-10-30.03-2.09-8.05-3.26-11.75.26-19.51s11.53-18.47,11.95-26.77c.8-15.66-16.21-27.05-6.17-43.21.92-1.48,3.93-4.13,4.18-5.31.56-2.69-.89-7.53-1-10.47-.49-12.7,4.15-25.15,1.02-37.29-.18-.69-.9-1.43-.5-2.5-2.96-6.67-8.68-20.66-7.85-27.63.44-3.65,2.41-8.36,3.21-12.29,1.5-7.38,3.48-21.1,2.65-28.36-.56-4.91-2.59-4.37-1-10.25.07-.27-.05-.68,0-1Z"/><path class="uuid-4acf4982-7fe4-4d2c-83b7-a886b5f59806" d="M163.75,123.29c-.51-4.63-2.46-9.84-3.49-14.51l-2.61-4.15c.09-.92-.24-1.61-.39-2.35l-3.98-3.76-1.5-.5c1.59,1.56,1.36,3.82,2.29,5.71,1.38,2.79,3.91,4.77,5.05,7.94,1.4,3.9,3.55,18.37,3.08,22.33s-4.38,8.21-6.19,11.79c-2.9,5.72-4.79,12.16-5.72,18.52,2-4.88,3.89-10.6,6.05-15.19,1.27-2.68,7.41-10.86,7.8-12.18.72-2.44-.5-9.97-.81-12.92-.04-.36.43-.67.42-.73Z"/><path class="uuid-ed52aaa0-9efe-4643-b7ac-ea54ca503c29" d="M135.83,227.34c.37-6.44,1.07-13.82,2.65-20.1.75-2.96,2.97-6.65,3.3-8.69.41-2.56-.22-5.83.01-8.49.85-9.58,4.94-17.08,8.49-25.74,2-4.88,3.89-10.6,6.05-15.19,1.27-2.68,7.41-10.86,7.8-12.18.72-2.44-.5-9.97-.81-12.92-.04-.36.43-.67.42-.73,3.03,9.1.42,18.65,1,28.01.04.71.74.37,1,.5-5.13,7.8-6.35,1.11-4.87-4.64.66-2.56,3.39-4.91,2.87-7.87-6.51,7.03-8.65,16.33-12.23,24.99-2.92,7.07-7.52,14.68-8.58,22.41-.54,3.92-.01,8.94-.66,12.84-.31,1.89-2.17,4.37-2.81,6.68-1.6,5.74-1.45,12.43-2.64,18.11-.25,1.19-.71,2.03-1,3ZM163.74,143.8c-2.7,3.03-2.71,6.66-2.48,10.5h1.99s.5-10.5.5-10.5Z"/><path class="uuid-646ce774-359a-4d09-a50b-0323fd8d363c" d="M160.26,108.78c-1.06-4.79-1.77-9.67-2.82-14.43-1.14-5.19-4.52-9.56-5.1-14.9-.45-4.15.25-8.74-.07-12.93-.55-7.2-5.31-30.23-2.02-35.56.79-1.28,13.05-7.96,15.14-8.82,2.38-.98,8.76-2.04,10.28-3.18,2.2-1.66.14-4.54-2.46-3.72.35.27.65.78,1,1,.59.38,2.49.51.98,1.73-9.1,1.94-17,6.6-24.91,11.27-2.64,3.9-2.24,9.68-2.01,14.28.38,7.66,2.5,15.36,3,23,.29,4.36-.43,9.24.02,13.49s3.32,8.25,4.48,12.76c.87,3.4.85,6.32,1.5,9.5.15.74.48,1.43.39,2.35l2.61,4.15Z"/><path class="uuid-655284fd-2898-4b01-b0c1-94fc1f1e65e2" d="M135.83,16.24h31.91s-.24,1.51-.24,1.51c1.7-1.64,2.19-1.8,4.73-1.5l-1.49,1c1.17,1.92,1.81-1.75,3.49-1.01-.35-.22-.65-.73-1-1h-37.39c-.05.32.07.73,0,1Z"/><path class="uuid-f2f06b7f-53f1-463a-b546-2ba5e029bf55" d="M140.72,288.21c-5.87-9.53,2.48-16.63,1.61-27.13-.49-5.91-4.55-10.71-5.5-16.24l3.48.5,2.01-10.75c-.8-1.03-.81-.1-1.13.39-1.24,1.88-1.53,4.24-2.11,6.36h-1.01c-2.39-4.41.7-7.77,1.22-11.3.46-3.06-.17-6.98.53-10.22l-2.99,4.5c1.19-5.68,1.04-12.36,2.64-18.11.64-2.32,2.5-4.79,2.81-6.68.65-3.9.12-8.92.66-12.84,1.05-7.73,5.66-15.34,8.58-22.41,3.57-8.66,5.72-17.96,12.23-24.99.51,2.96-2.21,5.3-2.87,7.87-1.48,5.74-.26,12.44,4.87,4.64.19.09.69-.08,1,0,.02.55.08,1.11-.1,1.65-.11.33-3.44,5.27-3.89,5.85-1.26,1.66-4.28,3.98-5.49,5.75-2.75,4.04-1.89,16.66-2.49,22.26-.36-.14-.37-1.47-1-.73-1.95,2.23-2.29,6.66-2.99,9.49.05,1.51.56.51.89-.12.98-1.87,1.34-3.66,1.87-5.65.22-.83-.06-1.76,1.24-1.48-.55,4.26-2.91,10.38-3,14.28-.05,2.07.98,4.8,1.03,6.96.13,5.75-.14,11.53-.02,17.28-.84-1.58-3.13-3.02-4.2-4.54-1.53-2.16-2.25-4.73-3.56-6.95-.36-.61.18-1.3-1.21-1.01l1.97,7.28-2.96,4.72c.92.91,3.82-5.44,7.49,1.24,3.53,6.43.13,11.1-.52,17.27-.05.44-1.36,1.62.24,1.5,2.2-2.96,4.87-6.97,5.24-10.75.41-4.25-1.83-7.8-1.98-12.02-.14-3.86.68-7.9.51-12.01-.12-2.82-1.11-6.16-1.05-8.99.09-4.53,2.45-10.61,3.02-15.51.66-5.72-.44-18.07,2.29-22.21,1.26-1.9,3.91-3.15,4.7-5.54.79,5.47,5.5,8.99,6.84,14.4,1.55,6.26,2.49,22.27,2.13,28.86-.24,4.37-2.28,20.31-3.45,24.05-.77,2.44-5.11,8.9-6.8,11.19-2.1,2.85-7.77,7.56-7.73,10.8.02,1.32,3.61,11.17,4.26,11.77,1.5,1.37,9.38.24,6.72,6.18,2.22.65-.67,2.01,1.56,2.57l-1.03,3.74,2.52.22.49,1.51c-3.85,3.7-2.88,6.47-3.64,10.9-1.06,6.24-5.75,7.64-11.34,8.88-4.89-1.98-9.46-1.62-12.56-6.66ZM157.21,285.66c.63,1,.29,2.4,1.3,3.19,2.29-3.38-2.29-7.75-5.73-7.49.08,2.27,3.52,2.84,4.43,4.3ZM145.06,275.37c.11-.26,3.72-3.9,3.98-4.01,1.07-.45.33,1.58,1.73.99-1.43-4-7.45,2.39-6.98,5.22.63,3.73,7.33,2.3,5.98.78-2.59,2.26-6.23.52-4.72-2.99ZM166.28,187.07c0,4.73-3.42,8.79-3.55,13.54-.02.91.76,6.97,1.02,7.22,1.7,1.63.49-2.11.49-2.25v-8.5c0-.46,1.41-2.87,1.63-3.86,1.16-5.09,1.79-8.18.1-13.41-.28-.88-.06-1.18-1.24-.99,1.58-3.42.76-8.91-.36-12.42-.27-.84.22-1.32-1.13-1.09,1.07,4.92,2.85,9.49-.08,14.17-1.2,1.91-3.8,3.05-4.4,5.33.71.69,5.7-5.39,5.98-6,.15,2.74,1.53,5.52,1.54,8.25Z"/><path class="uuid-f2f06b7f-53f1-463a-b546-2ba5e029bf55" d="M141.3,193.56c.8-15.66-16.21-27.05-6.17-43.21.92-1.48,3.93-4.13,4.18-5.31.56-2.69-.89-7.53-1-10.47-.49-12.7,4.15-25.15,1.02-37.29l2.36,3.89c3.25,11.06,3.93,22.14,3.63,33.63-.06,2.33.24,5,0,7.25-.18,1.64-1.94,5.73-1.25,6.77.95,1.23,2.62-1.03,3.26-1.75,4.16-4.62,4.4-15.32,4.49-21.5.04-2.45-.17-13.89-.62-15.42-.37-1.24-3.13-2.54-2.39-4.85l-.5,2-1.24-.99-.67.81c.29,7.96.74,15.99.43,23.96-.04.96.51,2.01-1,1.73-.7-17.61.27-21.69-6.98-38.02-2.96-6.67-8.68-20.66-7.85-27.63.44-3.65,2.41-8.36,3.21-12.29,1.5-7.38,3.48-21.1,2.65-28.36-.56-4.91-2.59-4.37-1-10.25h31.91s-.24,1.51-.24,1.51c1.7-1.64,2.19-1.8,4.73-1.5l-1.49,1c1.17,1.92,1.81-1.75,3.49-1.01.59.38,2.49.51.98,1.73-9.1,1.94-17,6.6-24.91,11.27-1.25.74-2.03.09-3.41,2.34-2.65,4.33-1.63,19.41-1.07,24.92s4.93,30.35,7.25,33.74c.65.95,1.75,1.89,2.71,2.54.87,3.4.85,6.32,1.5,9.5l-3.98-3.76-1.5-.5c1.59,1.56,1.36,3.82,2.29,5.71,1.38,2.79,3.91,4.77,5.05,7.94,1.4,3.9,3.55,18.37,3.08,22.33s-4.38,8.21-6.19,11.79c-2.9,5.72-4.79,12.16-5.72,18.52-3.55,8.66-7.64,16.16-8.49,25.74-.24,2.66.4,5.93-.01,8.49-.33,2.04-2.55,5.73-3.3,8.69-1.58,6.28-2.28,13.66-2.65,20.1-1.08,3.68-2.07,6.31-3.01,10.25-.14.58-.1,1.61-.97.76-.52-.51-2.32-6.23-2.45-7.31-.44-3.75.92-7.31-.06-10.7,3.51-7.76,11.53-18.47,11.95-26.77ZM149.79,86.52c0-.44-2.26-6.02-2.5-6.25l-1,.26c-.23.68,1.01,1.32,1.01,1.49v12.01c0,.38.74,1.46.54,2.2l1.95.05v-9.75ZM137.88,59.07c-1.24,12.61-.08,20.06,4.79,31.6.26.62.27,1.48,1.13,1.61-1.96-10-6.3-19.86-5.47-30.25.39-4.85,2.36-10.19,1.98-15.26l-2.43,12.31ZM145.09,24.71c.86,1.78-.69,2.68-1.78,3.8l.81,1.2c6.47,1.94,3.97-16.12-3.81-5.47l4.77.47Z"/><path class="uuid-49ae4e44-80ad-4005-bbac-ae2175e40e81" d="M153.28,294.87c-4.89-1.98-9.46-1.62-12.56-6.66-5.87-9.53,2.48-16.63,1.61-27.13-.49-5.91-4.55-10.71-5.5-16.24l3.48.5,2.01-10.75c-.8-1.03-.81-.1-1.13.39-1.24,1.88-1.53,4.24-2.11,6.36h-1.01c-2.39-4.41.7-7.77,1.22-11.3.46-3.06-.17-6.98.53-10.22l-2.99,4.5c-.25,1.19-.71,2.03-1,3-1.08,3.68-2.07,6.31-3.01,10.25-.14.58-.1,1.61-.97.76-.52-.51-2.32-6.23-2.45-7.31-.44-3.75.92-7.31-.06-10.7-3.52,7.77-2.34,11.46-.26,19.51,3.14,12.11,12.54,16.48,10,30.03-1.22,6.52-7.05,7.37-3.78,16.26s9.65,10.58,17.97,8.73Z"/><path class="uuid-fcba2137-0c39-4706-b9f2-5a365665f66f" d="M162.75,159.81v-.5c-1.26,1.66-4.28,3.98-5.49,5.75-2.75,4.04-1.89,16.66-2.49,22.26-.05.49.06,1.01,0,1.5-.55,4.26-2.91,10.38-3,14.28-.05,2.07.98,4.8,1.03,6.96.13,5.75-.14,11.53-.02,17.28,3.01,5.66,1.57,13.56-2.99,18.01-.05.44-1.36,1.62.24,1.5,2.2-2.96,4.87-6.97,5.24-10.75.41-4.25-1.83-7.8-1.98-12.02-.14-3.86.68-7.9.51-12.01-.12-2.82-1.11-6.16-1.05-8.99.09-4.53,2.45-10.61,3.02-15.51.66-5.72-.44-18.07,2.29-22.21,1.26-1.9,3.91-3.15,4.7-5.54Z"/><path class="uuid-61a94aef-9569-41cb-874d-6646d8168b08" d="M145.8,132.79c-.7-17.61.27-21.69-6.98-38.02-.41,1.07.32,1.81.5,2.5l2.36,3.89c3.25,11.06,3.93,22.14,3.63,33.63l.99,2c.22-1.38-.44-2.67-.49-4Z"/><path class="uuid-3535ec1b-156c-44e0-b093-e5593a020590" d="M163.25,154.31l.5-10.5c-2.7,3.03-2.71,6.66-2.48,10.5h1.99Z"/><path class="uuid-7236f80b-ddbf-4a09-937a-1d521c628350" d="M150.29,29.25c-1.25.74-2.03.09-3.41,2.34-2.65,4.33-1.63,19.41-1.07,24.92s4.93,30.35,7.25,33.74c.65.95,1.75,1.89,2.71,2.54-1.16-4.52-4.02-8.31-4.48-12.76s.27-9.14-.02-13.49c-.51-7.64-2.62-15.33-3-23-.23-4.6-.62-10.38,2.01-14.28Z"/><path class="uuid-7236f80b-ddbf-4a09-937a-1d521c628350" d="M152.78,227.34c-.84-1.58-3.13-3.02-4.2-4.54-1.53-2.16-2.25-4.73-3.56-6.95-.36-.61.18-1.3-1.21-1.01l1.97,7.28-2.96,4.72c.92.91,3.82-5.44,7.49,1.24,3.53,6.43.13,11.1-.52,17.27,4.56-4.45,6-12.35,2.99-18.01Z"/><path class="uuid-d0011f39-636d-4800-ba0f-7429526c900d" d="M164.74,178.81c.15,2.74,1.53,5.52,1.54,8.25,0,4.73-3.42,8.79-3.55,13.54-.02.91.76,6.97,1.02,7.22,1.7,1.63.49-2.11.49-2.25v-8.5c0-.46,1.41-2.87,1.63-3.86,1.16-5.09,1.79-8.18.1-13.41-.28-.88-.06-1.18-1.24-.99Z"/><path class="uuid-91e0ada8-72d9-474a-8028-3d94f7ca6651" d="M164.74,178.81c1.58-3.42.76-8.91-.36-12.42-.27-.84.22-1.32-1.13-1.09,1.07,4.92,2.85,9.49-.08,14.17-1.2,1.91-3.8,3.05-4.4,5.33.71.69,5.7-5.39,5.98-6Z"/><path class="uuid-60cce170-a67f-4917-b8a8-254c018be4ed" d="M152.78,281.36c.08,2.27,3.52,2.84,4.43,4.3.63,1,.29,2.4,1.3,3.19,2.29-3.38-2.29-7.75-5.73-7.49Z"/><path class="uuid-f2ff3cf8-ba99-49e8-8945-e9e10bbc39f5" d="M149.78,278.36c-2.59,2.26-6.23.52-4.72-2.99.11-.26,3.72-3.9,3.98-4.01,1.07-.45.33,1.58,1.73.99-1.43-4-7.45,2.39-6.98,5.22.63,3.73,7.33,2.3,5.98.78Z"/><path class="uuid-87ac9de3-b012-4ed2-814e-792b783012e7" d="M154.77,187.32c-.36-.14-.37-1.47-1-.73-1.95,2.23-2.29,6.66-2.99,9.49.05,1.51.56.51.89-.12.98-1.87,1.34-3.66,1.87-5.65.22-.83-.06-1.76,1.24-1.48.06-.49-.05-1.01,0-1.5Z"/><path class="uuid-f41f2d9c-a431-4380-bb44-06c33828dc64" d="M145.3,134.79c-.06,2.33.24,5,0,7.25-.18,1.64-1.94,5.73-1.25,6.77.95,1.23,2.62-1.03,3.26-1.75,4.16-4.62,4.4-15.32,4.49-21.5.04-2.45-.17-13.89-.62-15.42-.37-1.24-3.13-2.54-2.39-4.85l-.5,2-1.24-.99-.67.81c.29,7.96.74,15.99.43,23.96-.04.96.51,2.01-1,1.73.05,1.33.71,2.62.49,4l-.99-2Z"/><path class="uuid-581abe7f-6ffa-4afc-9f64-aede4efc2d65" d="M140.31,46.76l-2.43,12.31c-1.24,12.61-.08,20.06,4.79,31.6.26.62.27,1.48,1.13,1.61-1.96-10-6.3-19.86-5.47-30.25.39-4.85,2.36-10.19,1.98-15.26Z"/><path class="uuid-82205ab9-303d-44a3-8796-eb5920fdf8a3" d="M140.31,24.24l4.77.47c.86,1.78-.69,2.68-1.78,3.8l.81,1.2c6.47,1.94,3.97-16.12-3.81-5.47Z"/><path class="uuid-71c38c0a-13ca-4318-8c76-62f19f121b9e" d="M149.79,96.28v-9.75c0-.44-2.26-6.02-2.5-6.25l-1,.26c-.23.68,1.01,1.32,1.01,1.49v12.01c0,.38.74,1.46.54,2.2l1.95.05Z"/><path class="uuid-646ce774-359a-4d09-a50b-0323fd8d363c" d="M163.96,290.83s.06-3.73-3.09-6.87-7.34-4.2-8.39-5.25-.98.77-4.16.91-5.28-.91-4.23-5.11-6.3-4.2-6.3-4.2c0,0-1.05,3.15-3.15,5.25s-3.15,11.54,1.05,16.79c4.2,5.25,11.54,5.25,13.64,5.25s9.32.11,14.63-6.77Z"/></g></g></svg>