<?xml version="1.0" encoding="UTF-8"?><svg xmlns="http://www.w3.org/2000/svg" viewBox="0 0 340.66 369.44"><defs><style>.uuid-47e10aeb-f3e3-4a62-967b-aa5bd98869af{fill:#b4b4b4;}.uuid-2a32b31c-17c8-4166-9b6a-063a64cccfca{fill:#a7a7a7;}.uuid-61372ef2-c0f3-4e09-b357-b8cd22262bf7{fill:#c5c5c5;}.uuid-5b7affd4-361f-455a-ab78-3607409393ea,.uuid-c4264ab5-c6b3-49ae-a5f4-431615f0c639,.uuid-1741ced1-fcd6-4d98-a1ed-f87747a6b654{fill:#fff;}.uuid-6fa96031-a23b-45a7-99ae-e212588f6550{fill:#b9b9b9;}.uuid-8d38689c-da79-4352-8cec-9aefa616d1f3{fill:#9d9d9d;}.uuid-5a3c156e-c6fc-41e8-9e8b-e7bdb9b94ab0{fill:#dfdfdf;}.uuid-75de7d74-8fd7-4a5c-be73-67d6d037e22b{fill:#c4c4c4;}.uuid-f2ade0fb-420f-4f0b-bf8e-a3fcbddc6e21{fill:silver;}.uuid-56bfd09e-f042-47b0-923a-43d248ab27a3{fill:#ababab;}.uuid-789e21aa-24df-4fc8-8c0c-5aa558a97155{fill:#d3d3d3;}.uuid-c4264ab5-c6b3-49ae-a5f4-431615f0c639,.uuid-9c064ab6-a72d-496b-99e3-e0fe8c7ce619{stroke:#000;}.uuid-c4264ab5-c6b3-49ae-a5f4-431615f0c639,.uuid-9c064ab6-a72d-496b-99e3-e0fe8c7ce619,.uuid-209c564c-f0f8-40fa-bed2-3b73a0c99415{stroke-width:2px;}.uuid-c4264ab5-c6b3-49ae-a5f4-431615f0c639,.uuid-9c064ab6-a72d-496b-99e3-e0fe8c7ce619,.uuid-209c564c-f0f8-40fa-bed2-3b73a0c99415,.uuid-1741ced1-fcd6-4d98-a1ed-f87747a6b654{stroke-miterlimit:10;}.uuid-9c064ab6-a72d-496b-99e3-e0fe8c7ce619{fill:none;}.uuid-4d4adf10-4de2-43f0-8a6f-d7cc546b35cb{fill:#b8b8b8;}.uuid-c2809e1c-4201-4655-aaf1-7051ec89de0d{fill:#c2c2c2;}.uuid-ca4a8b60-9733-4e17-8af0-6a23609ca4ca,.uuid-209c564c-f0f8-40fa-bed2-3b73a0c99415{fill:#666;}.uuid-f28abcad-c3db-493b-bf9e-6f89c73e9ac8{fill:#a5a5a5;}.uuid-b70cc004-3149-4d62-90c6-4e88a3e0d52e{fill:#9b9b9b;}.uuid-134a43fd-ffcd-494c-9edd-c231adad5177{fill:#a8a8a8;}.uuid-01c7e17b-016f-4c43-8919-e00d7f6882e5{fill:#ccc;}.uuid-7fe23efa-980d-4ea3-a1f5-90f2c54cef3c{fill:#d1d1d1;}.uuid-aeef98ac-73a4-4e31-b2d4-37b4a944847b{fill:#bbb;}.uuid-027f548a-d119-44c4-b9c3-0e1b66348acc{fill:#c6c6c6;}.uuid-2601dea3-dfc9-450d-9d98-520e5ef6b7ca{fill:#c1c1c1;}.uuid-cc07c7e2-de6a-4118-bf34-67a7896f8a7f{fill:#bfbfbf;}.uuid-209c564c-f0f8-40fa-bed2-3b73a0c99415{stroke:#4d4d4d;}.uuid-1741ced1-fcd6-4d98-a1ed-f87747a6b654{stroke:gray;stroke-width:.25px;}</style></defs><g id="uuid-2cdcee08-a012-4f71-ac13-18ddaf5af6af"><path class="uuid-9c064ab6-a72d-496b-99e3-e0fe8c7ce619" d="M339.66,111.63V32.16v.78c0-17.21-75.49-31.94-169.33-31.94S1,14.17,1,31.38v79.47"/><path class="uuid-01c7e17b-016f-4c43-8919-e00d7f6882e5" d="M339.66,111.63V32.16v.78c0-17.21-75.49-31.94-169.33-31.94S1,14.17,1,31.38v79.47"/><path class="uuid-5b7affd4-361f-455a-ab78-3607409393ea" d="M170.33,141.79c-45.33,0-87.93-3.24-119.97-9.11C19.25,126.98,1.41,119.3,1.41,111.63s17.84-15.35,48.95-21.05c32.04-5.88,74.64-9.11,119.97-9.11s87.93,3.24,119.97,9.11c31.11,5.71,48.95,13.38,48.95,21.05s-17.84,15.35-48.95,21.05c-32.04,5.88-74.64,9.11-119.97,9.11Z"/><path class="uuid-ca4a8b60-9733-4e17-8af0-6a23609ca4ca" d="M170.33,82.47c45.27,0,87.81,3.23,119.79,9.09,35.48,6.51,48.13,14.63,48.13,20.07s-12.64,13.56-48.13,20.07c-31.98,5.86-74.52,9.09-119.79,9.09s-87.81-3.23-119.79-9.09C15.06,125.19,2.41,117.06,2.41,111.63s12.64-13.56,48.13-20.07c31.98-5.86,74.52-9.09,119.79-9.09M170.33,80.47C76.49,80.47.41,94.42.41,111.63s76.07,31.16,169.92,31.16,169.92-13.95,169.92-31.16-76.07-31.16-169.92-31.16h0Z"/><path class="uuid-1741ced1-fcd6-4d98-a1ed-f87747a6b654" d="M340.25,111.63c0-17.21-76.07-31.16-169.92-31.16S.41,94.42.41,111.63"/><ellipse class="uuid-209c564c-f0f8-40fa-bed2-3b73a0c99415" cx="170.33" cy="109.29" rx="97.85" ry="16.36"/><path class="uuid-c4264ab5-c6b3-49ae-a5f4-431615f0c639" d="M232.83,96.57c-16.93-2.34-38.81-3.57-62.5-3.57s-45.86,1.17-62.89,3.57h0v271.87h125.39V96.57Z"/></g><g id="uuid-3705a628-1a86-4fc9-acb8-ad753c705383"><g id="uuid-a0ad8a3d-a6da-41be-be5e-60ca24260e48"><path class="uuid-b70cc004-3149-4d62-90c6-4e88a3e0d52e" d="M158.37,96.14c-4.05,2.91-.31,7.72.02,11.66,1.15,13.85-3.93,24.85-5.59,37.33-1.29,9.72,6.11,20.81,8.07,30.26,2.56,12.34-1.98,20.04-1.53,31.59.16,4,1.15,8.35,1.43,12.37-1.31,2.68-4.08,4.39-5.25,7.16-7.44,17.54,11.47,28.02,6.09,44.73-2.53,7.84-12.49,19.94-12.74,27.78-.09,2.73,2.27,13.99,3.32,16.68,3.38,8.62,10.52,10.52,8.46,22.75-.95,5.63-5.7,6.49-4.52,13.82.55,3.38,4.62,9.27,7.71,10.86,4.97,2.56,18.01.55,21.36-4.34,2.47-3.6,1.08-6.73,2.42-10.44.8-2.2,4.43-4.78,1.9-6.72-.56-.43-1.61-.4-1.67-.46-.25-.27.5-1.85.42-2.56-.53-5.31-1.72-9.3-7.97-8.93l-4.14-11.64c4.03-4.57,8.6-9.51,11.59-14.85,3.37-6.03,5.42-20.79,5.79-28.04.32-6.28-.73-25.08-2.91-30.43-1-2.46-4.94-7.26-5.18-9.11-.58-4.48,2.61-5.29,3.74-9l-1.36-1.53-1.89.75c.04.68.71.36.95.48.18.09.66-.08.95,0,.02.52.08,1.06-.09,1.57-.11.32-3.28,5.02-3.71,5.58v.48c.76,5.21,5.25,8.57,6.52,13.72,1.47,5.96,2.37,21.22,2.03,27.51-.23,4.17-2.17,19.36-3.29,22.92-.73,2.32-4.87,8.48-6.48,10.66-2,2.72-7.41,7.21-7.37,10.29.02,1.26,3.44,10.65,4.06,11.22,1.43,1.3,8.94.23,6.4,5.89,2.12.62-.64,1.92,1.48,2.45l-.98,3.57,2.4.21.47,1.44c-3.67,3.53-2.75,6.17-3.47,10.38-1.01,5.95-5.48,7.28-10.81,8.47-7.93,1.76-14.1-.05-17.13-8.32s2.44-9.28,3.61-15.5c2.42-12.92-6.54-17.08-9.53-28.62-1.99-7.68-3.11-11.2.24-18.6s10.99-17.6,11.39-25.51c.76-14.92-15.45-25.78-5.88-41.19.88-1.41,3.75-3.94,3.98-5.06.53-2.57-.85-7.18-.95-9.98-.47-12.1,3.95-23.97.97-35.54-.17-.65-.86-1.36-.48-2.38-2.82-6.35-8.28-19.69-7.48-26.34.42-3.48,2.29-7.97,3.06-11.71,1.43-7.03,3.32-20.11,2.52-27.03-.54-4.68-2.46-4.17-.95-9.77.07-.26-.05-.65,0-.95Z"/><path class="uuid-2601dea3-dfc9-450d-9d98-520e5ef6b7ca" d="M184.98,199.11c-.48-4.41-2.34-9.38-3.33-13.83l-2.48-3.96c.09-.88-.22-1.53-.37-2.24l-3.8-3.58-1.43-.48c1.52,1.48,1.29,3.64,2.18,5.44,1.31,2.66,3.73,4.55,4.81,7.57,1.34,3.72,3.38,17.51,2.94,21.28s-4.17,7.83-5.9,11.24c-2.77,5.45-4.57,11.58-5.46,17.65,1.91-4.65,3.7-10.11,5.77-14.47,1.21-2.55,7.07-10.35,7.44-11.61.68-2.33-.48-9.5-.78-12.31-.04-.34.41-.64.4-.7Z"/><path class="uuid-f28abcad-c3db-493b-bf9e-6f89c73e9ac8" d="M158.37,298.28c.35-6.14,1.02-13.17,2.53-19.16.71-2.82,2.83-6.34,3.15-8.29.39-2.44-.21-5.55.01-8.09.81-9.13,4.71-16.28,8.1-24.53,1.91-4.65,3.7-10.11,5.77-14.47,1.21-2.55,7.07-10.35,7.44-11.61.68-2.33-.48-9.5-.78-12.31-.04-.34.41-.64.4-.7,2.89,8.68.4,17.78.95,26.7.04.68.71.36.95.48-4.89,7.43-6.06,1.05-4.64-4.42.63-2.44,3.23-4.68,2.74-7.5-6.2,6.7-8.25,15.57-11.65,23.82-2.78,6.74-7.17,13.99-8.18,21.36-.51,3.74-.01,8.52-.63,12.24-.3,1.8-2.07,4.16-2.68,6.37-1.52,5.48-1.38,11.85-2.52,17.26-.24,1.14-.68,1.93-.95,2.86ZM184.98,218.66c-2.58,2.89-2.58,6.34-2.37,10.01h1.9s.47-10.01.47-10.01Z"/><path class="uuid-8d38689c-da79-4352-8cec-9aefa616d1f3" d="M181.66,185.29c-1.01-4.57-1.69-9.21-2.68-13.75-1.08-4.95-4.31-9.11-4.86-14.2-.43-3.96.24-8.33-.07-12.33-.53-6.87-5.06-28.81-1.92-33.89.76-1.22,12.44-7.58,14.43-8.4,2.26-.93,8.35-1.94,9.8-3.04,2.1-1.58.14-4.33-2.35-3.55.33.26.62.75.95.95.57.36,2.37.48.94,1.65-8.67,1.85-16.21,6.29-23.74,10.74-2.51,3.72-2.14,9.23-1.92,13.61.36,7.3,2.38,14.64,2.86,21.92.28,4.15-.41,8.8.01,12.86s3.16,7.86,4.27,12.16c.83,3.24.81,6.02,1.43,9.06.14.71.46,1.36.37,2.24l2.48,3.96Z"/><path class="uuid-134a43fd-ffcd-494c-9edd-c231adad5177" d="M158.37,97.09h30.41s-.23,1.44-.23,1.44c1.62-1.56,2.08-1.71,4.51-1.43l-1.42.96c1.12,1.83,1.73-1.67,3.32-.96-.33-.21-.62-.69-.95-.95h-35.64c-.05.3.07.69,0,.95Z"/><path class="uuid-789e21aa-24df-4fc8-8c0c-5aa558a97155" d="M163.03,356.3c-5.6-9.08,2.37-15.85,1.53-25.85-.47-5.63-4.33-10.21-5.24-15.48l3.32.48,1.91-10.25c-.76-.98-.77-.1-1.08.37-1.18,1.79-1.46,4.04-2.01,6.07h-.97c-2.27-4.2.66-7.4,1.16-10.77.43-2.92-.17-6.65.5-9.74l-2.85,4.29c1.14-5.41.99-11.78,2.52-17.26.61-2.21,2.38-4.57,2.68-6.37.62-3.72.12-8.5.63-12.24,1.01-7.36,5.39-14.62,8.18-21.36,3.41-8.25,5.45-17.12,11.65-23.82.49,2.82-2.11,5.05-2.74,7.5-1.41,5.47-.25,11.85,4.64,4.42.18.09.66-.08.95,0,.02.52.08,1.06-.09,1.57-.11.32-3.28,5.02-3.71,5.58-1.2,1.58-4.08,3.79-5.23,5.48-2.62,3.85-1.8,15.88-2.37,21.22-.34-.13-.35-1.4-.96-.7-1.86,2.13-2.19,6.35-2.85,9.04.05,1.43.54.48.85-.11.93-1.78,1.28-3.49,1.78-5.39.21-.79-.06-1.68,1.18-1.41-.53,4.06-2.78,9.89-2.86,13.61-.05,1.97.93,4.58.98,6.63.12,5.48-.13,10.99-.02,16.47-.8-1.51-2.98-2.88-4.01-4.32-1.46-2.06-2.14-4.51-3.39-6.63-.34-.58.17-1.24-1.15-.96l1.87,6.93-2.82,4.5c.87.86,3.64-5.19,7.14,1.18s.13,10.58-.49,16.46c-.04.42-1.29,1.55.23,1.43,2.09-2.82,4.64-6.64,5-10.24.4-4.05-1.75-7.44-1.89-11.45-.13-3.67.65-7.53.49-11.45-.11-2.69-1.06-5.87-1.01-8.57.08-4.31,2.33-10.12,2.88-14.79.63-5.46-.42-17.22,2.18-21.17,1.2-1.81,3.73-3,4.48-5.28.76,5.21,5.25,8.57,6.52,13.72,1.47,5.96,2.37,21.22,2.03,27.51-.23,4.17-2.17,19.36-3.29,22.92-.73,2.32-4.87,8.48-6.48,10.66-2,2.72-7.41,7.21-7.37,10.29.02,1.26,3.44,10.65,4.06,11.22,1.43,1.3,8.94.23,6.4,5.89,2.12.62-.64,1.92,1.48,2.45l-.98,3.57,2.4.21.47,1.44c-3.67,3.53-2.75,6.17-3.47,10.38-1.01,5.95-5.48,7.28-10.81,8.47-4.66-1.88-9.01-1.54-11.97-6.34ZM178.76,353.87c.6.95.28,2.29,1.24,3.04,2.19-3.22-2.18-7.39-5.46-7.14.07,2.16,3.35,2.71,4.22,4.1ZM167.18,344.06c.11-.25,3.55-3.71,3.8-3.82,1.02-.43.31,1.5,1.65.95-1.36-3.81-7.1,2.28-6.65,4.98.6,3.56,6.99,2.2,5.7.74-2.47,2.15-5.94.49-4.5-2.85ZM187.4,259.9c0,4.51-3.26,8.38-3.38,12.9-.02.87.72,6.64.97,6.88,1.62,1.55.47-2.01.47-2.14v-8.1c0-.44,1.34-2.73,1.56-3.68,1.11-4.85,1.7-7.79.1-12.78-.27-.83-.06-1.12-1.18-.94,1.5-3.26.73-8.49-.35-11.83-.26-.8.21-1.26-1.08-1.04,1.02,4.69,2.72,9.04-.08,13.51-1.14,1.82-3.63,2.91-4.2,5.08.68.66,5.43-5.13,5.7-5.72.14,2.61,1.46,5.27,1.47,7.87Z"/><path class="uuid-789e21aa-24df-4fc8-8c0c-5aa558a97155" d="M163.59,266.09c.76-14.92-15.45-25.78-5.88-41.19.88-1.41,3.75-3.94,3.98-5.06.53-2.57-.85-7.18-.95-9.98-.47-12.1,3.95-23.97.97-35.54l2.24,3.71c3.09,10.54,3.74,21.1,3.46,32.05-.06,2.22.23,4.76,0,6.91-.17,1.56-1.85,5.46-1.19,6.45.91,1.17,2.5-.99,3.11-1.67,3.97-4.4,4.19-14.6,4.28-20.49.04-2.33-.16-13.24-.59-14.7-.35-1.19-2.98-2.42-2.28-4.63l-.48,1.9-1.18-.94-.64.77c.28,7.59.7,15.24.41,22.84-.04.92.49,1.91-.95,1.65-.67-16.79.25-20.67-6.65-36.23-2.82-6.35-8.28-19.69-7.48-26.34.42-3.48,2.29-7.97,3.06-11.71,1.43-7.03,3.32-20.11,2.52-27.03-.54-4.68-2.46-4.17-.95-9.77h30.41s-.23,1.44-.23,1.44c1.62-1.56,2.08-1.71,4.51-1.43l-1.42.96c1.12,1.83,1.73-1.67,3.32-.96.57.36,2.37.48.94,1.65-8.67,1.85-16.21,6.29-23.74,10.74-1.19.7-1.94.08-3.25,2.23-2.52,4.13-1.56,18.5-1.02,23.75s4.7,28.93,6.91,32.16c.62.91,1.67,1.8,2.58,2.42.83,3.24.81,6.02,1.43,9.06l-3.8-3.58-1.43-.48c1.52,1.48,1.29,3.64,2.18,5.44,1.31,2.66,3.73,4.55,4.81,7.57,1.34,3.72,3.38,17.51,2.94,21.28s-4.17,7.83-5.9,11.24c-2.77,5.45-4.57,11.58-5.46,17.65-3.39,8.25-7.28,15.4-8.1,24.53-.23,2.54.38,5.65-.01,8.09-.31,1.95-2.43,5.46-3.15,8.29-1.51,5.98-2.17,13.02-2.53,19.16-1.03,3.51-1.98,6.02-2.87,9.77-.13.55-.1,1.54-.93.72-.5-.49-2.21-5.94-2.33-6.96-.42-3.58.88-6.97-.05-10.2,3.35-7.39,10.99-17.6,11.39-25.51ZM171.68,164.07c0-.42-2.15-5.74-2.38-5.96l-.95.24c-.22.65.96,1.25.96,1.42v11.44c0,.36.71,1.39.52,2.1l1.86.05v-9.3ZM160.33,137.9c-1.18,12.02-.07,19.11,4.57,30.11.25.59.26,1.41,1.08,1.54-1.87-9.53-6.01-18.93-5.21-28.83.37-4.62,2.25-9.71,1.89-14.55l-2.32,11.73ZM167.2,105.16c.82,1.7-.66,2.56-1.7,3.62l.77,1.15c6.17,1.85,3.78-15.37-3.63-5.21l4.55.45Z"/><path class="uuid-5a3c156e-c6fc-41e8-9e8b-e7bdb9b94ab0" d="M175.01,362.64c-4.66-1.88-9.01-1.54-11.97-6.34-5.6-9.08,2.37-15.85,1.53-25.85-.47-5.63-4.33-10.21-5.24-15.48l3.32.48,1.91-10.25c-.76-.98-.77-.1-1.08.37-1.18,1.79-1.46,4.04-2.01,6.07h-.97c-2.27-4.2.66-7.4,1.16-10.77.43-2.92-.17-6.65.5-9.74l-2.85,4.29c-.24,1.14-.68,1.93-.95,2.86-1.03,3.51-1.98,6.02-2.87,9.77-.13.55-.1,1.54-.93.72-.5-.49-2.21-5.94-2.33-6.96-.42-3.58.88-6.97-.05-10.2-3.35,7.4-2.23,10.92-.24,18.6,2.99,11.54,11.95,15.7,9.53,28.62-1.16,6.22-6.72,7.02-3.61,15.5s9.2,10.08,17.13,8.32Z"/><path class="uuid-2a32b31c-17c8-4166-9b6a-063a64cccfca" d="M184.03,233.92v-.48c-1.2,1.58-4.08,3.79-5.23,5.48-2.62,3.85-1.8,15.88-2.37,21.22-.05.47.06.97,0,1.43-.53,4.06-2.78,9.89-2.86,13.61-.05,1.97.93,4.58.98,6.63.12,5.48-.13,10.99-.02,16.47,2.86,5.4,1.49,12.92-2.85,17.16-.04.42-1.29,1.55.23,1.43,2.09-2.82,4.64-6.64,5-10.24.4-4.05-1.75-7.44-1.89-11.45-.13-3.67.65-7.53.49-11.45-.11-2.69-1.06-5.87-1.01-8.57.08-4.31,2.33-10.12,2.88-14.79.63-5.46-.42-17.22,2.18-21.17,1.2-1.81,3.73-3,4.48-5.28Z"/><path class="uuid-4d4adf10-4de2-43f0-8a6f-d7cc546b35cb" d="M167.88,208.17c-.67-16.79.25-20.67-6.65-36.23-.39,1.02.31,1.73.48,2.38l2.24,3.71c3.09,10.54,3.74,21.1,3.46,32.05l.94,1.9c.21-1.31-.42-2.54-.47-3.81Z"/><path class="uuid-7fe23efa-980d-4ea3-a1f5-90f2c54cef3c" d="M184.51,228.68l.47-10.01c-2.58,2.89-2.58,6.34-2.37,10.01h1.9Z"/><path class="uuid-75de7d74-8fd7-4a5c-be73-67d6d037e22b" d="M172.15,109.49c-1.19.7-1.94.08-3.25,2.23-2.52,4.13-1.56,18.5-1.02,23.75s4.7,28.93,6.91,32.16c.62.91,1.67,1.8,2.58,2.42-1.11-4.31-3.83-7.92-4.27-12.16s.26-8.71-.01-12.86c-.48-7.28-2.5-14.61-2.86-21.92-.22-4.38-.59-9.89,1.92-13.61Z"/><path class="uuid-75de7d74-8fd7-4a5c-be73-67d6d037e22b" d="M174.53,298.28c-.8-1.51-2.98-2.88-4.01-4.32-1.46-2.06-2.14-4.51-3.39-6.63-.34-.58.17-1.24-1.15-.96l1.87,6.93-2.82,4.5c.87.86,3.64-5.19,7.14,1.18s.13,10.58-.49,16.46c4.35-4.24,5.72-11.77,2.85-17.16Z"/><path class="uuid-47e10aeb-f3e3-4a62-967b-aa5bd98869af" d="M185.93,252.03c.14,2.61,1.46,5.27,1.47,7.87,0,4.51-3.26,8.38-3.38,12.9-.02.87.72,6.64.97,6.88,1.62,1.55.47-2.01.47-2.14v-8.1c0-.44,1.34-2.73,1.56-3.68,1.11-4.85,1.7-7.79.1-12.78-.27-.83-.06-1.12-1.18-.94Z"/><path class="uuid-aeef98ac-73a4-4e31-b2d4-37b4a944847b" d="M185.93,252.03c1.5-3.26.73-8.49-.35-11.83-.26-.8.21-1.26-1.08-1.04,1.02,4.69,2.72,9.04-.08,13.51-1.14,1.82-3.63,2.91-4.2,5.08.68.66,5.43-5.13,5.7-5.72Z"/><path class="uuid-61372ef2-c0f3-4e09-b357-b8cd22262bf7" d="M174.53,349.77c.07,2.16,3.35,2.71,4.22,4.1.6.95.28,2.29,1.24,3.04,2.19-3.22-2.18-7.39-5.46-7.14Z"/><path class="uuid-56bfd09e-f042-47b0-923a-43d248ab27a3" d="M171.67,346.91c-2.47,2.15-5.94.49-4.5-2.85.11-.25,3.55-3.71,3.8-3.82,1.02-.43.31,1.5,1.65.95-1.36-3.81-7.1,2.28-6.65,4.98.6,3.56,6.99,2.2,5.7.74Z"/><path class="uuid-027f548a-d119-44c4-b9c3-0e1b66348acc" d="M176.43,260.14c-.34-.13-.35-1.4-.96-.7-1.86,2.13-2.19,6.35-2.85,9.04.05,1.43.54.48.85-.11.93-1.78,1.28-3.49,1.78-5.39.21-.79-.06-1.68,1.18-1.41.06-.46-.05-.96,0-1.43Z"/><path class="uuid-c2809e1c-4201-4655-aaf1-7051ec89de0d" d="M167.4,210.08c-.06,2.22.23,4.76,0,6.91-.17,1.56-1.85,5.46-1.19,6.45.91,1.17,2.5-.99,3.11-1.67,3.97-4.4,4.19-14.6,4.28-20.49.04-2.33-.16-13.24-.59-14.7-.35-1.19-2.98-2.42-2.28-4.63l-.48,1.9-1.18-.94-.64.77c.28,7.59.7,15.24.41,22.84-.04.92.49,1.91-.95,1.65.05,1.27.68,2.5.47,3.81l-.94-1.9Z"/><path class="uuid-6fa96031-a23b-45a7-99ae-e212588f6550" d="M162.65,126.17l-2.32,11.73c-1.18,12.02-.07,19.11,4.57,30.11.25.59.26,1.41,1.08,1.54-1.87-9.53-6.01-18.93-5.21-28.83.37-4.62,2.25-9.71,1.89-14.55Z"/><path class="uuid-f2ade0fb-420f-4f0b-bf8e-a3fcbddc6e21" d="M162.65,104.71l4.55.45c.82,1.7-.66,2.56-1.7,3.62l.77,1.15c6.17,1.85,3.78-15.37-3.63-5.21Z"/><path class="uuid-cc07c7e2-de6a-4118-bf34-67a7896f8a7f" d="M171.68,173.37v-9.3c0-.42-2.15-5.74-2.38-5.96l-.95.24c-.22.65.96,1.25.96,1.42v11.44c0,.36.71,1.39.52,2.1l1.86.05Z"/><path class="uuid-8d38689c-da79-4352-8cec-9aefa616d1f3" d="M185.19,358.79s.06-3.55-2.94-6.55-7-4-8-5-.94.73-3.97.87-5.03-.87-4.03-4.87-6-4-6-4c0,0-1,3-3,5s-3,11,1,16,11,5,13,5,8.89.1,13.94-6.45Z"/></g></g></svg>