<?xml version="1.0" encoding="UTF-8"?><svg id="uuid-7b0637e4-45a0-45a6-b0b6-138c1e8f1772" xmlns="http://www.w3.org/2000/svg" viewBox="0 0 116.3 120"><defs><style>.uuid-ec8cbef6-e9d9-408f-92b7-f33d9a9fe340{fill:#ede9c8;}.uuid-fae8dfcd-6eab-4119-9b39-71172c82bbe3{fill:#fff;}</style></defs><g id="uuid-16c0ad64-37bf-4c06-a20e-86bc09c8d015"><path class="uuid-ec8cbef6-e9d9-408f-92b7-f33d9a9fe340" d="M116.2,32.5v.4c-.1,1.5-1.4,3.1-3.6,4.5-3.6,2.3-9.7,4.2-16.6,5.7-4.2.8-8.8,1.5-13.6,2.1l-.4-2.7c3.2-.5,6.1-1.2,8.5-2,2.7-.9,4.8-1.9,6.1-3,1.7-1.5,1.6-3,0-4.5-.4-.3-.9-.7-1.4-1-3.3-1.9-9.4-3.6-17.6-4.6h0c-.4,0-.9-.1-1.4-.2-5.4-.6-11.4-1-17.9-1s-12.6.4-18,1c-.5,0-1.1.1-1.6.2-2.7.3-5.2.8-7.4,1.2-5.6,1.2-9.5,2.7-11.4,4.4-.3.3-.6.6-.8.8-.9,1.2-.6,2.5.7,3.7,1.9,1.7,5.6,3.1,10.4,4.2,1.3.3,2.7.6,4.2.8l-.4,2.7c-7.4-.8-14.4-2-20-3.6-4.2-1.2-7.8-2.5-10.2-4.2-2.3-1.5-3.5-3-3.6-4.5v-.3c0-1.2.7-2.4,2-3.6,3.7-3.2,12.2-6.1,24.9-8,9-1.4,19.7-2.1,31.2-2.1,17.2,0,32.3,1.7,42.8,4.5,9.5,2.4,14.6,5.5,15.2,8.6v.5h-.1Z"/><path class="uuid-ec8cbef6-e9d9-408f-92b7-f33d9a9fe340" d="M116.2,0v30.5-.5c-.6-3.1-5.8-6.2-15.2-8.6-10.5-2.7-25.5-4.4-42.8-4.4s-22.2.8-31.2,2.1c-12.7,1.9-21.2,4.8-24.9,8C.7,28.3.1,29.5.1,30.7V0h116.1Z"/><path class="uuid-ec8cbef6-e9d9-408f-92b7-f33d9a9fe340" d="M93.3,37.4c-1.8,1.8-6.1,3.3-11.5,4.4l-.2-1c3.6-.9,6.2-2,7.4-3.3,1.4-1.6.4-3.1-2.5-4.5-.8-.4-1.8-.8-3-1.1-.3-.1-.6-.2-1-.3-1-.3-2.1-.5-3.2-.8-.6-.1-1.3-.2-2-.4-5.3-.9-11.9-1.5-19.2-1.5s-14.2.6-19.5,1.5c-.6.1-1.1.2-1.7.3-.4,0-.8.2-1.1.2s-.5.1-.8.2c-.3,0-.7.2-1,.2-.2,0-.5.1-.7.2-.2,0-.4.1-.6.2-1.2.4-2.2.7-3,1.1-3,1.4-3.9,3-2.5,4.5,1.2,1.3,3.8,2.5,7.4,3.3l-.2,1c-5.4-1.1-9.7-2.6-11.5-4.4-1.5-1.5-1.1-3.1.9-4.5.7-.5,1.7-1,2.8-1.5.2-.1.5-.2.7-.3,1-.4,2.1-.7,3.3-1,.6-.2,1.2-.3,1.9-.5,1.3-.3,2.8-.6,4.4-.8.5,0,1.1-.2,1.7-.3,5.4-.8,12-1.2,19.5-1.2s13.9.4,19.3,1.2c.7,0,1.3.2,1.9.3h0c.4,0,.7.1,1.1.2.4,0,.7.1,1.1.2.3,0,.6.1.8.2.3,0,.6.1.9.2,1.1.2,2.2.5,3.2.8.2,0,.3,0,.5.1.2,0,.4.1.6.2.5.1.9.3,1.3.5.2,0,.4.1.6.2.3.1.6.2.8.3.2,0,.4.2.6.2.6.3,1.2.6,1.6.9,2,1.4,2.4,3,.9,4.5h0v.3Z"/><path class="uuid-ec8cbef6-e9d9-408f-92b7-f33d9a9fe340" d="M116.2,32.5v.4h-19.7c-.4-.3-.9-.7-1.4-1-3-1.8-8.4-3.3-15.7-4.4-.6,0-1.2-.2-1.9-.2h0c-.4,0-.9-.1-1.4-.2-5.4-.6-11.4-1-17.9-1s-12.6.4-18,1c-.5,0-1.1.1-1.6.2-.6,0-1.1.1-1.7.2-2.1.3-4,.6-5.8,1-5.6,1.2-9.5,2.7-11.4,4.4H0v-.3c0-1.2.7-2.4,2.1-3.6,3.7-3.2,12.2-6.1,24.9-8,9-1.4,19.7-2.1,31.2-2.1,17.2,0,32.3,1.7,42.8,4.5,9.5,2.4,14.6,5.5,15.2,8.6,0,.2,0,.3,0,.5Z"/><path class="uuid-ec8cbef6-e9d9-408f-92b7-f33d9a9fe340" d="M78.6,32.3v87.7h-41.1V32.3c.5-.1,1.1-.2,1.6-.3,5.1-.9,11.7-1.5,18.9-1.5s13.6.5,18.7,1.4c.7.1,1.3.2,1.9.4h0Z"/></g><g id="uuid-c3a82969-b6fe-423e-8636-1ac9183e595f"><g id="uuid-6e131107-b093-44cf-879b-189703abceee"><path class="uuid-fae8dfcd-6eab-4119-9b39-71172c82bbe3" d="M61.336,104.93l-.39.3c-.02-.03-.05-.06-.08-.1-.27-.31-.68-.68-1.05-.92-.05-.03-.1-.06-.14-.07s-.1-.02-.17-.02c-.3,0-.6,0-.89.01-.23,0-.43.01-.59.08-.21.09-.37.27-.5.41l-.13.17c-.09.11-.18.22-.28.33l-.11.11-.34-.37c.12-.11.22-.23.33-.37l.01-.01.14-.18c.16-.19.38-.43.69-.55.26-.11.55-.12.77-.12.21,0,.43-.01.65-.01.19,0,.36-.02.56.04.11.03.2.09.27.14.26.17.59.43.88.72.14.13.26.27.37.41h0Z"/><path class="uuid-fae8dfcd-6eab-4119-9b39-71172c82bbe3" d="M59.505,103.869c.099,0,.179.014.232.027.072.019.137.056.214.103.367.237.799.616,1.103.966l.068.087c.561.56,1.027,1.329,1.337,2.195l.01.02.026.013c.1.055.22.191.555.603l.126.154c.521.615.369,1.164.276,1.378-.099.211-.266.374-.464.451h-.003c.051,1.431-.362,2.76-1.133,3.648-.707.805-1.694,1.235-2.879,1.245-1.161-.01-2.148-.44-2.857-1.246-.77-.889-1.183-2.22-1.131-3.644l-.009-.007c-.192-.074-.358-.236-.46-.453-.091-.207-.244-.754.317-1.42.408-.505.55-.658.661-.713l.007-.003c.323-.893.792-1.664,1.348-2.22l.017-.019v-.011l.065-.071c.093-.102.176-.204.267-.314l.164-.208c.134-.145.317-.344.564-.449.211-.092.453-.101.676-.101h.006c.292-.01.595-.01.898-.01h0Z"/><path d="M58.996,114.51h-.02c-1.1-.01-2.01-.41-2.67-1.16-.72-.83-1.12-2.1-1.07-3.48v-.17l-.17-.07c-.13-.05-.25-.17-.32-.32-.07-.16-.2-.59.24-1.11.17-.21.52-.65.62-.7l.09-.04.04-.1c.31-.86.76-1.6,1.3-2.14l.08-.09v-.01c.1-.11.19-.22.28-.33l.13-.17c.13-.14.29-.32.5-.41.16-.07.36-.08.59-.08.29-.01.59-.01.89-.01.07,0,.13.01.17.02s.09.04.14.07c.37.24.78.61,1.05.92.03.04.06.07.08.1.54.54.98,1.27,1.29,2.13l.05.1.09.04c.09.05.42.47.61.7.44.52.31.95.24,1.11-.07.15-.19.27-.32.32l-.17.06v.18c.05,1.38-.35,2.65-1.07,3.48-.66.75-1.57,1.15-2.67,1.16M59.001,115.011h.002c1.234-.011,2.285-.471,3.043-1.332.784-.904,1.216-2.236,1.196-3.657.185-.112.341-.289.444-.51.109-.25.297-.909-.313-1.629l-.121-.148c-.305-.374-.441-.533-.577-.631-.328-.877-.792-1.635-1.348-2.2-.012-.015-.025-.03-.038-.046l-.043-.053-.002-.003c-.319-.366-.772-.762-1.17-1.02-.073-.043-.164-.098-.276-.126-.063-.016-.166-.035-.291-.035-.306,0-.612,0-.89.01-.247,0-.533.009-.787.12-.297.127-.501.347-.65.508l-.036.039-.014.019-.12.157c-.085.103-.169.207-.263.31l-.113.133c-.555.572-1.017,1.33-1.336,2.188-.131.094-.294.279-.657.728l-.036.045c-.613.725-.425,1.383-.311,1.644.1.214.257.39.439.5-.017,1.431.415,2.755,1.198,3.658.755.859,1.807,1.319,3.045,1.33h.025Z"/><path class="uuid-fae8dfcd-6eab-4119-9b39-71172c82bbe3" d="M56.742,33.545v.25l.04-.25c.429,0,.703.193.869.624.064.2.088.315.12.465.014.115.038.185.188.466.229.492.218.904.171,1.274-.018.153-.018.297-.024.354.045.119.023.267-.05.659l-.031.164c-.107.473-.171.919-.166,1.111.064.476.052.684.002,1.147l-.03.515c-.003.034-.263,3.457.32,10.345.04.653.005,1.259-.05,2.049-.118,1.314-.21,2.806.07,5.313.052.915-.01,1.558-.111,2.432-.028.243-.017.512-.005.806.014.333.027.696-.004,1.084-.021.297.066.86.168,1.511.124.797.279,1.789.322,2.811.108,2.398.036,4.237-.034,6.015l-.009.085.145.842h.675l.094-.86c-.069-1.756-.04-6.068-.04-6.121.043-1.048.192-2.078.311-2.906.098-.674.181-1.257.16-1.545-.028-.414.009-.744.041-1.035.028-.246.051-.457.03-.664-.1-.885-.172-1.524-.12-2.486.279-2.466.188-3.956.069-5.275-.048-.707-.092-1.375-.03-2.058.558-6.846.303-10.306.3-10.345l-.029-.498c-.051-.488-.062-.686,0-1.136.005-.143-.019-.457-.167-1.148-.083-.483-.104-.659-.091-.756.018-.131.002-.295-.011-.406-.043-.356-.068-.776.191-1.294.146-.255.154-.323.18-.496.01-.03.016-.062.025-.101.018-.077.039-.176.089-.329.159-.41.44-.61.875-.61h0c.425.023.701.132.883.343l.01-.011c.12-.104.263-.16.412-.16.083,0,.152.017.183.028.145.043.267.135.324.24.05-.017.111-.027.182-.027l.126.007.039.014c.073.024.262.09.303.245l.004.008c.044-.017.091-.027.141-.027l.13.021.053.026c.15.075.25.216.266.369l.002.008.052-.013c.057,0,.111,0,.18.017l.175.043.015.18c.031.366-.21.754-.322.915-.052.065-.322.473-.552.911-.146.25-.249.416-.378.595-.183.272-.327.487-.431.996-.027.179-.027.292-.017.433.01.223.012.525-.09,1.266-.092,1.522.507,4.189,1.035,6.548.35,1.582.681,3.077.812,4.178.179,1.486.119,2.62.021,3.948-.074,1.013-.14,2.123-.069,3.576.098,1.542.436,3.09.834,4.809l.251,1.081c1.102,4.832,1.091,11.764.391,15.204-.69,3.434-.349,5.624.17,8.132.194.948.198,2.569.177,4.446.026-.98.078-1.634.136-2.342l.034-.424c.147-1.87.34-3.275.467-4.206l.099-.69c.032-.208.057-.371.064-.507.062-.689.275-1.782.453-2.656l.087-.431c.078-.379.148-.721.191-.987.086-.592.275-1.135.44-1.611l.032-.1c.281-.852.598-1.817.659-3.224l-.079-.394c-.212-.929-.38-1.662.043-2.451.184-.351.229-.674.184-1.372.018-.161.018-.332.018-.492,0-.266-.019-.526-.019-.589l-.025-.054c-.442-.55-.439-.916-.372-1.081.024-.137.127-.24.21-.323l.075-.069.032-.039c.01-.222.15-.444.379-.444.134,0,.269.058.431.188.27.225.408.501.608.9l.114.259c.27.54.463,1.398.526,2.363.012.324-.07.657-.188,1.095-.136.491-.322,1.163-.421,2.166-.047.999.103,2.01.316,3.292.25,1.556.532,3.319.292,5.411-.041.396-.132.964-.214,1.414-.041.205-.163.627-.293,1.023l-.121.441c-.065.231-.126.449-.133.56-.253,1.898-.28,3.319-.298,4.256,0,.325,0,.608-.011.849-.003.043-.006.26.089,1.224.135,1.22.125,1.367.122,1.406-.05,1.517-.377,3.661-.902,4.825-.606,1.342-1.333,1.56-2.655,1.956-.328.099-.705.218-1.121.357-2.114.727-4.11,1.414-4.548,3.184l-.106.43-.313-.313c-.251-.251-.565-.508-.85-.694-.058-.042-.121-.083-.195-.104-.096-.029-.185-.033-.267-.033l-.872.013c-.227,0-.465.012-.68.103-.244.095-.427.285-.583.47l-.175.218-.309.294-.105-.414c-.452-1.768-2.436-2.442-4.537-3.154-.418-.139-.796-.258-1.127-.359-1.318-.396-2.045-.613-2.651-1.955-.525-1.152-.852-3.299-.903-4.833,0-.17.063-.87.122-1.416.098-.971.091-1.174.088-1.214-.01-.233-.01-.517-.01-.836-.02-1.001-.047-2.373-.289-4.267-.016-.136-.092-.396-.184-.714l-.076-.267c-.133-.411-.256-.833-.298-1.042-.09-.497-.171-1.024-.212-1.407-.24-2.095.042-3.859.302-5.479.175-1.071.357-2.178.307-3.205-.096-.969-.267-1.629-.411-2.185-.132-.447-.211-.788-.2-1.106.065-.972.258-1.828.52-2.332l.128-.296.046-.09c.16-.313.298-.582.56-.801.157-.126.293-.185.426-.185.221,0,.38.198.373.431l.058.055.013.025.095.099c.062.068.139.151.145.222.083.217.088.589-.334,1.09l-.025.024c-.061.27-.045.952-.025,1.214-.056.709.014.986.181,1.303.425.791.256,1.524.044,2.452l-.074.336c.056,1.471.375,2.437.657,3.29l.057.167c.17.487.344.991.424,1.539.039.288.116.664.199,1.076l.068.337c.193.936.404,1.989.455,2.669.007.128.035.306.07.531l.102.707c.133.98.314,2.321.458,4.154l.043.519c.04.479.064.753.086,1.64-.017-1.719.015-2.852.217-3.84.518-2.505.86-4.694.169-8.131-.691-3.446-.699-10.378.392-15.205l.25-1.07c.399-1.727.737-3.282.834-4.816.08-1.431.009-2.519-.059-3.567-.102-1.273-.172-2.451.011-3.96.133-1.1.47-2.636.814-4.184.527-2.352,1.124-5.017,1.047-6.499-.114-.766-.113-1.071-.098-1.372.009-.123.016-.204-.02-.354-.106-.522-.25-.737-.445-1.029-.1-.134-.18-.267-.282-.436l-.09-.149c-.229-.438-.473-.83-.556-.927-.124-.186-.332-.543-.332-.829v-.117l.09-.075c.064-.052.144-.107.257-.107l.094.012c.019-.16.118-.3.243-.362.057-.037.127-.057.203-.057l.104.007.042.019c.069-.175.242-.234.346-.266l.125-.01c.088,0,.158.013.178.027l.015.005.04-.066c.044-.047.124-.135.263-.175.069-.023.135-.035.202-.035.147,0,.287.057.413.173.207-.234.479-.342.855-.342l-.004-.005ZM51.462,93.195c-.005-.332-.015-.968-.035-1.715.008.759.024,1.384.033,1.715h.002ZM66.469,93.796h.003c.009-.332.024-.958.032-1.717-.018.594-.028,1.12-.028,1.49-.003.086-.005.163-.007.227Z"/><path d="M60.966,104.52c-.29-.29-.62-.55-.88-.72-.07-.05-.16-.11-.27-.14-.12-.036-.23-.043-.339-.043-.072,0-.145.003-.221.003-.22,0-.44.01-.65.01-.22,0-.51.01-.77.12-.31.12-.53.36-.69.55l-.14.18-.01.01c-.48-1.88-2.52-2.59-4.7-3.33-.42-.14-.8-.26-1.13-.36-1.3-.39-1.94-.58-2.5-1.82-.51-1.12-.83-3.23-.88-4.73,0-.15.06-.83.12-1.39.07-.69.1-1.12.09-1.25-.01-.23-.01-.51-.01-.83-.02-1.02-.05-2.41-.29-4.29-.02-.18-.14-.57-.27-1.03-.13-.4-.25-.81-.29-1.01-.09-.49-.17-1.01-.21-1.39-.24-2.09.05-3.85.3-5.41.19-1.16.36-2.23.31-3.27-.1-1.01-.28-1.69-.42-2.23-.12-.41-.2-.74-.19-1.02.06-.9.24-1.75.5-2.25l.12-.28c.18-.35.3-.61.54-.81.15-.12.23-.13.27-.13.09,0,.13.12.13.22v.06l.05.06c.02.04.08.09.13.14.06.07.13.13.14.19.08.21-.02.52-.32.88l-.05.09c-.07.31-.05,1.03-.03,1.25-.06.76.02,1.08.21,1.44.37.69.24,1.32.02,2.28l-.08.36v.04c.06,1.56.41,2.57.7,3.45.18.52.36,1.02.44,1.57.05.37.16.88.27,1.43.19.92.4,1.97.45,2.63.01.2.07.52.13.94.13.97.34,2.42.5,4.46.07.9.1,1,.13,2.2.01,1.14.04,2.01.04,2.1l.5-.01c0-.02-.01-.9-.04-2.01-.02-1.8.01-2.95.21-3.93.53-2.56.86-4.8.17-8.23-.69-3.44-.69-10.32.39-15.1l.25-1.07c.39-1.69.74-3.28.84-4.86.08-1.43.01-2.53-.06-3.6-.1-1.25-.17-2.42.01-3.91.13-1.07.45-2.54.8-4.09l.01-.07c.56-2.5,1.13-5.08,1.05-6.59-.11-.74-.11-1.03-.1-1.25.01-.16.03-.28-.02-.49-.12-.59-.29-.83-.49-1.13-.12-.16-.21-.32-.35-.55-.22-.42-.48-.85-.57-.95-.14-.21-.29-.5-.29-.69.041-.035.068-.05.097-.05.013,0,.027.004.043.01l.26.06.04-.28c.01-.09.07-.15.13-.18.017-.012.042-.017.067-.017.018,0,.036.003.053.007l.21.09.11-.21c.02-.08.1-.11.16-.13.025-.005.055-.007.084-.007.042,0,.083.005.106.017l.2.06.09-.17c.04-.04.08-.1.18-.13.026-.009.069-.021.121-.021.069,0,.154.021.239.101l.17.18.18-.18c.116-.135.297-.27.679-.27h.041c.33,0,.51.14.63.45.07.22.09.33.11.42.02.16.06.26.21.54.21.45.19.82.15,1.14-.02.17-.02.33-.01.47.03.08-.04.4-.09.68-.1.44-.18.93-.17,1.2.06.45.05.63,0,1.1l-.03.51c-.03.38-.23,3.88.32,10.38.04.66,0,1.29-.05,2.01-.11,1.23-.22,2.76.07,5.35.05.89-.01,1.52-.11,2.39-.06.52.05,1.16-.01,1.9-.05.7.41,2.47.49,4.35.11,2.45.03,4.35-.04,6.13l.18,1.05h1.11l.12-1.12c-.07-1.77-.04-6.1-.04-6.1.08-1.93.52-3.8.47-4.48-.05-.74.12-1.21.07-1.71-.1-.88-.17-1.51-.12-2.43.29-2.56.18-4.09.07-5.32-.05-.74-.09-1.37-.03-2.02.53-6.51.33-10,.3-10.38l-.03-.51c-.05-.47-.06-.65,0-1.1.01-.25-.06-.69-.17-1.2-.05-.29-.1-.6-.09-.68.02-.14.01-.3-.01-.47-.04-.33-.06-.7.16-1.14.16-.28.18-.38.2-.54.03-.09.04-.2.11-.42.12-.31.31-.45.63-.45.4.02.59.12.72.27l.18.18.17-.18c.089-.077.178-.098.248-.098.048,0,.088.01.112.018.1.03.16.09.18.13l.09.17.2-.06c.024-.012.064-.017.106-.017.029,0,.059.003.084.007.06.02.14.05.16.12l.11.22.21-.09c.016-.008.032-.011.049-.011.026,0,.052.009.071.021.06.03.12.09.13.18l.04.28.26-.07c.05,0,.08,0,.12.01.02.24-.13.54-.27.74-.07.09-.35.52-.57.94-.14.24-.24.4-.35.55-.2.3-.37.54-.49,1.13-.03.2-.03.33-.02.48.01.22.01.51-.09,1.24-.09,1.52.48,4.11,1.04,6.61.35,1.58.68,3.07.81,4.16.18,1.5.11,2.66.02,3.9-.08,1.08-.14,2.18-.07,3.61.1,1.58.45,3.17.84,4.85l.25,1.08c1.09,4.78,1.09,11.66.39,15.1-.69,3.43-.36,5.67.17,8.23.2.98.19,2.74.17,4.54-.02.61-.03,1.15-.03,1.52-.01.29-.01.47-.01.48l.48.01h.02c0-.09.03-.96.04-2.09.03-1.2.1-1.91.17-2.81.16-2.03.37-3.48.5-4.44.06-.44.12-.75.13-.96.06-.66.26-1.7.45-2.63.11-.55.22-1.06.28-1.43.08-.55.25-1.05.43-1.57.29-.88.64-1.89.7-3.45l-.08-.4c-.22-.96-.35-1.59.02-2.28.21-.4.26-.76.21-1.46.02-.17.02-.35.02-.52,0-.29-.02-.56-.05-.71l-.05-.09c-.29-.36-.4-.67-.32-.88.01-.06.08-.13.14-.19.06-.05.11-.1.13-.14l.05-.06v-.06c0-.1.05-.22.13-.22.04,0,.12.01.27.13.24.2.36.45.54.81l.12.27c.26.52.44,1.36.5,2.26.01.29-.07.61-.18,1.02-.15.54-.33,1.21-.43,2.22-.05,1.06.12,2.14.31,3.28.25,1.56.54,3.32.3,5.41-.04.39-.13.95-.21,1.39-.04.2-.16.61-.29,1.01-.12.46-.25.85-.26,1.03-.25,1.88-.28,3.27-.3,4.29,0,.32,0,.6-.01.83-.01.13.02.56.09,1.27.06.54.13,1.23.12,1.37-.05,1.49-.37,3.6-.88,4.73-.56,1.24-1.2,1.43-2.5,1.82-.33.1-.71.22-1.13.36-2.18.75-4.24,1.46-4.71,3.36M61.244,105.497h0l.213-.86c.405-1.637,2.251-2.272,4.383-3.006.415-.139.791-.257,1.123-.358,1.342-.403,2.152-.646,2.805-2.091.538-1.193.872-3.377.923-4.9.004-.061.016-.222-.121-1.455-.095-.963-.091-1.154-.088-1.199.01-.236.01-.523.01-.842.019-.995.046-2.358.299-4.272.005-.071.072-.306.125-.496.038-.134.079-.281.111-.407.055-.172.242-.756.306-1.075.037-.204.163-.91.215-1.422.245-2.13-.041-3.911-.293-5.483l-.011-.066c-.201-1.202-.35-2.199-.306-3.149.099-1.002.281-1.657.415-2.14.123-.459.209-.811.196-1.183-.066-.988-.267-1.881-.542-2.43l-.12-.27-.022-.046-.005-.01c-.181-.362-.337-.674-.657-.941-.204-.164-.389-.24-.582-.24-.314,0-.567.25-.62.588-.01.009-.024.022-.044.039-.088.088-.217.217-.267.403-.088.268-.083.697.372,1.285.015.118.028.309.028.535,0,.151,0,.311-.017.462l-.006.047.003.047c.048.673-.011.92-.152,1.188-.469.874-.283,1.686-.07,2.614l.068.341c-.061,1.402-.369,2.336-.642,3.161l-.028.086c-.17.492-.363,1.05-.451,1.654-.042.263-.111.597-.186.966l-.09.444c-.18.879-.394,1.978-.46,2.706-.006.12-.031.277-.062.478-.019.13-.042.275-.064.439l-.038.276c-.09.659-.203,1.482-.311,2.511-.002-.011-.004-.022-.006-.032-.513-2.478-.851-4.642-.17-8.029.706-3.468.716-10.448-.393-15.312l-.25-1.08c-.396-1.705-.732-3.241-.828-4.761-.071-1.452-.005-2.549.069-3.549.098-1.345.158-2.493-.022-3.995-.133-1.115-.466-2.618-.819-4.21-.498-2.221-1.117-4.986-1.033-6.433.107-.782.104-1.097.093-1.341-.008-.123-.008-.215.011-.347.096-.474.215-.652.403-.934.132-.18.247-.368.39-.614.213-.406.478-.808.537-.885.121-.171.396-.62.359-1.068l-.03-.357-.347-.087c-.04-.01-.077-.016-.11-.02-.066-.139-.175-.255-.316-.331-.095-.055-.206-.085-.317-.084h-.021c-.084-.094-.201-.166-.35-.215l-.037-.012-.038-.006c-.049-.008-.109-.013-.167-.013-.027,0-.054,0-.08.003-.092-.092-.211-.163-.337-.201-.087-.028-.178-.043-.27-.043-.137,0-.268.032-.399.103-.224-.169-.514-.255-.92-.275-.364,0-.85.133-1.106.798-.048.149-.072.255-.09.337-.006.03-.011.055-.018.077l-.016.047-.006.049c-.013.104-.018.144-.151.378-.27.54-.26,1.003-.209,1.422.011.099.025.242.01.349-.015.114-.005.26.097.847.154.714.163.99.163,1.029-.067.503-.055.722-.004,1.196l.031.52c.003.034.259,3.44-.299,10.295-.065.706-.019,1.383.03,2.111.117,1.304.208,2.781-.071,5.248-.052.971.025,1.652.122,2.507.019.184-.003.384-.029.615-.034.302-.072.644-.042,1.082.019.261-.063.832-.158,1.493-.12.833-.269,1.869-.313,2.947,0,.176-.029,4.304.039,6.086l-.068.637h-.239l-.1-.583.003-.076c.07-1.785.143-3.631.035-6.042-.044-1.037-.2-2.035-.325-2.838-.099-.637-.185-1.187-.166-1.45.033-.41.018-.785.005-1.117-.012-.295-.022-.551.003-.766.102-.888.165-1.54.11-2.503-.276-2.467-.185-3.946-.068-5.26.055-.793.09-1.406.049-2.087-.579-6.845-.322-10.264-.319-10.308l.028-.486c.052-.497.065-.716.002-1.171-.007-.194.057-.624.163-1.094l.028-.154c.064-.339.096-.527.066-.688-.006-.115-.003-.228.01-.334.052-.409.064-.864-.205-1.438-.142-.265-.147-.299-.155-.366l-.011-.061-.005-.021c-.02-.094-.046-.215-.124-.456-.198-.51-.567-.769-1.084-.769h-.053c-.363,0-.657.093-.878.268-.12-.064-.252-.098-.39-.098-.094,0-.185.015-.265.042-.167.05-.276.139-.343.206-.029-.003-.058-.004-.089-.004-.059,0-.118.005-.167.013l-.038.006-.037.012c-.163.054-.274.133-.349.218h-.026c-.113,0-.219.028-.311.08-.143.077-.255.196-.32.334-.168.027-.28.12-.326.159l-.18.15v.234c0,.335.203.711.374.967l.025.034.016.02c.054.065.273.414.518.879l.08.132c.107.178.192.318.302.466.18.269.299.447.399.937.025.104.021.156.013.27l-.006.081c-.011.237-.013.556.1,1.299.078,1.47-.516,4.118-1.046,6.493l-.003.031c-.335,1.483-.673,3.024-.809,4.14-.186,1.533-.115,2.723-.013,4.003.068,1.044.139,2.124.06,3.536-.096,1.517-.432,3.062-.828,4.778l-.251,1.074c-1.097,4.857-1.088,11.837-.392,15.309.681,3.388.343,5.552-.17,8.031-.002.009-.004.019-.006.028-.106-1.018-.217-1.835-.306-2.49l-.043-.319-.059-.389c-.033-.214-.061-.384-.068-.518-.052-.686-.264-1.75-.458-2.69l-.067-.333c-.082-.405-.16-.788-.198-1.071-.082-.566-.26-1.079-.432-1.575l-.028-.08-.031-.093c-.273-.827-.582-1.764-.642-3.194l.066-.295c.216-.941.402-1.754-.065-2.625-.129-.245-.21-.458-.154-1.167l.003-.042-.004-.042c-.02-.224-.028-.766.008-1.026.463-.579.466-1.015.375-1.29-.043-.16-.142-.266-.209-.339l-.058-.064-.044-.043c-.053-.341-.302-.584-.62-.584-.193,0-.378.076-.59.246-.298.248-.447.54-.62.879l-.059.118-.104.246c-.286.55-.488,1.442-.556,2.463-.012.342.071.704.215,1.198.135.52.303,1.169.395,2.093.049,1.012-.13,2.107-.304,3.167l-.01.063c-.251,1.572-.537,3.353-.293,5.479.04.38.118.9.217,1.436.062.31.249.895.299,1.048l.078.272c.078.27.166.575.178.685.24,1.879.267,3.242.286,4.227,0,.329,0,.616.011.868,0,.018.008.204-.089,1.159-.05.463-.123,1.241-.123,1.46.052,1.549.386,3.737.924,4.919.653,1.446,1.463,1.689,2.811,2.093.326.099.701.217,1.114.355,2.035.691,3.958,1.344,4.376,2.98l.226.838.621-.617.023-.022.02-.025.128-.165c.14-.168.297-.332.502-.412.167-.07.385-.08.575-.08.108,0,.218-.002.329-.005.106-.002.214-.005.321-.005l.124-.003h.097c.087,0,.142.007.207.026.034.009.086.046.128.076.262.171.561.416.8.655l.626.626.005-.003Z"/><path d="M55.762,75.457h0c-.031.061.019.138.09.118.258-.072.487-.246.717-.381.261-.154.526-.302.795-.443.531-.278,1.105-.579,1.719-.579,1.268,0,2.076,1.03,3.059,1.652.112.071.245-.069.179-.179-.652-1.086-1.872-2.04-3.185-2.078-.688-.02-1.32.287-1.896.635-.294.178-.573.374-.84.59-.232.187-.504.395-.639.666h0Z"/><path d="M59.049,98.642h0c-.024-.022-.055.005-.043.033.233.519.888.498,1.371.552.881.098,1.757.211,2.63.37.811.148,1.603.369,2.409.532.644.13,1.333.211,1.909-.166.136-.089.048-.291-.108-.257-1.377.297-2.75-.273-4.098-.514-.646-.116-1.296-.202-1.949-.267-.369-.037-.739-.064-1.111-.074-.339-.009-.739.037-1.01-.21h0Z"/><path d="M59.032,93.219c-.062.069.016.159.095.123,1.335-.613,2.813-.405,4.241-.376.718.015,1.477-.044,2.121.328.582.336.992.897,1.475,1.352.143.134.375-.039.273-.211-.369-.622-.872-1.192-1.506-1.557-.682-.392-1.446-.371-2.209-.385-.876-.015-1.768-.073-2.642,0-.653.055-1.392.219-1.848.726h0Z"/><path d="M58.908,88.297h0c-.049.072.033.148.104.135.152-.027.29-.11.443-.143.163-.036.33-.049.496-.053.328-.009.659-.017.987,0,.318.017.64.067.932.2.133.061.257.138.369.233.101.086.188.188.312.238.081.033.177-.051.173-.132-.017-.316-.404-.55-.661-.669-.331-.154-.693-.213-1.056-.229-.396-.017-.805-.008-1.198.045-.293.04-.72.114-.9.376h0Z"/><path d="M59.725,84.394h0c-.024.066.058.115.112.086.255-.136.514-.11.791-.081.345.036.691.073,1.036.109.12.013.366-.007.443.096.091.121.142.292.207.429.078.164.159.326.242.488.068.133.164.302.28.396.076.063.203.027.203-.084,0-.2-.104-.412-.184-.592-.09-.204-.188-.404-.284-.604-.073-.151-.135-.325-.287-.415-.162-.096-.377-.081-.559-.093-.421-.027-.846-.074-1.268-.08-.28-.004-.624.048-.731.344h0Z"/><path d="M62.249,83.938h0c-.028.093.084.136.148.086.407-.319.529-.953.576-1.436.056-.575-.018-1.156-.136-1.719-.135-.645-.346-1.269-.595-1.878-.222-.543-.432-1.169-.796-1.635-.081-.104-.221.013-.201.117.111.574.445,1.131.655,1.675.202.52.384,1.05.517,1.591.131.534.219,1.086.215,1.637-.002.283-.033.566-.11.839-.07.25-.196.476-.271.722h-.002Z"/><path d="M59.023,91.526h0c-.057,0-.083.082-.03.109.869.446,2.026-.267,2.751-.714.449-.277.87-.614,1.402-.715.484-.092,1.015.047,1.448.266.096.049.192-.07.116-.15-.685-.721-1.745-.656-2.544-.165-.975.599-1.947,1.379-3.143,1.37h0Z"/><path d="M59.082,98.674h0c.012-.028-.019-.055-.043-.033-.272.249-.669.201-1.01.21-.371.01-.741.037-1.111.074-.653.065-1.303.152-1.949.267-1.348.241-2.721.812-4.098.514-.157-.034-.242.169-.108.257.576.378,1.265.296,1.909.166.807-.163,1.598-.385,2.409-.532.872-.158,1.749-.271,2.63-.37.483-.054,1.138-.033,1.371-.552h0Z"/><path d="M58.961,93.34h0c.08.036.156-.055.095-.123-.469-.521-1.238-.683-1.911-.73-.855-.06-1.723-.01-2.579.005-.785.014-1.565-.004-2.26.416-.611.369-1.095.918-1.455,1.526-.103.174.132.344.273.211.482-.455.892-1.015,1.475-1.352.645-.373,1.403-.313,2.121-.328,1.428-.029,2.906-.236,4.241.376h0Z"/><path d="M58.865,88.434h0c.072.013.154-.063.104-.135-.184-.268-.622-.34-.921-.379-.386-.051-.788-.059-1.177-.042-.373.017-.743.079-1.081.241-.25.119-.62.348-.637.657-.004.082.092.165.173.132.124-.051.211-.152.312-.238.112-.095.236-.172.369-.233.292-.133.614-.183.932-.2.328-.017.659-.009.987,0,.167.005.333.017.496.053.153.033.291.116.443.143h0Z"/><path d="M58.394,84.54h0c.055.029.136-.02.112-.086-.109-.303-.468-.352-.753-.344-.415.012-.831.052-1.246.079-.189.012-.415-.004-.58.105-.145.096-.207.28-.279.43-.092.191-.185.382-.271.576-.08.18-.184.392-.184.592,0,.111.126.146.203.084.125-.102.221-.28.294-.423.083-.162.163-.325.241-.489l.104-.219c.027-.057.053-.149.097-.196.084-.09.317-.071.435-.083.356-.037.711-.075,1.067-.112.267-.028.515-.047.76.084v.002Z"/><path d="M55.704,84.023h0c.064.05.176.007.148-.086-.08-.263-.215-.503-.285-.772-.067-.258-.094-.523-.096-.789-.005-.551.084-1.103.215-1.637.134-.541.316-1.071.517-1.591.21-.543.544-1.102.655-1.675.02-.104-.12-.221-.201-.117-.376.48-.592,1.13-.819,1.691-.239.592-.441,1.197-.572,1.822-.121.58-.196,1.179-.13,1.771.052.469.176,1.074.57,1.383h-.002Z"/><path d="M59.095,91.637h0c.052-.027.026-.109-.03-.109-1.196.009-2.168-.771-3.143-1.37-.799-.491-1.859-.556-2.544.165-.077.081.02.198.116.15.433-.219.964-.358,1.448-.266.531.101.952.438,1.402.715.725.446,1.882,1.16,2.751.714h0Z"/><path d="M58.929,97.872h0c.035.102.166.098.203,0,.052-.137.046-.288.053-.432.008-.157.01-.314.013-.471.004-.292.01-.584.006-.875s-.012-.583-.021-.874c-.009-.277.016-.618-.105-.872-.052-.108-.202-.063-.236.031-.048.132-.041.298-.041.438,0,.145.013.292.018.437.011.291.018.582.026.874.008.302.02.605.027.908.006.263-.031.584.057.835h0Z"/><path d="M58.919,91.519h0c.024.043.083.038.108,0,.063-.095.058-.219.068-.331.012-.139.016-.28.022-.419.012-.269.021-.538.026-.808s.003-.539-.006-.808c-.009-.246.002-.547-.119-.769-.046-.084-.159-.053-.189.025-.093.241-.041.551-.03.804.012.26.025.519.038.778s.021.519.027.778c.003.14.002.28.006.419.004.112-.006.232.05.331h-.001Z"/><path d="M59.031,84.744h0c-.039-.038-.108-.042-.146,0-.145.158-.112.472-.127.673-.018.231-.021.456-.016.687.006.273.008.547.017.82.009.283.059.552.1.831.026.176.282.117.292-.039.009-.146.038-.289.039-.435,0-.136.007-.271.005-.407-.003-.266-.014-.531-.028-.797-.012-.22-.016-.439-.019-.659-.002-.198.041-.522-.115-.673h-.002Z"/><path d="M58.813,82.041h0c-.005.02.007.05.03.053.057.008.095-.038.087-.095-.012-.087-.111-.119-.182-.079-.192.108-.038.404.081.504.054.045.117.056.181.023.274-.14.246-.483.216-.74-.021-.179-.046-.357-.081-.534-.01-.047-.015-.096-.033-.14-.016-.039-.031-.072-.043-.113-.024-.082-.043-.168-.095-.238-.04-.054-.139-.058-.157.021-.019.08-.008.155,0,.236.007.076,0,.149.011.224.021.149.042.298.063.447.018.122.039.247.038.371,0,.072-.009.167-.072.208h.15c-.031-.02-.057-.05-.071-.085-.005-.012-.008-.026-.011-.039-.005-.012-.006-.024-.005-.036.004-.037-.033-.033-.11.012h.003Z"/></g></g></svg>