<?xml version="1.0" encoding="UTF-8"?><svg id="uuid-bdb9b1cd-05e0-42ad-89c5-cd784c948272" xmlns="http://www.w3.org/2000/svg" viewBox="0 0 116.3 120"><defs><style>.uuid-84e3e418-653f-477f-88d3-249f295614f7{fill:#ede9c8;}.uuid-f7edee54-1b6c-4e28-9058-856c64b042f1{fill:#fff;}</style></defs><g id="uuid-dbcc1005-ad19-4c32-84df-2fbb1f8a354b"><path class="uuid-84e3e418-653f-477f-88d3-249f295614f7" d="M116.2,32.5v.4c-.1,1.5-1.4,3.1-3.6,4.5-3.6,2.3-9.7,4.2-16.6,5.7-4.2.8-8.8,1.5-13.6,2.1l-.4-2.7c3.2-.5,6.1-1.2,8.5-2,2.7-.9,4.8-1.9,6.1-3,1.7-1.5,1.6-3,0-4.5-.4-.3-.9-.7-1.4-1-3.3-1.9-9.4-3.6-17.6-4.6h0c-.4,0-.9-.1-1.4-.2-5.4-.6-11.4-1-17.9-1s-12.6.4-18,1c-.5,0-1.1.1-1.6.2-2.7.3-5.2.8-7.4,1.2-5.6,1.2-9.5,2.7-11.4,4.4-.3.3-.6.6-.8.8-.9,1.2-.6,2.5.7,3.7,1.9,1.7,5.6,3.1,10.4,4.2,1.3.3,2.7.6,4.2.8l-.4,2.7c-7.4-.8-14.4-2-20-3.6-4.2-1.2-7.8-2.5-10.2-4.2-2.3-1.5-3.5-3-3.6-4.5v-.3c0-1.2.7-2.4,2-3.6,3.7-3.2,12.2-6.1,24.9-8,9-1.4,19.7-2.1,31.2-2.1,17.2,0,32.3,1.7,42.8,4.5,9.5,2.4,14.6,5.5,15.2,8.6v.5h-.1Z"/><path class="uuid-84e3e418-653f-477f-88d3-249f295614f7" d="M116.2,0v30.5-.5c-.6-3.1-5.8-6.2-15.2-8.6-10.5-2.7-25.5-4.4-42.8-4.4s-22.2.8-31.2,2.1c-12.7,1.9-21.2,4.8-24.9,8C.7,28.3.1,29.5.1,30.7V0h116.1Z"/><path class="uuid-84e3e418-653f-477f-88d3-249f295614f7" d="M93.3,37.4c-1.8,1.8-6.1,3.3-11.5,4.4l-.2-1c3.6-.9,6.2-2,7.4-3.3,1.4-1.6.4-3.1-2.5-4.5-.8-.4-1.8-.8-3-1.1-.3-.1-.6-.2-1-.3-1-.3-2.1-.5-3.2-.8-.6-.1-1.3-.2-2-.4-5.3-.9-11.9-1.5-19.2-1.5s-14.2.6-19.5,1.5c-.6.1-1.1.2-1.7.3-.4,0-.8.2-1.1.2s-.5.1-.8.2c-.3,0-.7.2-1,.2-.2,0-.5.1-.7.2-.2,0-.4.1-.6.2-1.2.4-2.2.7-3,1.1-3,1.4-3.9,3-2.5,4.5,1.2,1.3,3.8,2.5,7.4,3.3l-.2,1c-5.4-1.1-9.7-2.6-11.5-4.4-1.5-1.5-1.1-3.1.9-4.5.7-.5,1.7-1,2.8-1.5.2-.1.5-.2.7-.3,1-.4,2.1-.7,3.3-1,.6-.2,1.2-.3,1.9-.5,1.3-.3,2.8-.6,4.4-.8.5,0,1.1-.2,1.7-.3,5.4-.8,12-1.2,19.5-1.2s13.9.4,19.3,1.2c.7,0,1.3.2,1.9.3h0c.4,0,.7.1,1.1.2.4,0,.7.1,1.1.2.3,0,.6.1.8.2.3,0,.6.1.9.2,1.1.2,2.2.5,3.2.8.2,0,.3,0,.5.1.2,0,.4.1.6.2.5.1.9.3,1.3.5.2,0,.4.1.6.2.3.1.6.2.8.3.2,0,.4.2.6.2.6.3,1.2.6,1.6.9,2,1.4,2.4,3,.9,4.5h0v.3Z"/><path class="uuid-84e3e418-653f-477f-88d3-249f295614f7" d="M116.2,32.5v.4h-19.7c-.4-.3-.9-.7-1.4-1-3-1.8-8.4-3.3-15.7-4.4-.6,0-1.2-.2-1.9-.2h0c-.4,0-.9-.1-1.4-.2-5.4-.6-11.4-1-17.9-1s-12.6.4-18,1c-.5,0-1.1.1-1.6.2-.6,0-1.1.1-1.7.2-2.1.3-4,.6-5.8,1-5.6,1.2-9.5,2.7-11.4,4.4H0v-.3c0-1.2.7-2.4,2.1-3.6,3.7-3.2,12.2-6.1,24.9-8,9-1.4,19.7-2.1,31.2-2.1,17.2,0,32.3,1.7,42.8,4.5,9.5,2.4,14.6,5.5,15.2,8.6,0,.2,0,.3,0,.5Z"/><path class="uuid-84e3e418-653f-477f-88d3-249f295614f7" d="M78.7,32.3v87.7h-41.1V32.3c.5-.1,1.1-.2,1.6-.3,5.1-.9,11.7-1.5,18.9-1.5s13.6.5,18.7,1.4c.7.1,1.3.2,1.9.4h0Z"/></g><g id="uuid-463b35ca-212f-4b4e-a65d-cc171d1d4d77"><g id="uuid-b5c05e04-da81-4b57-aa7d-d3cd7c381f57"><path class="uuid-f7edee54-1b6c-4e28-9058-856c64b042f1" d="M69.641,73.909c-.15.54-.33,1.21-.43,2.22-.05,1.06.12,2.14.31,3.28.25,1.56.54,3.32.3,5.41-.04.39-.13.95-.21,1.39-.04.2-.16.61-.29,1.01-.12.46-.25.85-.26,1.03-.25,1.88-.28,3.27-.3,4.29,0,.32,0,.6-.01.83-.01.13.02.56.09,1.27.06.54.13,1.23.12,1.37-.05,1.49-.37,3.6-.88,4.73-.56,1.24-1.2,1.43-2.5,1.82-.33.1-.71.22-1.13.36-2.36.81-4.58,1.58-4.81,3.86v.11l.02.03v.01c-.05.2-.09.41-.11.62-.05.39-.08.83.03,1.22.01.03.04.06.07.06,0,.01.01.01.01.01.16.03.13-.35.14-.43.01-.22.02-.44.05-.66.02-.18.04-.35.07-.53.44.5.81,1.13,1.07,1.84-.01.01-.02.01-.02.02-.02.04-.04.09-.06.13-.03.06-.06.12-.08.18s-.05.13-.05.2c-.01.02-.01.03-.01.04-.01.04-.01.08,0,.12.01.03.02.05.02.05.02.11.15.13.23.06,0-.01.01-.01.02-.02.01,0,.02-.01.03-.02.02-.02.03-.04.04-.07.01-.01.02-.02.02-.03s.01-.02.01-.02h-.01c0-.01.01-.01.02-.03.03-.03.04-.08.05-.11s.02-.06.03-.09c.01-.03.03-.07.04-.1.14.15.35.42.49.59.44.52.31.95.24,1.11-.07.15-.19.27-.32.32l-.17.06v.01c-.02,0-.03-.01-.05-.02-.01,0-.02-.01-.04-.01-.02-.02-.05-.03-.08-.04-.01,0-.01-.01-.02,0h-.01l-.01-.01c-.01,0-.01-.01-.02,0-.08-.04-.16-.03-.22.03-.07.06-.07.16-.03.24.01.02.01.04.03.05v.01l.01.01c.02.06.09.11.16.15.04.01.08.03.12.04.04,0,.07.01.11.01h.05c-.01,1.26-.4,2.42-1.07,3.19-.66.75-1.57,1.15-2.67,1.16h-.02c-1.1-.01-2.01-.41-2.67-1.16-.69-.8-1.09-1.99-1.07-3.29.07-.01.14-.03.21-.06.05-.02.09-.04.14-.07.02-.02.05-.04.07-.06s.03-.04.04-.06.02-.04.03-.06c.02-.08-.05-.14-.11-.15h-.03c-.01,0-.03,0-.04.01-.07,0-.15.04-.21.08-.02,0-.03.01-.05.02,0,0-.01.01-.02.01s-.02.01-.03.01v-.03l-.17-.07c-.13-.05-.25-.17-.32-.32-.07-.16-.2-.59.24-1.11.13-.16.36-.44.5-.6.01.02.01.03.01.03.02.06.04.13.06.19.01.04.03.08.05.12.01.02.01.04.02.05.01.02.03.04.05.05.01,0,.02.01.03.02.02.01.03.03.05.04.07.05.17,0,.19-.07,0-.03.01-.06.01-.09.01-.03.01-.06,0-.1,0-.02-.01-.04-.02-.06-.01-.04-.02-.08-.04-.12-.03-.08-.07-.16-.11-.24-.01-.02-.02-.04-.05-.06v-.01c.26-.73.63-1.37,1.07-1.87.04.17.06.34.09.52.06.39.04.79.11,1.17.03.12.18.1.21,0,.13-.38.1-.83.05-1.22-.02-.21-.06-.42-.11-.63-.01-.06-.03-.12-.05-.18l.01-.01-.01-.11c-.23-2.28-2.44-3.05-4.81-3.86-.42-.14-.8-.26-1.13-.36-1.3-.39-1.94-.58-2.5-1.82-.51-1.12-.83-3.23-.88-4.73,0-.15.06-.83.12-1.39.07-.69.1-1.12.09-1.25-.01-.23-.01-.51-.01-.83-.02-1.02-.05-2.41-.29-4.29-.02-.18-.14-.57-.27-1.03-.13-.4-.25-.81-.29-1.01-.09-.49-.17-1.01-.21-1.39-.24-2.09.05-3.85.3-5.41.19-1.16.36-2.23.31-3.27-.1-1.01-.28-1.69-.42-2.23-.12-.41-.2-.74-.19-1.02.06-.9.24-1.75.5-2.25l.12-.28c.18-.35.3-.61.54-.81.15-.12.23-.13.27-.13.09,0,.13.12.13.22v.06l.05.06c.02.04.08.09.13.14.06.07.13.13.14.19.08.21-.02.52-.32.88l-.05.09c-.07.31-.05,1.03-.03,1.25-.06.76.02,1.08.21,1.44.37.69.24,1.32.02,2.28l-.08.36v.04c.06,1.56.41,2.57.7,3.45.18.52.36,1.02.44,1.57.05.37.16.88.27,1.43.19.92.4,1.97.45,2.63.01.2.07.52.13.94.13.97.34,2.42.5,4.46,0,.04.01.07.01.11-.22.84-.41,1.7-.56,2.57-.16.91-.38,1.92-.19,2.84.01.02.04.03.05.01.42-.9.49-1.96.71-2.92.03-.15.07-.3.11-.45.15-.65.32-1.3.51-1.95.06-.21.12-.41.18-.62.63-2.02,1.5-3.94,2.22-5.92.07-.18-.19-.26-.29-.12-.65.95-1.16,1.98-1.59,3.05.12-.7.17-1.43.2-2.16.03-.5.01-1.56-.02-2.01-.05-.72-.16-1.48-.33-2.31-.69-3.44-.69-10.32.39-15.1l.25-1.07c.39-1.69.74-3.28.84-4.86.08-1.43.01-2.53-.06-3.6-.1-1.25-.17-2.42.01-3.91.13-1.07.45-2.54.8-4.09l.01-.07c.56-2.5,1.13-5.08,1.05-6.59-.11-.74-.11-1.03-.1-1.25.01-.16.03-.28-.02-.49-.12-.59-.29-.83-.49-1.13-.12-.16-.21-.32-.35-.55-.22-.42-.55-.75-.71-1.22-.16-.46-.16-.95-.16-1.14.04-.03.6-.19.95-.26.35-.08.76-.13,1.02-.16.27-.03,1.25-.14,1.58-.11.33.04.89-.04.91.34.07.22-.03.63-.04.98s-.01,1.04-.05,1.36c-.02.17-.02.33-.01.47.03.08-.04.4-.09.68-.1.44-.18.93-.17,1.2.06.45.05.63,0,1.1l-.03.51c-.03.38-.23,3.88.32,10.38.04.66,0,1.29-.05,2.01-.11,1.23-.22,2.76.07,5.35.05.89-.01,1.52-.11,2.39-.06.52.05,1.16-.01,1.9-.05.7.41,2.47.49,4.35.11,2.45.03,4.35-.04,6.13l.12.68c-.29-.03-.58-.11-.89-.19-.47-.13-.94-.21-1.44-.14-1.01.13-1.96.71-2.6,1.49-.06.06-.01.2.09.16.86-.34,1.66-.93,2.6-1,.94-.08,1.76.52,2.7.48.95-.04,1.83-.4,2.8-.3,1.02.12,1.7.66,2.31,1.45.15.2.45.08.4-.17-.16-.9-.99-1.5-1.8-1.8-.99-.36-1.97-.19-2.96-.02l.08-.71c-.07-1.77-.04-6.1-.04-6.1.08-1.93.52-3.8.47-4.48-.05-.74.12-1.21.07-1.71-.1-.88-.17-1.51-.12-2.43.29-2.56.18-4.09.07-5.32-.05-.74-.09-1.37-.03-2.02.53-6.51.33-10,.3-10.38l-.03-.51c-.05-.47-.06-.65,0-1.1.01-.25-.06-.69-.17-1.2-.05-.29-.1-.6-.09-.68.02-.14.01-.3-.01-.47-.04-.33-.06-.7.16-1.14.16-.28.18-.38.2-.54.03-.09.04-.2.11-.42.12-.31.31-.45.63-.45.4.02,3.06.09,3.2.27.02.24-.09,1.35-.23,1.55-.07.09-.35.52-.57.94-.14.24-.24.4-.35.55-.2.3-.37.54-.49,1.13-.03.2-.03.33-.02.48.01.22.01.51-.09,1.24-.09,1.52.48,4.11,1.04,6.61.35,1.58.68,3.07.81,4.16.18,1.5.11,2.66.02,3.9-.08,1.08-.14,2.18-.07,3.61.1,1.58.45,3.17.84,4.85l.25,1.08c1.09,4.78,1.09,11.66.39,15.1-.24,1.2-.36,2.27-.38,3.24-.04-.14.29,3.62.37,4.06-.09-.21-.2-.41-.3-.61-.43-.85-.87-1.75-1.47-2.49-.12-.15-.35.01-.3.17.26.89.76,1.73,1.16,2.57.43.87.85,1.74,1.23,2.64.21.5.41,1.01.6,1.52v.01c.16.42.3.84.43,1.26.25.83.35,1.79.74,2.56.03.07.15.05.16-.02.17-.84-.13-1.88-.34-2.69-.23-.87-.52-1.74-.87-2.58.16-1.9.36-3.28.48-4.2.06-.44.12-.75.13-.96.06-.66.26-1.7.45-2.63.11-.55.22-1.06.28-1.43.08-.55.25-1.05.43-1.57.29-.88.64-1.89.7-3.45l-.08-.4c-.22-.96-.35-1.59.02-2.28.21-.4.26-.76.21-1.46.02-.17.02-.35.02-.52,0-.29-.02-.56-.05-.71l-.05-.09c-.29-.36-.4-.67-.32-.88.01-.06.08-.13.14-.19.06-.05.11-.1.13-.14l.05-.06v-.06c0-.1.05-.22.13-.22.04,0,.12.01.27.13.24.2.36.45.54.81l.12.27c.26.52.44,1.36.5,2.26.01.29-.07.61-.18,1.02h0Z"/><path d="M57.452,102.987h0c.009.27.443.353.491.066.429-2.577.43-5.286.449-7.905s.076-5.289-.311-7.886c-.028-.185-.295-.12-.307.042-.197,2.604-.07,5.233-.127,7.844-.029,1.287-.073,2.573-.106,3.859-.034,1.319-.135,2.661-.09,3.979h0Z"/><path d="M57.716,75.65h0c-.038-.093-.182-.114-.211,0-.123.479-.032,1.037-.026,1.527.007.541.019,1.082.016,1.624-.005,1.081-.113,2.168-.035,3.247.011.162.262.217.299.04.219-1.055.191-2.151.184-3.225-.003-.562-.012-1.126-.045-1.687-.029-.488.002-1.068-.182-1.527h0Z"/><path d="M55.764,62.356h0c.014.054.089.039.092-.012.032-.558.02-1.118.059-1.677.019-.28.053-.558.089-.836.016-.128.032-.255.043-.384.013-.145.047-.301.033-.445-.01-.103-.154-.164-.211-.057-.128.239-.167.556-.201.822-.037.287-.053.578-.061.868-.016.583.004,1.158.155,1.722h.002Z"/><path d="M53.12,61.422c-.013.093.093.179.17.099.112-.116.17-.254.226-.403.052-.139.086-.282.108-.428.024-.159.036-.314.022-.474-.013-.148-.014-.349-.126-.458-.085-.082-.202-.035-.242.064-.031.078-.011.149-.003.229.007.064.011.129.013.193.003.133.003.268-.008.4-.011.127-.034.254-.062.378-.03.135-.078.263-.098.4h0Z"/><path d="M60.083,62.455h0c.013.029.052.021.067,0,.078-.107.075-.273.093-.401.017-.125.033-.25.043-.376.023-.279.008-.565-.013-.844-.021-.276-.055-.551-.102-.823-.044-.256-.094-.561-.263-.767-.065-.079-.17-.004-.18.075-.031.251.073.536.126.78.059.271.103.546.132.822.028.271.036.543.052.815.008.136.014.272.016.408,0,.106-.016.212.029.31h0Z"/><path d="M62.317,61.844h0c.029.023.071.023.092-.012.042-.073.02-.154.015-.236-.007-.097-.009-.193-.017-.29-.016-.187-.026-.374-.029-.563s.002-.377-.002-.566c0-.097-.002-.195,0-.293,0-.093.02-.196-.015-.283-.037-.093-.163-.126-.221-.029-.052.087-.049.192-.058.291-.008.097-.015.195-.02.293-.01.197.003.391.021.587.019.2.045.399.077.597.016.097.041.189.066.284.021.079.027.168.093.221h-.001Z"/><path d="M69.711,76.179c.1-1,.28-1.66.41-2.14.13-.46.21-.81.2-1.18-.07-.99-.27-1.88-.54-2.43l-.12-.27-.03-.05v-.01c-.18-.36-.34-.67-.66-.94-.2-.16-.39-.24-.58-.24-.31,0-.57.25-.62.59l-.04.04c-.09.08-.22.21-.27.4-.09.27-.08.7.37,1.28.02.12.03.31.03.54,0,.15,0,.31-.02.46v.1c.05.67-.01.92-.15,1.18-.47.88-.28,1.69-.07,2.62l.07.34c-.06,1.4-.37,2.34-.64,3.16l-.03.09c-.17.49-.37,1.05-.45,1.65-.05.26-.11.6-.19.97l-.09.44c-.18.88-.39,1.98-.46,2.71-.01.12-.03.27-.06.47-.02.13-.04.28-.07.44l-.03.28c-.09.66-.21,1.48-.31,2.51-.01-.01-.01-.02-.01-.03-.51-2.48-.85-4.64-.17-8.03.71-3.47.72-10.45-.39-15.31l-.25-1.08c-.4-1.71-.73-3.24-.83-4.76-.07-1.46-.01-2.55.07-3.55.1-1.35.16-2.5-.02-4-.14-1.11-.47-2.62-.82-4.21-.5-2.22-1.12-4.98-1.03-6.43.1-.78.1-1.1.09-1.34-.01-.13-.01-.22.01-.35.1-.47.22-.65.4-.93.13-.18.25-.37.39-.62.22-.4.48-.81.54-.88.12-.18.4-.62.36-1.07,0,0,0-1.03-.09-1.12-.1-.09-1.48-.22-2.04-.26-.56-.03-1.68-.14-2.09-.16-.36,0-.55.43-.63.8-.04.15-.19.53-.28.89-.27.54-.26,1-.21,1.42.02.1.03.24.01.35-.01.11,0,.26.1.85.16.71.16.98.16,1.02-.06.51-.05.73,0,1.2l.03.52c0,.03.26,3.44-.3,10.29-.06.71-.02,1.39.03,2.11.12,1.31.21,2.79-.07,5.25-.05.97.03,1.65.12,2.51.02.18,0,.38-.03.61-.03.31-.07.65-.04,1.09.02.26-.06.83-.16,1.49-.12.83-.27,1.87-.31,2.95,0,.17-.03,4.3.04,6.08l-.07.64h-.24l-.1-.58v-.08c.08-1.78.15-3.63.04-6.04-.04-1.04-.2-2.04-.33-2.84-.09-.64-.18-1.19-.16-1.45.03-.41.02-.78,0-1.12-.01-.29-.02-.55.01-.76.1-.89.16-1.54.11-2.51-.28-2.46-.19-3.94-.07-5.26.05-.79.09-1.4.05-2.08-.58-6.85-.32-10.27-.32-10.31l.03-.49c.05-.49.06-.71,0-1.17-.01-.19.06-.62.16-1.09l.03-.16c.06-.34.1-.52.07-.68-.01-.12-.01-.23.01-.34.05-.41-.03-.9-.05-1.32s.12-1.12.05-1.36c-.2-.51-1.07-.43-1.59-.43,0,0-.9.03-1.28.03s-1.91.27-2.27.43-.22,1.16-.22,1.16c0,.34.2.71.37.97l.03.03.02.02c.05.07.27.41.51.88l.08.13c.11.18.19.32.3.47.18.27.3.45.4.94.03.1.02.15.02.27l-.01.08c-.01.23-.01.55.1,1.3.08,1.47-.51,4.11-1.04,6.49l-.01.03c-.33,1.48-.67,3.02-.81,4.14-.18,1.53-.11,2.72-.01,4,.07,1.05.14,2.13.06,3.54-.09,1.51-.43,3.06-.83,4.78l-.25,1.07c-1.1,4.86-1.09,11.84-.39,15.31.68,3.39.34,5.55-.17,8.03,0,.01,0,.02-.01.03-.1-1.02-.21-1.84-.3-2.49l-.05-.32-.05-.39c-.04-.21-.06-.38-.07-.52-.05-.68-.27-1.75-.46-2.69l-.07-.33c-.08-.41-.16-.79-.2-1.07-.08-.57-.26-1.08-.43-1.58l-.03-.08-.03-.09c-.27-.83-.58-1.76-.64-3.19l.07-.3c.21-.94.4-1.75-.07-2.62-.13-.25-.21-.46-.15-1.17v-.09c-.02-.22-.03-.76.01-1.02.46-.58.46-1.02.37-1.29-.04-.16-.14-.27-.21-.34l-.06-.06-.04-.05c-.05-.34-.3-.58-.62-.58-.19,0-.38.08-.59.25-.3.24-.45.54-.62.88l-.06.11-.1.25c-.29.55-.49,1.44-.56,2.46-.01.34.07.71.22,1.2.13.52.3,1.17.39,2.09.05,1.02-.13,2.11-.3,3.17l-.01.06c-.26,1.58-.54,3.36-.3,5.48.04.38.12.9.22,1.44.06.31.25.89.3,1.05l.08.27c.07.27.16.57.17.68.24,1.88.27,3.24.29,4.23,0,.33,0,.62.01.87,0,.02.01.2-.09,1.16-.05.46-.12,1.24-.12,1.46.05,1.55.39,3.73.92,4.92.66,1.44,1.47,1.68,2.82,2.09.32.1.7.22,1.11.35,2.25.77,4.2,1.44,4.46,3.33l-.02.02c-.54.57-.98,1.31-1.28,2.12-.13.1-.29.28-.66.73l-.03.05c-.62.72-.43,1.38-.31,1.64.1.22.25.39.44.5-.02,1.43.41,2.75,1.19,3.66.76.86,1.81,1.32,3.05,1.33h.02c1.24-.01,2.29-.47,3.05-1.33.78-.91,1.21-2.24,1.19-3.66.19-.11.34-.29.45-.51.11-.25.3-.91-.31-1.63l-.13-.15c-.31-.38-.44-.54-.57-.63-.31-.83-.75-1.56-1.28-2.11-.01-.01-.01-.02-.02-.03.26-1.89,2.21-2.55,4.46-3.33.41-.13.79-.25,1.12-.35,1.34-.41,2.15-.65,2.81-2.09.53-1.2.87-3.38.92-4.9,0-.06.01-.23-.12-1.46-.1-.96-.09-1.15-.09-1.2.01-.23.01-.52.01-.84.02-1,.05-2.36.3-4.27,0-.07.07-.31.12-.5.04-.13.08-.28.12-.41.05-.17.24-.75.3-1.07.04-.2.16-.91.22-1.42.24-2.13-.04-3.91-.3-5.49l-.01-.06c-.2-1.2-.35-2.2-.3-3.15h0ZM69.321,70.629c.26.52.44,1.36.5,2.26.01.29-.07.61-.18,1.02-.15.54-.33,1.21-.43,2.22-.05,1.06.12,2.14.31,3.28.25,1.56.54,3.32.3,5.41-.04.39-.13.95-.21,1.39-.04.2-.16.61-.29,1.01-.12.46-.25.85-.26,1.03-.25,1.88-.28,3.27-.3,4.29,0,.32,0,.6-.01.83-.01.13.02.56.09,1.27.06.54.13,1.23.12,1.37-.05,1.49-.37,3.6-.88,4.73-.56,1.24-1.2,1.43-2.5,1.82-.33.1-.71.22-1.13.36-2.36.81-4.58,1.58-4.81,3.86v.11l.02.03v.01c-.05.2-.09.41-.11.62-.05.39-.08.83.03,1.22.01.03.04.06.07.06,0,.01.01.01.01.01.16.03.13-.35.14-.43.01-.22.02-.44.05-.66.02-.18.04-.35.07-.53.44.5.81,1.13,1.07,1.84-.01.01-.02.01-.02.02-.02.04-.04.09-.06.13-.03.06-.06.12-.08.18s-.05.13-.05.2c-.01.02-.01.03-.01.04-.01.04-.01.08,0,.12.01.03.02.05.02.05.02.11.15.13.23.06,0-.01.01-.01.02-.02.01,0,.02-.01.03-.02.02-.02.03-.04.04-.07.01-.01.02-.02.02-.03s.01-.02.01-.02h-.01c0-.01.01-.01.02-.03.03-.03.04-.08.05-.11s.02-.06.03-.09c.01-.03.03-.07.04-.1.14.15.35.42.49.59.44.52.31.95.24,1.11-.07.15-.19.27-.32.32l-.17.06v.01c-.02,0-.03-.01-.05-.02-.01,0-.02-.01-.04-.01-.02-.02-.05-.03-.08-.04-.01,0-.01-.01-.02,0h-.01l-.01-.01c-.01,0-.01-.01-.02,0-.08-.04-.16-.03-.22.03-.07.06-.07.16-.03.24.01.02.01.04.03.05v.01l.01.01c.02.06.09.11.16.15.04.01.08.03.12.04.04,0,.07.01.11.01h.05c-.01,1.26-.4,2.42-1.07,3.19-.66.75-1.57,1.15-2.67,1.16h-.02c-1.1-.01-2.01-.41-2.67-1.16-.69-.8-1.09-1.99-1.07-3.29.07-.01.14-.03.21-.06.05-.02.09-.04.14-.07.02-.02.05-.04.07-.06s.03-.04.04-.06.02-.04.03-.06c.02-.08-.05-.14-.11-.15h-.03c-.01,0-.03,0-.04.01-.07,0-.15.04-.21.08-.02,0-.03.01-.05.02,0,0-.01.01-.02.01s-.02.01-.03.01v-.03l-.17-.07c-.13-.05-.25-.17-.32-.32-.07-.16-.2-.59.24-1.11.13-.16.36-.44.5-.6.01.02.01.03.01.03.02.06.04.13.06.19.01.04.03.08.05.12.01.02.01.04.02.05.01.02.03.04.05.05.01,0,.02.01.03.02.02.01.03.03.05.04.07.05.17,0,.19-.07,0-.03.01-.06.01-.09.01-.03.01-.06,0-.1,0-.02-.01-.04-.02-.06-.01-.04-.02-.08-.04-.12-.03-.08-.07-.16-.11-.24-.01-.02-.02-.04-.05-.06v-.01c.26-.73.63-1.37,1.07-1.87.04.17.06.34.09.52.06.39.04.79.11,1.17.03.12.18.1.21,0,.13-.38.1-.83.05-1.22-.02-.21-.06-.42-.11-.63-.01-.06-.03-.12-.05-.18l.01-.01-.01-.11c-.23-2.28-2.44-3.05-4.81-3.86-.42-.14-.8-.26-1.13-.36-1.3-.39-1.94-.58-2.5-1.82-.51-1.12-.83-3.23-.88-4.73,0-.15.06-.83.12-1.39.07-.69.1-1.12.09-1.25-.01-.23-.01-.51-.01-.83-.02-1.02-.05-2.41-.29-4.29-.02-.18-.14-.57-.27-1.03-.13-.4-.25-.81-.29-1.01-.09-.49-.17-1.01-.21-1.39-.24-2.09.05-3.85.3-5.41.19-1.16.36-2.23.31-3.27-.1-1.01-.28-1.69-.42-2.23-.12-.41-.2-.74-.19-1.02.06-.9.24-1.75.5-2.25l.12-.28c.18-.35.3-.61.54-.81.15-.12.23-.13.27-.13.09,0,.13.12.13.22v.06l.05.06c.02.04.08.09.13.14.06.07.13.13.14.19.08.21-.02.52-.32.88l-.05.09c-.07.31-.05,1.03-.03,1.25-.06.76.02,1.08.21,1.44.37.69.24,1.32.02,2.28l-.08.36v.04c.06,1.56.41,2.57.7,3.45.18.52.36,1.02.44,1.57.05.37.16.88.27,1.43.19.92.4,1.97.45,2.63.01.2.07.52.13.94.13.97.34,2.42.5,4.46,0,.04.01.07.01.11-.22.84-.41,1.7-.56,2.57-.16.91-.38,1.92-.19,2.84.01.02.04.03.05.01.42-.9.49-1.96.71-2.92.03-.15.07-.3.11-.45.15-.65.32-1.3.51-1.95.06-.21.12-.41.18-.62.63-2.02,1.5-3.94,2.22-5.92.07-.18-.19-.26-.29-.12-.65.95-1.16,1.98-1.59,3.05.12-.7.17-1.43.2-2.16.03-.5.01-1.56-.02-2.01-.05-.72-.16-1.48-.33-2.31-.69-3.44-.69-10.32.39-15.1l.25-1.07c.39-1.69.74-3.28.84-4.86.08-1.43.01-2.53-.06-3.6-.1-1.25-.17-2.42.01-3.91.13-1.07.45-2.54.8-4.09l.01-.07c.56-2.5,1.13-5.08,1.05-6.59-.11-.74-.11-1.03-.1-1.25.01-.16.03-.28-.02-.49-.12-.59-.29-.83-.49-1.13-.12-.16-.21-.32-.35-.55-.22-.42-.55-.75-.71-1.22-.16-.46-.16-.95-.16-1.14.04-.03.6-.19.95-.26.35-.08.76-.13,1.02-.16.27-.03,1.25-.14,1.58-.11.33.04.89-.04.91.34.07.22-.03.63-.04.98s-.01,1.04-.05,1.36c-.02.17-.02.33-.01.47.03.08-.04.4-.09.68-.1.44-.18.93-.17,1.2.06.45.05.63,0,1.1l-.03.51c-.03.38-.23,3.88.32,10.38.04.66,0,1.29-.05,2.01-.11,1.23-.22,2.76.07,5.35.05.89-.01,1.52-.11,2.39-.06.52.05,1.16-.01,1.9-.05.7.41,2.47.49,4.35.11,2.45.03,4.35-.04,6.13l.12.68c-.29-.03-.58-.11-.89-.19-.47-.13-.94-.21-1.44-.14-1.01.13-1.96.71-2.6,1.49-.06.06-.01.2.09.16.86-.34,1.66-.93,2.6-1,.94-.08,1.76.52,2.7.48.95-.04,1.83-.4,2.8-.3,1.02.12,1.7.66,2.31,1.45.15.2.45.08.4-.17-.16-.9-.99-1.5-1.8-1.8-.99-.36-1.97-.19-2.96-.02l.08-.71c-.07-1.77-.04-6.1-.04-6.1.08-1.93.52-3.8.47-4.48-.05-.74.12-1.21.07-1.71-.1-.88-.17-1.51-.12-2.43.29-2.56.18-4.09.07-5.32-.05-.74-.09-1.37-.03-2.02.53-6.51.33-10,.3-10.38l-.03-.51c-.05-.47-.06-.65,0-1.1.01-.25-.06-.69-.17-1.2-.05-.29-.1-.6-.09-.68.02-.14.01-.3-.01-.47-.04-.33-.06-.7.16-1.14.16-.28.18-.38.2-.54.03-.09.04-.2.11-.42.12-.31.31-.45.63-.45.4.02,3.06.09,3.2.27.02.24-.09,1.35-.23,1.55-.07.09-.35.52-.57.94-.14.24-.24.4-.35.55-.2.3-.37.54-.49,1.13-.03.2-.03.33-.02.48.01.22.01.51-.09,1.24-.09,1.52.48,4.11,1.04,6.61.35,1.58.68,3.07.81,4.16.18,1.5.11,2.66.02,3.9-.08,1.08-.14,2.18-.07,3.61.1,1.58.45,3.17.84,4.85l.25,1.08c1.09,4.78,1.09,11.66.39,15.1-.24,1.2-.36,2.27-.38,3.24-.04-.14.29,3.62.37,4.06-.09-.21-.2-.41-.3-.61-.43-.85-.87-1.75-1.47-2.49-.12-.15-.35.01-.3.17.26.89.76,1.73,1.16,2.57.43.87.85,1.74,1.23,2.64.21.5.41,1.01.6,1.52v.01c.16.42.3.84.43,1.26.25.83.35,1.79.74,2.56.03.07.15.05.16-.02.17-.84-.13-1.88-.34-2.69-.23-.87-.52-1.74-.87-2.58.16-1.9.36-3.28.48-4.2.06-.44.12-.75.13-.96.06-.66.26-1.7.45-2.63.11-.55.22-1.06.28-1.43.08-.55.25-1.05.43-1.57.29-.88.64-1.89.7-3.45l-.08-.4c-.22-.96-.35-1.59.02-2.28.21-.4.26-.76.21-1.46.02-.17.02-.35.02-.52,0-.29-.02-.56-.05-.71l-.05-.09c-.29-.36-.4-.67-.32-.88.01-.06.08-.13.14-.19.06-.05.11-.1.13-.14l.05-.06v-.06c0-.1.05-.22.13-.22.04,0,.12.01.27.13.24.2.36.45.54.81l.12.27h0Z"/></g></g></svg>