<?xml version="1.0" encoding="UTF-8"?><svg xmlns="http://www.w3.org/2000/svg" viewBox="0 0 300 300"><defs><style>.uuid-a1501b51-eb7b-4ec5-a5ea-f385641b5b3f{fill:#c3c3c3;}.uuid-4e92b282-bcdd-421f-9bd7-b4f62dd04c55{fill:#fff;}.uuid-1aad4e25-b7c1-4d14-8148-06ef8ef7d8de{fill:#9d9d9d;}.uuid-99994fb5-c199-4ac6-b70a-07f5df9d9ee1{fill:#e0e0e0;}.uuid-b24ed82c-fdd7-4864-b769-8ed16dc6d5be{fill:#d3d3d3;}.uuid-3453f0a5-1055-4105-b7db-79cd3690c8e9{fill:#9e9e9e;}.uuid-36eb9040-e25e-46da-90ad-6c6c396baf48{fill:#565656;stroke:#fff;stroke-miterlimit:10;}.uuid-05eb6730-7fe3-4187-86dc-8ea3a789a66b{fill:#bebebe;}.uuid-482a48ba-f745-49b5-bf77-dee4b2fd4152{fill:#d2d2d2;}.uuid-9c07d812-4a03-4ef7-a211-a014a12adf15{fill:#f4f4f4;}.uuid-c96f14da-d7e4-4a0e-8f21-29af5e53c659{fill:#ededed;}</style></defs><g id="uuid-788637c3-9f07-4403-8a6c-de434bc4206d"><path class="uuid-9c07d812-4a03-4ef7-a211-a014a12adf15" d="M150.5,53.79C61.07,53.79,1,40.01,1,27.15S61.07.5,150.5.5s149.5,13.78,149.5,26.65-60.07,26.65-149.5,26.65Z"/><path class="uuid-4e92b282-bcdd-421f-9bd7-b4f62dd04c55" d="M150.5,1.5c40.08,0,77.75,2.86,106.06,8.06,31.29,5.75,42.44,12.85,42.44,17.58s-11.15,11.83-42.44,17.58c-28.31,5.2-65.98,8.06-106.06,8.06s-77.75-2.86-106.06-8.06C13.15,38.98,2,31.88,2,27.15S13.15,15.31,44.44,9.56C72.75,4.36,110.42,1.5,150.5,1.5M150.5-.5C67.38-.5,0,11.88,0,27.15s67.38,27.65,150.5,27.65,150.5-12.38,150.5-27.65S233.62-.5,150.5-.5h0Z"/><path class="uuid-4e92b282-bcdd-421f-9bd7-b4f62dd04c55" d="M150.5-39c39.82,0,77.39,2.99,105.78,8.41,31.11,5.94,42.2,13.16,42.2,17.93V19.45c-8.75-7.04-28.74-11.73-45.44-14.57C225.05.12,188.63-2.5,150.5-2.5S75.95.12,47.96,4.88C31.26,7.72,11.27,12.41,2.52,19.45V-14.04c0-4.7,11.08-11.69,42.17-17.23,27.94-4.98,65.52-7.72,105.81-7.72M150.5-41C67.38-41,.52-29.31.52-14.04V24.85C6.86,10.66,71.59-.5,150.5-.5s143.64,11.16,149.98,25.35V-12.66c0-15.27-66.86-28.34-149.98-28.34h0Z"/><path class="uuid-c96f14da-d7e4-4a0e-8f21-29af5e53c659" d="M150.5-.5c78.91,0,143.64,11.16,149.98,25.35V-12.66c0-15.27-66.86-28.34-149.98-28.34S.52-29.31.52-14.04V24.85C6.86,10.66,71.59-.5,150.5-.5Z"/><ellipse class="uuid-36eb9040-e25e-46da-90ad-6c6c396baf48" cx="150.5" cy="25.07" rx="86.67" ry="14.51"/><path class="uuid-4e92b282-bcdd-421f-9bd7-b4f62dd04c55" d="M213.95,17.75c-17.76-2.46-40.72-3.75-65.57-3.75s-48.11,1.23-65.98,3.75h0v285.25h131.56V17.75Z"/></g><g id="uuid-e115c685-2223-4588-88a4-d25977f15bd9"><g id="uuid-aba3ca8a-beae-4229-9199-14d9a1c2a34e"><path class="uuid-1aad4e25-b7c1-4d14-8148-06ef8ef7d8de" d="M107.36,148.35c1.3-4.21,3.41-8.5,5.55-12.3,1.12.48,2.04.17,2.41-.96,1.5,1.03,2.24,2.66,2.22,4.9.86.53,1.02.66,1.42,1.35.6,1.04-.79,13.95-1.62,15.61-2.54,2.68-3.08,6.18-1.61,10.5l3.56,18.73c-.15,6.13-.27,12.26-.37,18.39,1.45,6.78,2.43,13.56,2.94,20.35.66,2.06,3.6,1.55,2.37-.45,1.07-.88.06-8.36-.34-8.65-.18-.13-.41-.21-.65-.26-.77-3.73-2.44-9.48-2.48-13.15-.07-5.82,1.18-11.61.5-17.8-.64-5.82-5.14-19.2-3.82-24.16.23-.86,1.33-1.75,1.72-2.73,1.11-2.74,2.73-14.98,1.89-17.49-.4-1.2-1.66-1.34-1.77-1.8-.26-1.14.37-3.15-.44-4.28-.11-.15-3.07-1.79-3.25-1.81-.43-.05-3.36.54-3.69.75-1.14.71-4.84,11.66-5.93,13.61l-.68,1.64c0,2.1,1.05,3.15,1.05,4.2,0,1.7.75,6.91.88,8.27.16,1.64.19,4.55.26,6.43.32,7.82-1.43,14.57-1.5,21.81-.1,10.53,4,23.76,4.93,34.67.39,4.57-.26,8.36.73,13.13,3.37,16.24,15.17,11.99,25.6,19.38,1.65,1.17,2.07,2.12,2.3,4.13.32,2.74-.39,6.75-1.77,9.14-.41.71-1.65,1.33-2.42,3-1.12,2.46-2.83,8.61.77,9.21-.28,3.71.05,7.83,2.43,10.84,4.66,5.88,16.14,5.97,20.94.21,2.5-3,2.99-7.26,2.72-11.05l1.95-1.1c.62-1.72-.42-6.76-1.32-8.46-1.05-1.99-4.24-5.54-4.93-7.93-.75-2.56-.15-6.42,2.19-7.99,9.26-6.2,21.12-4.09,25.11-16.9,1.92-6.16,1.05-13.46,1.78-20.01,1.13-10.21,4.87-22.02,4.38-32.25-.17-3.59-1.31-7.72-1.5-11.37s-.09-11.62.53-14.87c.29-1.52,1.34-3.56,1.98-5.15,2.1-5.25-4.2-15.74-7.27-22.74-.24-.54-2.64-.56-3.26-.5-.18.02-2.93,1.73-3.07,1.84-1.36,1.16-.39,2.85-.71,4.15-.12.51-1.18.47-1.42,1.14-.89,2.56.25,15.39,1.62,18.05.56,1.08,1.94,2.08,2.15,2.8.94,3.1-3.94,20.67-4.34,25.66-.46,5.75.28,11.59.48,17.32l-2.45,12.63c1.44-6.96-4.38-15.27-4.49-21.55-.2-11.48,5.29-27.15,5.46-39.12l-.98-13.62v2.48c-.81.57-.97,1.89-.49,3.96l-1.01,1.54.02,14.31-1.07.64c-1.9,9.62-3.63,20.46-3.73,30.14l.85.92c-.59.48-.97,1.04-.69,1.74,2.63,6.1,4.16,12.31,4.6,18.63.79.93.79,2.07.02,3.43l.51,4.43c-1.05,3.54,5.27,4.73,2.45-.05.89-7.15,2.01-14.3,3.36-21.43-2.05-12.04.05-22.51,2.66-34.13l.83-6.18c.37-2.42-.48-3.67-2.26-5.14-.93-1.79-2.43-15.22-1.47-16.14,1.8.02,2.23-1.5,1.27-4.56,1.13,1.25,2.57.47,2.38-1.14.57.99,1.19,1.57,2.36.99l5.53,12.15c1.74,2.32,2.35,7.91-1.11,10.41-1.88,9.39-1.4,19.38.2,28.88-.48,9.79-1.84,19.56-4.08,29.32l-1.17,17.65c-.68,6.22-3.88,11.66-10.04,13.71l-10.34,3.6c-4.1,1.84-8.11,3.87-7.9,8.93-4.39-4.29-10.19-3.48-14.23.83.66-5.75-3.76-7.94-8.26-9.93l-11.16-4c-6.23-2.5-8.67-8.67-9.02-15.06.34-10.51-1.56-20.96-3.68-31.33-1.04-10.11-1.02-20.27.06-30.47.32-4.1.02-8-.89-11.69"/><path class="uuid-3453f0a5-1055-4105-b7db-79cd3690c8e9" d="M122.05,214.74c1.05,2.1,52.02-70.5,52.02-70.5,0-.83,0-1.65,0-2.48,0-13.31-2.56-23.42-5.28-36.05-3.61-16.75,1.88-31-.69-46.85-1.04-6.44-4.69-13.53-6.22-20.01-.55-2.34-1.82-5.4-.89-7.3.72-1.48,1.49-7.45,1.98-9.11.88-2.95,2.1-7.34-1.05-8.39s-9.44-1.05-10.49,1.05c-.66,1.33-1.31,16.08-1.05,18.89.24,2.6,2.12,1.78,2.42,4.07,1.4,10.66-2.62,23.67-1.95,34.15.25,3.99,2.06,9,2.01,12.83-.02,1.6-.86,3.77-1,5.48-.78,9.92-.87,19.81-1.47,29.73-.39,6.5-1.54,13-1.51,19.54l-1.47-13.62c.83-13.49-2.53-28.01-2.76-41.1-.07-3.86,1.46-8.09,1.75-11.89.79-10.36-2.47-22.88-1.99-33.68.15-3.28,2.43-3.83,2.8-6.55.31-2.22-1.05-12.59-.34-16.37.31-1.65-1.02-2.56-2.66-2.78-1.94-.26-5.86-.3-7.65.04-.46.09-3.2,1.59-3.26,1.8-1.18,4.71,3.42,12.06,3.42,16.26,0,1.15.12,3.88,0,5.25-.57,6.69-4.88,11.26-6.46,17.86-4.13,17.22,2.21,33.34-1.77,51.22-3.75,16.85-6.95,35.15-5.77,52.64.73,10.93,4.98,24.64,4.96,35.17,0,5.46-4.89,15.44-5.65,20.72Z"/><path class="uuid-b24ed82c-fdd7-4864-b769-8ed16dc6d5be" d="M144.82,295.67c7.68,1.39,15.6-1.45,16.36-10.1.26-2.96-1.56-16.44-2.8-18.86-.34-.68-3.92-4.78-4.57-5.32-2.45-2.05-6.11-2.24-8.84-.5-.66.42-4.64,5.05-5.06,5.82-1.49,2.75-3.19,16.07-2.86,19.41.42,4.18,3.41,8.76,7.76,9.55Z"/><path class="uuid-05eb6730-7fe3-4187-86dc-8ea3a789a66b" d="M174.08,144.24c-.62-5-1.31-10.27-1.97-15.35l.48,17.1,1,2.22c0-.11.67-.76.51-1.21l-.02-2.75Z"/><path class="uuid-482a48ba-f745-49b5-bf77-dee4b2fd4152" d="M191.3,155.7c1.3-3.03.04-7.23.04-7.23l-6.66-14.62-.74,1.97-1.73-2.47-1.04,1.02.3,1.95c-.82-.12-1.16-2.67-2.23-1.01-.84,1.31.44,3.49.26,4.97-2.81-1.71-2.06,4.22-1.97,6.18.1,2.17.86,9.55,1.76,11.11.47.81,1.62,1.37,1.93,2.03,1.3,2.83-3.79,22.6-4.18,27.49-.42,5.3.92,10.29.88,14.85-.07,6.33-3.52,15.06-3.38,21.82.03,1.32,1.04,1.54,1.01,2.7-1.11-.3-1.8-1.94-2.46-2.48.09-.15.11-.32.08-.5.3-2.26.3-7.32.3-7.69,0-2.1-.07-4.35-.61-6.68-.95-4.17-3.64-9.01-4.21-13.35-.81-6.15,3.14-24.07,3.95-31.7.6-5.62.94-10,.99-15.85-.46-6.4-.95-12.83-1.48-19.32-1.22-9.34-2.66-17.01-4.79-26.15-2.08-8.92-.68-14.55-.15-23.38.07-1.17.49-3.12.49-3.71v-12.88c0-.63-.8-3.2-.99-4.21-1.46-7.97-5.25-15.22-6.37-23.08-.31-2.15,0-.28-.54-2.44.19-.5-.16-1.21.47-2.25.87-1.44,4.15-14.13,2.75-15.7-3.15-2.1-9.25-.78-10.49,0s-1.05,3.15-1.05,3.15c-.28,3.27-.38,11.69-.01,14.99.36,3.19,2.15,1.96,2.43,5.25.91,10.47-1.94,21.25-1.89,31.22.02,4.88,1.92,10.5,1.92,15.35,0,6-1.97,13.59-2.02,19.82.72,8.91-2.07,33.41-2.48,35.07-.1.4-.93.32-.99.67-.22,1.16,1.64,3.98-.47,3.63.02-6.55-1.04-13.05-1.48-19.57-.86-12.91-2.9-29.88-2.47-42.34.15-4.36,1.51-8.53,1.51-12.63,0-6.13-1.25-13.51-1.51-20.06-.05-1.26-.49-3.07-.49-3.71v-7.92c0-.45.25-1.2.55-2.01.37-.45.76-.78,1.12-.96,2.1-1.05,1.27-5.55,1.05-18.89-.05-2.83-7.35-2.3-9.44-2.1l-2.1,1.05c-3.15,1.05,1.89,13.12,2.64,14.92,1.78,13.79-6.81,20.34-7.66,34.15-.64,10.35,2.38,19.98,2.02,29.76-.21,5.62-2.29,11.07-3.48,16.57.33-.11.63-.25.89-.43-.27.51-.56,1-.89,1.48-.18.83-.32,1.65-.49,2.48-3.54,17.04-5,34.15-2.96,51.51.85,7.28,2.72,14.5,3.46,21.79,1.03,10.12-1.03,13.08-3.82,22.2-.26.84-1.25,3.11-1.25,5.21,0,1.05,2.1,6.3,1.12,9.73-.16.09-.98,1.9-1.42.18-.48-1.89-.3-5.61-.62-7.8-.62-4.17-2.04-8.91-2.34-13-.41-5.54.92-11.9.42-17.76-.37-4.3-5.22-23.77-4.19-26,.38-.82,1.72-1.59,2.33-3.12,1.03-2.61,1.93-14.23,1.41-16.92l-1.55-.54-.19-4.21h-1.72c0-.67-.25-2.18-1.25-1.96l-1.25,2.47-.49-1.98c-3.38,3.85-4.97,10.02-6.91,14.86l-.13.7c.81,1.5,1.83,9.96,1.97,11.49.12,1.25.09,3.79.16,5.37.46,11.28-1.85,20.73-.44,32.14.98,7.96,3.28,15.82,3.87,23.85.52,6.99-.75,12.12,2.23,19.06,4.26,9.91,16.53,8.29,24.18,14.37,3.05,2.42,2.14,4.92,2.22,8.42l4.28-3.88c4.73-2.66,9.15-.78,12.01,3.38.04-2.57-.47-5.15,1.46-7.21,3.44-3.65,11.92-5.51,16.44-7.28,12.96-5.05,10.13-19,11.29-30.28.96-9.32,4.26-19.55,4.38-28.8.06-4.5-1.28-9.37-1.5-13.84-.27-5.32.62-10.55.53-15.86.3-1.57,1.1-2.76,1.91-4.65ZM135.43,116.14c-.3-.05-.6-.04-.88.04.02-.07.04-.15.05-.22l1.35.23c.26.17.54.32.84.45-.49-.15-.96-.33-1.36-.49Z"/><path class="uuid-1aad4e25-b7c1-4d14-8148-06ef8ef7d8de" d="M133.6,278.74c1.05-8.39,5.25-17.07,8.39-19.17.85-.57,1.62.07,2.33-.23,1.94-.82,2.43-.82,3.96-.82.91,0,2.1,1.05,4.2,0,.83-.41,2.28.68,3.15,1.05,1.09.47,2.49.06,3.15,1.05,1.3,1.95,6.3,12.88,6.3,19.17s-2.1,7.34-3.15,10.49c-.74,2.23-5.2,6.63-12.57,6.63s-16.81-3.48-15.76-18.17Z"/><path class="uuid-a1501b51-eb7b-4ec5-a5ea-f385641b5b3f" d="M126.25,148.35s5.58-4.89,8.39-6.3c4.2-2.1,10.26-2,13.52,2.15,0,0,5.36-3.2,11.66-3.2,4.33,0,10.49,8.39,10.49,8.39,0,0-4.95-5.19-10.49-6.3-5.25-1.05-11.54,3.15-11.54,3.15,0,0-.26-1.9-5.25-3.15-4.2-1.05-8.39,0-10.49,1.05s-6.3,4.2-6.3,4.2Z"/><path class="uuid-a1501b51-eb7b-4ec5-a5ea-f385641b5b3f" d="M134.64,172.48c2.1,0,13.64,3.15,13.64-6.3,0,8.39,11.54,6.3,14.69,6.3-5.25,2.1-14.69,1.05-14.69,1.05-10.49,2.1-13.64-1.05-13.64-1.05Z"/><path class="uuid-a1501b51-eb7b-4ec5-a5ea-f385641b5b3f" d="M146.19,246.98s3.15-3.15,3.15-32.53c0-12.59,1.05-38.82-4.2-40.92,0,0,2.1-1.05,4.2-1.05s2.1,0,4.2,1.05c-3.15-1.05-4.2,15.74-3.15,39.87.46,10.48-2.1,27.28,4.2,33.58,0,0-3.15-1.05-4.2-1.05s-4.2,1.05-4.2,1.05Z"/><path class="uuid-3453f0a5-1055-4105-b7db-79cd3690c8e9" d="M139.89,36.05s1.05.54,2.1.54,2.07-.58,2.07-.58c0,0-1.02,1.12-2.07,1.12s-2.1-1.09-2.1-1.09Z"/><path class="uuid-3453f0a5-1055-4105-b7db-79cd3690c8e9" d="M152.53,35.96s1.05.54,2.1.54,2.07-.58,2.07-.58c0,0-1.02,1.12-2.07,1.12s-2.1-1.09-2.1-1.09Z"/><path class="uuid-99994fb5-c199-4ac6-b70a-07f5df9d9ee1" d="M144.09,296.29s-7.46-4.59-7.89-12.79c-.44-8.2,4.64-18.81,4.64-18.81-1.44,5.37-4.19,13.83-4.1,16.91s2.1,11.54,7.34,14.69Z"/><path class="uuid-a1501b51-eb7b-4ec5-a5ea-f385641b5b3f" d="M145.44,296.55s-6.17-3.61-6.6-11.8,4.4-17.7,4.4-17.7c-2.3,7.21-3.45,12.52-3.35,15.6s-.82,7.6,5.55,13.9Z"/><path class="uuid-99994fb5-c199-4ac6-b70a-07f5df9d9ee1" d="M153.38,296.55s7.62-5.69,7.49-13.9c-.16-10.49-8.39-22.03-8.39-22.03,6.3,10.49,6.74,15.86,7.34,18.89,1.05,5.25-.07,10.75-6.44,17.05Z"/><path class="uuid-99994fb5-c199-4ac6-b70a-07f5df9d9ee1" d="M148.28,296.29s-2.17-9.68-2.14-17.89,4.4-17.7,4.4-17.7c-2.3,7.21-2.27,9.36-3.31,13.55-.75,2.99,0,15.74,1.05,22.03Z"/><path class="uuid-a1501b51-eb7b-4ec5-a5ea-f385641b5b3f" d="M151.43,270.06s4.2,8.39,4.2,11.54-4.62,15.06-4.2,13.64c3.15-10.49,3.15-11.54,3.15-13.64s-1.05-7.34-3.15-11.54Z"/></g></g></svg>