<?xml version="1.0" encoding="UTF-8"?>
<svg xmlns="http://www.w3.org/2000/svg" viewBox="0 0 120 120">
  <defs>
    <style>
      .cls-1, .cls-2, .cls-3 {
        stroke-width: 0px;
      }

      .cls-4 {
        stroke: #000;
        stroke-miterlimit: 10;
        stroke-width: .25px;
      }

      .cls-4, .cls-2 {
        fill: #fff;
      }

      .cls-3 {
        fill: #ede9c8;
      }
    </style>
  </defs>
  <g id="Layer_1" data-name="Layer 1">
    <path class="cls-3" d="m118.07,32.65v.43c-.13,1.53-1.36,3.06-3.63,4.51-3.64,2.34-9.65,4.25-16.64,5.67-4.15.84-8.75,1.54-13.58,2.06l-.41-2.69c3.21-.55,6.12-1.22,8.53-2,2.72-.87,4.84-1.89,6.11-3.04,1.67-1.51,1.62-3.05-.05-4.51-.39-.35-.88-.69-1.45-1.02-3.28-1.92-9.38-3.59-17.62-4.64-.02,0-.04-.01-.06-.01-.45-.06-.91-.11-1.37-.16-5.37-.63-11.42-.98-17.9-.98-6.55,0-12.61.35-17.96.98-.54.06-1.08.13-1.6.2-2.69.34-5.17.76-7.42,1.25-5.63,1.2-9.53,2.72-11.4,4.38-.32.27-.58.56-.78.84-.86,1.21-.64,2.45.71,3.67,1.87,1.69,5.63,3.11,10.41,4.2,1.33.31,2.74.59,4.23.84l-.41,2.69c-7.43-.81-14.35-2.02-19.97-3.58-4.2-1.16-7.77-2.55-10.25-4.15-2.27-1.45-3.5-2.98-3.63-4.51-.01-.1-.01-.19-.01-.28,0-1.21.68-2.42,2.05-3.61,3.68-3.19,12.17-6.08,24.85-8,9.02-1.36,19.69-2.14,31.18-2.14,17.24,0,32.28,1.73,42.77,4.45,9.46,2.44,14.6,5.51,15.24,8.65.04.17.06.33.06.5Z"/>
    <path class="cls-3" d="m118.072.159v30.453c0-.17-.02-.33-.06-.5-.64-3.14-5.78-6.21-15.24-8.65-10.49-2.72-25.53-4.45-42.77-4.45-11.49,0-22.16.78-31.18,2.14-12.68,1.92-21.17,4.81-24.85,8-1.37,1.19-2.05,2.4-2.05,3.61V.159h116.15Z"/>
    <path class="cls-3" d="m95.207,37.59c-1.82,1.8-6.09,3.3-11.5,4.37l-.16-1.02c3.55-.9,6.22-2.03,7.39-3.35,1.38-1.56.45-3.13-2.5-4.51-.84-.4-1.85-.78-3.01-1.14-.31-.1-.64-.19-.97-.28-.99-.28-2.08-.54-3.25-.78-.63-.13-1.28-.25-1.96-.37-5.26-.92-11.88-1.48-19.25-1.48-7.5,0-14.23.58-19.54,1.53-.57.1-1.13.21-1.67.32-.39.08-.77.16-1.14.25-.27.06-.54.12-.8.18-.33.08-.65.17-.96.25-.23.06-.46.12-.68.19-.22.06-.43.12-.64.19-1.16.36-2.17.74-3.01,1.14-2.95,1.38-3.88,2.95-2.5,4.51,1.17,1.32,3.84,2.45,7.39,3.35l-.16,1.02c-5.41-1.07-9.68-2.57-11.5-4.37-1.55-1.54-1.15-3.1.89-4.51.73-.51,1.68-1,2.83-1.46.23-.1.46-.19.71-.28.97-.36,2.08-.71,3.3-1.03.6-.16,1.22-.32,1.87-.47,1.35-.3,2.82-.58,4.4-.84.54-.09,1.09-.18,1.66-.26,5.44-.78,12.05-1.24,19.55-1.24,7.37,0,13.87.44,19.26,1.2.67.09,1.32.19,1.95.29.03,0,.05.01.08.01.36.06.72.12,1.07.19.37.06.74.13,1.1.2.29.05.57.11.84.17.31.06.6.12.89.19,1.14.25,2.2.51,3.18.8.17.04.33.09.49.15.2.05.4.11.59.18.47.15.91.3,1.33.46.2.07.39.14.57.22.28.11.55.22.8.34.19.08.38.17.56.25.62.31,1.16.61,1.61.93,2.04,1.42,2.44,2.97.89,4.51Z"/>
    <path class="cls-3" d="m118.072,32.65v.43h-19.67c-.39-.35-.88-.69-1.45-1.02-3.02-1.77-8.45-3.33-15.74-4.39-.61-.08-1.24-.17-1.88-.25-.02,0-.04-.01-.06-.01-.45-.06-.91-.11-1.37-.16-5.37-.63-11.42-.98-17.9-.98-6.55,0-12.61.35-17.96.98-.54.06-1.08.13-1.6.2-.56.07-1.11.14-1.65.22-2.06.3-3.99.64-5.77,1.03-5.63,1.2-9.53,2.72-11.4,4.38H1.922v-.28c0-1.21.68-2.42,2.05-3.61,3.68-3.19,12.17-6.08,24.85-8,9.02-1.36,19.69-2.14,31.18-2.14,17.24,0,32.28,1.73,42.77,4.45,9.46,2.44,14.6,5.51,15.24,8.65.04.17.06.33.06.5Z"/>
    <path class="cls-3" d="m80.522,32.489v87.688h-41.111V32.489c.523-.107,1.066-.213,1.619-.31,5.146-.921,11.668-1.483,18.937-1.483,7.143,0,13.558.543,18.656,1.434.659.116,1.289.233,1.9.359Z"/>
  </g>
  <g id="BodyPosition">
    <g id="Side">
      <g>
        <path class="cls-2" d="m57.704,114.583c-.289,0-.592-.016-.912-.052-.188.021-.357.044-.524.044-.25,0-.357-.054-.366-.088l-.061-.226-.229.045c-.059.011-.112.017-.16.017-.042,0-.077-.005-.104-.011l.391-.431-.475.092,1.101-.691-1.798.549-.118-.036.004-.088-.091-.151c-.033-.044-.026-.096-.01-.13h.014l.091-.056h.408c.137,0,.347-.005.592-.058.158-.033.32-.107.463-.173.188-.085.428-.163.727-.261.689-.227,1.634-.537,2.449-.986.676-.372,1.494-1.312,1.823-2.095.862-1.474.228-6.642-.229-9.588-.098-.628-.189-1.448-.289-2.34-.2-1.782-.425-3.803-.792-5.229-.069-.245-.133-.458-.194-.658-.246-.812-.424-1.398-.485-2.807-.022-.505-.243-1.318-.548-2.443-.733-2.705-1.961-7.232-1.727-12.634-.07-.679-.11-1.498-.156-2.448-.097-1.989-.217-4.465-.683-6.568-.493-2.229-.83-6.595-.854-8.745-.047-4.221,1.636-6.169,2.988-7.735.708-.82,1.32-1.528,1.56-2.404.083-.305-.099-.908-.408-1.865-.128-.396-.249-.769-.288-.979l-.054-.291-.45.169c-.295.116-.63.248-1.068.248-.759-.021-.946-1.376-1.058-2.186-.038-.271-.07-.496-.109-.628l-.037-.124-.122-.042c-.612-.209-.561-.38-.516-.531.053-.18.234-.508.409-.825.271-.491.439-.805.477-1.027l.037-.259c.069-.508.212-1.564.48-2.137.614-1.316,1.79-1.993,3.701-2.13.104-.008.209-.011.312-.011,2.1,0,3.699,1.413,3.892,3.437.174,1.825-.553,2.653-1.193,3.384-.199.228-.384.44-.523.658-.734,1.717.417,3.655,1.167,4.662.924,1.24,2.945,4.647,1.751,9.481-.301,1.222-.624,2.454-.929,3.614-.881,3.357-1.415,5.452-1.29,6.16.183,1.043.547,1.971.899,2.866.881,2.244,1.643,4.183-.425,7.361l-.029.046-.008.054c-.267,1.784-.228,6.534-.192,10.725.015,1.782.028,3.486.02,4.863-.013,1.301.258,2.641.544,4.059.215,1.063.437,2.163.54,3.281.125,1.355-.076,3.067-.29,4.881-.271,2.303-.578,4.912-.256,7.287.283,1.364.38,2.395.276,2.918-.138.698-.637.798-1.093.836-.087.007-.173.01-.261.01-.167,0-.338-.01-.525-.021-.238-.014-.502-.029-.812-.029-.582,0-1.192.057-1.866.172l-.299.052c-.647.114-1.38.244-2.211.244Z"/>
        <path class="cls-1" d="m60.818,33.832c1.966,0,3.464,1.32,3.643,3.21.163,1.718-.525,2.503-1.132,3.197-.202.23-.392.447-.546.688l-.023.035-.016.039c-.764,1.794.434,3.822,1.216,4.872.903,1.212,2.877,4.541,1.71,9.272-.301,1.218-.623,2.447-.927,3.604-.918,3.496-1.43,5.511-1.296,6.273.188,1.068.556,2.006.913,2.914.856,2.18,1.595,4.063-.401,7.134l-.059.091-.016.108c-.269,1.803-.231,6.354-.195,10.754.015,1.796.029,3.492.02,4.868-.013,1.328.26,2.68.549,4.111.213,1.057.434,2.151.536,3.255.123,1.33-.077,3.03-.289,4.83-.273,2.317-.582,4.943-.249,7.383.273,1.316.37,2.311.273,2.802-.095.483-.368.593-.869.635-.08.007-.159.009-.24.009-.162,0-.328-.01-.511-.021-.243-.014-.511-.029-.827-.029-.596,0-1.22.057-1.907.175l-.304.053c-.667.118-1.357.24-2.165.24-.294,0-.591-.017-.882-.05l-.069-.008-.068.011c-.159.026-.298.039-.414.039-.071,0-.121-.005-.155-.01l-.092-.343-.033.006.321-.353,1.315-.815c.518-.187,1.078-.415,1.592-.698.804-.443,1.601-1.453,1.921-2.188.848-1.523.361-6.137-.2-9.753-.096-.62-.189-1.451-.287-2.329-.2-1.791-.427-3.82-.801-5.273-.068-.242-.133-.456-.194-.658-.241-.794-.415-1.368-.475-2.745-.023-.533-.247-1.357-.556-2.497-.73-2.691-1.951-7.195-1.719-12.558l.002-.037-.004-.037c-.068-.634-.108-1.451-.154-2.397-.097-1.998-.218-4.485-.689-6.609-.49-2.212-.824-6.555-.848-8.694-.046-4.126,1.602-6.035,2.927-7.569.728-.843,1.357-1.571,1.612-2.502.098-.359-.057-.913-.41-2.006-.12-.371-.244-.755-.28-.949l-.108-.583-.556.205-.178.069c-.275.108-.586.231-.977.231h-.055c-.485-.015-.675-1.385-.756-1.971-.039-.281-.07-.504-.117-.665l-.073-.247-.244-.083c-.274-.094-.358-.168-.369-.168,0,0,0,0,0,0,0-.008.003-.026.012-.055.046-.154.236-.499.389-.776.284-.514.459-.845.504-1.105.01-.056.022-.148.038-.266.062-.457.207-1.528.459-2.067.572-1.226,1.682-1.857,3.492-1.987.099-.007.197-.011.295-.011m0-.5c-.11,0-.22.004-.33.012-1.829.131-3.206.765-3.91,2.274-.343.735-.485,2.155-.537,2.46-.063.369-.75,1.385-.879,1.822-.104.352.021.615.675.838.169.57.175,2.959,1.338,2.992.023,0,.046,0,.069,0,.579,0,.998-.209,1.327-.33.113.609.81,2.327.699,2.732-.67,2.45-4.63,3.715-4.557,10.208.024,2.129.358,6.531.86,8.796.679,3.067.617,6.929.833,8.952-.329,7.611,2.202,13.425,2.275,15.099.078,1.79.346,2.299.687,3.516.548,2.128.786,5.678,1.076,7.544.39,2.516,1.102,7.984.245,9.454-.292.693-1.057,1.611-1.713,1.973-1.164.641-2.656,1.011-3.109,1.216-.147.066-.314.148-.462.179-.203.043-.383.052-.538.052-.12,0-.225-.006-.313-.006-.048,0-.091.002-.129.007-.284.006-.434.348-.264.581-.009.176.156.384.374.384.034,0,.07-.005.106-.016-.169.106.207.202.367.202.017,0,.031-.001.042-.003-.071.078.039.304.402.304.062,0,.131-.007.208-.022.058.216.33.273.609.273.181,0,.365-.024.494-.045.329.038.641.053.939.053.982,0,1.806-.172,2.553-.3.77-.132,1.352-.168,1.823-.168.557,0,.96.05,1.338.05.095,0,.188-.003.282-.011.444-.037,1.141-.14,1.318-1.037.138-.696-.06-1.969-.274-3-.57-4.19.837-9.021.547-12.158-.241-2.599-1.104-5.057-1.083-7.315.032-4.657-.204-13.045.17-15.553,2.994-4.605.187-6.849-.439-10.407-.17-.966,1.159-5.387,2.216-9.671,1.045-4.236-.263-7.637-1.794-9.691-.633-.849-1.843-2.766-1.157-4.377.586-.913,1.994-1.696,1.756-4.202-.216-2.276-2.077-3.663-4.141-3.663h0Z"/>
      </g>
      <g>
        <path class="cls-2" d="m61.425,40.443c-.084,0-.157-.033-.243-.082-.02-.012-.042-.024-.065-.036-.052-.027-.073-.092-.046-.144.027-.052.092-.073.144-.046.026.014.051.028.073.041.153.088.223.128.907-.539.536-.523.459-.987.208-1.247-.207-.214-.567-.31-.774-.111-.043.041-.11.039-.151-.003-.041-.043-.039-.11.003-.151.276-.264.759-.211,1.076.117.308.318.437.915-.212,1.549-.507.494-.737.654-.92.654Z"/>
        <path class="cls-1" d="m61.921,37.955c-.165,0-.321.055-.44.168-.043.041-.044.109-.003.151.021.022.049.033.077.033.027,0,.053-.01.074-.03.079-.075.18-.108.286-.108.173,0,.36.087.488.22.251.26.328.724-.208,1.247-.479.467-.657.587-.773.587-.05,0-.088-.022-.134-.049-.023-.013-.047-.027-.073-.041-.016-.008-.033-.012-.049-.012-.039,0-.076.021-.095.058-.027.052-.007.117.046.144.024.012.045.025.065.036.086.049.16.082.243.082.183,0,.413-.159.92-.654.649-.634.52-1.231.212-1.549-.181-.188-.417-.285-.637-.285h0Z"/>
      </g>
      <path class="cls-4" d="m61.288,81.101c-.13,0-.313-.061-.521-.309-.252-.302-.736-1.165-.763-2.268-.006-.25.027-.603.066-1.012.062-.664.133-1.417.056-1.956,0-.004,0-.009-.001-.013-.022-1.443-.109-2.703-.193-3.922-.15-2.17-.305-4.413-.127-7.888.118-2.295-.052-4.235-.188-5.794-.07-.797-.13-1.485-.132-2.032-.002-.66-.036-1.432-.069-2.179-.027-.598-.054-1.217-.065-1.786-.001-.059.046-.108.105-.109.063.001.108.046.109.105.011.566.039,1.183.065,1.781.033.749.068,1.523.069,2.188.002.538.062,1.222.131,2.014.137,1.565.308,3.513.189,5.823-.177,3.462-.022,5.699.127,7.862.084,1.22.171,2.481.194,3.927.079.564.007,1.326-.056,2-.036.385-.07.749-.065.987.025,1.044.477,1.854.713,2.136.135.162.271.242.379.231.108-.013.168-.112.189-.154.015-.031.044-.052.078-.058.04-.007.069-.026.092-.061.077-.113.083-.374.015-.698-.154-.738.06-1.399.159-1.649.022-.057.049-.122.08-.194.262-.628.75-1.798.317-2.817-.003-.006-.005-.012-.006-.019-.302-1.38-.228-3.637.229-6.9.063-.449.128-.842.186-1.188.155-.928.266-1.598.197-2.478-.01-.131.024-.837.074-1.821l.003-.068c.031-.616.457-4.956.9-7.627.137-.829.28-1.686.538-2.275.024-.054.087-.079.141-.055.054.024.079.087.055.141-.248.564-.388,1.407-.523,2.223-.442,2.663-.866,6.99-.897,7.603l-.003.068c-.038.742-.084,1.666-.074,1.793.071.906-.042,1.587-.199,2.53-.058.345-.123.737-.185,1.183-.452,3.229-.529,5.459-.234,6.815.461,1.1-.048,2.318-.321,2.973-.029.071-.056.134-.078.19-.092.232-.29.846-.148,1.527.058.276.097.65-.047.862-.045.067-.107.114-.18.138-.078.129-.197.211-.331.227-.015.002-.031.003-.048.003Z"/>
      <path class="cls-1" d="m57.676,49.177c.068-.023.127-.069.188-.106.07-.042.138-.085.207-.128.142-.09.29-.171.437-.254.143-.081.288-.157.435-.23.073-.036.146-.074.221-.107.023-.01.065-.033.091-.027.003,0,.006-.001,0-.005-.005-.003.004.041.007.052.023.116.187.124.243.032.057-.094.017-.204-.064-.27-.079-.064-.183-.077-.279-.048-.095.028-.184.086-.27.134-.094.052-.187.106-.279.161-.181.108-.354.226-.521.354-.077.06-.157.119-.228.187s-.16.143-.205.231c-.006.011.004.028.018.023h0Z"/>
      <path class="cls-1" d="m55.007,56.659c.032.512.949.415,1.283.369.63-.087,1.183-.463,1.68-.842.411-.314.771-.684,1.041-1.128.247-.408.391-.819.475-1.285.022-.122-.143-.21-.211-.089-.185.334-.329.683-.511,1.018-.205.378-.477.701-.795.989-.205.186-.427.352-.657.506-.234.156-.475.325-.741.42-.242.087-.495.142-.751.162-.182.014-.652.061-.754-.135-.014-.027-.06-.015-.058.016h0Z"/>
      <path class="cls-1" d="m55.128,57.899c.2-.113.528.065.704.16.208.113.398.255.588.395.186.137.37.278.567.399.094.058.191.111.292.157.114.052.217.072.341.085.092.01.134-.141.048-.178-.234-.103-.47-.208-.689-.344s-.422-.29-.637-.43c-.208-.134-.427-.255-.662-.335-.194-.066-.44-.127-.582.061-.014.018.012.039.029.029h0Z"/>
      <path class="cls-1" d="m55.427,60.847c.029.294.449.368.684.355.172-.009.348-.038.514-.085.05-.014.103-.026.151-.044.047-.017.06-.034.101-.049.093-.035.178-.072.265-.12.062-.035.035-.136-.036-.135-.125.003-.245.022-.369.041h.066c-.078-.018-.149.004-.225.017-.073.013-.145.026-.218.041-.107.022-.212.04-.321.046-.098.005-.197.01-.294-.007-.097-.016-.186-.062-.28-.09-.017-.005-.039.009-.037.028h0Z"/>
      <path class="cls-1" d="m55.701,64.214c.033.122.166.203.285.222.159.026.318-.01.463-.077.16-.074.314-.168.466-.258.083-.049.176-.097.247-.162.066-.06.161-.103.207-.181.026-.044-.007-.104-.059-.103-.076.001-.145.045-.213.075-.078.034-.152.065-.227.107-.139.077-.272.162-.409.242-.114.067-.241.143-.375.161-.119.015-.227-.017-.335-.062-.025-.011-.057.007-.049.037h0Z"/>
      <path class="cls-1" d="m58.038,64.792c.004.427.035.851.011,1.279-.026.46-.105.91-.207,1.358-.096.418-.226.826-.389,1.223s-.39.792-.521,1.201c-.027.085.084.139.144.084.313-.291.534-.739.695-1.129.176-.428.31-.879.396-1.333.16-.855.194-1.853-.069-2.69-.01-.031-.058-.026-.058.008h0Z"/>
      <path class="cls-1" d="m58.529,43.211c.106.072.261.04.374,0,.131-.047.258-.102.383-.164.246-.123.467-.28.678-.456.205-.17.383-.363.546-.573.166-.213.308-.444.364-.711.02-.095-.084-.151-.157-.091-.193.159-.356.348-.529.528-.17.178-.357.343-.548.498-.184.149-.385.283-.585.41-.107.067-.216.13-.325.194-.099.058-.217.137-.246.255-.011.044.008.085.045.11h0Z"/>
    </g>
  </g>
</svg>