<?xml version="1.0" encoding="UTF-8"?><svg xmlns="http://www.w3.org/2000/svg" viewBox="0 0 340.66 369.44"><defs><style>.uuid-7f73ade3-bd68-4dfb-9afc-58f3d6d0f028{fill:#b4b4b4;}.uuid-118ad59c-3741-4d87-aead-de9ccfb6fa80{fill:#a7a7a7;}.uuid-7c752d57-6a6e-4252-b359-06d14a980d9c{fill:#c5c5c5;}.uuid-1ae522a6-051c-4ad9-ac87-7c2d9734f348,.uuid-a4a046da-cbac-44b5-8838-c18a6ba36850,.uuid-077a4957-7cd5-4a41-813c-9482360dccaf{fill:#fff;}.uuid-b968d4dd-7c79-416d-9987-34057a59cf17{fill:#b9b9b9;}.uuid-8fbe2c38-6046-46ad-947f-a27edcb4d631{fill:#9d9d9d;}.uuid-55d58299-a4e7-441d-9b64-5d9d24d15f67{fill:#dfdfdf;}.uuid-8663825d-eea3-4baa-9776-5a47a9bfd89e{fill:#c4c4c4;}.uuid-e5153b09-6152-4f2b-83cf-bd706506a221{fill:silver;}.uuid-0339e9c9-dc11-4580-bbb9-8c185dd6284a{fill:#ababab;}.uuid-7b9f780a-12a3-4e04-a26b-8000a40cdc96{fill:#d3d3d3;}.uuid-a4a046da-cbac-44b5-8838-c18a6ba36850,.uuid-faf08f4e-6516-4feb-9c3d-16f279eff63b{stroke:#000;}.uuid-a4a046da-cbac-44b5-8838-c18a6ba36850,.uuid-faf08f4e-6516-4feb-9c3d-16f279eff63b,.uuid-66ab0c15-7bb9-413b-a1dd-60e1e28a85d6{stroke-width:2px;}.uuid-a4a046da-cbac-44b5-8838-c18a6ba36850,.uuid-faf08f4e-6516-4feb-9c3d-16f279eff63b,.uuid-66ab0c15-7bb9-413b-a1dd-60e1e28a85d6,.uuid-077a4957-7cd5-4a41-813c-9482360dccaf{stroke-miterlimit:10;}.uuid-faf08f4e-6516-4feb-9c3d-16f279eff63b{fill:none;}.uuid-381d8811-9e01-4fee-bb2c-b87ead2ac975{fill:#b8b8b8;}.uuid-273fecc4-4bfa-410e-a9f5-4fec4c8ba0f4{fill:#c2c2c2;}.uuid-1304297c-3ece-447f-8b43-206db86fb440,.uuid-66ab0c15-7bb9-413b-a1dd-60e1e28a85d6{fill:#666;}.uuid-67187b67-b567-48ae-bc32-9833088927bb{fill:#a5a5a5;}.uuid-0a25fa3e-fae2-4ac7-8451-f7015e2c9cc1{fill:#9b9b9b;}.uuid-221a8d9d-2596-4e16-bace-463f68f9fcbf{fill:#a8a8a8;}.uuid-23536502-1596-4832-8887-4b037b4aee03{fill:#ccc;}.uuid-9a8e5186-dde8-4064-a0e9-eabcf667e35f{fill:#d1d1d1;}.uuid-7d8b130f-8ae8-4a1e-b75b-e748070133c5{fill:#bbb;}.uuid-68988ef5-65b5-4c5d-963e-fa769b03ff36{fill:#c6c6c6;}.uuid-cf242383-e256-48ed-a7cf-dd5e4d4c2b40{fill:#c1c1c1;}.uuid-6e2e6219-6e4c-437a-9ca2-fee4be550cee{fill:#bfbfbf;}.uuid-66ab0c15-7bb9-413b-a1dd-60e1e28a85d6{stroke:#4d4d4d;}.uuid-077a4957-7cd5-4a41-813c-9482360dccaf{stroke:gray;stroke-width:.25px;}</style></defs><g id="uuid-0ad525a0-2415-4aee-a861-ffe4721b7506"><path class="uuid-faf08f4e-6516-4feb-9c3d-16f279eff63b" d="M339.66,111.63V32.16v.78c0-17.21-75.49-31.94-169.33-31.94S1,14.17,1,31.38v79.47"/><path class="uuid-23536502-1596-4832-8887-4b037b4aee03" d="M339.66,111.63V32.16v.78c0-17.21-75.49-31.94-169.33-31.94S1,14.17,1,31.38v79.47"/><path class="uuid-1ae522a6-051c-4ad9-ac87-7c2d9734f348" d="M170.33,141.79c-45.33,0-87.93-3.24-119.97-9.11C19.25,126.98,1.41,119.3,1.41,111.63s17.84-15.35,48.95-21.05c32.04-5.88,74.64-9.11,119.97-9.11s87.93,3.24,119.97,9.11c31.11,5.71,48.95,13.38,48.95,21.05s-17.84,15.35-48.95,21.05c-32.04,5.88-74.64,9.11-119.97,9.11Z"/><path class="uuid-1304297c-3ece-447f-8b43-206db86fb440" d="M170.33,82.47c45.27,0,87.81,3.23,119.79,9.09,35.48,6.51,48.13,14.63,48.13,20.07s-12.64,13.56-48.13,20.07c-31.98,5.86-74.52,9.09-119.79,9.09s-87.81-3.23-119.79-9.09C15.06,125.19,2.41,117.06,2.41,111.63s12.64-13.56,48.13-20.07c31.98-5.86,74.52-9.09,119.79-9.09M170.33,80.47C76.49,80.47.41,94.42.41,111.63s76.07,31.16,169.92,31.16,169.92-13.95,169.92-31.16-76.07-31.16-169.92-31.16h0Z"/><path class="uuid-077a4957-7cd5-4a41-813c-9482360dccaf" d="M340.25,111.63c0-17.21-76.07-31.16-169.92-31.16S.41,94.42.41,111.63"/><ellipse class="uuid-66ab0c15-7bb9-413b-a1dd-60e1e28a85d6" cx="170.33" cy="109.29" rx="97.85" ry="16.36"/><path class="uuid-a4a046da-cbac-44b5-8838-c18a6ba36850" d="M232.83,96.57c-16.93-2.34-38.81-3.57-62.5-3.57s-45.86,1.17-62.89,3.57h0v271.87h125.39V96.57Z"/></g><g id="uuid-f7d9d358-8f9d-4031-922b-3c044c05ecb0"><g id="uuid-56edaa4a-67e9-4648-829f-f04afa9055a7"><path class="uuid-0a25fa3e-fae2-4ac7-8451-f7015e2c9cc1" d="M187.73,96.14c4.05,2.91.31,7.72-.02,11.66-1.15,13.85,3.93,24.85,5.59,37.33,1.29,9.72-6.11,20.81-8.07,30.26-2.56,12.34,1.98,20.04,1.53,31.59-.16,4-1.15,8.35-1.43,12.37,1.31,2.68,4.08,4.39,5.25,7.16,7.44,17.54-11.47,28.02-6.09,44.73,2.53,7.84,12.49,19.94,12.74,27.78.09,2.73-2.27,13.99-3.32,16.68-3.38,8.62-10.52,10.52-8.46,22.75.95,5.63,5.7,6.49,4.52,13.82-.55,3.38-4.62,9.27-7.71,10.86-4.97,2.56-18.01.55-21.36-4.34-2.47-3.6-1.08-6.73-2.42-10.44-.8-2.2-4.43-4.78-1.9-6.72.56-.43,1.61-.4,1.67-.46.25-.27-.5-1.85-.42-2.56.53-5.31,1.72-9.3,7.97-8.93l4.14-11.64c-4.03-4.57-8.6-9.51-11.59-14.85-3.37-6.03-5.42-20.79-5.79-28.04-.32-6.28.73-25.08,2.91-30.43,1-2.46,4.94-7.26,5.18-9.11.58-4.48-2.61-5.29-3.74-9l1.36-1.53,1.89.75c-.04.68-.71.36-.95.48-.18.09-.66-.08-.95,0-.02.52-.08,1.06.09,1.57.11.32,3.28,5.02,3.71,5.58v.48c-.76,5.21-5.25,8.57-6.52,13.72-1.47,5.96-2.37,21.22-2.03,27.51.23,4.17,2.17,19.36,3.29,22.92.73,2.32,4.87,8.48,6.48,10.66,2,2.72,7.41,7.21,7.37,10.29-.02,1.26-3.44,10.65-4.06,11.22-1.43,1.3-8.94.23-6.4,5.89-2.12.62.64,1.92-1.48,2.45l.98,3.57-2.4.21-.47,1.44c3.67,3.53,2.75,6.17,3.47,10.38,1.01,5.95,5.48,7.28,10.81,8.47,7.93,1.76,14.1-.05,17.13-8.32,3.11-8.48-2.44-9.28-3.61-15.5-2.42-12.92,6.54-17.08,9.53-28.62,1.99-7.68,3.11-11.2-.24-18.6s-10.99-17.6-11.39-25.51c-.76-14.92,15.45-25.78,5.88-41.19-.88-1.41-3.75-3.94-3.98-5.06-.53-2.57.85-7.18.95-9.98.47-12.1-3.95-23.97-.97-35.54.17-.65.86-1.36.48-2.38,2.82-6.35,8.28-19.69,7.48-26.34-.42-3.48-2.29-7.97-3.06-11.71-1.43-7.03-3.32-20.11-2.52-27.03.54-4.68,2.46-4.17.95-9.77-.07-.26.05-.65,0-.95Z"/><path class="uuid-cf242383-e256-48ed-a7cf-dd5e4d4c2b40" d="M161.12,199.11c.48-4.41,2.34-9.38,3.33-13.83l2.48-3.96c-.09-.88.22-1.53.37-2.24l3.8-3.58,1.43-.48c-1.52,1.48-1.29,3.64-2.18,5.44-1.31,2.66-3.73,4.55-4.81,7.57-1.34,3.72-3.38,17.51-2.94,21.28s4.17,7.83,5.9,11.24c2.77,5.45,4.57,11.58,5.46,17.65-1.91-4.65-3.7-10.11-5.77-14.47-1.21-2.55-7.07-10.35-7.44-11.61-.68-2.33.48-9.5.78-12.31.04-.34-.41-.64-.4-.7Z"/><path class="uuid-67187b67-b567-48ae-bc32-9833088927bb" d="M186.78,295.42c-1.14-5.41-.99-11.78-2.52-17.26-.61-2.21-2.38-4.57-2.68-6.37-.62-3.72-.12-8.5-.63-12.24-1.01-7.36-5.39-14.62-8.18-21.36-3.41-8.25-5.45-17.12-11.65-23.82-.49,2.82,2.11,5.05,2.74,7.5,1.41,5.47.25,11.85-4.64,4.42.24-.12.91.2.95-.48.55-8.92-1.94-18.02.95-26.7,0,.06.44.36.4.7-.3,2.81-1.46,9.98-.78,12.31.37,1.26,6.23,9.06,7.44,11.61,2.07,4.37,3.86,9.82,5.77,14.47,3.39,8.25,7.28,15.4,8.1,24.53.23,2.54-.38,5.65.01,8.09.31,1.95,2.43,5.46,3.15,8.29,1.51,5.98,2.17,13.02,2.53,19.16-.27-.93-.71-1.72-.95-2.86ZM161.59,228.68h1.9c.21-3.67.21-7.12-2.37-10.01l.47,10.01Z"/><path class="uuid-8fbe2c38-6046-46ad-947f-a27edcb4d631" d="M164.44,185.29c1.01-4.57,1.69-9.21,2.68-13.75,1.08-4.95,4.31-9.11,4.86-14.2.43-3.96-.24-8.33.07-12.33.53-6.87,5.06-28.81,1.92-33.89-.76-1.22-12.44-7.58-14.43-8.4-2.26-.93-8.35-1.94-9.8-3.04-2.1-1.58-.14-4.33,2.35-3.55-.33.26-.62.75-.95.95-.57.36-2.37.48-.94,1.65,8.67,1.85,16.21,6.29,23.74,10.74,2.51,3.72,2.14,9.23,1.92,13.61-.36,7.3-2.38,14.64-2.86,21.92-.28,4.15.41,8.8-.01,12.86-.44,4.25-3.16,7.86-4.27,12.16-.83,3.24-.81,6.02-1.43,9.06-.14.71-.46,1.36-.37,2.24l-2.48,3.96Z"/><path class="uuid-221a8d9d-2596-4e16-bace-463f68f9fcbf" d="M187.73,97.09h-30.41s.23,1.44.23,1.44c-1.62-1.56-2.08-1.71-4.51-1.43l1.42.96c-1.12,1.83-1.73-1.67-3.32-.96.33-.21.62-.69.95-.95h35.64c.05.3-.07.69,0,.95Z"/><path class="uuid-7b9f780a-12a3-4e04-a26b-8000a40cdc96" d="M171.1,362.64c-5.33-1.18-9.79-2.51-10.81-8.47-.72-4.22.2-6.86-3.47-10.38l.47-1.44,2.4-.21-.98-3.57c2.12-.53-.64-1.82,1.48-2.45-2.54-5.66,4.97-4.59,6.4-5.89.63-.57,4.04-9.96,4.06-11.22.04-3.08-5.36-7.57-7.37-10.29-1.61-2.18-5.75-8.34-6.48-10.66-1.12-3.56-3.07-18.75-3.29-22.92-.34-6.28.55-21.55,2.03-27.51,1.27-5.15,5.76-8.51,6.52-13.72.75,2.27,3.28,3.46,4.48,5.28,2.61,3.95,1.55,15.71,2.18,21.17.54,4.67,2.79,10.47,2.88,14.79.05,2.69-.89,5.88-1.01,8.57-.16,3.92.62,7.78.49,11.45-.14,4.02-2.29,7.41-1.89,11.45.35,3.6,2.9,7.42,5,10.24,1.52.12.28-1.01.23-1.43-.62-5.88-3.86-10.34-.49-16.46s6.27-.31,7.14-1.18l-2.82-4.5,1.87-6.93c-1.32-.28-.81.38-1.15.96-1.25,2.12-1.94,4.57-3.39,6.63-1.03,1.45-3.21,2.82-4.01,4.32.11-5.48-.14-10.99-.02-16.47.05-2.05,1.03-4.66.98-6.63-.09-3.73-2.34-9.55-2.86-13.61,1.24-.27.97.63,1.18,1.41.51,1.89.85,3.6,1.78,5.39.31.59.8,1.55.85.11-.67-2.69-1-6.91-2.85-9.04-.61-.7-.62.57-.96.7-.57-5.34.25-17.37-2.37-21.22-1.15-1.68-4.03-3.9-5.23-5.48-.43-.56-3.6-5.26-3.71-5.58-.17-.51-.11-1.05-.09-1.57.29-.08.77.09.95,0,4.89,7.43,6.06,1.05,4.64-4.42-.63-2.44-3.23-4.68-2.74-7.5,6.2,6.7,8.25,15.57,11.65,23.82,2.78,6.74,7.17,13.99,8.18,21.36.51,3.74.01,8.52.63,12.24.3,1.8,2.07,4.16,2.68,6.37,1.52,5.48,1.38,11.85,2.52,17.26l-2.85-4.29c.67,3.09.07,6.82.5,9.74.5,3.36,3.44,6.57,1.16,10.77h-.97c-.55-2.03-.83-4.27-2.01-6.07-.31-.47-.31-1.35-1.08-.37l1.91,10.25,3.32-.48c-.91,5.26-4.77,9.84-5.24,15.48-.83,10,7.13,16.77,1.53,25.85-2.96,4.8-7.31,4.46-11.97,6.34ZM171.57,349.77c-3.28-.25-7.65,3.92-5.46,7.14.96-.75.64-2.09,1.24-3.04.87-1.39,4.15-1.94,4.22-4.1ZM174.43,346.91c-1.29,1.45,5.1,2.81,5.7-.74.45-2.7-5.29-8.79-6.65-4.98,1.34.56.64-1.38,1.65-.95.25.11,3.69,3.57,3.8,3.82,1.44,3.34-2.02,5-4.5,2.85ZM160.17,252.03c.27.58,5.02,6.38,5.7,5.72-.57-2.17-3.06-3.26-4.2-5.08-2.8-4.46-1.1-8.82-.08-13.51-1.29-.22-.82.24-1.08,1.04-1.07,3.34-1.85,8.58-.35,11.83-1.12-.18-.91.11-1.18.94-1.61,4.99-1.01,7.93.1,12.78.22.95,1.56,3.24,1.56,3.68v8.1c0,.14-1.15,3.69.47,2.14.25-.24.99-6.01.97-6.88-.12-4.52-3.39-8.39-3.38-12.9,0-2.6,1.32-5.25,1.47-7.87Z"/><path class="uuid-7b9f780a-12a3-4e04-a26b-8000a40cdc96" d="M193.9,291.6c-.93,3.23.37,6.62-.05,10.2-.12,1.03-1.83,6.48-2.33,6.96-.83.82-.8-.17-.93-.72-.89-3.75-1.83-6.26-2.87-9.77-.35-6.14-1.02-13.17-2.53-19.16-.71-2.82-2.83-6.34-3.15-8.29-.39-2.44.21-5.55-.01-8.09-.81-9.13-4.71-16.28-8.1-24.53-.89-6.06-2.69-12.2-5.46-17.65-1.73-3.41-5.46-7.46-5.9-11.24s1.6-17.56,2.94-21.28c1.09-3.02,3.5-4.91,4.81-7.57.89-1.8.67-3.96,2.18-5.44l-1.43.48-3.8,3.58c.62-3.04.59-5.82,1.43-9.06.91-.62,1.96-1.51,2.58-2.42,2.21-3.23,6.39-26.99,6.91-32.16s1.5-19.62-1.02-23.75c-1.31-2.14-2.06-1.52-3.25-2.23-7.54-4.45-15.07-8.89-23.74-10.74-1.44-1.17.37-1.3.94-1.65,1.59-.71,2.2,2.79,3.32.96l-1.42-.96c2.43-.28,2.89-.13,4.51,1.43l-.23-1.43h30.41c1.51,5.6-.42,5.09-.95,9.77-.79,6.92,1.09,20,2.52,27.03.76,3.74,2.64,8.24,3.06,11.71.8,6.64-4.66,19.98-7.48,26.34-6.91,15.56-5.98,19.45-6.65,36.23-1.44.27-.91-.73-.95-1.65-.3-7.6.13-15.25.41-22.84l-.64-.77-1.18.94-.48-1.9c.7,2.21-1.93,3.44-2.28,4.63-.43,1.46-.63,12.37-.59,14.7.09,5.89.31,16.09,4.28,20.49.61.68,2.2,2.84,3.11,1.67.66-.99-1.02-4.89-1.19-6.45-.23-2.14.05-4.68,0-6.91-.29-10.95.36-21.51,3.46-32.05l2.24-3.71c-2.98,11.57,1.44,23.44.97,35.54-.11,2.81-1.49,7.41-.95,9.98.23,1.12,3.1,3.65,3.98,5.06,9.57,15.4-6.65,26.26-5.88,41.19.4,7.91,8.04,18.12,11.39,25.51ZM174.42,173.37l1.86-.05c-.19-.7.52-1.74.52-2.1v-11.44c0-.17,1.17-.78.96-1.42l-.95-.24c-.23.22-2.38,5.54-2.38,5.96v9.3ZM183.46,126.17c-.37,4.84,1.51,9.93,1.89,14.55.79,9.9-3.34,19.3-5.21,28.83.82-.13.83-.95,1.08-1.54,4.64-11,5.75-18.09,4.57-30.11l-2.32-11.73ZM183.45,104.71c-7.41-10.15-9.79,7.06-3.63,5.21l.77-1.15c-1.04-1.06-2.51-1.92-1.7-3.62l4.55-.45Z"/><path class="uuid-55d58299-a4e7-441d-9b64-5d9d24d15f67" d="M171.1,362.64c4.66-1.88,9.01-1.54,11.97-6.34,5.6-9.08-2.37-15.85-1.53-25.85.47-5.63,4.33-10.21,5.24-15.48l-3.32.48-1.91-10.25c.76-.98.77-.1,1.08.37,1.18,1.79,1.46,4.04,2.01,6.07h.97c2.27-4.2-.66-7.4-1.16-10.77-.43-2.92.17-6.65-.5-9.74l2.85,4.29c.24,1.14.68,1.93.95,2.86,1.03,3.51,1.98,6.02,2.87,9.77.13.55.1,1.54.93.72.5-.49,2.21-5.94,2.33-6.96.42-3.58-.88-6.97.05-10.2,3.35,7.4,2.23,10.92.24,18.6-2.99,11.54-11.95,15.7-9.53,28.62,1.16,6.22,6.72,7.02,3.61,15.5-3.03,8.27-9.2,10.08-17.13,8.32Z"/><path class="uuid-118ad59c-3741-4d87-aead-de9ccfb6fa80" d="M162.07,233.92v-.48c1.2,1.58,4.08,3.79,5.23,5.48,2.62,3.85,1.8,15.88,2.37,21.22.05.47-.06.97,0,1.43.53,4.06,2.78,9.89,2.86,13.61.05,1.97-.93,4.58-.98,6.63-.12,5.48.13,10.99.02,16.47-2.86,5.4-1.49,12.92,2.85,17.16.04.42,1.29,1.55-.23,1.43-2.09-2.82-4.64-6.64-5-10.24-.4-4.05,1.75-7.44,1.89-11.45.13-3.67-.65-7.53-.49-11.45.11-2.69,1.06-5.87,1.01-8.57-.08-4.31-2.33-10.12-2.88-14.79-.63-5.46.42-17.22-2.18-21.17-1.2-1.81-3.73-3-4.48-5.28Z"/><path class="uuid-381d8811-9e01-4fee-bb2c-b87ead2ac975" d="M178.22,208.17c.67-16.79-.25-20.67,6.65-36.23.39,1.02-.31,1.73-.48,2.38l-2.24,3.71c-3.09,10.54-3.74,21.1-3.46,32.05l-.94,1.9c-.21-1.31.42-2.54.47-3.81Z"/><path class="uuid-9a8e5186-dde8-4064-a0e9-eabcf667e35f" d="M161.59,228.68l-.47-10.01c2.58,2.89,2.58,6.34,2.37,10.01h-1.9Z"/><path class="uuid-8663825d-eea3-4baa-9776-5a47a9bfd89e" d="M173.95,109.49c1.19.7,1.94.08,3.25,2.23,2.52,4.13,1.56,18.5,1.02,23.75s-4.7,28.93-6.91,32.16c-.62.91-1.67,1.8-2.58,2.42,1.11-4.31,3.83-7.92,4.27-12.16.42-4.05-.26-8.71.01-12.86.48-7.28,2.5-14.61,2.86-21.92.22-4.38.59-9.89-1.92-13.61Z"/><path class="uuid-8663825d-eea3-4baa-9776-5a47a9bfd89e" d="M171.57,298.28c.8-1.51,2.98-2.88,4.01-4.32,1.46-2.06,2.14-4.51,3.39-6.63.34-.58-.17-1.24,1.15-.96l-1.87,6.93,2.82,4.5c-.87.86-3.64-5.19-7.14,1.18s-.13,10.58.49,16.46c-4.35-4.24-5.72-11.77-2.85-17.16Z"/><path class="uuid-7f73ade3-bd68-4dfb-9afc-58f3d6d0f028" d="M160.17,252.03c-.14,2.61-1.46,5.27-1.47,7.87,0,4.51,3.26,8.38,3.38,12.9.02.87-.72,6.64-.97,6.88-1.62,1.55-.47-2.01-.47-2.14v-8.1c0-.44-1.34-2.73-1.56-3.68-1.11-4.85-1.7-7.79-.1-12.78.27-.83.06-1.12,1.18-.94Z"/><path class="uuid-7d8b130f-8ae8-4a1e-b75b-e748070133c5" d="M160.17,252.03c-1.5-3.26-.73-8.49.35-11.83.26-.8-.21-1.26,1.08-1.04-1.02,4.69-2.72,9.04.08,13.51,1.14,1.82,3.63,2.91,4.2,5.08-.68.66-5.43-5.13-5.7-5.72Z"/><path class="uuid-7c752d57-6a6e-4252-b359-06d14a980d9c" d="M171.57,349.77c-.07,2.16-3.35,2.71-4.22,4.1-.6.95-.28,2.29-1.24,3.04-2.19-3.22,2.18-7.39,5.46-7.14Z"/><path class="uuid-0339e9c9-dc11-4580-bbb9-8c185dd6284a" d="M174.43,346.91c2.47,2.15,5.94.49,4.5-2.85-.11-.25-3.55-3.71-3.8-3.82-1.02-.43-.31,1.5-1.65.95,1.36-3.81,7.1,2.28,6.65,4.98-.6,3.56-6.99,2.2-5.7.74Z"/><path class="uuid-68988ef5-65b5-4c5d-963e-fa769b03ff36" d="M169.67,260.14c.34-.13.35-1.4.96-.7,1.86,2.13,2.19,6.35,2.85,9.04-.05,1.43-.54.48-.85-.11-.93-1.78-1.28-3.49-1.78-5.39-.21-.79.06-1.68-1.18-1.41-.06-.46.05-.96,0-1.43Z"/><path class="uuid-273fecc4-4bfa-410e-a9f5-4fec4c8ba0f4" d="M178.7,210.08c.06,2.22-.23,4.76,0,6.91.17,1.56,1.85,5.46,1.19,6.45-.91,1.17-2.5-.99-3.11-1.67-3.97-4.4-4.19-14.6-4.28-20.49-.04-2.33.16-13.24.59-14.7.35-1.19,2.98-2.42,2.28-4.63l.48,1.9,1.18-.94.64.77c-.28,7.59-.7,15.24-.41,22.84.04.92-.49,1.91.95,1.65-.05,1.27-.68,2.5-.47,3.81l.94-1.9Z"/><path class="uuid-b968d4dd-7c79-416d-9987-34057a59cf17" d="M183.46,126.17l2.32,11.73c1.18,12.02.07,19.11-4.57,30.11-.25.59-.26,1.41-1.08,1.54,1.87-9.53,6.01-18.93,5.21-28.83-.37-4.62-2.25-9.71-1.89-14.55Z"/><path class="uuid-e5153b09-6152-4f2b-83cf-bd706506a221" d="M183.45,104.71l-4.55.45c-.82,1.7.66,2.56,1.7,3.62l-.77,1.15c-6.17,1.85-3.78-15.37,3.63-5.21Z"/><path class="uuid-6e2e6219-6e4c-437a-9ca2-fee4be550cee" d="M174.42,173.37v-9.3c0-.42,2.15-5.74,2.38-5.96l.95.24c.22.65-.96,1.25-.96,1.42v11.44c0,.36-.71,1.39-.52,2.1l-1.86.05Z"/><path class="uuid-8fbe2c38-6046-46ad-947f-a27edcb4d631" d="M160.91,358.79s-.06-3.55,2.94-6.55,7-4,8-5,.94.73,3.97.87,5.03-.87,4.03-4.87,6-4,6-4c0,0,1,3,3,5s3,11-1,16-11,5-13,5-8.89.1-13.94-6.45Z"/></g></g></svg>