<?xml version="1.0" encoding="UTF-8"?>
<svg xmlns="http://www.w3.org/2000/svg" viewBox="0 0 120 120">
  <defs>
    <style>
      .cls-1, .cls-2, .cls-3 {
        stroke-width: 0px;
      }

      .cls-2 {
        fill: #fff;
      }

      .cls-3 {
        fill: #ede9c8;
      }
    </style>
  </defs>
  <g id="Layer_1" data-name="Layer 1">
    <path class="cls-3" d="m118.07,32.65v.43c-.13,1.53-1.36,3.06-3.63,4.51-3.64,2.34-9.65,4.25-16.64,5.67-4.15.84-8.75,1.54-13.58,2.06l-.41-2.69c3.21-.55,6.12-1.22,8.53-2,2.72-.87,4.84-1.89,6.11-3.04,1.67-1.51,1.62-3.05-.05-4.51-.39-.35-.88-.69-1.45-1.02-3.28-1.92-9.38-3.59-17.62-4.64-.02,0-.04-.01-.06-.01-.45-.06-.91-.11-1.37-.16-5.37-.63-11.42-.98-17.9-.98-6.55,0-12.61.35-17.96.98-.54.06-1.08.13-1.6.2-2.69.34-5.17.76-7.42,1.25-5.63,1.2-9.53,2.72-11.4,4.38-.32.27-.58.56-.78.84-.86,1.21-.64,2.45.71,3.67,1.87,1.69,5.63,3.11,10.41,4.2,1.33.31,2.74.59,4.23.84l-.41,2.69c-7.43-.81-14.35-2.02-19.97-3.58-4.2-1.16-7.77-2.55-10.25-4.15-2.27-1.45-3.5-2.98-3.63-4.51-.01-.1-.01-.19-.01-.28,0-1.21.68-2.42,2.05-3.61,3.68-3.19,12.17-6.08,24.85-8,9.02-1.36,19.69-2.14,31.18-2.14,17.24,0,32.28,1.73,42.77,4.45,9.46,2.44,14.6,5.51,15.24,8.65.04.17.06.33.06.5Z"/>
    <path class="cls-3" d="m118.072.159v30.453c0-.17-.02-.33-.06-.5-.64-3.14-5.78-6.21-15.24-8.65-10.49-2.72-25.53-4.45-42.77-4.45-11.49,0-22.16.78-31.18,2.14-12.68,1.92-21.17,4.81-24.85,8-1.37,1.19-2.05,2.4-2.05,3.61V.159h116.15Z"/>
    <path class="cls-3" d="m95.207,37.59c-1.82,1.8-6.09,3.3-11.5,4.37l-.16-1.02c3.55-.9,6.22-2.03,7.39-3.35,1.38-1.56.45-3.13-2.5-4.51-.84-.4-1.85-.78-3.01-1.14-.31-.1-.64-.19-.97-.28-.99-.28-2.08-.54-3.25-.78-.63-.13-1.28-.25-1.96-.37-5.26-.92-11.88-1.48-19.25-1.48-7.5,0-14.23.58-19.54,1.53-.57.1-1.13.21-1.67.32-.39.08-.77.16-1.14.25-.27.06-.54.12-.8.18-.33.08-.65.17-.96.25-.23.06-.46.12-.68.19-.22.06-.43.12-.64.19-1.16.36-2.17.74-3.01,1.14-2.95,1.38-3.88,2.95-2.5,4.51,1.17,1.32,3.84,2.45,7.39,3.35l-.16,1.02c-5.41-1.07-9.68-2.57-11.5-4.37-1.55-1.54-1.15-3.1.89-4.51.73-.51,1.68-1,2.83-1.46.23-.1.46-.19.71-.28.97-.36,2.08-.71,3.3-1.03.6-.16,1.22-.32,1.87-.47,1.35-.3,2.82-.58,4.4-.84.54-.09,1.09-.18,1.66-.26,5.44-.78,12.05-1.24,19.55-1.24,7.37,0,13.87.44,19.26,1.2.67.09,1.32.19,1.95.29.03,0,.05.01.08.01.36.06.72.12,1.07.19.37.06.74.13,1.1.2.29.05.57.11.84.17.31.06.6.12.89.19,1.14.25,2.2.51,3.18.8.17.04.33.09.49.15.2.05.4.11.59.18.47.15.91.3,1.33.46.2.07.39.14.57.22.28.11.55.22.8.34.19.08.38.17.56.25.62.31,1.16.61,1.61.93,2.04,1.42,2.44,2.97.89,4.51Z"/>
    <path class="cls-3" d="m118.072,32.65v.43h-19.67c-.39-.35-.88-.69-1.45-1.02-3.02-1.77-8.45-3.33-15.74-4.39-.61-.08-1.24-.17-1.88-.25-.02,0-.04-.01-.06-.01-.45-.06-.91-.11-1.37-.16-5.37-.63-11.42-.98-17.9-.98-6.55,0-12.61.35-17.96.98-.54.06-1.08.13-1.6.2-.56.07-1.11.14-1.65.22-2.06.3-3.99.64-5.77,1.03-5.63,1.2-9.53,2.72-11.4,4.38H1.922v-.28c0-1.21.68-2.42,2.05-3.61,3.68-3.19,12.17-6.08,24.85-8,9.02-1.36,19.69-2.14,31.18-2.14,17.24,0,32.28,1.73,42.77,4.45,9.46,2.44,14.6,5.51,15.24,8.65.04.17.06.33.06.5Z"/>
    <path class="cls-3" d="m80.522,32.489v87.688h-41.111V32.489c.523-.107,1.066-.213,1.619-.31,5.146-.921,11.668-1.483,18.937-1.483,7.143,0,13.558.543,18.656,1.434.659.116,1.289.233,1.9.359Z"/>
  </g>
  <g id="BodyPosition">
    <g id="Front">
      <path class="cls-2" d="m62.35,43.2c-.11.14-.23.28-.37.41-.29.29-.62.55-.88.72-.07.05-.16.11-.27.14-.2.06-.37.04-.56.04-.22,0-.44-.01-.65-.01-.22,0-.51-.01-.77-.12-.31-.12-.53-.36-.69-.55l-.14-.18-.01-.01c-.11-.14-.21-.26-.33-.37l.34-.37c.04.04.07.07.11.11.1.11.19.22.28.33l.13.17c.13.14.29.32.5.41.16.07.36.08.59.08.29.01.59.01.89.01.07,0,.13-.01.17-.02s.09-.04.14-.07c.37-.24.78-.61,1.05-.92.03-.04.06-.07.08-.1l.39.3Z"/>
      <g>
        <path class="cls-2" d="m60.52,44.26c-.303,0-.606,0-.898-.01h-.006c-.223,0-.465-.009-.676-.101-.247-.105-.43-.304-.564-.449l-.164-.208c-.091-.11-.174-.212-.267-.314l-.065-.071v-.011l-.017-.019c-.556-.556-1.025-1.327-1.348-2.22l-.007-.003c-.111-.055-.253-.208-.661-.713-.561-.666-.408-1.213-.317-1.42.102-.217.268-.379.46-.453l.009-.007c-.052-1.424.361-2.755,1.131-3.644.709-.806,1.696-1.236,2.857-1.246,1.185.01,2.172.44,2.879,1.245.771.888,1.184,2.217,1.133,3.648h.003c.198.077.365.24.464.451.093.214.245.763-.276,1.378l-.126.154c-.335.412-.455.548-.555.603l-.026.013-.01.02c-.31.866-.776,1.635-1.337,2.195l-.068.087c-.304.35-.736.729-1.103.966-.077.047-.142.084-.214.103-.053.013-.133.027-.232.027Z"/>
        <path class="cls-1" d="m60.01,33.62c1.1.01,2.01.41,2.67,1.16.72.83,1.12,2.1,1.07,3.48v.18l.17.06c.13.05.25.17.32.32.07.16.2.59-.24,1.11-.19.23-.52.65-.61.7l-.09.04-.05.1c-.31.86-.75,1.59-1.29,2.13-.02.03-.05.06-.08.1-.27.31-.68.68-1.05.92-.05.03-.1.06-.14.07-.04.01-.1.02-.17.02-.3,0-.6,0-.89-.01-.23,0-.43-.01-.59-.08-.21-.09-.37-.27-.5-.41l-.13-.17c-.09-.11-.18-.22-.28-.33v-.01l-.08-.09c-.54-.54-.99-1.28-1.3-2.14l-.04-.1-.09-.04c-.1-.05-.45-.49-.62-.7-.44-.52-.31-.95-.24-1.11.07-.15.19-.27.32-.32l.17-.07v-.17c-.05-1.38.35-2.65,1.07-3.48.66-.75,1.57-1.15,2.67-1.16h.02m.002-.5h-.022c-1.238.011-2.29.471-3.045,1.33-.783.903-1.215,2.227-1.198,3.658-.182.11-.339.286-.439.5-.114.261-.302.919.311,1.644l.036.045c.363.449.526.634.657.728.319.858.781,1.616,1.336,2.188l.113.133c.094.103.178.207.263.31l.12.157.014.019.036.039c.149.161.353.381.65.508.254.111.54.12.787.12.278.01.584.01.89.01.125,0,.228-.019.291-.035.112-.028.203-.083.276-.126.398-.258.851-.654,1.17-1.02l.002-.003.043-.053c.013-.016.026-.031.038-.046.556-.565,1.02-1.323,1.348-2.2.136-.098.272-.257.577-.631l.121-.148c.61-.72.422-1.379.313-1.629-.103-.221-.259-.398-.444-.51.02-1.421-.412-2.753-1.196-3.657-.758-.861-1.809-1.321-3.043-1.332h-.002Z"/>
      </g>
      <g>
        <path class="cls-2" d="m57.76,114.58c-.376,0-.648-.108-.855-.342-.126.116-.266.173-.413.173-.067,0-.133-.012-.202-.035-.139-.04-.219-.128-.263-.175l-.04-.066-.015.005c-.02.014-.09.027-.178.027l-.125-.01c-.104-.032-.277-.091-.346-.266l-.042.019-.104.007c-.076,0-.146-.02-.203-.057-.125-.062-.224-.202-.243-.362l-.094.012c-.113,0-.193-.055-.257-.107l-.09-.075v-.117c0-.286.208-.643.332-.829.083-.097.327-.489.556-.927l.09-.149c.102-.169.182-.302.282-.436.195-.292.339-.507.445-1.029.036-.15.029-.231.02-.354-.015-.301-.016-.606.098-1.372.077-1.482-.52-4.147-1.047-6.499-.344-1.548-.681-3.084-.814-4.184-.183-1.509-.113-2.687-.011-3.96.068-1.048.139-2.136.059-3.567-.097-1.534-.435-3.089-.834-4.816l-.25-1.07c-1.091-4.827-1.083-11.759-.392-15.205.691-3.437.349-5.626-.169-8.131-.202-.988-.234-2.121-.217-3.84-.022.887-.046,1.161-.086,1.64l-.043.519c-.144,1.833-.325,3.174-.458,4.154l-.102.707c-.035.225-.063.403-.07.531-.051.68-.262,1.733-.455,2.669l-.068.337c-.083.412-.16.788-.199,1.076-.08.548-.254,1.052-.424,1.539l-.057.167c-.282.853-.601,1.819-.657,3.29l.074.336c.212.928.381,1.661-.044,2.452-.167.317-.237.594-.181,1.303-.02.262-.036.944.025,1.214l.025.024c.422.501.417.873.334,1.09-.006.071-.083.154-.145.222l-.095.099-.013.025-.058.055c.007.233-.152.431-.373.431-.133,0-.269-.059-.426-.185-.262-.219-.4-.488-.56-.801l-.046-.09-.128-.296c-.262-.504-.455-1.36-.52-2.332-.011-.318.068-.659.2-1.106.144-.556.315-1.216.411-2.185.05-1.027-.132-2.134-.307-3.205-.26-1.62-.542-3.384-.302-5.479.041-.383.122-.91.212-1.407.042-.209.165-.631.298-1.042l.076-.267c.092-.318.168-.578.184-.714.242-1.894.269-3.266.289-4.267,0-.319,0-.603.01-.836.003-.04.01-.243-.088-1.214-.059-.546-.122-1.246-.122-1.416.051-1.534.378-3.681.903-4.833.606-1.342,1.333-1.559,2.651-1.955.331-.101.709-.22,1.127-.359,2.101-.712,4.085-1.386,4.537-3.154l.105-.414.309.294.175.218c.156.185.339.375.583.47.215.091.453.103.68.103l.872.013c.082,0,.171-.004.267-.033.074-.021.137-.062.195-.104.285-.186.599-.443.85-.694l.313-.313.106.43c.438,1.77,2.434,2.457,4.548,3.184.416.139.793.258,1.121.357,1.322.396,2.049.614,2.655,1.956.525,1.164.852,3.308.902,4.825.003.039.013.186-.122,1.406-.095.964-.092,1.181-.089,1.224.011.241.011.524.011.849.018.937.045,2.358.298,4.256.007.111.068.329.133.56l.121.441c.13.396.252.818.293,1.023.082.45.173,1.018.214,1.414.24,2.092-.042,3.855-.292,5.411-.213,1.282-.363,2.293-.316,3.292.099,1.003.285,1.675.421,2.166.118.438.2.771.188,1.095-.063.965-.256,1.823-.526,2.363l-.114.259c-.2.399-.338.675-.608.9-.162.13-.297.188-.431.188-.229,0-.369-.222-.379-.444l-.032-.039-.075-.069c-.083-.083-.186-.186-.21-.323-.067-.165-.07-.531.372-1.081l.025-.054c0-.063.019-.323.019-.589,0-.16,0-.331-.018-.492.045-.698,0-1.021-.184-1.372-.423-.789-.255-1.522-.043-2.451l.079-.394c-.061-1.407-.378-2.372-.659-3.224l-.032-.1c-.165-.476-.354-1.019-.44-1.611-.043-.266-.113-.608-.191-.987l-.087-.431c-.178-.874-.391-1.967-.453-2.656-.007-.136-.032-.299-.064-.507l-.099-.69c-.127-.931-.32-2.336-.467-4.206l-.034-.424c-.058-.708-.11-1.362-.136-2.342.021,1.877.017,3.498-.177,4.446-.519,2.508-.86,4.698-.17,8.132.7,3.44.711,10.372-.391,15.204l-.251,1.081c-.398,1.719-.736,3.267-.834,4.809-.071,1.453-.005,2.563.069,3.576.098,1.328.158,2.462-.021,3.948-.131,1.101-.462,2.596-.812,4.178-.528,2.359-1.127,5.026-1.035,6.548.102.741.1,1.043.09,1.266-.01.141-.01.254.017.433.104.509.248.724.431.996.129.179.232.345.378.595.23.438.5.846.552.911.112.161.353.549.322.915l-.015.18-.175.043c-.069.017-.123.017-.18.017l-.052-.013-.002.008c-.016.153-.116.294-.266.369l-.053.026-.13.021c-.05,0-.097-.01-.141-.027l-.004.008c-.041.155-.23.221-.303.245l-.039.014-.126.007c-.071,0-.132-.01-.182-.027-.057.105-.179.197-.324.24-.031.011-.1.028-.183.028-.149,0-.292-.056-.412-.16l-.01-.011c-.182.211-.458.32-.883.343h0c-.435,0-.716-.2-.875-.61-.05-.153-.071-.252-.089-.329-.009-.039-.015-.071-.025-.101-.026-.173-.034-.241-.18-.496-.259-.518-.234-.938-.191-1.294.013-.111.029-.275.011-.406-.013-.097.008-.273.091-.756.148-.691.172-1.005.167-1.148-.062-.45-.051-.648,0-1.136l.029-.498c.003-.039.258-3.499-.3-10.345-.062-.683-.018-1.351.03-2.058.119-1.319.21-2.809-.069-5.275-.052-.962.02-1.601.12-2.486.021-.207-.002-.418-.03-.664-.032-.291-.069-.621-.041-1.035.021-.288-.062-.871-.16-1.545-.119-.828-.268-1.858-.311-2.906,0-.053-.029-4.365.04-6.121l-.094-.86h-.675l-.145.842.009.085c.07,1.778.142,3.617.034,6.015-.043,1.022-.198,2.014-.322,2.811-.102.651-.189,1.214-.168,1.511.031.388.018.751.004,1.084-.012.294-.023.563.005.806.101.874.163,1.517.111,2.432-.28,2.507-.188,3.999-.07,5.313.055.79.09,1.396.05,2.049-.583,6.888-.323,10.311-.32,10.345l.03.515c.05.463.062.671-.002,1.147-.005.192.059.638.166,1.111l.031.164c.073.392.095.54.05.659.006.057.006.201.024.354.047.37.058.782-.171,1.274-.15.281-.174.351-.188.466-.032.15-.056.265-.12.465-.166.431-.44.624-.869.624l-.04-.25v.25Zm-5.286-59.645c-.009.331-.025.956-.033,1.715.02-.747.03-1.383.035-1.715h-.002Zm15.016-.374c0,.37.01.896.028,1.49-.008-.759-.023-1.385-.032-1.717h-.003c.002.064.004.141.007.227Z"/>
        <path class="cls-1" d="m61.98,43.61c.47,1.9,2.53,2.61,4.71,3.36.42.14.8.26,1.13.36,1.3.39,1.94.58,2.5,1.82.51,1.13.83,3.24.88,4.73.01.14-.06.83-.12,1.37-.07.71-.1,1.14-.09,1.27.01.23.01.51.01.83.02,1.02.05,2.41.3,4.29.01.18.14.57.26,1.03.13.4.25.81.29,1.01.08.44.17,1,.21,1.39.24,2.09-.05,3.85-.3,5.41-.19,1.14-.36,2.22-.31,3.28.1,1.01.28,1.68.43,2.22.11.41.19.73.18,1.02-.06.9-.24,1.74-.5,2.26l-.12.27c-.18.36-.3.61-.54.81-.15.12-.23.13-.27.13-.08,0-.13-.12-.13-.22v-.06l-.05-.06c-.02-.04-.07-.09-.13-.14-.06-.06-.13-.13-.14-.19-.08-.21.03-.52.32-.88l.05-.09c.03-.15.05-.42.05-.71,0-.17,0-.35-.02-.52.05-.7,0-1.06-.21-1.46-.37-.69-.24-1.32-.02-2.28l.08-.4c-.06-1.56-.41-2.57-.7-3.45-.18-.52-.35-1.02-.43-1.57-.06-.37-.17-.88-.28-1.43-.19-.93-.39-1.97-.45-2.63-.01-.21-.07-.52-.13-.96-.13-.96-.34-2.41-.5-4.44-.07-.9-.14-1.61-.17-2.81-.01-1.13-.04-2-.04-2.09h-.02l-.48.01c0,.01,0,.19.01.48,0,.37.01.91.03,1.52.02,1.8.03,3.56-.17,4.54-.53,2.56-.86,4.8-.17,8.23.7,3.44.7,10.32-.39,15.1l-.25,1.08c-.39,1.68-.74,3.27-.84,4.85-.07,1.43-.01,2.53.07,3.61.09,1.24.16,2.4-.02,3.9-.13,1.09-.46,2.58-.81,4.16-.56,2.5-1.13,5.09-1.04,6.61.1.73.1,1.02.09,1.24-.01.15-.01.28.02.48.12.59.29.83.49,1.13.11.15.21.31.35.55.22.42.5.85.57.94.14.2.29.5.27.74-.04.01-.07.01-.12.01l-.26-.07-.04.28c-.01.09-.07.15-.13.18-.019.012-.045.021-.071.021-.017,0-.033-.003-.049-.011l-.21-.09-.11.22c-.02.07-.1.1-.16.12-.025.004-.055.007-.084.007-.042,0-.082-.005-.106-.017l-.2-.06-.09.17c-.02.04-.08.1-.18.13-.024.008-.064.018-.112.018-.07,0-.159-.021-.248-.098l-.17-.18-.18.18c-.13.15-.32.25-.72.27-.32,0-.51-.14-.63-.45-.07-.22-.08-.33-.11-.42-.02-.16-.04-.26-.2-.54-.22-.44-.2-.81-.16-1.14.02-.17.03-.33.01-.47-.01-.08.04-.39.09-.68.11-.51.18-.95.17-1.2-.06-.45-.05-.63,0-1.1l.03-.51c.03-.38.23-3.87-.3-10.38-.06-.65-.02-1.28.03-2.02.11-1.23.22-2.76-.07-5.32-.05-.92.02-1.55.12-2.43.05-.5-.12-.97-.07-1.71.05-.68-.39-2.55-.47-4.48,0,0-.03-4.33.04-6.1l-.12-1.12h-1.11l-.18,1.05c.07,1.78.15,3.68.04,6.13-.08,1.88-.54,3.65-.49,4.35.06.74-.05,1.38.01,1.9.1.87.16,1.5.11,2.39-.29,2.59-.18,4.12-.07,5.35.05.72.09,1.35.05,2.01-.55,6.5-.35,10-.32,10.38l.03.51c.05.47.06.65,0,1.1-.01.27.07.76.17,1.2.05.28.12.6.09.68-.01.14-.01.3.01.47.04.32.06.69-.15,1.14-.15.28-.19.38-.21.54-.02.09-.04.2-.11.42-.12.31-.3.45-.63.45-.014,0-.028,0-.041,0-.382,0-.563-.135-.679-.27l-.18-.18-.17.18c-.085.08-.17.101-.239.101-.052,0-.095-.012-.121-.021-.1-.03-.14-.09-.18-.13l-.09-.17-.2.06c-.023.012-.064.017-.106.017-.029,0-.059-.002-.084-.007-.06-.02-.14-.05-.16-.13l-.11-.21-.21.09c-.017.004-.035.007-.053.007-.025,0-.05-.005-.067-.017-.06-.03-.12-.09-.13-.18l-.04-.28-.26.06c-.016.006-.03.01-.043.01-.029,0-.056-.015-.097-.05,0-.19.15-.48.29-.69.09-.1.35-.53.57-.95.14-.23.23-.39.35-.55.2-.3.37-.54.49-1.13.05-.21.03-.33.02-.49-.01-.22-.01-.51.1-1.25.08-1.51-.49-4.09-1.05-6.59l-.01-.07c-.35-1.55-.67-3.02-.8-4.09-.18-1.49-.11-2.66-.01-3.91.07-1.07.14-2.17.06-3.6-.1-1.58-.45-3.17-.84-4.86l-.25-1.07c-1.08-4.78-1.08-11.66-.39-15.1.69-3.43.36-5.67-.17-8.23-.2-.98-.23-2.13-.21-3.93.03-1.11.04-1.99.04-2.01l-.5-.01c0,.09-.03.96-.04,2.1-.03,1.2-.06,1.3-.13,2.2-.16,2.04-.37,3.49-.5,4.46-.06.42-.12.74-.13.94-.05.66-.26,1.71-.45,2.63-.11.55-.22,1.06-.27,1.43-.08.55-.26,1.05-.44,1.57-.29.88-.64,1.89-.7,3.45v.04l.08.36c.22.96.35,1.59-.02,2.28-.19.36-.27.68-.21,1.44-.02.22-.04.94.03,1.25l.05.09c.3.36.4.67.32.88-.01.06-.08.12-.14.19-.05.05-.11.1-.13.14l-.05.06v.06c0,.1-.04.22-.13.22-.04,0-.12-.01-.27-.13-.24-.2-.36-.46-.54-.81l-.12-.28c-.26-.5-.44-1.35-.5-2.25-.01-.28.07-.61.19-1.02.14-.54.32-1.22.42-2.23.05-1.04-.12-2.11-.31-3.27-.25-1.56-.54-3.32-.3-5.41.04-.38.12-.9.21-1.39.04-.2.16-.61.29-1.01.13-.46.25-.85.27-1.03.24-1.88.27-3.27.29-4.29,0-.32,0-.6.01-.83.01-.13-.02-.56-.09-1.25-.06-.56-.12-1.24-.12-1.39.05-1.5.37-3.61.88-4.73.56-1.24,1.2-1.43,2.5-1.82.33-.1.71-.22,1.13-.36,2.18-.74,4.22-1.45,4.7-3.33l.01.01.14.18c.16.19.38.43.69.55.26.11.55.12.77.12.21,0,.43.01.65.01.076,0,.149.003.221.003.109,0,.219-.007.339-.043.11-.03.2-.09.27-.14.26-.17.59-.43.88-.72m.273-.98l-.626.626c-.239.239-.538.484-.8.655-.042.03-.094.067-.128.076-.065.019-.12.026-.207.026h-.097s-.124-.003-.124-.003c-.107,0-.215-.003-.321-.005-.111-.003-.221-.005-.329-.005-.19,0-.408-.01-.575-.08-.205-.08-.362-.244-.502-.412l-.128-.165-.02-.025-.023-.022-.621-.617-.226.838c-.418,1.636-2.341,2.289-4.376,2.98-.413.138-.788.256-1.114.355-1.348.404-2.158.647-2.811,2.093-.538,1.182-.872,3.37-.924,4.919,0,.219.073.997.123,1.46.097.955.09,1.141.089,1.159-.011.252-.011.539-.011.868-.019.985-.046,2.348-.286,4.227-.012.11-.1.415-.178.685l-.078.272c-.05.153-.237.738-.299,1.048-.099.536-.177,1.056-.217,1.436-.244,2.126.042,3.907.293,5.479l.01.063c.174,1.06.353,2.155.304,3.167-.092.924-.26,1.573-.395,2.093-.144.494-.227.856-.215,1.198.068,1.021.27,1.913.556,2.463l.104.246.059.118c.173.339.322.631.62.879.212.17.397.246.59.246.318,0,.567-.243.62-.584l.044-.043.058-.064c.067-.073.166-.179.209-.339.091-.275.088-.711-.375-1.29-.036-.26-.028-.802-.008-1.026l.004-.042-.003-.042c-.056-.709.025-.922.154-1.167.467-.871.281-1.684.065-2.625l-.066-.295c.06-1.43.369-2.367.642-3.194l.031-.093.028-.08c.172-.496.35-1.009.432-1.575.038-.283.116-.666.198-1.071l.067-.333c.194-.94.406-2.004.458-2.69.007-.134.035-.304.068-.518l.059-.389.043-.319c.089-.655.2-1.472.306-2.49.002.009.004.019.006.028.513,2.479.851,4.643.17,8.031-.696,3.472-.705,10.452.392,15.309l.251,1.074c.396,1.716.732,3.261.828,4.778.079,1.412.008,2.492-.06,3.536-.102,1.28-.173,2.47.013,4.003.136,1.116.474,2.657.809,4.14l.003.031c.53,2.375,1.124,5.023,1.046,6.493-.113.743-.111,1.062-.1,1.299l.006.081c.008.114.012.166-.013.27-.1.49-.219.668-.399.937-.11.148-.195.288-.302.466l-.08.132c-.245.465-.464.814-.518.879l-.016.02-.025.034c-.171.256-.374.632-.374.967v.234l.18.15c.046.039.158.132.326.159.065.138.177.257.32.334.092.052.198.08.311.08.009,0,.018,0,.026,0,.075.085.186.164.349.218l.037.012.038.006c.049.008.108.013.167.013.031,0,.06-.001.089-.004.067.067.176.156.343.206.08.027.171.042.265.042.138,0,.27-.034.39-.098.221.175.515.268.878.268h.053s0,0,0,0c.517,0,.886-.259,1.084-.769.078-.241.104-.362.124-.456l.005-.021.011-.061c.008-.067.013-.101.155-.366.269-.574.257-1.029.205-1.438-.013-.106-.016-.219-.01-.334.03-.161-.002-.349-.066-.688l-.028-.154c-.106-.47-.17-.9-.163-1.094.063-.455.05-.674-.002-1.171l-.028-.486c-.003-.044-.26-3.463.319-10.308.041-.681.006-1.294-.049-2.087-.117-1.314-.208-2.793.068-5.26.055-.963-.008-1.615-.11-2.503-.025-.215-.015-.471-.003-.766.013-.332.028-.707-.005-1.117-.019-.263.067-.813.166-1.45.125-.803.281-1.801.325-2.838.108-2.411.035-4.257-.035-6.042l-.003-.076.1-.583h.239l.068.637c-.068,1.782-.04,5.91-.039,6.086.044,1.078.193,2.114.313,2.947.095.661.177,1.232.158,1.493-.03.438.008.78.042,1.082.026.231.048.431.029.615-.097.855-.174,1.536-.122,2.507.279,2.467.188,3.944.071,5.248-.049.728-.095,1.405-.03,2.111.558,6.855.302,10.261.299,10.295l-.031.52c-.051.474-.063.693.004,1.196,0,.039-.009.315-.163,1.029-.102.587-.112.733-.097.847.015.107.001.25-.01.349-.051.419-.061.882.209,1.422.133.234.138.274.151.378l.006.049.016.047c.007.022.012.047.018.077.018.082.042.188.09.337.256.665.742.798,1.106.798.406-.02.696-.106.92-.275.131.071.262.103.399.103.092,0,.183-.015.27-.043.126-.038.245-.109.337-.201.026.002.053.003.08.003.058,0,.118-.005.167-.013l.038-.006.037-.012c.149-.049.266-.121.35-.215h.021c.111.001.222-.029.317-.084.141-.076.25-.192.316-.331.033-.004.07-.01.11-.02l.347-.087.03-.357c.037-.448-.238-.897-.359-1.068-.059-.077-.324-.479-.537-.885-.143-.246-.258-.434-.39-.614-.188-.282-.307-.46-.403-.934-.019-.132-.019-.224-.011-.347.011-.244.014-.559-.093-1.341-.084-1.447.535-4.212,1.033-6.433.353-1.592.686-3.095.819-4.21.18-1.502.12-2.65.022-3.995-.074-1-.14-2.097-.069-3.549.096-1.52.432-3.056.828-4.761l.25-1.08c1.109-4.864,1.099-11.844.393-15.312-.681-3.387-.343-5.551.17-8.029.002-.01.004-.021.006-.032.108,1.029.221,1.852.311,2.511l.038.276c.022.164.045.309.064.439.031.201.056.358.062.478.066.728.28,1.827.46,2.706l.09.444c.075.369.144.703.186.966.088.604.281,1.162.451,1.654l.028.086c.273.825.581,1.759.642,3.161l-.068.341c-.213.928-.399,1.74.07,2.614.141.268.2.515.152,1.188l-.003.047.006.047c.018.151.017.311.017.462,0,.226-.013.417-.028.535-.455.588-.46,1.017-.372,1.285.05.186.179.315.267.403.02.017.034.03.044.039.053.338.306.588.62.588.193,0,.378-.076.582-.24.32-.267.476-.579.657-.941l.005-.01.022-.046.12-.27c.275-.549.476-1.442.542-2.43.013-.372-.073-.724-.196-1.183-.134-.483-.316-1.138-.415-2.14-.044-.95.105-1.947.306-3.149l.011-.066c.252-1.572.538-3.353.293-5.483-.052-.512-.178-1.218-.215-1.422-.064-.319-.251-.903-.306-1.075-.032-.126-.073-.273-.111-.407-.053-.19-.12-.425-.125-.496-.253-1.914-.28-3.277-.299-4.272,0-.319,0-.606-.01-.842-.003-.045-.007-.236.088-1.199.137-1.233.125-1.394.121-1.455-.051-1.523-.385-3.707-.923-4.9-.653-1.445-1.463-1.688-2.805-2.091-.332-.101-.708-.219-1.123-.358-2.132-.734-3.978-1.369-4.383-3.006l-.213-.86h0Z"/>
      </g>
      <path class="cls-1" d="m56.775,72.672c.135.271.407.479.639.666.267.216.546.412.84.59.576.348,1.208.655,1.896.635,1.313-.038,2.533-.992,3.185-2.078.066-.11-.067-.25-.179-.179-.983.622-1.791,1.651-3.059,1.652-.614,0-1.188-.301-1.719-.579-.269-.141-.534-.289-.795-.443-.23-.135-.459-.309-.717-.381-.071-.02-.121.057-.09.118h0Z"/>
      <path class="cls-1" d="m60.063,49.489c.271-.247.671-.201,1.01-.21.372-.01.742-.037,1.111-.074.653-.065,1.303-.151,1.949-.267,1.348-.241,2.721-.811,4.098-.514.156.034.244-.168.108-.257-.576-.377-1.265-.296-1.909-.166-.806.163-1.598.384-2.409.532-.873.159-1.749.272-2.63.37-.483.054-1.138.033-1.371.552-.012.028.019.055.043.033h0Z"/>
      <path class="cls-1" d="m60.046,54.911c.456.507,1.195.671,1.848.726.874.073,1.766.015,2.642,0,.763-.014,1.527.007,2.209-.385.634-.365,1.137-.935,1.506-1.557.102-.172-.13-.345-.273-.211-.483.455-.893,1.016-1.475,1.352-.644.372-1.403.313-2.121.328-1.428.029-2.906.237-4.241-.376-.079-.036-.157.054-.095.123h0Z"/>
      <path class="cls-1" d="m59.923,59.832c.18.262.607.336.9.376.393.053.802.062,1.198.045.363-.016.725-.075,1.056-.229.257-.119.644-.353.661-.669.004-.081-.092-.165-.173-.132-.124.05-.211.152-.312.238-.112.095-.236.172-.369.233-.292.133-.614.183-.932.2-.328.017-.659.009-.987,0-.166-.004-.333-.017-.496-.053-.153-.033-.291-.116-.443-.143-.071-.013-.153.063-.104.135h0Z"/>
      <path class="cls-1" d="m60.74,63.737c.107.296.451.348.731.344.422-.006.847-.053,1.268-.08.182-.012.397.003.559-.093.152-.09.214-.264.287-.415.096-.2.194-.4.284-.604.08-.18.184-.392.184-.592,0-.111-.127-.147-.203-.084-.116.094-.212.263-.28.396-.083.162-.164.324-.242.488-.065.137-.116.308-.207.429-.077.103-.323.083-.443.096-.345.036-.691.073-1.036.109-.277.029-.536.055-.791-.081-.054-.029-.136.02-.112.086h0Z"/>
      <path class="cls-1" d="m63.265,64.193c.075.246.201.472.271.722.077.273.108.556.11.839.004.551-.084,1.103-.215,1.637-.133.541-.315,1.071-.517,1.591-.21.544-.544,1.101-.655,1.675-.02.104.12.221.201.117.364-.466.574-1.092.796-1.635.249-.609.46-1.233.595-1.878.118-.563.192-1.144.136-1.719-.047-.483-.169-1.117-.576-1.436-.064-.05-.176-.007-.148.086h0Z"/>
      <path class="cls-1" d="m60.037,56.603c1.196-.009,2.168.771,3.143,1.37.799.491,1.859.556,2.544-.165.076-.08-.02-.199-.116-.15-.433.219-.964.358-1.448.266-.532-.101-.953-.438-1.402-.715-.725-.447-1.882-1.16-2.751-.714-.053.027-.027.11.03.109h0Z"/>
      <path class="cls-1" d="m60.096,49.455c-.233-.519-.888-.498-1.371-.552-.881-.099-1.758-.212-2.63-.37-.811-.147-1.602-.369-2.409-.532-.644-.13-1.333-.212-1.909.166-.134.088-.049.291.108.257,1.377-.298,2.75.273,4.098.514.646.115,1.296.202,1.949.267.37.037.74.064,1.111.074.341.009.738-.039,1.01.21.024.022.055-.005.043-.033h0Z"/>
      <path class="cls-1" d="m59.975,54.789c-1.335.612-2.813.405-4.241.376-.718-.015-1.476.045-2.121-.328-.583-.337-.993-.897-1.475-1.352-.141-.133-.376.037-.273.211.36.608.844,1.157,1.455,1.526.695.42,1.475.402,2.26.416.856.015,1.724.065,2.579.005.673-.047,1.442-.209,1.911-.73.061-.068-.015-.159-.095-.123h0Z"/>
      <path class="cls-1" d="m59.879,59.697c-.152.027-.29.11-.443.143-.163.036-.329.048-.496.053-.328.009-.659.017-.987,0-.318-.017-.64-.067-.932-.2-.133-.061-.257-.138-.369-.233-.101-.086-.188-.187-.312-.238-.081-.033-.177.05-.173.132.017.309.387.538.637.657.338.162.708.224,1.081.241.389.017.791.009,1.177-.042.299-.039.737-.111.921-.379.05-.072-.032-.148-.104-.135h0Z"/>
      <path class="cls-1" d="m59.408,63.592c-.245.131-.493.112-.76.084-.356-.037-.711-.075-1.067-.112-.118-.012-.351.007-.435-.083-.044-.047-.07-.139-.097-.196l-.104-.219c-.078-.164-.158-.327-.241-.489-.073-.143-.169-.321-.294-.423-.077-.062-.203-.027-.203.084,0,.2.104.412.184.592.086.194.179.385.271.576.072.15.134.334.279.43.165.109.391.093.58.105.415.027.831.067,1.246.079.285.008.644-.041.753-.344.024-.066-.057-.115-.112-.086h0Z"/>
      <path class="cls-1" d="m56.72,64.107c-.394.309-.518.914-.57,1.383-.066.592.009,1.191.13,1.771.131.625.333,1.23.572,1.822.227.561.443,1.211.819,1.691.081.104.221-.013.201-.117-.111-.573-.445-1.132-.655-1.675-.201-.52-.383-1.05-.517-1.591-.131-.534-.22-1.086-.215-1.637.002-.266.029-.531.096-.789.07-.269.205-.509.285-.772.028-.093-.084-.136-.148-.086h0Z"/>
      <path class="cls-1" d="m60.109,56.494c-.869-.446-2.026.268-2.751.714-.45.277-.871.614-1.402.715-.484.092-1.015-.047-1.448-.266-.096-.048-.193.069-.116.15.685.721,1.745.656,2.544.165.975-.599,1.947-1.379,3.143-1.37.056,0,.082-.082.03-.109h0Z"/>
      <path class="cls-1" d="m59.943,50.259c-.088.251-.051.572-.057.835-.007.303-.019.606-.027.908-.008.292-.015.583-.026.874-.005.145-.018.292-.018.437,0,.14-.007.306.041.438.034.094.184.139.236.031.121-.254.096-.595.105-.872.009-.291.017-.583.021-.874s-.002-.583-.006-.875c-.003-.157-.005-.314-.013-.471-.007-.144-.001-.295-.053-.432-.037-.098-.168-.102-.203,0h0Z"/>
      <path class="cls-1" d="m59.934,56.611c-.056.099-.046.219-.05.331-.004.139-.003.279-.006.419-.006.259-.014.519-.027.778s-.026.518-.038.778c-.011.253-.063.563.03.804.03.078.143.109.189.025.121-.222.11-.523.119-.769.009-.269.011-.538.006-.808s-.014-.539-.026-.808c-.006-.139-.01-.28-.022-.419-.01-.112-.005-.236-.068-.331-.025-.038-.084-.043-.108,0h0Z"/>
      <path class="cls-1" d="m60.047,63.385c.156-.151.113-.475.115-.673.003-.22.007-.439.019-.659.014-.266.025-.531.028-.797.002-.136-.004-.271-.005-.407-.001-.146-.03-.289-.039-.435-.01-.156-.266-.215-.292-.039-.041.279-.091.548-.1.831-.009.273-.011.547-.017.82-.005.231-.002.456.016.687.015.201-.018.515.127.673.038.042.107.038.146,0h0Z"/>
      <path class="cls-1" d="m59.824,66.089c.077.045.114.049.11.012-.001-.012,0-.024.005-.036.003-.013.006-.027.011-.039.014-.035.04-.065.071-.085h-.15c.063.041.071.136.072.208.001.124-.02.249-.038.371-.021.149-.042.298-.063.447-.011.075-.004.148-.011.224-.008.081-.019.156,0,.236.018.079.117.075.157.021.052-.07.071-.156.095-.238.012-.041.027-.074.043-.113.018-.044.023-.093.033-.14.035-.177.06-.355.081-.534.03-.257.058-.6-.216-.74-.064-.033-.127-.022-.181.023-.119.1-.273.396-.081.504.071.04.17.008.182-.079.008-.057-.03-.103-.087-.095-.023.003-.035.033-.03.053h0Z"/>
    </g>
  </g>
</svg>