<?xml version="1.0" encoding="UTF-8"?><svg xmlns="http://www.w3.org/2000/svg" viewBox="0 0 300 300"><defs><style>.uuid-a1a097f0-a6c4-4325-b0de-d9d5c508b844{fill:#c3c3c3;}.uuid-67264e16-0230-4d6d-b9ed-9f3e20f3dcb3{fill:#fff;}.uuid-897a6f71-2237-4975-b1ce-294e1a42f02a{fill:#9d9d9d;}.uuid-cc751e0b-87c8-4951-b1f6-f02534c70717{fill:#e0e0e0;}.uuid-463e4b98-69e9-42af-aa11-89296c3987b6{fill:silver;}.uuid-26723739-bcb3-40e1-8f1f-f377df452534{fill:#d3d3d3;}.uuid-9381509f-fdb8-4142-8775-a6e6d63a06f7{fill:#9e9e9e;}.uuid-32497f88-eba6-4500-9217-d2242b57a664{fill:#c2c2c2;}.uuid-c75d57b2-bc07-4ee1-9424-3a54c6e16026{fill:#565656;stroke:#fff;stroke-miterlimit:10;}.uuid-90c43893-6e9a-4e4e-ba85-bbd2d82e4b2c{fill:#bebebe;}.uuid-1f309e73-d4bc-4830-a77b-68ce9eb3b016{fill:#d2d2d2;}.uuid-9ab7448b-ab86-4c3e-bd2d-c4738b542ccb{fill:#f4f4f4;}.uuid-1de05f71-b7bf-4c59-a827-3e7188e7a00a{fill:#ededed;}.uuid-98b80d6c-ea87-4068-b7c6-eca6722d9108{fill:#bfbfbf;}</style></defs><g id="uuid-05ea8b0d-d581-41e5-bf3f-65da2305d934"><path class="uuid-9ab7448b-ab86-4c3e-bd2d-c4738b542ccb" d="M150.5,53.79C61.07,53.79,1,40.01,1,27.15S61.07.5,150.5.5s149.5,13.78,149.5,26.65-60.07,26.65-149.5,26.65Z"/><path class="uuid-67264e16-0230-4d6d-b9ed-9f3e20f3dcb3" d="M150.5,1.5c40.08,0,77.75,2.86,106.06,8.06,31.29,5.75,42.44,12.85,42.44,17.58s-11.15,11.83-42.44,17.58c-28.31,5.2-65.98,8.06-106.06,8.06s-77.75-2.86-106.06-8.06C13.15,38.98,2,31.88,2,27.15S13.15,15.31,44.44,9.56C72.75,4.36,110.42,1.5,150.5,1.5M150.5-.5C67.38-.5,0,11.88,0,27.15s67.38,27.65,150.5,27.65,150.5-12.38,150.5-27.65S233.62-.5,150.5-.5h0Z"/><path class="uuid-67264e16-0230-4d6d-b9ed-9f3e20f3dcb3" d="M150.5-39c39.82,0,77.39,2.99,105.78,8.41,31.11,5.94,42.2,13.16,42.2,17.93V19.45c-8.75-7.04-28.74-11.73-45.44-14.57C225.05.12,188.63-2.5,150.5-2.5S75.95.12,47.96,4.88C31.26,7.72,11.27,12.41,2.52,19.45V-14.04c0-4.7,11.08-11.69,42.17-17.23,27.94-4.98,65.52-7.72,105.81-7.72M150.5-41C67.38-41,.52-29.31.52-14.04V24.85C6.86,10.66,71.59-.5,150.5-.5s143.64,11.16,149.98,25.35V-12.66c0-15.27-66.86-28.34-149.98-28.34h0Z"/><path class="uuid-1de05f71-b7bf-4c59-a827-3e7188e7a00a" d="M150.5-.5c78.91,0,143.64,11.16,149.98,25.35V-12.66c0-15.27-66.86-28.34-149.98-28.34S.52-29.31.52-14.04V24.85C6.86,10.66,71.59-.5,150.5-.5Z"/><ellipse class="uuid-c75d57b2-bc07-4ee1-9424-3a54c6e16026" cx="150.5" cy="25.07" rx="86.67" ry="14.51"/><path class="uuid-67264e16-0230-4d6d-b9ed-9f3e20f3dcb3" d="M213.95,17.75c-17.76-2.46-40.72-3.75-65.57-3.75s-48.11,1.23-65.98,3.75h0v285.25h131.56V17.75Z"/></g><g id="uuid-26cf3353-b99f-4b58-b3aa-b525cc5369a7"><g id="uuid-cf3ef2f5-57c2-4b19-9808-798f83ccd3ab"><path class="uuid-897a6f71-2237-4975-b1ce-294e1a42f02a" d="M123.23,215.56c-.77-3.73-2.44-9.48-2.48-13.15-.07-5.82,1.18-11.61.5-17.8-.64-5.82-5.14-19.2-3.82-24.16.23-.86,1.33-1.75,1.72-2.73,1.11-2.74,2.73-14.98,1.89-17.49-.4-1.2-1.66-1.34-1.77-1.8-.26-1.14.37-3.15-.44-4.28-.11-.15-3.07-1.79-3.25-1.81-.43-.05-3.36.54-3.69.75-1.14.71-4.84,11.66-5.93,13.61-1.15-.45-1-2.96-2.3-3.4-1.61-.54-3.19.41-3.18,2.19.53,1.52,1.43,2.4,1.8,4.16.53,2.49.26,4.85,1.6,7.3.82,1.49,3.18,2.48,3.31,3.85.16,1.64.19,4.55.26,6.43.32,7.82-1.43,14.57-1.5,21.81-.1,10.53,4,23.76,4.93,34.67.39,4.57-.26,8.36.73,13.13,3.37,16.24,15.17,11.99,25.6,19.38,1.65,1.17,2.07,2.12,2.3,4.13.32,2.74-.39,6.75-1.77,9.14-.41.71-1.65,1.33-2.42,3-1.12,2.46-2.83,8.61.77,9.21-.28,3.71.05,7.83,2.43,10.84,4.66,5.88,16.14,5.97,20.94.21,2.5-3,2.99-7.26,2.72-11.05l1.95-1.1c.62-1.72-.42-6.76-1.32-8.46-1.05-1.99-4.24-5.54-4.93-7.93-.75-2.56-.15-6.42,2.19-7.99,9.26-6.2,21.12-4.09,25.11-16.9,1.92-6.16,1.05-13.46,1.78-20.01,1.13-10.21,4.87-22.02,4.38-32.25-.17-3.59-1.31-7.72-1.5-11.37s-.09-11.62.53-14.87c.29-1.52,2.53-2.58,3.33-4.09,1.35-2.53,1.09-5.64,1.7-8.2.29-1.21,2.33-3.1,1.3-4.74-.22-.35-1.96-.65-2.53-.5-1.57.41-1.71,2.64-2.82,3.39-1.01-2.33-4.51-13-6.28-13.75-.54-.23-2.64-.56-3.26-.5-.18.02-2.93,1.73-3.07,1.84-1.36,1.16-.39,2.85-.71,4.15-.12.51-1.18.47-1.42,1.14-.89,2.56.25,15.39,1.62,18.05.56,1.08,1.94,2.08,2.15,2.8.94,3.1-3.94,20.67-4.34,25.66-.46,5.75.28,11.59.48,17.32l-2.45,12.63c1.44-6.96-4.38-15.27-4.49-21.55-.2-11.48,5.29-27.15,5.46-39.12l-.98-13.62v2.48c-.81.57-.97,1.89-.49,3.96l-1.01,1.54.02,14.31-1.07.64c-1.9,9.62-3.63,20.46-3.73,30.14l.85.92c-.59.48-.97,1.04-.69,1.74,2.63,6.1,4.16,12.31,4.6,18.63.79.93.79,2.07.02,3.43l.51,4.43c-1.05,3.54,5.27,4.73,2.45-.05.89-7.15,2.01-14.3,3.36-21.43-2.05-12.04.05-22.51,2.66-34.13l.83-6.18c.37-2.42-.48-3.67-2.26-5.14-.93-1.79-2.43-15.22-1.47-16.14,1.8.02,2.23-1.5,1.27-4.56,1.13,1.25,2.57.47,2.38-1.14.57.99,1.19,1.57,2.36.99l5.53,12.15c1.74,2.32,3.19.63,3.67-1.67.06,4.1-1.32,9.58-4.78,12.08-1.88,9.39-1.4,19.38.2,28.88-.48,9.79-1.84,19.56-4.08,29.32l-1.17,17.65c-.68,6.22-3.88,11.66-10.04,13.71l-10.34,3.6c-4.1,1.84-8.11,3.87-7.9,8.93-4.39-4.29-10.19-3.48-14.23.83.66-5.75-3.76-7.94-8.26-9.93l-11.16-4c-6.23-2.5-8.67-8.67-9.02-15.06.34-10.51-1.56-20.96-3.68-31.33-1.04-10.11-1.02-20.27.06-30.47.32-4.1.02-8-.89-11.69-3.32-2.96-4.94-6.98-4.85-12.08.82,2.31,2.71,3.89,4,.95,1.3-4.21,3.02-8.21,5.16-12.02,1.12.48,2.04.17,2.41-.96,1.5,1.03,2.24,2.66,2.22,4.9.86.53,1.02.66,1.42,1.35.6,1.04-.79,13.95-1.62,15.61-2.54,2.68-3.08,6.18-1.61,10.5l3.56,18.73c-.15,6.13-.27,12.26-.37,18.39,1.45,6.78,2.43,13.56,2.94,20.35.66,2.06,3.6,1.55,2.37-.45,1.07-.88.06-8.36-.34-8.65-.18-.13-.41-.21-.65-.26Z"/><path class="uuid-9381509f-fdb8-4142-8775-a6e6d63a06f7" d="M123.23,211.1c.15,1.33.9,1.22,1.77.23.44-.5,3.48-11.29,3.78-12.9.67-3.58,1.31-7.82-.62-11.1.21-.4.4-.81.53-1.23.49-1.66-2.22-17.81-3.19-19.5-.22-.38-.5-.73-.79-1.06l.65-3.25c-1.61-15.61.26-31.17,2.6-46.59l-.29-1.67c1.4-.64,1.53-1.34.49-2.48,3.64-6.93,5.09-15.61,4.25-23.54-2.31-10.98-2.35-21.67-.12-32.07,2.93-7.64,4.99-15.46,6.18-23.46.28-5.98-.29-7.19-5.16-10.15l.87-1.03c-.72-2.68,4.23-2.24,6.02-1.1,5.09-2.73,6.43,1.19,4.02,11.76l.73,1.34c-1.49-.19-3.09,4.12-1.48,4.7-.39.09-.9.25-.94.56-.19,1.65-.09,6.48.94,7.36-1.53.45-.89,3.32.49,3.71-.54,1.65-.66,3.4-.64,5.12,1.48,9,1.14,17.43.08,26.27l.55,1.29c-.52.54-.87,1.16-1.03,1.89.82,20.2,2.27,40.35,4.34,60.44,2.76,1.32,3.01-1.2,2.17-3.29,1-1.49,1.25-3.3.75-5.44l.18-2.09.9-1.38c.7-15.64,1.9-31.22,3.58-46.73-1.23-7.31-1.78-14.65-1.65-22.01,1.51-9.14,1.95-18.21,1.32-27.22-1.6-3.52-3.47-13.76-1.52-16.91.05-.09,2.06-.22,2.08-.12-2.51,4.36,2,2.81,3.37-.16.63-.19,11.01.14,7,2l-5.77,4.38c-.81,1.06-1.47,2.65.07,3.16-.84,3.26-.42,7.54.39,10.89,1.33,5.46,3.38,12.08,5.22,17.4l1.3,1.42c-.5,2.27-.17,3.67.99,4.21-.24.05-.47.11-.66.23-.51.32-.52,10.7-.33,11.93l.99.71c-1.63.36-1.68,2.68-.49,3.71l-1.07,1.26c-2.01,12.6-.12,23.96,3.69,36.25l1.51,10.94.81,1.07,1.13,13.93.84,1.43c0-.83,0-1.65,0-2.48,0-13.31-2.56-23.42-5.28-36.05-3.61-16.75,1.88-31-.69-46.85-1.04-6.44-4.69-13.53-6.22-20.01-.55-2.34-1.82-9.6-.89-11.5.72-1.48,6.56-4.13,7.06-5.79.88-2.95.03-2.56-1.31-3.41-.49-.31-1.21-1.2-1.3-1.2h-13.57c-.1,0-1.01,1.61-1.02,1.71-.35,2.68-.24,9.62.01,12.43.24,2.6,1.65,4.67,1.95,6.95,1.4,10.66-2.62,23.67-1.95,34.15.25,3.99,2.06,9,2.01,12.83-.02,1.6-.86,3.77-1,5.48-.78,9.92-.87,19.81-1.47,29.73-.39,6.5-1.54,13-1.51,19.54l-1.47-13.62c.83-13.49-2.53-28.01-2.76-41.1-.07-3.86,1.46-8.09,1.75-11.89.79-10.36-2.47-22.88-1.99-33.68.15-3.28,2.08-5.73,2.45-8.45.31-2.22.36-9.17.01-11.32-.27-1.66-1.02-2.56-2.66-2.78-1.94-.26-10.06-.3-11.85.04-.46.09-3.2,1.59-3.26,1.8-1.18,4.71,5.94,5.87,7.18,8.59.47,1.05.39,5.33.27,6.7-.57,6.69-4.71,14.33-6.29,20.93-4.13,17.22,2.21,33.34-1.77,51.22-3.75,16.85-6.95,35.15-5.77,52.64.73,10.93,4.98,24.64,4.96,35.17,0,5.46-3.71,11.8-4.47,17.09Z"/><path class="uuid-26723739-bcb3-40e1-8f1f-f377df452534" d="M124.22,224.47c-.16.09-.98,1.9-1.42.18-.48-1.89-.3-5.61-.62-7.8-.62-4.17-2.04-8.91-2.34-13-.41-5.54.92-11.9.42-17.76-.37-4.3-5.22-23.77-4.19-26,.38-.82,1.72-1.59,2.33-3.12,1.03-2.61,1.93-14.23,1.41-16.92l-1.55-.54-.19-4.21h-1.72c0-.67-.25-2.18-1.25-1.96l-1.25,2.47-.49-1.98c-3.38,3.85-4.97,10.02-6.91,14.86-1.4,1.07-2.06-5.43-4.44-3.71,1.66,3.35.96,8.24,2.59,11.27.81,1.5,3.55,3.1,3.7,4.63.12,1.25.09,3.79.16,5.37.46,11.28-1.85,20.73-.44,32.14.98,7.96,3.28,15.82,3.87,23.85.52,6.99-.75,12.12,2.23,19.06,4.26,9.91,16.53,8.29,24.18,14.37,3.05,2.42,2.14,4.92,2.22,8.42l4.28-3.88c4.73-2.66,9.15-.78,12.01,3.38.04-2.58-.47-5.15,1.46-7.21,3.44-3.65,11.92-5.51,16.44-7.28,12.96-5.05,10.13-19,11.29-30.28.96-9.32,4.26-19.55,4.38-28.8.06-4.5-1.28-9.37-1.5-13.84-.27-5.32.62-10.55.53-15.86.3-1.57,2.88-2.82,3.69-4.71,1.3-3.03,1.3-7.61,2.22-10.9-2.06-.38-2.63,2.09-2.97,3.68l-.99.05-6.66-14.62-.74,1.97-1.73-2.47-1.04,1.02.3,1.95c-.82-.12-1.16-2.67-2.23-1.01-.84,1.31.44,3.49.26,4.97-2.81-1.71-2.06,4.22-1.97,6.18.1,2.17.86,9.55,1.76,11.11.47.81,1.62,1.37,1.93,2.03,1.3,2.83-3.79,22.6-4.18,27.49-.42,5.3.92,10.29.88,14.85-.07,6.33-3.52,15.06-3.38,21.82.03,1.32,1.04,1.54,1.01,2.7-1.11-.3-1.8-1.94-2.46-2.48.8-1.31-3.46-3.72-4.77-4.24-5.14-2.03-8.69-1.48-14.02-.01,1.2-1.11,2.51-2.11,3.99-2.8,10.27-2.43,13.74-5.23,9.51-15.78l-3.8-7.67c1.72,2.14,3.27,2.89,4.65,2.27-.81-6.15,3.14-24.07,3.95-31.7-.21-11.5-.51-23.17-1.18-34.76-.26-4.46-1.66-17.53-4.54-21.08-2.91-3.58-8.78-3.42-8.66,2.12-.69.29-1.17.71-1.44,1.27l-.5-7.67c-1.7-5.54-1.35-10.26,1.04-14.17,4.96-3.66,6.52-5.08,5.8-11.7-2.02-9.5-2.63-19.26-1.83-29.26-1.31-6.82-1.81-13.47-1.52-19.97.19-.5-.16-1.21.47-2.25.87-1.44,8.84-5.59,7.43-7.15-3.1-1.28-6.22-.79-9.52-1.01l-3.3,3.47,1.97-3.46-4.12.07-.74.75c-.28,3.27-.88,6.48-.51,9.78s2.15,6.15,2.43,9.44c.91,10.47-1.94,21.25-1.89,31.22.02,4.88,1.92,10.5,1.92,15.35,0,6-1.97,13.59-2.02,19.82.72,8.91-2.26,20.43-1.49,28.97-.17,4.78.8,9.54,2.9,14.28l.9,3.68c-4.42.5-8.73,2.09-12.93,4.76,1.09-6.19,2.29-12.37,3.58-18.55.98-6.01,1.2-29.66-2.69-33.65-4.99-5.11-6.16,9.01-2.63,10.66,1.72,3.11-2.14,1.91-4.09,1.12-.43-.07-.86-.03-1.25.18-.55.29-5.21,9.43-3.36,10.46-2.02-.94.21-7.27,2.02-8.89l.9-6.55c-.35-3.36-.08-6.64.19-9.96-1.46-1.09-2.5-.26-3.14,2.51-.2,2.87-1.08,5.43-2.63,7.68-.18.83-.32,1.65-.49,2.48l.35,1.16c-3.34,17.49-1.34,35.21,2.56,52.38-2.53,1.47-3.17-.62-3.39-2.86-1.44-1.41-2.33-1.06-2.49.83.85,7.28,2.72,14.5,3.46,21.79,1.82.9,1.91,3.26,2.47,4.95.6.48,2.31-3.76,2.46-1.74-2.8,2.69-1.97,4.77-2.59,7.81-1.24,6.11-4.95,11.91-3.82,18.7,6.88-1.09,15.93-3.2,19.74,4.45-4.42-1.37-9.35-2.68-14.04-1.95-2.75.43-5.71,3.51-8.18,4.92Z"/><path class="uuid-98b80d6c-ea87-4068-b7c6-eca6722d9108" d="M124.22,224.47l1.05.52c6.19-6.21,12.73-5.12,20.66-2.76,1.32-.1,1.34-1.29.7-2.39-4.27-6.44-12.47-5.09-19.01-3.95l-.09-2.83c1.82-6.82,3.53-13.63,5.11-20.42,4.11-3.37-1.14-2.32-4.47-5.32,1.03,10.12-1.03,13.08-3.82,22.2-.26.84.35,1.88-1.12,1.58-.19,1.3.04,3.05,0,4.46-.09,3.02.06,2.22.47,4.73.22,1.34-.5,3.14.52,4.19Z"/><path class="uuid-26723739-bcb3-40e1-8f1f-f377df452534" d="M144.82,295.67c7.68,1.39,15.6-1.45,16.36-10.1.26-2.96-1.56-16.44-2.8-18.86-.34-.68-3.92-4.78-4.57-5.32-2.45-2.05-6.11-2.24-8.84-.5-.66.42-4.64,5.05-5.06,5.82-1.49,2.75-3.19,16.07-2.86,19.41.42,4.18,3.41,8.76,7.76,9.55Z"/><path class="uuid-463e4b98-69e9-42af-aa11-89296c3987b6" d="M173.58,148.2c-.46-6.4-.95-12.83-1.48-19.32-1.22-9.34-2.66-17.01-4.79-26.15-2.08-8.92-.68-14.55-.15-23.38l-2.1-4.71c1.28-5.28,1.82-10.64,1.61-16.09-1.46-7.97-5.25-15.22-6.37-23.08-.31-2.15,0-4.48-.54-6.64-.02.06-.71.23-.87.84-1.24,4.72,1.08,12.9,1.36,18.23.33,6.48-.46,13.39.01,19.8.35,4.75,2.55,10.17,1.98,14.88-.46,3.78-4.82,4.86-6.65,7.69-2.55,3.93-.65,9.72-.27,14.09.3,3.51.47,7.12.5,10.64l2.46-3.96c.36,1.18-1.36,3.71,0,4.45l1.47-8.07c7.92-3.5,9.77,9.33,10.38,14.76,1.2,10.81.88,22.27,1.49,33.17.15,2.72.57,5.96.98,8.67.6-5.62.94-10,.99-15.85Z"/><path class="uuid-32497f88-eba6-4500-9217-d2242b57a664" d="M173.09,223.98c1.84-.88.19-2.92.5-4.67.16-.87,1.12-1.5,1.01-2.48-.03-.27-.92-.22-1.01-.6-.42-1.86-.19-4.78-.73-7.12-.95-4.17-3.64-9.01-4.21-13.35-1.99-.51-2.85-2.58-4.68-3.49-.58-.29-1.13-.63-1.25.28-.21,1.58,6.13,10.58,5.9,15.27-.38,7.57-6.24,6.03-10.99,8.33-2.24,1.09-4.77,3.35-6.26,5.36,4.6-1.08,9.2-2.7,14.04-1.95,1.49.23,6.35,3.36,7.68,4.43Z"/><path class="uuid-90c43893-6e9a-4e4e-ba85-bbd2d82e4b2c" d="M174.08,144.24c-.62-5-1.31-10.27-1.97-15.35l.48,17.1,1,2.22c0-.11.67-.76.51-1.21l-.02-2.75Z"/><path class="uuid-a1a097f0-a6c4-4325-b0de-d9d5c508b844" d="M150.38,133.84c-1.13,1.62-.59,4.45-1,6.1-.1.4-.93.32-.99.67-.22,1.16,1.64,3.97-.47,3.63.02-6.55-1.04-13.05-1.48-19.57-.86-12.91-2.9-29.88-2.47-42.34-2.28-10.72-2.28-21.62,0-32.69-.05-1.26-.49-3.07-.49-3.71v-7.92c0-.99,1.22-3.46,1.48-4.7-1.65-4.89-5.24,1.19-4.45,4.24.77,4.27.49,8.58-.5,12.95-4.45,18.09-5.57,36.97-6.45,55.65l.54,4.02c-.88,2.19-2.49,7.97.7,4.87,1.27,2.23,7.25,3.38,4.73-.02-1.12-3.6-1.53-7.34.03-10.87,1.3-.85,2.4,1.83,2.82,2.81,2.7,6.39,2.33,22.89,1.58,30.09s-3.27,13.58-3.94,20.56c1.31,1.31,11.59-6.71,14.29-4.66l1.01-.56c-.91-5.83-4.42-12.85-4.93-18.55Z"/><path class="uuid-26723739-bcb3-40e1-8f1f-f377df452534" d="M128.17,111.55c2.99-.96,3.06-4.83,3.25-7.48l1.68-2.92c.24,1.78-.52,3.44-.53,5.2-.01,3.22.61,6.74-.25,10.2-.37,1.5-1.69,2.34-2.21,3.63-.9,2.21-2.39,10.17,2.01,6.96-2.34-3.81,1.77-6.33,2.49-10.13l5.91.98c.77-1.61-.94-2.81-.99-2.97-.17.61,1.2,1.58-.23,1.47-2.74-.21-3.32-1.19-4.46-3.44-.72,0-1.48,3.95-1.71,1.75.21-1.55,1.82-3.05,1.95-4.53.12-1.28-.59-2.82-.53-4.42.46-12.07,1.55-25.98,3.06-38.07.97-7.74,4.06-17.5,4.38-24.84.15-3.57-1.92-7.83,1.24-10.63l1.72.99c.84-3.94,1.55-8.59,1.01-12.65-.37-2.8-4.5-3.18-5.7-1.22-1.59-1.82-4.48-.71-6.67-.98l.25,1.48-1.73-1.48,1.23,3.47-3.2-2.48c-1.62,1.93,6.39,5.63,7.14,7.44,1.78,13.79-6.81,24.54-7.66,38.35-.64,10.35,2.38,19.98,2.02,29.76-.21,5.62-2.29,11.07-3.48,16.57Z"/><path class="uuid-cc751e0b-87c8-4951-b1f6-f02534c70717" d="M124.71,165.54l1.48-.99c.38,3.75,1.6,5.72,5.47,3.66-.46-3.2-1.46-6.23-1.94-9.43-1.06-7.12-2.43-17.13-2.53-24.2-.08-5.94,1.04-12.48,1.36-18.48.05-.96.33-1.68-.88-2.07-3.54,17.04-5,34.15-2.96,51.51Z"/><path class="uuid-26723739-bcb3-40e1-8f1f-f377df452534" d="M143.96,49.65c-1.41,1.79-1.66,4.98-1.91,7.24-.81,7.22-1.68,16.24.46,23.19.28.91.43,1.85,1.46,2.26.15-4.36,1.51-8.53,1.51-12.63,0-6.13-1.25-13.51-1.51-20.06Z"/><path class="uuid-1f309e73-d4bc-4830-a77b-68ce9eb3b016" d="M167.16,79.36c.07-1.17.49-3.12.49-3.71v-12.88c0-.63-.8-3.2-.99-4.21-1.19,2.42-.67,5.63-1.05,8.11-.67,4.35-3.87,9.82,1.54,12.69Z"/><path class="uuid-897a6f71-2237-4975-b1ce-294e1a42f02a" d="M135.69,282.94s2.1-1.05,8.39,2.1l8.39,4.2s1.05-4.2,3.15-5.25,6.96-2.84,6.96-2.84c0,0,.38,7.04-.67,9.14s-5.2,6.63-12.57,6.63-13.66-2.43-13.66-13.97Z"/></g></g></svg>