<?xml version="1.0" encoding="UTF-8"?>
<svg id="Layer_1" xmlns="http://www.w3.org/2000/svg" version="1.1" viewBox="0 0 120 120">
  <!-- Generator: Adobe Illustrator 29.5.1, SVG Export Plug-In . SVG Version: 2.1.0 Build 141)  -->
  <defs>
    <style>
      .st0 {
        fill: #ede9c8;
      }

      .st1, .st2 {
        fill: #fff;
      }

      .st2 {
        stroke: #000;
        stroke-miterlimit: 10;
        stroke-width: .2px;
      }
    </style>
  </defs>
  <g id="Layer_11">
    <path class="st0" d="M118.1,32.7v.4c0,1.5-1.4,3.1-3.6,4.5-3.6,2.3-9.7,4.2-16.6,5.7-4.2.8-8.8,1.5-13.6,2.1l-.4-2.7c3.2-.5,6.1-1.2,8.5-2,2.7-.9,4.8-1.9,6.1-3,1.7-1.5,1.6-3,0-4.5-.4-.3-.9-.7-1.4-1-3.3-1.9-9.4-3.6-17.6-4.6h0c-.4,0-.9-.1-1.4-.2-5.4-.6-11.4-1-17.9-1s-12.6.4-18,1c-.5,0-1.1.1-1.6.2-2.7.3-5.2.8-7.4,1.2-5.6,1.2-9.5,2.7-11.4,4.4-.3.3-.6.6-.8.8-.9,1.2-.6,2.5.7,3.7,1.9,1.7,5.6,3.1,10.4,4.2,1.3.3,2.7.6,4.2.8l-.4,2.7c-7.4-.8-14.4-2-20-3.6-4.2-1.2-7.8-2.5-10.2-4.2-2.3-1.5-3.5-3-3.6-4.5v-.3c0-1.2.7-2.4,2-3.6,3.7-3.2,12.2-6.1,24.9-8,9-1.4,19.7-2.1,31.2-2.1,17.2,0,32.3,1.7,42.8,4.5,9.5,2.4,14.6,5.5,15.2,8.6v.5h0Z"/>
    <path class="st0" d="M118.1.2v30.5-.5c-.6-3.1-5.8-6.2-15.2-8.6-10.5-2.7-25.5-4.4-42.8-4.4s-22.2.8-31.2,2.1c-12.7,1.9-21.2,4.8-24.9,8-1.4,1.2-2,2.4-2,3.6V.2h116.1Z"/>
    <path class="st0" d="M95.2,37.6c-1.8,1.8-6.1,3.3-11.5,4.4l-.2-1c3.6-.9,6.2-2,7.4-3.3,1.4-1.6.4-3.1-2.5-4.5-.8-.4-1.8-.8-3-1.1-.3,0-.6-.2-1-.3-1-.3-2.1-.5-3.2-.8-.6-.1-1.3-.2-2-.4-5.3-.9-11.9-1.5-19.2-1.5s-14.2.6-19.5,1.5c-.6.1-1.1.2-1.7.3-.4,0-.8.2-1.1.2s-.5.1-.8.2c-.3,0-.7.2-1,.2s-.5.1-.7.2c-.2,0-.4.1-.6.2-1.2.4-2.2.7-3,1.1-3,1.4-3.9,3-2.5,4.5,1.2,1.3,3.8,2.5,7.4,3.3l-.2,1c-5.4-1.1-9.7-2.6-11.5-4.4-1.5-1.5-1.1-3.1.9-4.5.7-.5,1.7-1,2.8-1.5.2-.1.5-.2.7-.3,1-.4,2.1-.7,3.3-1,.6-.2,1.2-.3,1.9-.5,1.3-.3,2.8-.6,4.4-.8.5,0,1.1-.2,1.7-.3,5.4-.8,12-1.2,19.5-1.2s13.9.4,19.3,1.2c.7,0,1.3.2,1.9.3h0c.4,0,.7.1,1.1.2.4,0,.7.1,1.1.2.3,0,.6.1.8.2.3,0,.6.1.9.2,1.1.2,2.2.5,3.2.8.2,0,.3,0,.5.1.2,0,.4.1.6.2.5.1.9.3,1.3.5.2,0,.4.1.6.2.3.1.6.2.8.3.2,0,.4.2.6.2.6.3,1.2.6,1.6.9,2,1.4,2.4,3,.9,4.5h0v.3Z"/>
    <path class="st0" d="M118.1,32.7v.4h-19.7c-.4-.3-.9-.7-1.4-1-3-1.8-8.4-3.3-15.7-4.4-.6,0-1.2-.2-1.9-.2h0c-.4,0-.9-.1-1.4-.2-5.4-.6-11.4-1-17.9-1s-12.6.4-18,1c-.5,0-1.1.1-1.6.2-.6,0-1.1.1-1.7.2-2.1.3-4,.6-5.8,1-5.6,1.2-9.5,2.7-11.4,4.4H1.9v-.3c0-1.2.7-2.4,2.1-3.6,3.7-3.2,12.2-6.1,24.9-8,9-1.4,19.7-2.1,31.2-2.1,17.2,0,32.3,1.7,42.8,4.5,9.5,2.4,14.6,5.5,15.2,8.6,0,.2,0,.3,0,.5Z"/>
    <path class="st0" d="M80.5,32.5v87.7h-41.1V32.5c.5,0,1.1-.2,1.6-.3,5.1-.9,11.7-1.5,18.9-1.5s13.6.5,18.7,1.4c.7,0,1.3.2,1.9.4h0Z"/>
  </g>
  <g id="BodyPosition">
    <g id="Side">
      <g>
        <path class="st1" d="M63,34.2h1.8v.2h.5l-.4.3h.5l-1.1.7,1.8-.5h0v.2h0c0,0-.5,0-.5,0h-.6c-.2,0-.4.2-.5.2-.2.1-.4.3-.7.3-.6.2-1.6.6-2.4,1-.7.4-1.5,1.3-1.8,2.1-.9,1.5-.3,6.7.2,9.6,0,.6.2,1.4.3,2.3.2,1.8.4,3.8.8,5.2.1.3.2.5.2.7.3.8.5,1.4.5,2.8s.2,1.3.5,2.4c.7,2.7,1.9,7.2,1.7,12.6.2.6.2,1.5.2,2.4,0,2,.2,4.5.7,6.6.5,2.2.9,6.6.9,8.7,0,4.2-1.6,6.1-3,7.7-.7.8-1.4,1.5-1.6,2.4,0,.3.1.9.4,1.9,0,.4.3.8.3,1v.3l.5-.2c.3-.1.7-.2,1.1-.2.8,0,1,1.4,1.1,2.2,0,.2,0,.5,0,.6v.2h0c.5.2.5.3.5.5s-.2.5-.4.8c-.3.5-.5.8-.5,1v.3c0,.5-.2,1.5-.5,2.1-.6,1.3-1.8,2-3.7,2.1,0,0,1.8,0-.3,0s-3.7-1.4-3.9-3.4c-.2-1.8.6-2.7,1.2-3.4.2-.3.4-.5.5-.7.7-1.8-.4-3.7-1.2-4.7-1-1.3-3-4.7-1.8-9.5.3-1.2.6-2.4.9-3.6.9-3.4,1.4-5.5,1.3-6.2-.2-1.1-.5-2-.9-2.9-.9-2.3-1.7-4.2.4-7.4h0c.2-1.8.2-6.5.2-10.7v-4.9c0-1.3-.2-2.7-.5-4.1-.2-1.1-.4-2.2-.5-3.3-.1-1.4,0-3.1.3-4.9.3-2.3.6-4.9.3-7.3-.3-1.3-.4-2.4-.3-2.9,0-.7.6-.8,1.1-.8h1.6c.6,0,1.2,0,1.9-.2h.3c.6,0,1.4-.2,2.2-.2v.5Z"/>
        <path d="M60,114.4c-1.9,0-3.4-1.3-3.6-3.2-.2-1.7.5-2.5,1.1-3.2.2-.2.3-.5.5-.7h0c.8-1.8-.4-3.8-1.2-4.9-.9-1.2-2.9-4.6-1.7-9.3.3-1.2.6-2.4.9-3.6.9-3.5,1.4-5.5,1.3-6.3-.2-1.1-.5-2-.9-2.9-.9-2.1-1.6-4,.4-7.1v-.2h0c.2-1.8.2-6.4.2-10.8v-4.9c0-1.3-.2-2.7-.5-4.1-.2-1.1-.4-2.2-.5-3.3-.1-1.3,0-3,.3-4.8.2-2.3.5-5,.2-7.4-.3-1.3-.3-2.3-.3-2.8.1-.4.4-.6.9-.6h1.5c.6,0,1.2,0,1.9-.2h.3c.7,0,1.4-.2,2.2-.2h1.5v.3h0l-.3.4-1.3.8c-.5.2-1.1.4-1.6.7-.8.5-1.6,1.5-1.9,2.2-.8,1.6-.4,6.2.2,9.8,0,.6.3,1.4.3,2.3.2,1.8.4,3.8.8,5.3.1.3.2.5.2.7.3.7.5,1.3.5,2.7,0,.5.3,1.4.6,2.5.7,2.7,1.9,7.2,1.7,12.6h0c.2.6.2,1.5.2,2.4.1,2,.2,4.5.7,6.6.4,2.2.8,6.6.8,8.7,0,4.2-1.6,6.1-2.9,7.6-.7.8-1.3,1.6-1.6,2.5,0,.4,0,.9.4,2,.1.3.3.7.4.9v.6l.6-.3h.2c.3-.1.6-.2,1-.2h0c.5,0,.8,1.4.8,2,0,.3,0,.5,0,.7v.3h.2l.4.2h0c0,.2-.2.5-.4.8-.3.5-.5.8-.5,1.1v.3c0,.5-.2,1.6-.5,2.1-.6,1.2-1.7,1.9-3.5,2h-.3M59.7,114.9h.3c1.8-.2,3.2-.8,3.9-2.3.3-.8.5-2.2.5-2.5,0-.3.8-1.4.9-1.8.1-.3,0-.6-.7-.8-.1-.6-.1-3-1.3-3h0c-.6,0-1,.2-1.3.3-.1-.6-.8-2.3-.7-2.7.7-2.4,4.6-3.7,4.6-10.2,0-2.1-.4-6.5-.9-8.8-.6-3.1-.6-7-.8-9,.3-7.6-2.3-13.4-2.3-15.1-.1-1.8-.4-2.3-.7-3.5-.6-2.1-.8-5.6-1.1-7.5-.3-2.6-1.1-8-.2-9.5.3-.7,1-1.6,1.7-2,1.2-.6,2.6-1,3.1-1.2.2,0,.4-.2.5-.2h.9c.3,0,.5-.4.3-.6,0-.2-.2-.4-.4-.4h0c0-.2-.2-.2-.4-.2h0c0-.1,0-.3-.4-.3h-.2c0-.3-.3-.3-.6-.3h-.5c-.3,0,0,0-.9,0s-1.9.2-2.6.3c-.7.2-1.3.2-1.8.2h-1.6c-.4,0-1.1,0-1.3,1-.1.7,0,2,.3,3,.6,4.2-.8,9.1-.5,12.2.3,2.6,1.1,5,1.1,7.3-.1,4.7.2,13.1-.2,15.6-3,4.6-.2,6.8.4,10.4.2,1-1.1,5.4-2.2,9.7-1,4.2.3,7.6,1.8,9.7.7.9,1.9,2.8,1.2,4.4-.6.9-2,1.7-1.8,4.2.2,2.3,2,3.7,4.1,3.7h0Z"/>
      </g>
      <g>
        <path class="st1" d="M59.2,108.1h.2c0,0,0,0,0,0h0c-.1,0-.2-.2-.9.5s-.5.9-.2,1.2c.2.2.6.3.8,0h.2v.2c-.3.3-.8.2-1.1,0s-.4-.9.2-1.5.7-.7.9-.7v.2Z"/>
        <path d="M58.7,110.2h0c.1,0,.3-.1.4-.2v-.2h0q0,0-.3,0c-.2,0-.4-.1-.5-.2-.3-.2-.3-.7.2-1.2s.7-.6.8-.6h0q0,0-.2,0c-.2,0-.4.2-.9.7-.6.6-.5,1.2-.2,1.5,0,.3.4.3.6.3h0Z"/>
      </g>
      <path class="st2" d="M59.2,67.2h0c0,0,.3.1.5.3.3.3.8,1.2.8,2.3v3h0c0,1.4.2,2.7.2,3.9,0,2.2.3,4.4,0,7.9,0,2.3.1,4.2.2,5.8,0,.8,0,1.5,0,2v4c0,0,0,0,0,0,0,0,0,0,0,0v-4c0-.5,0-1.2,0-2-.2-1.5-.3-3.5-.2-5.8.2-3.5,0-5.7,0-7.9-.1-1.2-.2-2.5-.2-3.9,0-.6,0-1.3,0-2v-1c0-1-.5-1.8-.7-2.1-.2-.2-.3-.2-.4-.2-.2,0-.2.2-.2.2h0v.7c0,.7-.2,1.3-.2,1.6v.2c-.3.6-.7,1.8-.3,2.8h0c.3,1.4.3,3.6-.2,6.9-.1.5-.2.9-.2,1.2-.2,1-.2,1.6-.2,2.5v1.9h0c0,.6-.5,4.9-.9,7.6,0,.9-.2,1.7-.5,2.3h0c.2-.6.4-1.5.5-2.3.4-2.7.9-7,.9-7.7h0v-1.8c0-.9,0-1.6.2-2.5.1-.4.2-.8.2-1.2.4-3.2.5-5.4.2-6.8-.5-1.1,0-2.3.3-3v-.2c0-.2.2-.8,0-1.5,0-.3,0-.7,0-.9.1,0,.2,0,.2,0,0-.2.2-.2.3-.2h0Z"/>
      <path d="M62.7,99.1h0c-.1,0-.2,0-.2,0-.1,0-.2,0-.2,0-.1,0-.3.3-.4.3-.1.1-.3.2-.4.2-.1,0-.2,0-.2,0h-.2c0,0,0,.3,0,.3h.3c0,0,.3,0,.3,0,0-.1.3-.2.3-.2.2-.2.3-.3.5-.4,0-.1,0-.2.2-.2s.2-.2.2-.2h-.2Z"/>
      <path d="M65.6,91.8h0c0-.5-1-.4-1.3-.4-.7,0-1.2.4-1.7.8-.4.3-.7.7-1,1.1-.3.4-.5.8-.5,1.3,0,0,.2,0,.2,0,.2-.3.3-.7.5-1,.2-.4.5-.7.8-1s.5-.3.7-.5c.2-.1.4-.4.7-.4.3-.2.5-.2.8-.2s.7-.1.8,0h0v.2Z"/>
      <path d="M65.4,90.4h0c-.2,0-.5-.2-.7-.2-.2-.1-.4-.3-.6-.4-.2-.1-.4-.3-.6-.4,0-.2-.2-.2-.3-.2h-.3v.2c.2,0,.5.2.7.3s.4.3.6.4.5.3.7.3c.2,0,.5.2.6,0h0Z"/>
      <path d="M65.3,87.7h0c0-.4-.5-.4-.7-.4h-.8c0,0-.3,0-.3,0h0c.2,0,.3,0,.4,0h1.3v.2Z"/>
      <path d="M65.1,84h0c0-.2-.2-.2-.3-.2-.2,0-.4,0-.5,0-.2.1-.3.3-.5.3,0,0-.2.2-.2.2l-.2.2h0c.1,0,.2,0,.2,0,.1,0,.2,0,.2,0,.1,0,.3-.2.4-.2,0-.2.3-.2.4-.2h.5Z"/>
      <path d="M62.7,83.5h0v-1.3c0-.5.1-1,.2-1.4.1-.4.3-.8.4-1.2s.4-.8.5-1.2c.1,0,0,0,0,0-.3.3-.5.7-.7,1.1s-.4.8-.4,1.3c-.2.9-.3,1.9,0,2.7h0Z"/>
      <path d="M62.2,105.1h-.4c-.1.1-.3.2-.4.2-.3.2-.5.3-.7.5-.2.2-.3.4-.5.6s-.4.4-.4.7h.2c.2,0,.3-.3.5-.5,0-.2.3-.3.5-.5.2-.1.4-.3.6-.4,0-.1.2-.2.3-.2.1,0,.2-.2.2-.3h0c0,0,.1,0,.1,0Z"/>
    </g>
  </g>
</svg>