<?xml version="1.0" encoding="UTF-8"?>
<svg xmlns="http://www.w3.org/2000/svg" viewBox="0 0 120 120">
  <defs>
    <style>
      .cls-1, .cls-2, .cls-3 {
        stroke-width: 0px;
      }

      .cls-2 {
        fill: #fff;
      }

      .cls-3 {
        fill: #ede9c8;
      }
    </style>
  </defs>
  <g id="Layer_1" data-name="Layer 1">
    <path class="cls-3" d="m118.07,32.65v.43c-.13,1.53-1.36,3.06-3.63,4.51-3.64,2.34-9.65,4.25-16.64,5.67-4.15.84-8.75,1.54-13.58,2.06l-.41-2.69c3.21-.55,6.12-1.22,8.53-2,2.72-.87,4.84-1.89,6.11-3.04,1.67-1.51,1.62-3.05-.05-4.51-.39-.35-.88-.69-1.45-1.02-3.28-1.92-9.38-3.59-17.62-4.64-.02,0-.04-.01-.06-.01-.45-.06-.91-.11-1.37-.16-5.37-.63-11.42-.98-17.9-.98-6.55,0-12.61.35-17.96.98-.54.06-1.08.13-1.6.2-2.69.34-5.17.76-7.42,1.25-5.63,1.2-9.53,2.72-11.4,4.38-.32.27-.58.56-.78.84-.86,1.21-.64,2.45.71,3.67,1.87,1.69,5.63,3.11,10.41,4.2,1.33.31,2.74.59,4.23.84l-.41,2.69c-7.43-.81-14.35-2.02-19.97-3.58-4.2-1.16-7.77-2.55-10.25-4.15-2.27-1.45-3.5-2.98-3.63-4.51-.01-.1-.01-.19-.01-.28,0-1.21.68-2.42,2.05-3.61,3.68-3.19,12.17-6.08,24.85-8,9.02-1.36,19.69-2.14,31.18-2.14,17.24,0,32.28,1.73,42.77,4.45,9.46,2.44,14.6,5.51,15.24,8.65.04.17.06.33.06.5Z"/>
    <path class="cls-3" d="m118.072.159v30.453c0-.17-.02-.33-.06-.5-.64-3.14-5.78-6.21-15.24-8.65-10.49-2.72-25.53-4.45-42.77-4.45-11.49,0-22.16.78-31.18,2.14-12.68,1.92-21.17,4.81-24.85,8-1.37,1.19-2.05,2.4-2.05,3.61V.159h116.15Z"/>
    <path class="cls-3" d="m95.207,37.59c-1.82,1.8-6.09,3.3-11.5,4.37l-.16-1.02c3.55-.9,6.22-2.03,7.39-3.35,1.38-1.56.45-3.13-2.5-4.51-.84-.4-1.85-.78-3.01-1.14-.31-.1-.64-.19-.97-.28-.99-.28-2.08-.54-3.25-.78-.63-.13-1.28-.25-1.96-.37-5.26-.92-11.88-1.48-19.25-1.48-7.5,0-14.23.58-19.54,1.53-.57.1-1.13.21-1.67.32-.39.08-.77.16-1.14.25-.27.06-.54.12-.8.18-.33.08-.65.17-.96.25-.23.06-.46.12-.68.19-.22.06-.43.12-.64.19-1.16.36-2.17.74-3.01,1.14-2.95,1.38-3.88,2.95-2.5,4.51,1.17,1.32,3.84,2.45,7.39,3.35l-.16,1.02c-5.41-1.07-9.68-2.57-11.5-4.37-1.55-1.54-1.15-3.1.89-4.51.73-.51,1.68-1,2.83-1.46.23-.1.46-.19.71-.28.97-.36,2.08-.71,3.3-1.03.6-.16,1.22-.32,1.87-.47,1.35-.3,2.82-.58,4.4-.84.54-.09,1.09-.18,1.66-.26,5.44-.78,12.05-1.24,19.55-1.24,7.37,0,13.87.44,19.26,1.2.67.09,1.32.19,1.95.29.03,0,.05.01.08.01.36.06.72.12,1.07.19.37.06.74.13,1.1.2.29.05.57.11.84.17.31.06.6.12.89.19,1.14.25,2.2.51,3.18.8.17.04.33.09.49.15.2.05.4.11.59.18.47.15.91.3,1.33.46.2.07.39.14.57.22.28.11.55.22.8.34.19.08.38.17.56.25.62.31,1.16.61,1.61.93,2.04,1.42,2.44,2.97.89,4.51Z"/>
    <path class="cls-3" d="m118.072,32.65v.43h-19.67c-.39-.35-.88-.69-1.45-1.02-3.02-1.77-8.45-3.33-15.74-4.39-.61-.08-1.24-.17-1.88-.25-.02,0-.04-.01-.06-.01-.45-.06-.91-.11-1.37-.16-5.37-.63-11.42-.98-17.9-.98-6.55,0-12.61.35-17.96.98-.54.06-1.08.13-1.6.2-.56.07-1.11.14-1.65.22-2.06.3-3.99.64-5.77,1.03-5.63,1.2-9.53,2.72-11.4,4.38H1.922v-.28c0-1.21.68-2.42,2.05-3.61,3.68-3.19,12.17-6.08,24.85-8,9.02-1.36,19.69-2.14,31.18-2.14,17.24,0,32.28,1.73,42.77,4.45,9.46,2.44,14.6,5.51,15.24,8.65.04.17.06.33.06.5Z"/>
    <path class="cls-3" d="m80.555,32.54v87.688h-41.111V32.54c.523-.107,1.066-.213,1.619-.31,5.146-.921,11.668-1.483,18.937-1.483,7.143,0,13.558.543,18.656,1.434.659.116,1.289.233,1.9.359Z"/>
  </g>
  <g id="BodyPosition">
    <g id="Back">
      <path class="cls-2" d="m71.88,75.98c.11.41.19.73.18,1.02-.06.9-.24,1.74-.5,2.26l-.12.27c-.18.36-.3.61-.54.81-.15.12-.23.13-.27.13-.08,0-.13-.12-.13-.22v-.06l-.05-.06c-.02-.04-.07-.09-.13-.14-.06-.06-.13-.13-.14-.19-.08-.21.03-.52.32-.88l.05-.09c.03-.15.05-.42.05-.71,0-.17,0-.35-.02-.52.05-.7,0-1.06-.21-1.46-.37-.69-.24-1.32-.02-2.28l.08-.4c-.06-1.56-.41-2.57-.7-3.45-.18-.52-.35-1.02-.43-1.57-.06-.37-.17-.88-.28-1.43-.19-.93-.39-1.97-.45-2.63-.01-.21-.07-.52-.13-.96-.12-.92-.32-2.3-.48-4.2.35-.84.64-1.71.87-2.58.21-.81.51-1.85.34-2.69-.01-.07-.13-.09-.16-.02-.39.77-.49,1.73-.74,2.56-.13.42-.27.84-.43,1.26v.01c-.19.51-.39,1.02-.6,1.52-.38.9-.8,1.77-1.23,2.64-.4.84-.9,1.68-1.16,2.57-.05.16.18.32.3.17.6-.74,1.04-1.64,1.47-2.49.1-.2.21-.4.3-.61-.08.44-.41,4.2-.37,4.06.02.97.14,2.04.38,3.24.7,3.44.7,10.32-.39,15.1l-.25,1.08c-.39,1.68-.74,3.27-.84,4.85-.07,1.43-.01,2.53.07,3.61.09,1.24.16,2.4-.02,3.9-.13,1.09-.46,2.58-.81,4.16-.56,2.5-1.13,5.09-1.04,6.61.1.73.1,1.02.09,1.24-.01.15-.01.28.02.48.12.59.29.83.49,1.13.11.15.21.31.35.55.22.42.5.85.57.94.14.2.25,1.31.23,1.55-.14.18-2.8.25-3.2.27-.32,0-.51-.14-.63-.45-.07-.22-.08-.33-.11-.42-.02-.16-.04-.26-.2-.54-.22-.44-.2-.81-.16-1.14.02-.17.03-.33.01-.47-.01-.08.04-.39.09-.68.11-.51.18-.95.17-1.2-.06-.45-.05-.63,0-1.1l.03-.51c.03-.38.23-3.87-.3-10.38-.06-.65-.02-1.28.03-2.02.11-1.23.22-2.76-.07-5.32-.05-.92.02-1.55.12-2.43.05-.5-.12-.97-.07-1.71.05-.68-.39-2.55-.47-4.48,0,0-.03-4.33.04-6.1l-.08-.71c.99.17,1.97.34,2.96-.02.81-.3,1.64-.9,1.8-1.8.05-.25-.25-.37-.4-.17-.61.79-1.29,1.33-2.31,1.45-.97.1-1.85-.26-2.8-.3-.94-.04-1.76.56-2.7.48-.94-.07-1.74-.66-2.6-1-.1-.04-.15.1-.09.16.64.78,1.59,1.36,2.6,1.49.5.07.97-.01,1.44-.14.31-.08.6-.16.89-.19l-.12.68c.07,1.78.15,3.68.04,6.13-.08,1.88-.54,3.65-.49,4.35.06.74-.05,1.38.01,1.9.1.87.16,1.5.11,2.39-.29,2.59-.18,4.12-.07,5.35.05.72.09,1.35.05,2.01-.55,6.5-.35,10-.32,10.38l.03.51c.05.47.06.65,0,1.1-.01.27.07.76.17,1.2.05.28.12.6.09.68-.01.14-.01.3.01.47.04.32.04,1.01.05,1.36.01.35.11.76.04.98-.02.38-.58.3-.91.34-.33.03-1.31-.08-1.58-.11-.26-.03-.67-.08-1.02-.16-.35-.07-.91-.23-.95-.26,0-.19,0-.68.16-1.14.16-.47.49-.8.71-1.22.14-.23.23-.39.35-.55.2-.3.37-.54.49-1.13.05-.21.03-.33.02-.49-.01-.22-.01-.51.1-1.25.08-1.51-.49-4.09-1.05-6.59l-.01-.07c-.35-1.55-.67-3.02-.8-4.09-.18-1.49-.11-2.66-.01-3.91.07-1.07.14-2.17.06-3.6-.1-1.58-.45-3.17-.84-4.86l-.25-1.07c-1.08-4.78-1.08-11.66-.39-15.1.17-.83.28-1.59.33-2.31.03-.45.05-1.51.02-2.01-.03-.73-.08-1.46-.2-2.16.43,1.07.94,2.1,1.59,3.05.1.14.36.06.29-.12-.72-1.98-1.59-3.9-2.22-5.92-.06-.21-.12-.41-.18-.62-.19-.65-.36-1.3-.51-1.95-.04-.15-.08-.3-.11-.45-.22-.96-.29-2.02-.71-2.92-.01-.02-.04-.01-.05.01-.19.92.03,1.93.19,2.84.15.87.34,1.73.56,2.57,0,.04-.01.07-.01.11-.16,2.04-.37,3.49-.5,4.46-.06.42-.12.74-.13.94-.05.66-.26,1.71-.45,2.63-.11.55-.22,1.06-.27,1.43-.08.55-.26,1.05-.44,1.57-.29.88-.64,1.89-.7,3.45v.04l.08.36c.22.96.35,1.59-.02,2.28-.19.36-.27.68-.21,1.44-.02.22-.04.94.03,1.25l.05.09c.3.36.4.67.32.88-.01.06-.08.12-.14.19-.05.05-.11.1-.13.14l-.05.06v.06c0,.1-.04.22-.13.22-.04,0-.12-.01-.27-.13-.24-.2-.36-.46-.54-.81l-.12-.28c-.26-.5-.44-1.35-.5-2.25-.01-.28.07-.61.19-1.02.14-.54.32-1.22.42-2.23.05-1.04-.12-2.11-.31-3.27-.25-1.56-.54-3.32-.3-5.41.04-.38.12-.9.21-1.39.04-.2.16-.61.29-1.01.13-.46.25-.85.27-1.03.24-1.88.27-3.27.29-4.29,0-.32,0-.6.01-.83.01-.13-.02-.56-.09-1.25-.06-.56-.12-1.24-.12-1.39.05-1.5.37-3.61.88-4.73.56-1.24,1.2-1.43,2.5-1.82.33-.1.71-.22,1.13-.36,2.37-.81,4.58-1.58,4.81-3.86l.01-.11-.01-.01c.02-.06.04-.12.05-.18.05-.21.09-.42.11-.63.05-.39.08-.84-.05-1.22-.03-.1-.18-.12-.21,0-.07.38-.05.78-.11,1.17-.03.18-.05.35-.09.52-.44-.5-.81-1.14-1.07-1.87v-.01c.03-.02.04-.04.05-.06.04-.08.08-.16.11-.24.02-.04.03-.08.04-.12.01-.02.02-.04.02-.06.01-.04.01-.07,0-.1,0-.03-.01-.06-.01-.09-.02-.07-.12-.12-.19-.07-.02.01-.03.03-.05.04-.01.01-.02.02-.03.02-.02.01-.04.03-.05.05-.01.01-.01.03-.02.05-.02.04-.04.08-.05.12-.02.06-.04.13-.06.19,0,0,0,.01-.01.03-.14-.16-.37-.44-.5-.6-.44-.52-.31-.95-.24-1.11.07-.15.19-.27.32-.32l.17-.07v-.03c.01,0,.02.01.03.01.01,0,.02.01.02.01.02.01.03.02.05.02.06.04.14.08.21.08.01.01.03.01.04.01h.03c.06-.01.13-.07.11-.15-.01-.02-.02-.04-.03-.06-.01-.02-.02-.04-.04-.06-.02-.02-.05-.04-.07-.06-.05-.03-.09-.05-.14-.07-.07-.03-.14-.05-.21-.06-.02-1.3.38-2.49,1.07-3.29.66-.75,1.57-1.15,2.67-1.16h.02c1.1.01,2.01.41,2.67,1.16.67.77,1.06,1.93,1.07,3.19h-.05c-.04,0-.07.01-.11.01-.04.01-.08.03-.12.04-.07.04-.14.09-.16.15l-.01.01v.01c-.02.01-.02.03-.03.05-.04.08-.04.18.03.24.06.06.14.07.22.03.01.01.01,0,.02,0l.01-.01h.01c.01.01.01,0,.02,0,.03-.01.06-.02.08-.04.02,0,.03-.01.04-.01.02-.01.03-.02.05-.02v.01l.17.06c.13.05.25.17.32.32.07.16.2.59-.24,1.11-.14.17-.35.44-.49.59-.01-.03-.03-.07-.04-.1-.01-.03-.02-.06-.03-.09-.01-.03-.02-.08-.05-.11-.01-.02-.02-.02-.02-.03h.01s-.01-.01-.01-.02-.01-.02-.02-.03c-.01-.03-.02-.05-.04-.07-.01-.01-.02-.02-.03-.02-.01-.01-.02-.01-.02-.02-.08-.07-.21-.05-.23.06,0,0-.01.02-.02.05-.01.04-.01.08,0,.12,0,.01,0,.02.01.04,0,.07.03.14.05.2s.05.12.08.18c.02.04.04.09.06.13,0,.01.01.01.02.02-.26.71-.63,1.34-1.07,1.84-.03-.18-.05-.35-.07-.53-.03-.22-.04-.44-.05-.66-.01-.08.02-.46-.14-.43,0,0-.01,0-.01.01-.03,0-.06.03-.07.06-.11.39-.08.83-.03,1.22.02.21.06.42.11.62v.01l-.02.03v.11c.23,2.28,2.45,3.05,4.81,3.86.42.14.8.26,1.13.36,1.3.39,1.94.58,2.5,1.82.51,1.13.83,3.24.88,4.73.01.14-.06.83-.12,1.37-.07.71-.1,1.14-.09,1.27.01.23.01.51.01.83.02,1.02.05,2.41.3,4.29.01.18.14.57.26,1.03.13.4.25.81.29,1.01.08.44.17,1,.21,1.39.24,2.09-.05,3.85-.3,5.41-.19,1.14-.36,2.22-.31,3.28.1,1.01.28,1.68.43,2.22Z"/>
      <path class="cls-1" d="m59.69,46.903c-.045,1.318.056,2.66.09,3.979.033,1.286.077,2.572.106,3.859.057,2.611-.07,5.24.127,7.844.012.162.279.227.307.042.387-2.597.33-5.267.311-7.886s-.02-5.328-.449-7.905c-.048-.287-.482-.204-.491.066h0Z"/>
      <path class="cls-1" d="m59.955,74.24c.184-.459.153-1.039.182-1.527.033-.561.042-1.125.045-1.687.007-1.074.035-2.17-.184-3.225-.037-.177-.288-.122-.299.04-.078,1.079.03,2.166.035,3.247.003.542-.009,1.083-.016,1.624-.006.49-.097,1.048.026,1.527.029.114.173.093.211,0h0Z"/>
      <path class="cls-1" d="m58.001,87.532c-.151.564-.171,1.139-.155,1.722.008.29.024.581.061.868.034.266.073.583.201.822.057.107.201.046.211-.057.014-.144-.02-.3-.033-.445-.011-.129-.027-.256-.043-.384-.036-.278-.07-.556-.089-.836-.039-.559-.027-1.119-.059-1.677-.003-.051-.078-.066-.092-.012h0Z"/>
      <path class="cls-1" d="m55.359,88.467c.02.137.068.265.098.4.028.124.051.251.062.378.011.132.011.267.008.4-.002.064-.006.129-.013.193-.008.08-.028.151.003.229.04.099.157.146.242.064.112-.109.113-.31.126-.458.014-.16.002-.315-.022-.474-.022-.146-.056-.289-.108-.428-.056-.149-.114-.287-.226-.403-.077-.08-.183.006-.17.099h0Z"/>
      <path class="cls-1" d="m62.322,87.435c-.045.098-.028.204-.029.31-.002.136-.008.272-.016.408-.016.272-.024.544-.052.815-.029.276-.073.551-.132.822-.053.244-.157.529-.126.78.01.079.115.154.18.075.169-.206.219-.511.263-.767.047-.272.081-.547.102-.823.021-.279.036-.565.013-.844-.01-.126-.026-.251-.043-.376-.018-.128-.015-.294-.093-.401-.015-.021-.054-.029-.067,0h0Z"/>
      <path class="cls-1" d="m64.557,88.044c-.066.053-.072.142-.093.221-.025.095-.05.187-.066.284-.032.198-.058.397-.077.597-.018.196-.031.39-.021.587.005.098.012.196.02.293.009.099.006.204.058.291.058.097.184.064.221-.029.035-.087.016-.19.015-.283-.001-.098,0-.196.001-.293.004-.189-.001-.377.002-.566s.013-.376.029-.563c.008-.097.01-.193.017-.29.005-.082.027-.163-.015-.236-.021-.035-.063-.035-.092-.012h0Z"/>
      <path class="cls-1" d="m71.95,73.71c-.05-.95.1-1.95.3-3.15l.01-.06c.26-1.58.54-3.36.3-5.49-.06-.51-.18-1.22-.22-1.42-.06-.32-.25-.9-.3-1.07-.04-.13-.08-.28-.12-.41-.05-.19-.12-.43-.12-.5-.25-1.91-.28-3.27-.3-4.27,0-.32,0-.61-.01-.84,0-.05-.01-.24.09-1.2.13-1.23.12-1.4.12-1.46-.05-1.52-.39-3.7-.92-4.9-.66-1.44-1.47-1.68-2.81-2.09-.33-.1-.71-.22-1.12-.35-2.25-.78-4.2-1.44-4.46-3.33.01-.01.01-.02.02-.03.53-.55.97-1.28,1.28-2.11.13-.09.26-.25.57-.63l.13-.15c.61-.72.42-1.38.31-1.63-.11-.22-.26-.4-.45-.51.02-1.42-.41-2.75-1.19-3.66-.76-.86-1.81-1.32-3.05-1.33h-.02c-1.24.01-2.29.47-3.05,1.33-.78.91-1.21,2.23-1.19,3.66-.19.11-.34.28-.44.5-.12.26-.31.92.31,1.64l.03.05c.37.45.53.63.66.73.3.81.74,1.55,1.28,2.12q.01.01.02.02c-.26,1.89-2.21,2.56-4.46,3.33-.41.13-.79.25-1.11.35-1.35.41-2.16.65-2.82,2.09-.53,1.19-.87,3.37-.92,4.92,0,.22.07,1,.12,1.46.1.96.09,1.14.09,1.16-.01.25-.01.54-.01.87-.02.99-.05,2.35-.29,4.23-.01.11-.1.41-.17.68l-.08.27c-.05.16-.24.74-.3,1.05-.1.54-.18,1.06-.22,1.44-.24,2.12.04,3.9.3,5.48l.01.06c.17,1.06.35,2.15.3,3.17-.09.92-.26,1.57-.39,2.09-.15.49-.23.86-.22,1.2.07,1.02.27,1.91.56,2.46l.1.25.06.11c.17.34.32.64.62.88.21.17.4.25.59.25.32,0,.57-.24.62-.58l.04-.05.06-.06c.07-.07.17-.18.21-.34.09-.27.09-.71-.37-1.29-.04-.26-.03-.8-.01-1.02v-.09c-.06-.71.02-.92.15-1.17.47-.87.28-1.68.07-2.62l-.07-.3c.06-1.43.37-2.36.64-3.19l.03-.09.03-.08c.17-.5.35-1.01.43-1.58.04-.28.12-.66.2-1.07l.07-.33c.19-.94.41-2.01.46-2.69.01-.14.03-.31.07-.52l.05-.39.05-.32c.09-.65.2-1.47.3-2.49.01.01.01.02.01.03.51,2.48.85,4.64.17,8.03-.7,3.47-.71,10.45.39,15.31l.25,1.07c.4,1.72.74,3.27.83,4.78.08,1.41.01,2.49-.06,3.54-.1,1.28-.17,2.47.01,4,.14,1.12.48,2.66.81,4.14l.01.03c.53,2.38,1.12,5.02,1.04,6.49-.11.75-.11,1.07-.1,1.3l.01.08c0,.12.01.17-.02.27-.1.49-.22.67-.4.94-.11.15-.19.29-.3.47l-.08.13c-.24.47-.46.81-.51.88l-.02.02-.03.03c-.17.26-.37.63-.37.97,0,0-.14,1,.22,1.16.36.16,1.89.43,2.27.43s1.28.03,1.28.03c.52,0,1.39.08,1.59-.43.07-.24-.07-.94-.05-1.36.02-.42.1-.91.05-1.32-.02-.11-.02-.22-.01-.34.03-.16-.01-.34-.07-.68l-.03-.16c-.1-.47-.17-.9-.16-1.09.06-.46.05-.68,0-1.17l-.03-.49c0-.04-.26-3.46.32-10.31.04-.68,0-1.29-.05-2.08-.12-1.32-.21-2.8.07-5.26.05-.97-.01-1.62-.11-2.51-.03-.21-.02-.47-.01-.76.02-.34.03-.71,0-1.12-.02-.26.07-.81.16-1.45.13-.8.29-1.8.33-2.84.11-2.41.04-4.26-.04-6.04v-.08l.1-.58h.24l.07.64c-.07,1.78-.04,5.91-.04,6.08.04,1.08.19,2.12.31,2.95.1.66.18,1.23.16,1.49-.03.44.01.78.04,1.09.03.23.05.43.03.61-.09.86-.17,1.54-.12,2.51.28,2.46.19,3.94.07,5.25-.05.72-.09,1.4-.03,2.11.56,6.85.3,10.26.3,10.29l-.03.52c-.05.47-.06.69,0,1.2,0,.04,0,.31-.16,1.02-.1.59-.11.74-.1.85.02.11.01.25-.01.35-.05.42-.06.88.21,1.42.09.36.24.74.28.89.08.37.27.8.63.8.41-.02,1.53-.13,2.09-.16.56-.04,1.94-.17,2.04-.26.09-.09.09-1.12.09-1.12.04-.45-.24-.89-.36-1.07-.06-.07-.32-.48-.54-.88-.14-.25-.26-.44-.39-.62-.18-.28-.3-.46-.4-.93-.02-.13-.02-.22-.01-.35.01-.24.01-.56-.09-1.34-.09-1.45.53-4.21,1.03-6.43.35-1.59.68-3.1.82-4.21.18-1.5.12-2.65.02-4-.08-1-.14-2.09-.07-3.55.1-1.52.43-3.05.83-4.76l.25-1.08c1.11-4.86,1.1-11.84.39-15.31-.68-3.39-.34-5.55.17-8.03,0-.01,0-.02.01-.03.1,1.03.22,1.85.31,2.51l.03.28c.03.16.05.31.07.44.03.2.05.35.06.47.07.73.28,1.83.46,2.71l.09.44c.08.37.14.71.19.97.08.6.28,1.16.45,1.65l.03.09c.27.82.58,1.76.64,3.16l-.07.34c-.21.93-.4,1.74.07,2.62.14.26.2.51.15,1.18v.1c.02.15.02.31.02.46,0,.23-.01.42-.03.54-.45.58-.46,1.01-.37,1.28.05.19.18.32.27.4l.04.04c.05.34.31.59.62.59.19,0,.38-.08.58-.24.32-.27.48-.58.66-.94v-.01l.03-.05.12-.27c.27-.55.47-1.44.54-2.43.01-.37-.07-.72-.2-1.18-.13-.48-.31-1.14-.41-2.14Zm-.39,5.55l-.12.27c-.18.36-.3.61-.54.81-.15.12-.23.13-.27.13-.08,0-.13-.12-.13-.22v-.06l-.05-.06c-.02-.04-.07-.09-.13-.14-.06-.06-.13-.13-.14-.19-.08-.21.03-.52.32-.88l.05-.09c.03-.15.05-.42.05-.71,0-.17,0-.35-.02-.52.05-.7,0-1.06-.21-1.46-.37-.69-.24-1.32-.02-2.28l.08-.4c-.06-1.56-.41-2.57-.7-3.45-.18-.52-.35-1.02-.43-1.57-.06-.37-.17-.88-.28-1.43-.19-.93-.39-1.97-.45-2.63-.01-.21-.07-.52-.13-.96-.12-.92-.32-2.3-.48-4.2.35-.84.64-1.71.87-2.58.21-.81.51-1.85.34-2.69-.01-.07-.13-.09-.16-.02-.39.77-.49,1.73-.74,2.56-.13.42-.27.84-.43,1.26v.01c-.19.51-.39,1.02-.6,1.52-.38.9-.8,1.77-1.23,2.64-.4.84-.9,1.68-1.16,2.57-.05.16.18.32.3.17.6-.74,1.04-1.64,1.47-2.49.1-.2.21-.4.3-.61-.08.44-.41,4.2-.37,4.06.02.97.14,2.04.38,3.24.7,3.44.7,10.32-.39,15.1l-.25,1.08c-.39,1.68-.74,3.27-.84,4.85-.07,1.43-.01,2.53.07,3.61.09,1.24.16,2.4-.02,3.9-.13,1.09-.46,2.58-.81,4.16-.56,2.5-1.13,5.09-1.04,6.61.1.73.1,1.02.09,1.24-.01.15-.01.28.02.48.12.59.29.83.49,1.13.11.15.21.31.35.55.22.42.5.85.57.94.14.2.25,1.31.23,1.55-.14.18-2.8.25-3.2.27-.32,0-.51-.14-.63-.45-.07-.22-.08-.33-.11-.42-.02-.16-.04-.26-.2-.54-.22-.44-.2-.81-.16-1.14.02-.17.03-.33.01-.47-.01-.08.04-.39.09-.68.11-.51.18-.95.17-1.2-.06-.45-.05-.63,0-1.1l.03-.51c.03-.38.23-3.87-.3-10.38-.06-.65-.02-1.28.03-2.02.11-1.23.22-2.76-.07-5.32-.05-.92.02-1.55.12-2.43.05-.5-.12-.97-.07-1.71.05-.68-.39-2.55-.47-4.48,0,0-.03-4.33.04-6.1l-.08-.71c.99.17,1.97.34,2.96-.02.81-.3,1.64-.9,1.8-1.8.05-.25-.25-.37-.4-.17-.61.79-1.29,1.33-2.31,1.45-.97.1-1.85-.26-2.8-.3-.94-.04-1.76.56-2.7.48-.94-.07-1.74-.66-2.6-1-.1-.04-.15.1-.09.16.64.78,1.59,1.36,2.6,1.49.5.07.97-.01,1.44-.14.31-.08.6-.16.89-.19l-.12.68c.07,1.78.15,3.68.04,6.13-.08,1.88-.54,3.65-.49,4.35.06.74-.05,1.38.01,1.9.1.87.16,1.5.11,2.39-.29,2.59-.18,4.12-.07,5.35.05.72.09,1.35.05,2.01-.55,6.5-.35,10-.32,10.38l.03.51c.05.47.06.65,0,1.1-.01.27.07.76.17,1.2.05.28.12.6.09.68-.01.14-.01.3.01.47.04.32.04,1.01.05,1.36.01.35.11.76.04.98-.02.38-.58.3-.91.34-.33.03-1.31-.08-1.58-.11-.26-.03-.67-.08-1.02-.16-.35-.07-.91-.23-.95-.26,0-.19,0-.68.16-1.14.16-.47.49-.8.71-1.22.14-.23.23-.39.35-.55.2-.3.37-.54.49-1.13.05-.21.03-.33.02-.49-.01-.22-.01-.51.1-1.25.08-1.51-.49-4.09-1.05-6.59l-.01-.07c-.35-1.55-.67-3.02-.8-4.09-.18-1.49-.11-2.66-.01-3.91.07-1.07.14-2.17.06-3.6-.1-1.58-.45-3.17-.84-4.86l-.25-1.07c-1.08-4.78-1.08-11.66-.39-15.1.17-.83.28-1.59.33-2.31.03-.45.05-1.51.02-2.01-.03-.73-.08-1.46-.2-2.16.43,1.07.94,2.1,1.59,3.05.1.14.36.06.29-.12-.72-1.98-1.59-3.9-2.22-5.92-.06-.21-.12-.41-.18-.62-.19-.65-.36-1.3-.51-1.95-.04-.15-.08-.3-.11-.45-.22-.96-.29-2.02-.71-2.92-.01-.02-.04-.01-.05.01-.19.92.03,1.93.19,2.84.15.87.34,1.73.56,2.57,0,.04-.01.07-.01.11-.16,2.04-.37,3.49-.5,4.46-.06.42-.12.74-.13.94-.05.66-.26,1.71-.45,2.63-.11.55-.22,1.06-.27,1.43-.08.55-.26,1.05-.44,1.57-.29.88-.64,1.89-.7,3.45v.04l.08.36c.22.96.35,1.59-.02,2.28-.19.36-.27.68-.21,1.44-.02.22-.04.94.03,1.25l.05.09c.3.36.4.67.32.88-.01.06-.08.12-.14.19-.05.05-.11.1-.13.14l-.05.06v.06c0,.1-.04.22-.13.22-.04,0-.12-.01-.27-.13-.24-.2-.36-.46-.54-.81l-.12-.28c-.26-.5-.44-1.35-.5-2.25-.01-.28.07-.61.19-1.02.14-.54.32-1.22.42-2.23.05-1.04-.12-2.11-.31-3.27-.25-1.56-.54-3.32-.3-5.41.04-.38.12-.9.21-1.39.04-.2.16-.61.29-1.01.13-.46.25-.85.27-1.03.24-1.88.27-3.27.29-4.29,0-.32,0-.6.01-.83.01-.13-.02-.56-.09-1.25-.06-.56-.12-1.24-.12-1.39.05-1.5.37-3.61.88-4.73.56-1.24,1.2-1.43,2.5-1.82.33-.1.71-.22,1.13-.36,2.37-.81,4.58-1.58,4.81-3.86l.01-.11-.01-.01c.02-.06.04-.12.05-.18.05-.21.09-.42.11-.63.05-.39.08-.84-.05-1.22-.03-.1-.18-.12-.21,0-.07.38-.05.78-.11,1.17-.03.18-.05.35-.09.52-.44-.5-.81-1.14-1.07-1.87v-.01c.03-.02.04-.04.05-.06.04-.08.08-.16.11-.24.02-.04.03-.08.04-.12.01-.02.02-.04.02-.06.01-.04.01-.07,0-.1,0-.03-.01-.06-.01-.09-.02-.07-.12-.12-.19-.07-.02.01-.03.03-.05.04-.01.01-.02.02-.03.02-.02.01-.04.03-.05.05-.01.01-.01.03-.02.05-.02.04-.04.08-.05.12-.02.06-.04.13-.06.19,0,0,0,.01-.01.03-.14-.16-.37-.44-.5-.6-.44-.52-.31-.95-.24-1.11.07-.15.19-.27.32-.32l.17-.07v-.03c.01,0,.02.01.03.01.01,0,.02.01.02.01.02.01.03.02.05.02.06.04.14.08.21.08.01.01.03.01.04.01h.03c.06-.01.13-.07.11-.15-.01-.02-.02-.04-.03-.06-.01-.02-.02-.04-.04-.06-.02-.02-.05-.04-.07-.06-.05-.03-.09-.05-.14-.07-.07-.03-.14-.05-.21-.06-.02-1.3.38-2.49,1.07-3.29.66-.75,1.57-1.15,2.67-1.16h.02c1.1.01,2.01.41,2.67,1.16.67.77,1.06,1.93,1.07,3.19h-.05c-.04,0-.07.01-.11.01-.04.01-.08.03-.12.04-.07.04-.14.09-.16.15l-.01.01v.01c-.02.01-.02.03-.03.05-.04.08-.04.18.03.24.06.06.14.07.22.03.01.01.01,0,.02,0l.01-.01h.01c.01.01.01,0,.02,0,.03-.01.06-.02.08-.04.02,0,.03-.01.04-.01.02-.01.03-.02.05-.02v.01l.17.06c.13.05.25.17.32.32.07.16.2.59-.24,1.11-.14.17-.35.44-.49.59-.01-.03-.03-.07-.04-.1-.01-.03-.02-.06-.03-.09-.01-.03-.02-.08-.05-.11-.01-.02-.02-.02-.02-.03h.01s-.01-.01-.01-.02-.01-.02-.02-.03c-.01-.03-.02-.05-.04-.07-.01-.01-.02-.02-.03-.02-.01-.01-.02-.01-.02-.02-.08-.07-.21-.05-.23.06,0,0-.01.02-.02.05-.01.04-.01.08,0,.12,0,.01,0,.02.01.04,0,.07.03.14.05.2s.05.12.08.18c.02.04.04.09.06.13,0,.01.01.01.02.02-.26.71-.63,1.34-1.07,1.84-.03-.18-.05-.35-.07-.53-.03-.22-.04-.44-.05-.66-.01-.08.02-.46-.14-.43,0,0-.01,0-.01.01-.03,0-.06.03-.07.06-.11.39-.08.83-.03,1.22.02.21.06.42.11.62v.01l-.02.03v.11c.23,2.28,2.45,3.05,4.81,3.86.42.14.8.26,1.13.36,1.3.39,1.94.58,2.5,1.82.51,1.13.83,3.24.88,4.73.01.14-.06.83-.12,1.37-.07.71-.1,1.14-.09,1.27.01.23.01.51.01.83.02,1.02.05,2.41.3,4.29.01.18.14.57.26,1.03.13.4.25.81.29,1.01.08.44.17,1,.21,1.39.24,2.09-.05,3.85-.3,5.41-.19,1.14-.36,2.22-.31,3.28.1,1.01.28,1.68.43,2.22.11.41.19.73.18,1.02-.06.9-.24,1.74-.5,2.26Z"/>
    </g>
  </g>
</svg>