<?xml version="1.0" encoding="UTF-8"?>
<svg id="Layer_1" xmlns="http://www.w3.org/2000/svg" version="1.1" viewBox="0 0 120 120">
  <!-- Generator: Adobe Illustrator 29.5.1, SVG Export Plug-In . SVG Version: 2.1.0 Build 141)  -->
  <defs>
    <style>
      .st0 {
        fill: #ede9c8;
      }

      .st1 {
        fill: #fff;
      }
    </style>
  </defs>
  <g id="Layer_11">
    <path class="st0" d="M118.1,32.7v.4c0,1.5-1.4,3.1-3.6,4.5-3.6,2.3-9.7,4.2-16.6,5.7-4.2.8-8.8,1.5-13.6,2.1l-.4-2.7c3.2-.5,6.1-1.2,8.5-2,2.7-.9,4.8-1.9,6.1-3,1.7-1.5,1.6-3,0-4.5-.4-.3-.9-.7-1.4-1-3.3-1.9-9.4-3.6-17.6-4.6h0c-.4,0-.9-.1-1.4-.2-5.4-.6-11.4-1-17.9-1s-12.6.4-18,1c-.5,0-1.1.1-1.6.2-2.7.3-5.2.8-7.4,1.2-5.6,1.2-9.5,2.7-11.4,4.4-.3.3-.6.6-.8.8-.9,1.2-.6,2.5.7,3.7,1.9,1.7,5.6,3.1,10.4,4.2,1.3.3,2.7.6,4.2.8l-.4,2.7c-7.4-.8-14.4-2-20-3.6-4.2-1.2-7.8-2.5-10.2-4.2-2.3-1.5-3.5-3-3.6-4.5v-.3c0-1.2.7-2.4,2-3.6,3.7-3.2,12.2-6.1,24.9-8,9-1.4,19.7-2.1,31.2-2.1,17.2,0,32.3,1.7,42.8,4.5,9.5,2.4,14.6,5.5,15.2,8.6v.5h0Z"/>
    <path class="st0" d="M118.1.2v30.5-.5c-.6-3.1-5.8-6.2-15.2-8.6-10.5-2.7-25.5-4.4-42.8-4.4s-22.2.8-31.2,2.1c-12.7,1.9-21.2,4.8-24.9,8-1.4,1.2-2,2.4-2,3.6V.2h116.1Z"/>
    <path class="st0" d="M95.2,37.6c-1.8,1.8-6.1,3.3-11.5,4.4l-.2-1c3.6-.9,6.2-2,7.4-3.3,1.4-1.6.4-3.1-2.5-4.5-.8-.4-1.8-.8-3-1.1-.3,0-.6-.2-1-.3-1-.3-2.1-.5-3.2-.8-.6-.1-1.3-.2-2-.4-5.3-.9-11.9-1.5-19.2-1.5s-14.2.6-19.5,1.5c-.6.1-1.1.2-1.7.3-.4,0-.8.2-1.1.2s-.5.1-.8.2c-.3,0-.7.2-1,.2s-.5.1-.7.2c-.2,0-.4.1-.6.2-1.2.4-2.2.7-3,1.1-3,1.4-3.9,3-2.5,4.5,1.2,1.3,3.8,2.5,7.4,3.3l-.2,1c-5.4-1.1-9.7-2.6-11.5-4.4-1.5-1.5-1.1-3.1.9-4.5.7-.5,1.7-1,2.8-1.5.2-.1.5-.2.7-.3,1-.4,2.1-.7,3.3-1,.6-.2,1.2-.3,1.9-.5,1.3-.3,2.8-.6,4.4-.8.5,0,1.1-.2,1.7-.3,5.4-.8,12-1.2,19.5-1.2s13.9.4,19.3,1.2c.7,0,1.3.2,1.9.3h0c.4,0,.7.1,1.1.2.4,0,.7.1,1.1.2.3,0,.6.1.8.2.3,0,.6.1.9.2,1.1.2,2.2.5,3.2.8.2,0,.3,0,.5.1.2,0,.4.1.6.2.5.1.9.3,1.3.5.2,0,.4.1.6.2.3.1.6.2.8.3.2,0,.4.2.6.2.6.3,1.2.6,1.6.9,2,1.4,2.4,3,.9,4.5h0v.3Z"/>
    <path class="st0" d="M118.1,32.7v.4h-19.7c-.4-.3-.9-.7-1.4-1-3-1.8-8.4-3.3-15.7-4.4-.6,0-1.2-.2-1.9-.2h0c-.4,0-.9-.1-1.4-.2-5.4-.6-11.4-1-17.9-1s-12.6.4-18,1c-.5,0-1.1.1-1.6.2-.6,0-1.1.1-1.7.2-2.1.3-4,.6-5.8,1-5.6,1.2-9.5,2.7-11.4,4.4H1.9v-.3c0-1.2.7-2.4,2.1-3.6,3.7-3.2,12.2-6.1,24.9-8,9-1.4,19.7-2.1,31.2-2.1,17.2,0,32.3,1.7,42.8,4.5,9.5,2.4,14.6,5.5,15.2,8.6,0,.2,0,.3,0,.5Z"/>
    <path class="st0" d="M80.6,32.5v87.7h-41.1V32.5c.5,0,1.1-.2,1.6-.3,5.1-.9,11.7-1.5,18.9-1.5s13.6.5,18.7,1.4c.7,0,1.3.2,1.9.4h0Z"/>
  </g>
  <g id="BodyPosition">
    <g id="Back">
      <path class="st1" d="M71.5,74.1c-.2.5-.3,1.2-.4,2.2,0,1.1.1,2.1.3,3.3.2,1.6.5,3.3.3,5.4,0,.4-.1,1-.2,1.4,0,.2-.2.6-.3,1-.1.5-.2.8-.3,1-.2,1.9-.3,3.3-.3,4.3,0,.3,0,.6,0,.8,0,.1,0,.6,0,1.3,0,.5.1,1.2.1,1.4,0,1.5-.4,3.6-.9,4.7-.6,1.2-1.2,1.4-2.5,1.8-.3.1-.7.2-1.1.4-2.4.8-4.6,1.6-4.8,3.9h0c0,.1,0,.1,0,.1h0c0,.2,0,.4-.1.6,0,.4,0,.8,0,1.2,0,0,0,0,0,0,0,0,0,0,0,0,.2,0,.1-.3.1-.4,0-.2,0-.4,0-.7,0-.2,0-.3,0-.5.4.5.8,1.1,1.1,1.8,0,0,0,0,0,0,0,0,0,0,0,.1,0,0,0,.1,0,.2s0,.1,0,.2c0,0,0,0,0,0,0,0,0,0,0,.1,0,0,0,0,0,0,0,.1.1.1.2,0,0,0,0,0,0,0,0,0,0,0,0,0,0,0,0,0,0,0,0,0,0,0,0,0s0,0,0,0h0s0,0,0,0c0,0,0,0,0-.1s0,0,0,0c0,0,0,0,0,0,.1.2.4.4.5.6.4.5.3,1,.2,1.1,0,.2-.2.3-.3.3h-.2c0,0,0,0,0,0,0,0,0,0,0,0,0,0,0,0,0,0,0,0,0,0,0,0h0s0,0,0,0c0,0-.2,0-.2,0,0,0,0,.2,0,.2,0,0,0,0,0,0h0s0,0,0,0c0,0,0,.1.2.2,0,0,0,0,.1,0,0,0,0,0,.1,0h0c0,1.3-.4,2.4-1.1,3.2-.7.8-1.6,1.2-2.7,1.2h0c-1.1,0-2-.4-2.7-1.2-.7-.8-1.1-2-1.1-3.3,0,0,.1,0,.2,0,0,0,0,0,.1,0,0,0,0,0,0,0s0,0,0,0,0,0,0,0c0,0,0-.1-.1-.2h0s0,0,0,0c0,0-.1,0-.2,0,0,0,0,0,0,0,0,0,0,0,0,0s0,0,0,0h0s-.2,0-.2,0c-.1,0-.2-.2-.3-.3,0-.2-.2-.6.2-1.1.1-.2.4-.4.5-.6,0,0,0,0,0,0,0,0,0,.1,0,.2,0,0,0,0,0,.1,0,0,0,0,0,0,0,0,0,0,0,0,0,0,0,0,0,0,0,0,0,0,0,0,0,0,.2,0,.2,0,0,0,0,0,0,0,0,0,0,0,0,0,0,0,0,0,0,0,0,0,0,0,0-.1,0,0,0-.2-.1-.2,0,0,0,0,0,0h0c.3-.7.6-1.4,1.1-1.9,0,.2,0,.3,0,.5,0,.4,0,.8.1,1.2,0,.1.2,0,.2,0,.1-.4,0-.8,0-1.2,0-.2,0-.4-.1-.6,0,0,0-.1,0-.2h0s0-.1,0-.1c-.2-2.3-2.4-3-4.8-3.9-.4-.1-.8-.3-1.1-.4-1.3-.4-1.9-.6-2.5-1.8-.5-1.1-.8-3.2-.9-4.7,0-.1,0-.8.1-1.4,0-.7,0-1.1,0-1.2,0-.2,0-.5,0-.8,0-1,0-2.4-.3-4.3,0-.2-.1-.6-.3-1-.1-.4-.2-.8-.3-1,0-.5-.2-1-.2-1.4-.2-2.1,0-3.8.3-5.4.2-1.2.4-2.2.3-3.3,0-1-.3-1.7-.4-2.2-.1-.4-.2-.7-.2-1,0-.9.2-1.8.5-2.2v-.3c.3-.3.4-.6.7-.8.2-.1.2-.1.3-.1,0,0,.1.1.1.2h0c0,0,0,.1,0,.1,0,0,0,0,.1.1,0,0,.1.1.1.2,0,.2,0,.5-.3.9h0c0,.4,0,1.1,0,1.3,0,.8,0,1.1.2,1.4.4.7.2,1.3,0,2.3v.4c0,0,0,0,0,0,0,1.6.4,2.6.7,3.4.2.5.4,1,.4,1.6,0,.4.2.9.3,1.4.2.9.4,2,.5,2.6,0,.2,0,.5.1.9.1,1,.3,2.4.5,4.5,0,0,0,0,0,.1-.2.8-.4,1.7-.6,2.6-.2.9-.4,1.9-.2,2.8,0,0,0,0,0,0,.4-.9.5-2,.7-2.9,0-.2,0-.3.1-.5.1-.7.3-1.3.5-2,0-.2.1-.4.2-.6.6-2,1.5-3.9,2.2-5.9,0-.2-.2-.3-.3-.1-.7.9-1.2,2-1.6,3,.1-.7.2-1.4.2-2.2,0-.5,0-1.6,0-2,0-.7-.2-1.5-.3-2.3-.7-3.4-.7-10.3.4-15.1l.2-1.1c.4-1.7.7-3.3.8-4.9,0-1.4,0-2.5,0-3.6-.1-1.2-.2-2.4,0-3.9.1-1.1.5-2.5.8-4.1h0c.6-2.6,1.1-5.2,1-6.7-.1-.7-.1-1,0-1.2,0-.2,0-.3,0-.5-.1-.6-.3-.8-.5-1.1-.1-.2-.2-.3-.3-.6-.2-.4-.5-.8-.7-1.2-.2-.5-.2-.9-.2-1.1,0,0,.6-.2,1-.3.4,0,.8-.1,1-.2.3,0,1.2-.1,1.6-.1.3,0,.9,0,.9.3,0,.2,0,.6,0,1s0,1,0,1.4c0,.2,0,.3,0,.5,0,0,0,.4,0,.7,0,.4-.2.9-.2,1.2,0,.4,0,.6,0,1.1v.5c0,.4-.3,3.9.3,10.4,0,.7,0,1.3,0,2-.1,1.2-.2,2.8,0,5.3,0,.9,0,1.5-.1,2.4,0,.5,0,1.2,0,1.9,0,.7.4,2.5.5,4.3.1,2.4,0,4.3,0,6.1v.7c-.2,0-.5-.1-.8-.2-.5-.1-.9-.2-1.4-.1-1,.1-2,.7-2.6,1.5,0,0,0,.2,0,.2.9-.3,1.7-.9,2.6-1,.9,0,1.8.5,2.7.5,1,0,1.8-.4,2.8-.3,1,.1,1.7.7,2.3,1.4.2.2.5,0,.4-.2-.2-.9-1-1.5-1.8-1.8-1-.4-2-.2-3,0v-.7c0-1.8,0-6.1,0-6.1,0-1.9.5-3.8.5-4.5,0-.7.1-1.2,0-1.7,0-.9-.2-1.5-.1-2.4.3-2.6.2-4.1,0-5.3,0-.7,0-1.4,0-2,.5-6.5.3-10,.3-10.4v-.5c0-.5,0-.7,0-1.1,0-.2,0-.7-.2-1.2,0-.3,0-.6,0-.7,0-.1,0-.3,0-.5,0-.3,0-.7.2-1.1.2-.3.2-.4.2-.5,0,0,0-.2.1-.4.1-.3.3-.4.6-.4.4,0,3.1,0,3.2.3,0,.2,0,1.4-.2,1.6,0,0-.3.5-.6.9-.1.2-.2.4-.3.6-.2.3-.4.5-.5,1.1,0,.2,0,.3,0,.5,0,.2,0,.5,0,1.2,0,1.5.5,4.1,1,6.6.3,1.6.7,3.1.8,4.2.2,1.5.1,2.7,0,3.9,0,1.1-.1,2.2,0,3.6,0,1.6.4,3.2.8,4.8l.2,1.1c1.1,4.8,1.1,11.7.4,15.1-.2,1.2-.4,2.3-.4,3.2,0-.1.3,3.6.4,4.1,0-.2-.2-.4-.3-.6-.4-.9-.9-1.8-1.5-2.5-.1-.2-.4,0-.3.2.3.9.8,1.7,1.2,2.6.4.9.9,1.7,1.2,2.6.2.5.4,1,.6,1.5h0c.2.4.3.8.4,1.3.2.8.3,1.8.7,2.6,0,0,.2,0,.2,0,.2-.8-.1-1.9-.3-2.7-.2-.9-.5-1.7-.9-2.6.2-1.9.4-3.3.5-4.2,0-.4.1-.8.1-1,0-.7.3-1.7.4-2.6.1-.6.2-1.1.3-1.4,0-.6.2-1.1.4-1.6.3-.9.6-1.9.7-3.4v-.4c-.3-1-.4-1.6,0-2.3.2-.4.3-.8.2-1.5,0-.2,0-.3,0-.5,0-.3,0-.6,0-.7h0c-.3-.4-.4-.8-.3-1,0,0,0-.1.1-.2,0,0,.1,0,.1-.1h0c0-.2,0-.3.1-.3s.1,0,.3.1c.2.2.4.4.5.8v.3c.4.5.6,1.4.6,2.3,0,.3,0,.6-.2,1h0Z"/>
      <path d="M59.4,103.2h0c0,.3.4.4.5,0,.4-2.6.4-5.3.4-7.9s0-5.3-.3-7.9c0-.2-.3-.1-.3,0-.2,2.6,0,5.2-.1,7.8,0,1.3,0,2.6-.1,3.9,0,1.3-.1,2.7,0,4h0Z"/>
      <path d="M59.6,75.9h0c0,0-.2-.1-.2,0-.1.5,0,1,0,1.5,0,.5,0,1.1,0,1.6,0,1.1-.1,2.2,0,3.2,0,.2.3.2.3,0,.2-1.1.2-2.2.2-3.2,0-.6,0-1.1,0-1.7,0-.5,0-1.1-.2-1.5h0Z"/>
      <path d="M57.7,62.6h0c0,0,0,0,0,0,0-.6,0-1.1,0-1.7,0-.3,0-.6,0-.8,0-.1,0-.3,0-.4,0-.1,0-.3,0-.4,0-.1-.2-.2-.2,0-.1.2-.2.6-.2.8,0,.3,0,.6,0,.9,0,.6,0,1.2.2,1.7h0Z"/>
      <path d="M55,61.6c0,0,0,.2.2,0,.1-.1.2-.3.2-.4,0-.1,0-.3.1-.4,0-.2,0-.3,0-.5,0-.1,0-.3-.1-.5,0,0-.2,0-.2,0,0,0,0,.1,0,.2,0,0,0,.1,0,.2,0,.1,0,.3,0,.4,0,.1,0,.3,0,.4,0,.1,0,.3,0,.4h0Z"/>
      <path d="M62,62.7h0s0,0,0,0c0-.1,0-.3,0-.4,0-.1,0-.2,0-.4,0-.3,0-.6,0-.8,0-.3,0-.6-.1-.8,0-.3,0-.6-.3-.8,0,0-.2,0-.2,0,0,.3,0,.5.1.8,0,.3.1.5.1.8,0,.3,0,.5,0,.8,0,.1,0,.3,0,.4,0,.1,0,.2,0,.3h0Z"/>
      <path d="M64.2,62h0s0,0,0,0c0,0,0-.2,0-.2,0,0,0-.2,0-.3,0-.2,0-.4,0-.6s0-.4,0-.6c0,0,0-.2,0-.3,0,0,0-.2,0-.3,0,0-.2-.1-.2,0,0,0,0,.2,0,.3,0,0,0,.2,0,.3,0,.2,0,.4,0,.6,0,.2,0,.4,0,.6,0,0,0,.2,0,.3,0,0,0,.2,0,.2h0Z"/>
      <path d="M71.6,76.4c.1-1,.3-1.7.4-2.1.1-.5.2-.8.2-1.2,0-1-.3-1.9-.5-2.4v-.3c-.1,0-.2,0-.2,0h0c-.2-.4-.3-.7-.7-1-.2-.2-.4-.2-.6-.2-.3,0-.6.2-.6.6h0c0,.1-.2.2-.3.4,0,.3,0,.7.4,1.3,0,.1,0,.3,0,.5s0,.3,0,.5h0c0,.8,0,1-.2,1.3-.5.9-.3,1.7,0,2.6v.3c0,1.4-.3,2.3-.6,3.2h0c-.2.6-.4,1.1-.4,1.7,0,.3-.1.6-.2,1v.4c-.3.9-.5,2-.5,2.7,0,.1,0,.3,0,.5,0,.1,0,.3,0,.4v.3c-.1.7-.2,1.5-.3,2.5,0,0,0,0,0,0-.5-2.5-.8-4.6-.2-8,.7-3.5.7-10.4-.4-15.3l-.2-1.1c-.4-1.7-.7-3.2-.8-4.8,0-1.5,0-2.6,0-3.6.1-1.3.2-2.5,0-4-.1-1.1-.5-2.6-.8-4.2-.5-2.2-1.1-5-1-6.4,0-.8,0-1.1,0-1.3,0-.1,0-.2,0-.3,0-.5.2-.7.4-.9.1-.2.2-.4.4-.6.2-.4.5-.8.5-.9.1-.2.4-.6.4-1.1,0,0,0-1,0-1.1,0,0-1.5-.2-2-.3-.6,0-1.7-.1-2.1-.2-.4,0-.5.4-.6.8,0,.2-.2.5-.3.9-.3.5-.3,1-.2,1.4,0,0,0,.2,0,.3,0,.1,0,.3,0,.8.2.7.2,1,.2,1,0,.5,0,.7,0,1.2v.5s.3,3.4-.3,10.3c0,.7,0,1.4,0,2.1.1,1.3.2,2.8,0,5.2,0,1,0,1.7.1,2.5,0,.2,0,.4,0,.6,0,.3,0,.6,0,1.1,0,.3,0,.8-.2,1.5-.1.8-.3,1.9-.3,2.9,0,.2,0,4.3,0,6.1v.6h-.3v-.6c0,0,0,0,0,0,0-1.8.2-3.6,0-6,0-1-.2-2-.3-2.8,0-.6-.2-1.2-.2-1.4,0-.4,0-.8,0-1.1,0-.3,0-.6,0-.8.1-.9.2-1.5.1-2.5-.3-2.5-.2-3.9,0-5.3,0-.8,0-1.4,0-2.1-.6-6.8-.3-10.3-.3-10.3v-.5c0-.5,0-.7,0-1.2,0-.2,0-.6.2-1.1v-.2c0-.3.1-.5,0-.7,0-.1,0-.2,0-.3,0-.4,0-.9,0-1.3s.1-1.1,0-1.4c-.2-.5-1.1-.4-1.6-.4,0,0-.9,0-1.3,0s-1.9.3-2.3.4-.2,1.2-.2,1.2c0,.3.2.7.4,1h0s0,0,0,0c0,0,.3.4.5.9h0c.1.3.2.4.3.6.2.3.3.5.4.9,0,0,0,.1,0,.3h0c0,.3,0,.6,0,1.4,0,1.5-.5,4.1-1,6.5h0c-.3,1.5-.7,3-.8,4.2-.2,1.5-.1,2.7,0,4,0,1.1.1,2.1,0,3.5,0,1.5-.4,3.1-.8,4.8l-.2,1.1c-1.1,4.9-1.1,11.8-.4,15.3.7,3.4.3,5.5-.2,8,0,0,0,0,0,0,0-1-.2-1.8-.3-2.5v-.3s0-.4,0-.4c0-.2,0-.4,0-.5,0-.7-.3-1.8-.5-2.7v-.3c-.2-.4-.2-.8-.3-1.1,0-.6-.3-1.1-.4-1.6h0c0,0,0-.2,0-.2-.3-.8-.6-1.8-.6-3.2v-.3c.3-.9.5-1.8,0-2.6-.1-.2-.2-.5-.2-1.2h0c0-.3,0-.8,0-1.1.5-.6.5-1,.4-1.3,0-.2-.1-.3-.2-.3h0c0,0,0-.1,0-.1,0-.3-.3-.6-.6-.6s-.4,0-.6.2c-.3.2-.5.5-.6.9h0c0,.1,0,.4,0,.4-.3.5-.5,1.4-.6,2.5,0,.3,0,.7.2,1.2.1.5.3,1.2.4,2.1,0,1-.1,2.1-.3,3.2h0c-.3,1.6-.5,3.4-.3,5.5,0,.4.1.9.2,1.4,0,.3.2.9.3,1v.3c.2.3.2.6.2.7.2,1.9.3,3.2.3,4.2,0,.3,0,.6,0,.9,0,0,0,.2,0,1.2,0,.5-.1,1.2-.1,1.5,0,1.6.4,3.7.9,4.9.7,1.4,1.5,1.7,2.8,2.1.3,0,.7.2,1.1.3,2.2.8,4.2,1.4,4.5,3.3h0c-.5.6-1,1.3-1.3,2.1-.1,0-.3.3-.7.7h0c-.6.8-.4,1.4-.3,1.7,0,.2.2.4.4.5,0,1.4.4,2.8,1.2,3.7.8.9,1.8,1.3,3,1.3h0c1.2,0,2.3-.5,3-1.3.8-.9,1.2-2.2,1.2-3.7.2-.1.3-.3.4-.5.1-.2.3-.9-.3-1.6v-.2c-.4-.4-.6-.5-.7-.6-.3-.8-.8-1.6-1.3-2.1,0,0,0,0,0,0,.3-1.9,2.2-2.5,4.5-3.3.4-.1.8-.2,1.1-.3,1.3-.4,2.1-.7,2.8-2.1.5-1.2.9-3.4.9-4.9,0,0,0-.2-.1-1.5,0-1,0-1.2,0-1.2,0-.2,0-.5,0-.8,0-1,0-2.4.3-4.3,0,0,0-.3.1-.5,0-.1,0-.3.1-.4,0-.2.2-.8.3-1.1,0-.2.2-.9.2-1.4.2-2.1,0-3.9-.3-5.5h0c-.2-1.3-.4-2.3-.3-3.2h0ZM71.2,70.8c.3.5.4,1.4.5,2.3,0,.3,0,.6-.2,1-.2.5-.3,1.2-.4,2.2,0,1.1.1,2.1.3,3.3.2,1.6.5,3.3.3,5.4,0,.4-.1,1-.2,1.4,0,.2-.2.6-.3,1-.1.5-.2.8-.3,1-.2,1.9-.3,3.3-.3,4.3,0,.3,0,.6,0,.8,0,.1,0,.6,0,1.3,0,.5.1,1.2.1,1.4,0,1.5-.4,3.6-.9,4.7-.6,1.2-1.2,1.4-2.5,1.8-.3.1-.7.2-1.1.4-2.4.8-4.6,1.6-4.8,3.9h0c0,.1,0,.1,0,.1h0c0,.2,0,.4-.1.6,0,.4,0,.8,0,1.2,0,0,0,0,0,0,0,0,0,0,0,0,.2,0,.1-.3.1-.4,0-.2,0-.4,0-.7,0-.2,0-.3,0-.5.4.5.8,1.1,1.1,1.8,0,0,0,0,0,0,0,0,0,0,0,.1,0,0,0,.1,0,.2s0,.1,0,.2c0,0,0,0,0,0,0,0,0,0,0,.1,0,0,0,0,0,0,0,.1.1.1.2,0,0,0,0,0,0,0,0,0,0,0,0,0,0,0,0,0,0,0,0,0,0,0,0,0s0,0,0,0h0s0,0,0,0c0,0,0,0,0-.1s0,0,0,0c0,0,0,0,0,0,.1.2.4.4.5.6.4.5.3,1,.2,1.1,0,.2-.2.3-.3.3h-.2c0,0,0,0,0,0,0,0,0,0,0,0,0,0,0,0,0,0,0,0,0,0,0,0h0s0,0,0,0c0,0-.2,0-.2,0,0,0,0,.2,0,.2,0,0,0,0,0,0h0s0,0,0,0c0,0,0,.1.2.2,0,0,0,0,.1,0,0,0,0,0,.1,0h0c0,1.3-.4,2.4-1.1,3.2-.7.8-1.6,1.2-2.7,1.2h0c-1.1,0-2-.4-2.7-1.2-.7-.8-1.1-2-1.1-3.3,0,0,.1,0,.2,0,0,0,0,0,.1,0,0,0,0,0,0,0s0,0,0,0,0,0,0,0c0,0,0-.1-.1-.2h0s0,0,0,0c0,0-.1,0-.2,0,0,0,0,0,0,0,0,0,0,0,0,0s0,0,0,0h0s-.2,0-.2,0c-.1,0-.2-.2-.3-.3,0-.2-.2-.6.2-1.1.1-.2.4-.4.5-.6,0,0,0,0,0,0,0,0,0,.1,0,.2,0,0,0,0,0,.1,0,0,0,0,0,0,0,0,0,0,0,0,0,0,0,0,0,0,0,0,0,0,0,0,0,0,.2,0,.2,0,0,0,0,0,0,0,0,0,0,0,0,0,0,0,0,0,0,0,0,0,0,0,0-.1,0,0,0-.2-.1-.2,0,0,0,0,0,0h0c.3-.7.6-1.4,1.1-1.9,0,.2,0,.3,0,.5,0,.4,0,.8.1,1.2,0,.1.2,0,.2,0,.1-.4,0-.8,0-1.2,0-.2,0-.4-.1-.6,0,0,0-.1,0-.2h0s0-.1,0-.1c-.2-2.3-2.4-3-4.8-3.9-.4-.1-.8-.3-1.1-.4-1.3-.4-1.9-.6-2.5-1.8-.5-1.1-.8-3.2-.9-4.7,0-.1,0-.8.1-1.4,0-.7,0-1.1,0-1.2,0-.2,0-.5,0-.8,0-1,0-2.4-.3-4.3,0-.2-.1-.6-.3-1-.1-.4-.2-.8-.3-1,0-.5-.2-1-.2-1.4-.2-2.1,0-3.8.3-5.4.2-1.2.4-2.2.3-3.3,0-1-.3-1.7-.4-2.2-.1-.4-.2-.7-.2-1,0-.9.2-1.8.5-2.2v-.3c.3-.3.4-.6.7-.8.2-.1.2-.1.3-.1,0,0,.1.1.1.2h0c0,0,0,.1,0,.1,0,0,0,0,.1.1,0,0,.1.1.1.2,0,.2,0,.5-.3.9h0c0,.4,0,1.1,0,1.3,0,.8,0,1.1.2,1.4.4.7.2,1.3,0,2.3v.4c0,0,0,0,0,0,0,1.6.4,2.6.7,3.4.2.5.4,1,.4,1.6,0,.4.2.9.3,1.4.2.9.4,2,.5,2.6,0,.2,0,.5.1.9.1,1,.3,2.4.5,4.5,0,0,0,0,0,.1-.2.8-.4,1.7-.6,2.6-.2.9-.4,1.9-.2,2.8,0,0,0,0,0,0,.4-.9.5-2,.7-2.9,0-.2,0-.3.1-.5.1-.7.3-1.3.5-2,0-.2.1-.4.2-.6.6-2,1.5-3.9,2.2-5.9,0-.2-.2-.3-.3-.1-.7.9-1.2,2-1.6,3,.1-.7.2-1.4.2-2.2,0-.5,0-1.6,0-2,0-.7-.2-1.5-.3-2.3-.7-3.4-.7-10.3.4-15.1l.2-1.1c.4-1.7.7-3.3.8-4.9,0-1.4,0-2.5,0-3.6-.1-1.2-.2-2.4,0-3.9.1-1.1.5-2.5.8-4.1h0c.6-2.6,1.1-5.2,1-6.7-.1-.7-.1-1,0-1.2,0-.2,0-.3,0-.5-.1-.6-.3-.8-.5-1.1-.1-.2-.2-.3-.3-.6-.2-.4-.5-.8-.7-1.2-.2-.5-.2-.9-.2-1.1,0,0,.6-.2,1-.3.4,0,.8-.1,1-.2.3,0,1.2-.1,1.6-.1.3,0,.9,0,.9.3,0,.2,0,.6,0,1s0,1,0,1.4c0,.2,0,.3,0,.5,0,0,0,.4,0,.7,0,.4-.2.9-.2,1.2,0,.4,0,.6,0,1.1v.5c0,.4-.3,3.9.3,10.4,0,.7,0,1.3,0,2-.1,1.2-.2,2.8,0,5.3,0,.9,0,1.5-.1,2.4,0,.5,0,1.2,0,1.9,0,.7.4,2.5.5,4.3.1,2.4,0,4.3,0,6.1v.7c-.2,0-.5-.1-.8-.2-.5-.1-.9-.2-1.4-.1-1,.1-2,.7-2.6,1.5,0,0,0,.2,0,.2.9-.3,1.7-.9,2.6-1,.9,0,1.8.5,2.7.5,1,0,1.8-.4,2.8-.3,1,.1,1.7.7,2.3,1.4.2.2.5,0,.4-.2-.2-.9-1-1.5-1.8-1.8-1-.4-2-.2-3,0v-.7c0-1.8,0-6.1,0-6.1,0-1.9.5-3.8.5-4.5,0-.7.1-1.2,0-1.7,0-.9-.2-1.5-.1-2.4.3-2.6.2-4.1,0-5.3,0-.7,0-1.4,0-2,.5-6.5.3-10,.3-10.4v-.5c0-.5,0-.7,0-1.1,0-.2,0-.7-.2-1.2,0-.3,0-.6,0-.7,0-.1,0-.3,0-.5,0-.3,0-.7.2-1.1.2-.3.2-.4.2-.5,0,0,0-.2.1-.4.1-.3.3-.4.6-.4.4,0,3.1,0,3.2.3,0,.2,0,1.4-.2,1.6,0,0-.3.5-.6.9-.1.2-.2.4-.3.6-.2.3-.4.5-.5,1.1,0,.2,0,.3,0,.5,0,.2,0,.5,0,1.2,0,1.5.5,4.1,1,6.6.3,1.6.7,3.1.8,4.2.2,1.5.1,2.7,0,3.9,0,1.1-.1,2.2,0,3.6,0,1.6.4,3.2.8,4.8l.2,1.1c1.1,4.8,1.1,11.7.4,15.1-.2,1.2-.4,2.3-.4,3.2,0-.1.3,3.6.4,4.1,0-.2-.2-.4-.3-.6-.4-.9-.9-1.8-1.5-2.5-.1-.2-.4,0-.3.2.3.9.8,1.7,1.2,2.6.4.9.9,1.7,1.2,2.6.2.5.4,1,.6,1.5h0c.2.4.3.8.4,1.3.2.8.3,1.8.7,2.6,0,0,.2,0,.2,0,.2-.8-.1-1.9-.3-2.7-.2-.9-.5-1.7-.9-2.6.2-1.9.4-3.3.5-4.2,0-.4.1-.8.1-1,0-.7.3-1.7.4-2.6.1-.6.2-1.1.3-1.4,0-.6.2-1.1.4-1.6.3-.9.6-1.9.7-3.4v-.4c-.3-1-.4-1.6,0-2.3.2-.4.3-.8.2-1.5,0-.2,0-.3,0-.5,0-.3,0-.6,0-.7h0c-.3-.4-.4-.8-.3-1,0,0,0-.1.1-.2,0,0,.1,0,.1-.1h0c0-.2,0-.3.1-.3s.1,0,.3.1c.2.2.4.4.5.8v.3q.1,0,.1,0Z"/>
    </g>
  </g>
</svg>