<?xml version="1.0" encoding="UTF-8"?><svg xmlns="http://www.w3.org/2000/svg" viewBox="0 0 300 300"><defs><style>.uuid-0251ccfb-e6dd-4e27-a50b-56fd28975a18{fill:#c3c3c3;}.uuid-4f50aa04-a13e-4f57-98e4-c11dcae6e6b8{fill:#fff;}.uuid-7637bf5b-a78f-4910-ac6a-ff0144d9308f{fill:#9d9d9d;}.uuid-145e459d-4069-4d7a-ada3-21687e5a0df0{fill:#e0e0e0;}.uuid-97d1d6e0-db35-46c1-9221-9a23d3ee6603{fill:#d3d3d3;}.uuid-df0e9407-b1b3-4d2a-8036-8a5b65947a31{fill:#9e9e9e;}.uuid-0b9a105e-b260-4fc9-8a2a-5223117c1045{fill:#565656;stroke:#fff;stroke-miterlimit:10;}.uuid-ebaa6deb-6f1f-42c0-9f63-7dcf0df8abb7{fill:#bebebe;}.uuid-787beea7-b59e-45b5-a577-62f704aba965{fill:#d2d2d2;}.uuid-4b763f9a-0e07-4390-93ff-6263621fb367{fill:#f4f4f4;}.uuid-a414ed27-dd8a-4c94-abe3-61aab68d88fd{fill:#ededed;}</style></defs><g id="uuid-aa57ca23-2f04-43a7-9a96-ec564a2d418f"><path class="uuid-4b763f9a-0e07-4390-93ff-6263621fb367" d="M150.5,53.79C61.07,53.79,1,40.01,1,27.15S61.07.5,150.5.5s149.5,13.78,149.5,26.65-60.07,26.65-149.5,26.65Z"/><path class="uuid-4f50aa04-a13e-4f57-98e4-c11dcae6e6b8" d="M150.5,1.5c40.08,0,77.75,2.86,106.06,8.06,31.29,5.75,42.44,12.85,42.44,17.58s-11.15,11.83-42.44,17.58c-28.31,5.2-65.98,8.06-106.06,8.06s-77.75-2.86-106.06-8.06C13.15,38.98,2,31.88,2,27.15S13.15,15.31,44.44,9.56C72.75,4.36,110.42,1.5,150.5,1.5M150.5-.5C67.38-.5,0,11.88,0,27.15s67.38,27.65,150.5,27.65,150.5-12.38,150.5-27.65S233.62-.5,150.5-.5h0Z"/><path class="uuid-4f50aa04-a13e-4f57-98e4-c11dcae6e6b8" d="M150.5-39c39.82,0,77.39,2.99,105.78,8.41,31.11,5.94,42.2,13.16,42.2,17.93V19.45c-8.75-7.04-28.74-11.73-45.44-14.57C225.05.12,188.63-2.5,150.5-2.5S75.95.12,47.96,4.88C31.26,7.72,11.27,12.41,2.52,19.45V-14.04c0-4.7,11.08-11.69,42.17-17.23,27.94-4.98,65.52-7.72,105.81-7.72M150.5-41C67.38-41,.52-29.31.52-14.04V24.85C6.86,10.66,71.59-.5,150.5-.5s143.64,11.16,149.98,25.35V-12.66c0-15.27-66.86-28.34-149.98-28.34h0Z"/><path class="uuid-a414ed27-dd8a-4c94-abe3-61aab68d88fd" d="M150.5-.5c78.91,0,143.64,11.16,149.98,25.35V-12.66c0-15.27-66.86-28.34-149.98-28.34S.52-29.31.52-14.04V24.85C6.86,10.66,71.59-.5,150.5-.5Z"/><ellipse class="uuid-0b9a105e-b260-4fc9-8a2a-5223117c1045" cx="150.5" cy="25.07" rx="86.67" ry="14.51"/><path class="uuid-4f50aa04-a13e-4f57-98e4-c11dcae6e6b8" d="M213.95,17.75c-17.76-2.46-40.72-3.75-65.57-3.75s-48.11,1.23-65.98,3.75h0v285.25h131.56V17.75Z"/></g><g id="uuid-848fbbb5-f87f-4552-9cd7-e089aea9604e"><g id="uuid-f04b7155-3b4f-48b7-a074-fb48ee7863a0"><path class="uuid-7637bf5b-a78f-4910-ac6a-ff0144d9308f" d="M107.36,162.05c1.3,4.21,3.41,8.5,5.55,12.3,1.12-.48,2.04-.17,2.41.96,1.5-1.03,2.24-2.66,2.22-4.9.86-.53,1.02-.66,1.42-1.35.6-1.04-.79-13.95-1.62-15.61-2.54-2.68-3.08-6.18-1.61-10.5l3.56-18.73c-.15-6.13-.27-12.26-.37-18.39,1.45-6.78,2.43-13.56,2.94-20.35.66-2.06,3.6-1.55,2.37.45,1.07.88.06,8.36-.34,8.65-.18.13-.41.21-.65.26-.77,3.73-2.44,9.48-2.48,13.15-.07,5.82,1.18,11.61.5,17.8-.64,5.82-5.14,19.2-3.82,24.16.23.86,1.33,1.75,1.72,2.73,1.11,2.74,2.73,14.98,1.89,17.49-.4,1.2-1.66,1.34-1.77,1.8-.26,1.14.37,3.15-.44,4.28-.11.15-3.07,1.79-3.25,1.81-.43.05-3.36-.54-3.69-.75-1.14-.71-4.84-11.66-5.93-13.61l-.68-1.64c0-2.1,1.05-3.15,1.05-4.2,0-1.7.75-6.91.88-8.27.16-1.64.19-4.55.26-6.43.32-7.82-1.43-14.57-1.5-21.81-.1-10.53,4-23.76,4.93-34.67.39-4.57-.26-8.36.73-13.13,3.37-16.24,15.17-11.99,25.6-19.38,1.65-1.17,2.07-2.12,2.3-4.13.32-2.74-.39-6.75-1.77-9.14-.41-.71-1.65-1.33-2.42-3-1.12-2.46-2.83-8.61.77-9.21-.28-3.71.05-7.83,2.43-10.84,4.66-5.88,16.14-5.97,20.94-.21,2.5,3,2.99,7.26,2.72,11.05l1.95,1.1c.62,1.72-.42,6.76-1.32,8.46-1.05,1.99-4.24,5.54-4.93,7.93-.75,2.56-.15,6.42,2.19,7.99,9.26,6.2,21.12,4.09,25.11,16.9,1.92,6.16,1.05,13.46,1.78,20.01,1.13,10.21,4.87,22.02,4.38,32.25-.17,3.59-1.31,7.72-1.5,11.37s-.09,11.62.53,14.87c.29,1.52,1.34,3.56,1.98,5.15,2.1,5.25-4.2,15.74-7.27,22.74-.24.54-2.64.56-3.26.5-.18-.02-2.93-1.73-3.07-1.84-1.36-1.16-.39-2.85-.71-4.15-.12-.51-1.18-.47-1.42-1.14-.89-2.56.25-15.39,1.62-18.05.56-1.08,1.94-2.08,2.15-2.8.94-3.1-3.94-20.67-4.34-25.66-.46-5.75.28-11.59.48-17.32l-2.45-12.63c1.44,6.96-4.38,15.27-4.49,21.55-.2,11.48,5.29,27.15,5.46,39.12l-.98,13.62v-2.48c-.81-.57-.97-1.89-.49-3.96l-1.01-1.54.02-14.31-1.07-.64c-1.9-9.62-3.63-20.46-3.73-30.14l.85-.92c-.59-.48-.97-1.04-.69-1.74,2.63-6.1,4.16-12.31,4.6-18.63.79-.93.79-2.07.02-3.43l.51-4.43c-1.05-3.54,5.27-4.73,2.45.05.89,7.15,2.01,14.3,3.36,21.43-2.05,12.04.05,22.51,2.66,34.13l.83,6.18c.37,2.42-.48,3.67-2.26,5.14-.93,1.79-2.43,15.22-1.47,16.14,1.8-.02,2.23,1.5,1.27,4.56,1.13-1.25,2.57-.47,2.38,1.14.57-.99,1.19-1.57,2.36-.99l5.53-12.15c1.74-2.32,2.35-7.91-1.11-10.41-1.88-9.39-1.4-19.38.2-28.88-.48-9.79-1.84-19.56-4.08-29.32l-1.17-17.65c-.68-6.22-3.88-11.66-10.04-13.71l-10.34-3.6c-4.1-1.84-8.11-3.87-7.9-8.93-4.39,4.29-10.19,3.48-14.23-.83.66,5.75-3.76,7.94-8.26,9.93l-11.16,4c-6.23,2.5-8.67,8.67-9.02,15.06.34,10.51-1.56,20.96-3.68,31.33-1.04,10.11-1.02,20.27.06,30.47.32,4.1.02,8-.89,11.69"/><path class="uuid-df0e9407-b1b3-4d2a-8036-8a5b65947a31" d="M122.05,95.67c1.05-2.1,52.02,70.5,52.02,70.5,0,.83,0,1.65,0,2.48,0,13.31-2.56,23.42-5.28,36.05-3.61,16.75,1.88,31-.69,46.85-1.04,6.44-4.69,13.53-6.22,20.01-.55,2.34-1.82,5.4-.89,7.3.72,1.48,1.49,7.45,1.98,9.11.88,2.95,2.1,7.34-1.05,8.39s-9.44,1.05-10.49-1.05c-.66-1.33-1.31-16.08-1.05-18.89.24-2.6,2.12-1.78,2.42-4.07,1.4-10.66-2.62-23.67-1.95-34.15.25-3.99,2.06-9,2.01-12.83-.02-1.6-.86-3.77-1-5.48-.78-9.92-.87-19.81-1.47-29.73-.39-6.5-1.54-13-1.51-19.54l-1.47,13.62c.83,13.49-2.53,28.01-2.76,41.1-.07,3.86,1.46,8.09,1.75,11.89.79,10.36-2.47,22.88-1.99,33.68.15,3.28,2.43,3.83,2.8,6.55.31,2.22-1.05,12.59-.34,16.37.31,1.65-1.02,2.56-2.66,2.78-1.94.26-5.86.3-7.65-.04-.46-.09-3.2-1.59-3.26-1.8-1.18-4.71,3.42-12.06,3.42-16.26,0-1.15.12-3.88,0-5.25-.57-6.69-4.88-11.26-6.46-17.86-4.13-17.22,2.21-33.34-1.77-51.22-3.75-16.85-6.95-35.15-5.77-52.64.73-10.93,4.98-24.64,4.96-35.17,0-5.46-4.89-15.44-5.65-20.72Z"/><path class="uuid-97d1d6e0-db35-46c1-9221-9a23d3ee6603" d="M144.82,14.73c7.68-1.39,15.6,1.45,16.36,10.1.26,2.96-1.56,16.44-2.8,18.86-.34.68-3.92,4.78-4.57,5.32-2.45,2.05-6.11,2.24-8.84.5-.66-.42-4.64-5.05-5.06-5.82-1.49-2.75-3.19-16.07-2.86-19.41.42-4.18,3.41-8.76,7.76-9.55Z"/><path class="uuid-ebaa6deb-6f1f-42c0-9f63-7dcf0df8abb7" d="M174.08,166.16c-.62,5-1.31,10.27-1.97,15.35l.48-17.1,1-2.22c0,.11.67.76.51,1.21l-.02,2.75Z"/><path class="uuid-787beea7-b59e-45b5-a577-62f704aba965" d="M189.39,150.06c.09-5.31-.79-10.54-.53-15.86.22-4.47,1.56-9.34,1.5-13.84-.12-9.25-3.42-19.47-4.38-28.8-1.16-11.28,1.67-25.22-11.29-30.28-4.52-1.76-13-3.62-16.44-7.28-1.93-2.05-1.42-4.63-1.46-7.21-2.85,4.16-7.28,6.04-12.01,3.38l-4.28-3.88c-.08,3.49.83,5.99-2.22,8.42-7.65,6.08-19.92,4.46-24.18,14.37-2.99,6.94-1.71,12.06-2.23,19.06-.6,8.02-2.89,15.89-3.87,23.85-1.41,11.41.91,20.86.44,32.14-.06,1.58-.04,4.12-.16,5.37-.14,1.53-1.17,9.99-1.97,11.49l.13.7c1.94,4.83,3.53,11,6.91,14.86l.49-1.98,1.25,2.47c1.01.23,1.26-1.28,1.25-1.97h1.72s.19-4.2.19-4.2l1.55-.54c.52-2.69-.38-14.32-1.41-16.92-.61-1.54-1.95-2.31-2.33-3.12-1.03-2.22,3.82-21.7,4.19-26,.5-5.86-.83-12.22-.42-17.76.3-4.1,1.72-8.83,2.34-13,.32-2.19.14-5.91.62-7.8.44-1.72,1.25.09,1.42.18.98,3.44-1.12,8.69-1.12,9.73,0,2.1.99,4.37,1.25,5.21,2.79,9.11,4.84,12.08,3.82,22.2-.74,7.29-2.6,14.51-3.46,21.79-2.04,17.36-.58,34.47,2.96,51.51.17.82.32,1.65.49,2.48.33.48.62.97.89,1.48-.27-.17-.56-.32-.89-.43,1.19,5.5,3.27,10.95,3.48,16.57.36,9.78-2.65,19.4-2.02,29.76.85,13.81,9.45,20.37,7.66,34.15-.75,1.81-5.79,13.87-2.64,14.92l2.1,1.05c2.1.2,9.4.73,9.44-2.1.23-13.33,1.05-17.84-1.05-18.89-.36-.18-.74-.52-1.12-.96-.3-.81-.55-1.56-.55-2.01v-7.92c0-.64.44-2.45.49-3.71.26-6.55,1.52-13.93,1.51-20.06,0-4.1-1.36-8.27-1.51-12.63-.42-12.46,1.61-29.43,2.47-42.34.43-6.51,1.5-13.02,1.48-19.57,2.11-.34.25,2.47.47,3.63.07.35.9.27.99.67.41,1.65,3.2,26.16,2.48,35.07.05,6.23,2.01,13.82,2.02,19.82,0,4.85-1.9,10.47-1.92,15.35-.04,9.97,2.8,20.75,1.89,31.22-.29,3.29-2.08,2.06-2.43,5.25-.37,3.3-.27,11.73.01,14.99,0,0-.19,2.37,1.05,3.15s7.34,2.1,10.49,0c1.41-1.56-1.87-14.25-2.75-15.7-.63-1.04-.28-1.75-.47-2.25.55-2.16.24-.28.54-2.44,1.12-7.86,4.9-15.11,6.37-23.08.18-1.01.99-3.58.99-4.21v-12.88c0-.6-.42-2.54-.49-3.71-.53-8.83-1.93-14.46.15-23.38,2.13-9.14,3.56-16.81,4.79-26.15.53-6.48,1.02-12.92,1.48-19.32-.05-5.85-.39-10.23-.99-15.85-.81-7.62-4.76-25.55-3.95-31.7.57-4.34,3.26-9.19,4.21-13.35.53-2.34.61-4.59.61-6.68,0-.36,0-5.42-.3-7.69.03-.18.01-.35-.08-.5.67-.53,1.36-2.18,2.46-2.48.03,1.15-.98,1.38-1.01,2.7-.14,6.75,3.31,15.49,3.38,21.82.05,4.57-1.3,9.55-.88,14.85.39,4.89,5.47,24.66,4.18,27.49-.3.66-1.45,1.22-1.93,2.03-.91,1.56-1.66,8.94-1.76,11.11-.09,1.97-.84,7.89,1.97,6.18.18,1.49-1.1,3.66-.26,4.97,1.07,1.67,1.41-.88,2.23-1.01l-.3,1.95,1.04,1.02,1.73-2.47.74,1.97,6.66-14.62s1.26-4.21-.04-7.23c-.81-1.89-1.61-3.08-1.91-4.65ZM136.79,193.77c-.29.13-.57.28-.84.45l-1.35.23c-.01-.08-.04-.15-.05-.22.29.08.59.08.88.04.4-.16.87-.34,1.36-.49Z"/><path class="uuid-7637bf5b-a78f-4910-ac6a-ff0144d9308f" d="M133.6,31.66c1.05,8.39,5.25,17.07,8.39,19.17.85.57,1.62-.07,2.33.23,1.94.82,2.43.82,3.96.82.91,0,2.1-1.05,4.2,0,.83.41,2.28-.68,3.15-1.05,1.09-.47,2.49-.06,3.15-1.05,1.3-1.95,6.3-12.88,6.3-19.17s-2.1-7.34-3.15-10.49c-.74-2.23-5.2-6.63-12.57-6.63s-16.81,3.48-15.76,18.17Z"/><path class="uuid-0251ccfb-e6dd-4e27-a50b-56fd28975a18" d="M126.25,162.05s5.58,4.89,8.39,6.3c4.2,2.1,10.26,2,13.52-2.15,0,0,5.36,3.2,11.66,3.2,4.33,0,10.49-8.39,10.49-8.39,0,0-4.95,5.19-10.49,6.3-5.25,1.05-11.54-3.15-11.54-3.15,0,0-.26,1.9-5.25,3.15-4.2,1.05-8.39,0-10.49-1.05s-6.3-4.2-6.3-4.2Z"/><path class="uuid-0251ccfb-e6dd-4e27-a50b-56fd28975a18" d="M134.64,137.92c2.1,0,13.64-3.15,13.64,6.3,0-8.39,11.54-6.3,14.69-6.3-5.25-2.1-14.69-1.05-14.69-1.05-10.49-2.1-13.64,1.05-13.64,1.05Z"/><path class="uuid-0251ccfb-e6dd-4e27-a50b-56fd28975a18" d="M146.19,63.42s3.15,3.15,3.15,32.53c0,12.59,1.05,38.82-4.2,40.92,0,0,2.1,1.05,4.2,1.05s2.1,0,4.2-1.05c-3.15,1.05-4.2-15.74-3.15-39.87.46-10.48-2.1-27.28,4.2-33.58,0,0-3.15,1.05-4.2,1.05s-4.2-1.05-4.2-1.05Z"/><path class="uuid-df0e9407-b1b3-4d2a-8036-8a5b65947a31" d="M139.89,274.36s1.05-.54,2.1-.54,2.07.58,2.07.58c0,0-1.02-1.12-2.07-1.12s-2.1,1.09-2.1,1.09Z"/><path class="uuid-df0e9407-b1b3-4d2a-8036-8a5b65947a31" d="M152.53,274.44s1.05-.54,2.1-.54,2.07.58,2.07.58c0,0-1.02-1.12-2.07-1.12s-2.1,1.09-2.1,1.09Z"/><path class="uuid-145e459d-4069-4d7a-ada3-21687e5a0df0" d="M144.09,14.11s-7.46,4.59-7.89,12.79c-.44,8.2,4.64,18.81,4.64,18.81-1.44-5.37-4.19-13.83-4.1-16.91s2.1-11.54,7.34-14.69Z"/><path class="uuid-0251ccfb-e6dd-4e27-a50b-56fd28975a18" d="M145.44,13.85s-6.17,3.61-6.6,11.8,4.4,17.7,4.4,17.7c-2.3-7.21-3.45-12.52-3.35-15.6s-.82-7.6,5.55-13.9Z"/><path class="uuid-145e459d-4069-4d7a-ada3-21687e5a0df0" d="M153.38,13.85s7.62,5.69,7.49,13.9c-.16,10.49-8.39,22.03-8.39,22.03,6.3-10.49,6.74-15.86,7.34-18.89,1.05-5.25-.07-10.75-6.44-17.05Z"/><path class="uuid-145e459d-4069-4d7a-ada3-21687e5a0df0" d="M148.28,14.11s-2.17,9.68-2.14,17.89,4.4,17.7,4.4,17.7c-2.3-7.21-2.27-9.36-3.31-13.55-.75-2.99,0-15.74,1.05-22.03Z"/><path class="uuid-0251ccfb-e6dd-4e27-a50b-56fd28975a18" d="M151.43,40.34s4.2-8.39,4.2-11.54-4.62-15.06-4.2-13.64c3.15,10.49,3.15,11.54,3.15,13.64s-1.05,7.34-3.15,11.54Z"/></g></g></svg>