<?xml version="1.0" encoding="UTF-8"?>
<svg id="Layer_1" xmlns="http://www.w3.org/2000/svg" version="1.1" viewBox="0 0 120 120">
  <!-- Generator: Adobe Illustrator 29.5.1, SVG Export Plug-In . SVG Version: 2.1.0 Build 141)  -->
  <defs>
    <style>
      .st0 {
        fill: #ede9c8;
      }
    </style>
  </defs>
  <g id="Layer_11" data-name="Layer_1">
    <path class="st0" d="M118.1,32.7v.4c-.1,1.5-1.4,3.1-3.6,4.5-3.6,2.3-9.7,4.2-16.6,5.7-4.2.8-8.8,1.5-13.6,2.1l-.4-2.7c3.2-.5,6.1-1.2,8.5-2,2.7-.9,4.8-1.9,6.1-3,1.7-1.5,1.6-3,0-4.5-.4-.3-.9-.7-1.4-1-3.3-1.9-9.4-3.6-17.6-4.6,0,0,0,0,0,0-.4,0-.9-.1-1.4-.2-5.4-.6-11.4-1-17.9-1s-12.6.4-18,1c-.5,0-1.1.1-1.6.2-2.7.3-5.2.8-7.4,1.2-5.6,1.2-9.5,2.7-11.4,4.4-.3.3-.6.6-.8.8-.9,1.2-.6,2.5.7,3.7,1.9,1.7,5.6,3.1,10.4,4.2,1.3.3,2.7.6,4.2.8l-.4,2.7c-7.4-.8-14.4-2-20-3.6-4.2-1.2-7.8-2.5-10.2-4.2-2.3-1.5-3.5-3-3.6-4.5,0,0,0-.2,0-.3,0-1.2.7-2.4,2-3.6,3.7-3.2,12.2-6.1,24.9-8,9-1.4,19.7-2.1,31.2-2.1,17.2,0,32.3,1.7,42.8,4.5,9.5,2.4,14.6,5.5,15.2,8.6,0,.2,0,.3,0,.5Z"/>
    <path class="st0" d="M118.1.2v30.5c0-.2,0-.3,0-.5-.6-3.1-5.8-6.2-15.2-8.6-10.5-2.7-25.5-4.4-42.8-4.4s-22.2.8-31.2,2.1c-12.7,1.9-21.2,4.8-24.9,8-1.4,1.2-2,2.4-2,3.6V.2S118.1.2,118.1.2Z"/>
    <path class="st0" d="M95.2,37.6c-1.8,1.8-6.1,3.3-11.5,4.4l-.2-1c3.6-.9,6.2-2,7.4-3.3,1.4-1.6.4-3.1-2.5-4.5-.8-.4-1.8-.8-3-1.1-.3-.1-.6-.2-1-.3-1-.3-2.1-.5-3.2-.8-.6-.1-1.3-.2-2-.4-5.3-.9-11.9-1.5-19.2-1.5s-14.2.6-19.5,1.5c-.6.1-1.1.2-1.7.3-.4,0-.8.2-1.1.2-.3,0-.5.1-.8.2-.3,0-.7.2-1,.2-.2,0-.5.1-.7.2-.2,0-.4.1-.6.2-1.2.4-2.2.7-3,1.1-3,1.4-3.9,3-2.5,4.5,1.2,1.3,3.8,2.5,7.4,3.3l-.2,1c-5.4-1.1-9.7-2.6-11.5-4.4-1.5-1.5-1.1-3.1.9-4.5.7-.5,1.7-1,2.8-1.5.2-.1.5-.2.7-.3,1-.4,2.1-.7,3.3-1,.6-.2,1.2-.3,1.9-.5,1.3-.3,2.8-.6,4.4-.8.5,0,1.1-.2,1.7-.3,5.4-.8,12-1.2,19.5-1.2s13.9.4,19.3,1.2c.7,0,1.3.2,1.9.3,0,0,0,0,0,0,.4,0,.7.1,1.1.2.4,0,.7.1,1.1.2.3,0,.6.1.8.2.3,0,.6.1.9.2,1.1.2,2.2.5,3.2.8.2,0,.3,0,.5.1.2,0,.4.1.6.2.5.1.9.3,1.3.5.2,0,.4.1.6.2.3.1.6.2.8.3.2,0,.4.2.6.2.6.3,1.2.6,1.6.9,2,1.4,2.4,3,.9,4.5h0Z"/>
    <path class="st0" d="M118.1,32.7v.4h-19.7c-.4-.3-.9-.7-1.4-1-3-1.8-8.4-3.3-15.7-4.4-.6,0-1.2-.2-1.9-.2,0,0,0,0,0,0-.4,0-.9-.1-1.4-.2-5.4-.6-11.4-1-17.9-1s-12.6.4-18,1c-.5,0-1.1.1-1.6.2-.6,0-1.1.1-1.7.2-2.1.3-4,.6-5.8,1-5.6,1.2-9.5,2.7-11.4,4.4H1.9v-.3c0-1.2.7-2.4,2.1-3.6,3.7-3.2,12.2-6.1,24.9-8,9-1.4,19.7-2.1,31.2-2.1,17.2,0,32.3,1.7,42.8,4.5,9.5,2.4,14.6,5.5,15.2,8.6,0,.2,0,.3,0,.5Z"/>
    <path class="st0" d="M80.5,32.5v87.7h-41.1V32.5c.5-.1,1.1-.2,1.6-.3,5.1-.9,11.7-1.5,18.9-1.5s13.6.5,18.7,1.4c.7.1,1.3.2,1.9.4h0Z"/>
  </g>
</svg>